<svg width="117" height="307" viewBox="0 0 117 307" fill="none" xmlns="http://www.w3.org/2000/svg">
<path fill-rule="evenodd" clip-rule="evenodd" d="M26.3533 37.6467C30.2407 27.9409 41.6005 9.15052 47.2297 3.1085C49.6529 0.508806 52.1274 -0.491706 54.3541 0.225874C60.984 2.36221 76.9543 26.6635 82.1928 42.5856C89.0467 63.418 96.6668 99.9285 100.327 129.474C100.887 133.985 102.395 144.133 103.682 152.027C111.159 197.925 114.681 230.852 114.681 254.84C114.681 267.262 115.11 273.8 115.873 272.99C117.406 271.36 117.379 275.393 115.768 288.316C114.633 297.427 113.899 299.223 109.859 302.77C103.941 307.963 99.3438 307.881 90.6456 302.423C85.3369 299.092 82.493 295.67 78.9034 288.291C73.1455 276.455 72.389 270.762 74.2845 253.513C75.0899 246.184 75.7725 236.792 75.7999 232.64C75.9059 217.042 63.0141 194.057 54.1587 194.057C46.0228 194.057 33.1513 207.409 31.9111 221.257C31.6478 224.198 31.1783 235.627 30.8674 246.653C30.2169 269.778 26.5141 288.898 20.5298 300.032C13.3578 313.38 2.89642 306.703 0.464834 287.225C-0.298834 281.113 -0.12493 270.487 1.01164 253.754C1.92661 240.269 2.67954 222.646 2.68431 214.586C2.69503 195.021 6.72311 150.139 10.4819 119.43C14.3789 87.5902 21.9273 48.6974 26.3533 37.6467ZM43.011 14.3581C29.7022 33.0172 24.1243 48.1786 18.7643 80.2688C12.1915 119.623 5.1505 181.242 5.10046 213.899C5.08616 222.849 4.51187 239.134 3.82326 250.086L2.57121 269.999L6.84104 278.293C9.19042 282.854 10.8297 287.209 10.4842 287.973C10.1387 288.737 8.84849 286.796 7.61781 283.655C4.56552 275.872 2.08506 281.508 4.27242 291.256C5.4483 296.497 6.7672 297.89 11.1395 298.523C15.6572 299.176 17.0678 298.164 19.6745 292.4C25.3133 279.932 27.5375 266.906 28.0974 243.096C28.8611 210.561 32.1457 202.717 44.735 193.136C53.1484 186.733 54.1908 186.711 61.6655 192.792C72.7 201.77 79.6921 220.015 78.4519 236.599C78.0516 241.954 77.4095 252.796 77.0259 260.689L76.3277 275.041L81.2778 284.718C85.3523 292.681 87.6064 295.108 94.0041 298.411C101.625 302.346 101.88 302.35 106.97 298.594L112.162 294.764L111.646 262.35C111.361 244.523 110.54 224.861 109.82 218.659C107.959 202.624 103.002 166.338 100.858 153.052C99.8572 146.85 97.2672 129.712 95.1037 114.967C91.109 87.7583 84.0024 57.3309 77.5762 39.9245C74.1987 30.7743 65.3707 16.4903 58.4309 8.9496C53.3652 3.44473 49.9364 4.64821 43.011 14.3581ZM44.4264 140.775C36.0404 134.799 37.1424 108.117 46.5673 88.9823C49.236 83.5615 53.339 84.6276 60.6064 92.6276C71.8911 105.05 72.9776 118.596 63.8028 132.494C57.6911 141.751 50.2534 144.931 44.4264 140.775ZM41.8816 127.883C41.4849 113.534 43.5174 102.157 47.9183 94.1079C49.305 91.5697 51.1636 89.4949 52.0464 89.4949C55.0773 89.4949 65.1991 102.821 66.3035 108.267C68.5969 119.576 62.2564 133.183 53.0245 136.767C47.58 138.881 42.0639 134.483 41.8816 127.883Z" fill="#39FF14"/>
</svg>
