<svg width="130" height="311" viewBox="0 0 130 311" fill="none" xmlns="http://www.w3.org/2000/svg">
<path fill-rule="evenodd" clip-rule="evenodd" d="M18.0653 1.33945C11.8047 4.09707 3.52727 9.99736 3.52727 11.704C3.52727 15.4231 5.22711 15.4148 10.0727 11.6727C17.275 6.10961 38.6004 2.5091 45.4009 5.70794C55.7859 10.5884 70.5337 26.0332 76.799 38.5871C78.1305 41.2574 80.4466 45.8756 81.9438 48.8518C90.0914 65.0458 92.2644 92.0788 86.917 110.708C83.7414 121.765 83.0727 122.671 75.0491 126.744C71.5684 128.513 69.679 130.648 69.6671 132.827C69.6576 134.675 68.9018 137.76 67.9887 139.681C66.929 141.91 66.7431 143.895 67.4726 145.169C68.2021 146.443 70.7495 144.773 74.5151 140.549C79.0126 135.504 81.6148 134.009 85.4758 134.257C93.9953 134.802 108.594 150.151 114.254 164.512C118.679 175.742 124.818 207.743 125.818 224.797C126.787 241.305 124.959 248.86 115.842 266.055C109.604 277.818 108.915 278.492 96.0873 285.348C78.3272 294.84 55.5988 302.782 41.3957 304.456C29.7508 305.827 18.5397 304.506 15.6848 301.425C13.8455 299.442 10.5555 254.261 7.17846 184.621C5.87318 157.721 4.83254 134.307 4.86473 132.59C4.89691 130.873 4.3152 114.952 3.57137 97.2091C2.82755 79.4666 2.29113 60.2673 2.37934 54.5439C2.75841 29.8398 2.30067 18.1225 0.95844 18.1225C-1.33503 18.1225 0.790364 125.318 4.1364 178.377C5.11148 193.83 6.41079 218.18 7.02468 232.489C7.63739 246.797 8.81154 269.052 9.63166 281.943L11.1253 305.38L15.9685 307.896C22.6474 311.363 44.9444 310.71 57.1687 306.687C86.9241 296.895 106.012 287.204 113.233 278.226C121.478 267.978 129.806 244.175 129.856 230.718C129.914 215.587 121.282 171.765 115.348 157.061C112.19 149.236 97.6357 133.148 91.1237 130.284C88.1829 128.992 85.7774 127.51 85.7774 126.989C85.7774 126.471 87.2531 121.666 89.0555 116.311C91.9939 107.582 92.3276 104.635 92.2728 87.8436C92.2203 72.1511 91.7066 67.2311 89.1032 57.5159C84.6676 40.9639 71.6077 20.3848 58.4322 9.1836C48.5312 0.767116 47.8398 0.496579 35.1161 0.0574398C27.9043 -0.190226 20.2312 0.386243 18.0653 1.33945ZM31.3505 49.7883C28.6231 52.1817 25.8075 56.3816 25.0923 59.1226C20.2789 77.5685 30.5256 99.1571 42.2683 95.311C52.4196 91.9852 58.8113 81.7893 58.6074 69.2478C58.4942 62.336 54.3281 54.8166 48.5264 51.0579C46.7229 49.8903 45.2484 48.088 45.2484 47.0557C45.2484 43.6279 36.3832 45.3699 31.3505 49.7883ZM32.5103 55.4805C27.0186 61.3266 25.8719 66.126 27.6742 75.7287C29.6137 86.0683 35.668 92.2245 41.894 90.1849C50.926 87.2254 58.2677 73.019 55.259 64.3195C53.5079 59.2579 44.1874 51.42 39.9295 51.4304C37.9376 51.4346 34.5987 53.2577 32.5103 55.4805ZM53.7857 177.395C49.8389 180.387 43.7583 190.304 41.6472 197.189C39.5552 204.014 40.0153 222.772 42.5174 232.645C45.3497 243.825 51.7747 257.151 55.5344 259.647C59.2762 262.13 72.6031 255.382 78.8279 247.855C90.8149 233.357 91.1129 214.42 79.729 190.681C72.0702 174.708 63.2707 170.202 53.7857 177.395ZM56.2651 180.529C54.7846 181.567 51.3146 186.207 48.5539 190.837C43.8453 198.738 43.5175 200.038 43.2398 211.931C42.9084 226.156 45.0088 235.453 51.4529 248.265C55.0004 255.32 55.6333 255.77 60.8044 254.902C67.6335 253.757 76.2936 246.645 81.1178 238.225C84.4793 232.354 84.7082 231.024 84.2409 220.014C83.1526 194.346 67.686 172.516 56.2651 180.529Z" fill="#39FF14"/>
</svg>
