<svg width="1440" height="467" viewBox="0 0 1440 467" fill="none" xmlns="http://www.w3.org/2000/svg">
<path d="M1440 467H0V0H1440V467ZM242.403 107.503C237.816 107.031 229.561 106.854 220.938 110.872C203.189 119.142 168.731 146.379 145.14 207.419C141.296 217.364 139.047 225.657 137.851 232.433C136.79 238.438 136.221 245.096 137.224 251.135C140.029 268.024 155.994 279.442 172.884 276.637C172.93 276.629 172.976 276.619 173.022 276.611C158.865 309.708 143.415 345.047 133.531 367.945C126.097 385.17 121.836 395.305 119.563 401.431C118.529 404.22 117.198 408.004 116.487 411.962C115.44 417.797 115.689 424.052 118.082 430.402C124.529 447.512 140.206 452.338 146.871 453.698C165.409 457.483 181.154 451.457 196.035 442.296C210.048 433.669 227.9 419.345 252.321 399.014C265.479 388.059 267.266 368.513 256.312 355.355C245.357 342.198 225.81 340.411 212.652 351.365C210.292 353.33 208.026 355.209 205.851 357.007C220.727 322.731 239.035 280.421 251.148 250.693C267.408 210.793 274.771 190.575 276.873 174.078C278.021 165.066 278.998 155.608 278.663 147.594C278.498 143.649 277.962 137.896 275.769 131.963C273.511 125.856 268.346 116.719 257.404 111.59L256.879 111.349L256.044 110.984C251.838 109.201 247.128 107.989 242.403 107.503ZM1340.52 39.582C1329.51 38.2736 1309.41 37.1257 1294.66 38.9434C1257.79 43.485 1144.23 64.1295 1058.55 120.63C1057.53 120.372 1056.22 119.988 1054.6 119.415C1046.6 116.591 1036.3 111.169 1025.26 104.34C1014.51 97.6908 1004.33 90.5077 996.74 84.9678C992.939 82.1933 989.927 79.9349 987.651 78.2432C986.643 77.4939 985.463 76.6185 984.513 75.9521C984.328 75.8229 982.963 74.8489 981.326 73.9287C980.847 73.6592 979.809 73.0879 978.441 72.4922C978.097 72.3421 973.645 70.25 967.606 69.9395C964.657 69.7878 956.189 69.7381 947.83 75.7871C937.661 83.1459 934.97 93.9146 935 101.041C935.025 107.029 936.795 111.455 937.476 113.055C938.342 115.093 939.251 116.617 939.766 117.437C942.409 121.643 945.898 124.995 949.871 127.414C950.103 127.585 950.367 127.781 950.667 128.004C952.724 129.533 956.1 132.064 960.188 135.048C968.379 141.026 979.99 149.238 992.646 157.067C1005.01 164.716 1019.73 172.854 1033.96 177.878C1041.06 180.387 1049.38 182.608 1058.04 183.051C1066.65 183.49 1078.15 182.272 1088.73 175.039C1161.59 125.206 1265.15 105.204 1301.07 100.625C1288.31 110.364 1268.47 123.894 1237.67 143.876C1223.3 153.194 1219.21 172.391 1228.53 186.754C1237.85 201.117 1257.05 205.207 1271.41 195.89C1303.11 175.326 1325.07 160.407 1339.97 148.926C1353.82 138.252 1365.89 127.457 1372.18 114.404C1374.68 109.219 1377.18 103.448 1378.91 97.5557C1380.55 91.9547 1382.24 83.8216 1380.81 74.8047C1379.18 64.4515 1373.71 54.8649 1364.44 48.2402C1356.33 42.4374 1347.38 40.3971 1340.52 39.582Z" fill="#414140"/>
</svg>
