<svg width="94" height="309" viewBox="0 0 94 309" fill="none" xmlns="http://www.w3.org/2000/svg">
<path fill-rule="evenodd" clip-rule="evenodd" d="M40.0554 4.88014C20.8645 20.3243 9.09889 52.239 4.74186 100.666C0.843339 144.01 0.106872 160.44 0.0165955 206.217C-0.0713054 250.79 0.109242 255.139 2.58353 267.842C5.61967 283.436 11.0945 293.112 20.564 299.628C23.5835 301.706 27.7386 304.629 29.7972 306.125C35.7958 310.486 53.2465 309.753 59.4792 304.88C65.8864 299.872 76.5105 281.454 81.5636 266.595C83.6994 260.316 86.1463 255.168 87.0016 255.156C87.8568 255.143 88.2856 254.423 87.953 253.556C87.6216 252.689 88.0315 249.86 88.863 247.27C92.9278 234.617 94.5029 206.384 91.9668 191.638C90.3656 182.33 87.181 178.139 80.8331 176.982C76.5972 176.211 74.7656 176.894 71.7413 180.371C67.7359 184.977 64.6593 194.402 64.6593 202.066C64.6593 207.08 57.657 230.428 54.4224 236.202C51.3851 241.621 48.5082 240.579 42.7198 231.962C34.4963 219.721 30.2426 195.298 29.3802 155.382C28.051 93.8487 37.0882 55.0301 52.0064 58.1857C54.521 58.7171 57.8078 61.019 59.3116 63.2999C63.0403 68.9569 67.7929 84.215 68.7883 93.7202C70.5226 110.306 77.7922 116.6 86.296 108.88C88.8974 106.519 91.6936 102.422 92.512 99.7724C94.4922 93.3596 93.5324 69.1641 91.2422 67.7446C90.3406 67.1863 89.6042 65.0992 89.6042 63.1061C89.6042 56.7201 84.6782 35.8261 80.5492 24.6961C77.955 17.7058 74.3427 11.4522 70.2945 6.95187C64.4657 0.468035 63.4418 0 55.0829 0C47.862 0 44.941 0.949552 40.0554 4.88014ZM21.9182 36.0639C28.0807 22.5783 38.548 9.40923 45.7642 6.05989C47.9902 5.02785 52.4839 4.10897 55.7505 4.01689C69.3668 3.6409 82.173 28.2737 86.6298 63.4188C89.0064 82.1601 89.007 82.1611 89.9653 83.7105C91.0509 85.4619 90.9951 94.4108 89.8833 96.9391C87.7119 101.877 81.8582 107.424 78.8209 107.424C74.5517 107.424 72.0276 101.696 71.05 89.7839C70.6366 84.7522 69.564 79.6514 68.6659 78.4487C67.7691 77.2459 67.035 75.176 67.035 73.8505C67.035 72.525 64.9504 67.969 62.4012 63.7296C54.5769 50.7082 45.2547 50.4684 38.1846 63.1061C32.907 72.5384 29.834 86.0489 27.2278 111.261C23.8496 143.933 25.8963 186.769 32.2477 216.384C36.1842 234.734 47.3904 248.552 54.2455 243.508C57.8078 240.886 66.5017 213.266 67.6468 200.936C68.7028 189.566 73.2023 182.251 79.3744 181.877C85.5156 181.503 88.0303 186.249 89.4783 200.941C90.836 214.711 89.2799 235.404 86.6417 238.688C85.7306 239.819 83.6423 246.578 82.0007 253.704C78.8078 267.566 74.3154 277.894 66.0159 290.459C58.182 302.319 55.8681 303.716 43.872 303.823C33.9309 303.914 32.5577 303.43 24.2725 296.921C8.25435 284.335 5.07448 275.693 2.62276 238.085C1.66179 223.33 1.69029 209.397 2.73678 184.373C6.64956 90.7277 10.4839 61.0804 21.9182 36.0639Z" fill="#39FF14"/>
</svg>
