<svg width="207" height="203" viewBox="0 0 207 203" fill="none" xmlns="http://www.w3.org/2000/svg">
<path d="M101.441 91.1362C98.4885 92.2977 94.3772 97.4674 93.6002 100.994C92.7517 104.847 95.4119 110.994 98.4289 112.148C102.935 113.873 108.643 112.872 111.702 109.822C115.945 105.591 115.076 98.2779 109.768 93.5485C106.103 90.2829 104.667 89.8664 101.441 91.1362Z" fill="white"/>
<path fill-rule="evenodd" clip-rule="evenodd" d="M94.7949 56.932C93.4821 57.4866 89.9495 58.5648 86.9433 59.3288C78.791 61.402 68.827 69.8408 64.6214 78.2345C61.7524 83.96 61.1198 86.7853 60.9707 94.5601C60.6663 110.363 68.3043 129.854 77.0891 135.699C97.1781 149.06 114.64 151.478 131.379 143.214C142.69 137.63 152.255 122.958 153.475 109.324C155.129 90.8304 144.042 70.0217 128.278 62.0315C119.031 57.345 100.502 54.5233 94.7949 56.932ZM108.519 73.1897C108.519 72.3008 111.338 69.6576 114.785 67.3143C118.231 64.971 121.47 63.0193 121.982 62.9788C123.738 62.8384 124.302 66.5027 122.803 68.3033C120.88 70.6156 121.88 71.5474 127.908 73.0553C133.799 74.5286 134.721 76.2851 130.589 78.1619C126.126 80.1898 118.067 81.2883 118.067 79.8697C118.067 79.2151 120.184 78.3416 122.772 77.9287C131.258 76.5755 129.661 74.0407 120.772 74.7559C116.755 75.0784 115.458 73.8705 116.912 71.1618C118.654 67.9177 116.626 68.2914 113.293 71.8295C110.169 75.1462 108.519 75.6163 108.519 73.1897ZM76.1738 81.2395C78.3971 83.2448 78.5487 83.2293 79.8245 80.8539C80.556 79.49 81.4905 78.3749 81.9022 78.3749C83.5468 78.3749 93.0047 84.5003 93.0047 85.5654C93.0047 87.4922 89.9102 86.8341 86.5387 84.1897C82.049 80.6682 81.4141 82.1832 85.2689 87.222L88.5138 91.4659H85.5171C83.8678 91.4659 82.2185 90.6852 81.8521 89.7319C81.4845 88.7775 78.9485 86.5901 76.2167 84.8704C72.6281 82.6104 71.6101 81.3823 72.5505 80.4445C73.4921 79.5055 74.497 79.7269 76.1738 81.2395ZM134.899 85.8677C133.367 87.3958 131.814 86.2152 132.948 84.3849C133.387 83.6768 134.293 83.434 134.961 83.8457C135.776 84.348 135.756 85.0132 134.899 85.8677ZM125.227 87.8956C123.258 87.8956 121.647 87.3601 121.647 86.7055C121.647 86.051 123.258 85.5154 125.227 85.5154C127.197 85.5154 128.808 86.051 128.808 86.7055C128.808 87.3601 127.197 87.8956 125.227 87.8956ZM92.3519 110.399C88.5664 103.099 91.0511 91.6896 97.0779 88.6906C101.535 86.4735 103.524 86.333 108.043 87.9206C116.231 90.7982 119.962 105.604 114.186 112.299C108.862 118.472 95.9561 117.349 92.3519 110.399ZM80.5572 102.177C75.4458 102.177 70.3988 94.1733 73.5375 91.0446C74.9791 89.6058 76.8922 90.9993 76.9316 93.5164C76.9757 96.2857 79.692 100.051 81.0453 99.2169C81.5394 98.9122 81.685 97.3116 81.3676 95.6597C80.6145 91.7313 83.172 91.7027 84.1602 95.6288C85.2331 99.8928 83.9776 102.177 80.5572 102.177ZM126.26 96.4214C127.254 99.1014 127.306 99.0824 129.264 95.3074C131.32 91.3421 132.06 90.9577 135.274 92.1882C137.342 92.9797 137.964 99.7964 135.968 99.7964C135.312 99.7964 134.775 98.8146 134.775 97.615C134.775 93.6413 133.233 93.8056 130.315 98.0863C127.063 102.86 125.157 102.904 123.905 98.2374C122.84 94.2661 124.878 92.6952 126.26 96.4214ZM75.478 115.06C72.2187 112.007 71.8738 107.525 74.7739 105.906C78.9401 103.582 84.2939 109.402 82.9393 114.783C82.0419 118.347 79.1036 118.457 75.478 115.06ZM128.693 108.942C130.667 109.458 131.195 109.048 131.195 107.006C131.195 105.581 131.732 104.747 132.388 105.152C133.044 105.556 133.581 106.926 133.581 108.197C133.581 110.044 134.419 110.507 137.758 110.507C140.056 110.507 141.935 111.039 141.935 111.69C141.935 112.36 140.037 112.63 137.553 112.314C134.085 111.871 132.81 112.266 131.448 114.206C130.116 116.103 129.419 116.333 128.371 115.219C127.359 114.143 127.393 113.643 128.509 113.235C131.623 112.096 129.931 110.224 126.421 110.924C124.452 111.316 122.84 111.172 122.84 110.605C122.84 109.06 125.859 108.203 128.693 108.942ZM81.9631 130.915C83.6303 132.577 90.4197 124.074 91.3435 119.166C91.7468 117.022 92.5405 115.268 93.1074 115.268C93.6742 115.268 93.8127 117.009 93.4153 119.135C92.007 126.664 84.307 136.415 82.3116 133.196C81.7614 132.308 80.5023 131.892 79.513 132.27C76.8862 133.275 74.1414 129.501 75.0185 126.091C76.1905 121.532 79.0702 120.417 83.0145 122.994C85.0696 124.337 85.8024 125.398 84.8846 125.702C84.0552 125.978 82.6135 125.571 81.6791 124.798C79.365 122.883 77.4901 124.299 77.4901 127.961C77.4901 130.048 78.0033 130.797 79.1347 130.364C80.0393 130.017 81.3127 130.266 81.9631 130.915ZM114.347 122.408C113.128 122.408 112.97 119.873 114.017 117.15C114.994 114.613 122.587 114.67 125.431 117.237C128.382 119.899 128.212 124.386 125.1 126.046C122.007 127.697 120.432 126.36 120.079 121.789C119.766 117.723 116.974 116.412 116.058 119.903C115.697 121.281 114.927 122.408 114.347 122.408ZM108.479 127.093C107.784 125.799 107.541 124.215 107.938 123.573C108.336 122.933 109.031 122.412 109.485 122.418C110.41 122.427 116.093 131.953 115.477 132.458C115.26 132.637 113.079 133.09 110.629 133.467C105.567 134.246 103.667 132.692 107.308 130.748C109.288 129.691 109.507 129.008 108.479 127.093Z" fill="white"/>
<path d="M122.84 121.813C122.84 122.795 123.378 123.598 124.034 123.598C124.69 123.598 125.227 122.795 125.227 121.813C125.227 120.831 124.69 120.028 124.034 120.028C123.378 120.028 122.84 120.831 122.84 121.813Z" fill="white"/>
<path d="M76.5127 110.718C76.7215 112.135 77.5653 113.517 78.3852 113.786C80.5907 114.511 80.2195 109.703 78.0045 108.855C76.6034 108.319 76.2275 108.788 76.5127 110.718Z" fill="white"/>
<path fill-rule="evenodd" clip-rule="evenodd" d="M78.0868 10.0201C83.061 7.71369 98.3274 2.92837 107.923 0.668399C117.54 -1.59871 141.869 2.16671 155.063 7.96361C168.433 13.8367 184.198 29.622 192.028 44.9752C195.562 51.9039 202.213 74.0847 203.471 83.1353C203.79 85.4262 204.544 88.9072 205.148 90.8708C208.264 101.001 207.298 131.128 203.374 146.21C201.175 154.664 191.929 172.173 187.439 176.388C186.841 176.95 184.431 179.226 182.085 181.446C179.737 183.666 177.54 185.483 177.2 185.483C176.861 185.483 173.218 187.14 169.105 189.165C158.146 194.563 142.441 199.825 133.581 201.071C118.909 203.134 100.954 203.607 91.8113 202.175C86.8884 201.403 79.6777 200.272 75.7883 199.661C66.822 198.252 52.7467 194.1 51.8087 192.587C51.4161 191.952 50.4219 191.433 49.5996 191.433C47.7486 191.433 36.8622 181.9 24.8419 169.754C12.6952 157.481 6.96075 147.601 2.88638 131.929C-0.186702 120.106 -0.326334 118.406 0.296637 100.391C1.12965 76.3268 4.2815 64.8687 14.5557 48.555C23.9886 33.5766 45.6673 18.4994 63.2215 14.709C68.1157 13.6522 74.8049 11.5422 78.0868 10.0201ZM106.729 4.20295C98.7499 5.96546 89 8.5 87 9.5C85.8172 9.79571 84.5098 10.3229 82.7477 11.0336C81.5303 11.5245 80.0959 12.103 78.3355 12.7532C74.388 14.2111 69.274 16.0998 62.5722 17.6259C56.1456 19.0897 42.4868 25.6804 35.72 30.5812C30.1921 34.5846 23.7765 40.3654 23.7765 41.4936L17.6778 48.9204C2.94366 68.865 -1.69162 106.313 7.07174 134.606L9.56004 142.639C9.56004 144.412 16.4199 155.661 21.8715 162.202C27.5856 169.058 46.3058 185.602 50.9912 187.938C52.7658 188.822 55.0238 190.163 56.0084 190.919C59.0719 193.27 83.3272 198.559 98.9719 200.288C109.194 201.419 137.471 198.105 148.062 194.537C160.975 190.186 168.191 186.956 168.191 185.525C168.191 184.847 169.475 184.292 171.044 184.292C174.555 184.292 183.198 177.264 188.884 169.785C198.49 157.151 202.247 145.636 204.007 123.434C205.4 105.867 204.997 98.2089 202.206 89.0857C201.305 86.1402 199.773 79.9816 198.801 75.3997C195.618 60.388 192.713 51.7087 188.474 44.5551C186.179 40.6814 183.341 35.8616 182.167 33.8444C177.275 25.4388 160.003 12.3669 148.948 8.70622C135.263 4.17319 116.112 2.13101 106.729 4.20295ZM92.3519 110.399C88.5664 103.099 91.0511 91.6896 97.0779 88.6906C101.535 86.4735 103.524 86.333 108.043 87.9206C116.231 90.7982 119.962 105.604 114.186 112.299C108.862 118.472 95.9561 117.349 92.3519 110.399ZM101.441 91.1362C98.4885 92.2977 94.3772 97.4674 93.6002 100.994C92.7517 104.847 95.4119 110.994 98.4289 112.148C102.935 113.873 108.643 112.872 111.702 109.822C115.945 105.591 115.076 98.2779 109.768 93.5485C106.103 90.2829 104.667 89.8664 101.441 91.1362ZM86.9433 59.3288C89.9495 58.5648 93.4821 57.4866 94.7949 56.932C100.502 54.5233 119.031 57.345 128.278 62.0315C144.042 70.0217 155.129 90.8304 153.475 109.324C152.255 122.958 142.69 137.63 131.379 143.214C114.64 151.478 97.1781 149.06 77.0891 135.699C68.3043 129.854 60.6663 110.363 60.9707 94.5601C61.1198 86.7853 61.7524 83.96 64.6214 78.2345C68.827 69.8408 78.791 61.402 86.9433 59.3288ZM76.1738 81.2395C78.3971 83.2448 78.5487 83.2293 79.8245 80.8539C80.556 79.49 81.4905 78.3749 81.9022 78.3749C83.5468 78.3749 93.0047 84.5003 93.0047 85.5654C93.0047 87.4922 89.9102 86.8341 86.5387 84.1897C82.049 80.6682 81.4141 82.1832 85.2689 87.222L88.5138 91.4659H85.5171C83.8678 91.4659 82.2185 90.6852 81.8521 89.7319C81.4845 88.7775 78.9485 86.5901 76.2167 84.8704C72.6281 82.6104 71.6101 81.3823 72.5505 80.4445C73.4921 79.5055 74.497 79.7269 76.1738 81.2395ZM73.5375 91.0446C70.3988 94.1733 75.4458 102.177 80.5572 102.177C83.9776 102.177 85.2331 99.8928 84.1602 95.6288C83.172 91.7027 80.6145 91.7313 81.3676 95.6597C81.685 97.3116 81.5394 98.9122 81.0453 99.2169C79.692 100.051 76.9757 96.2857 76.9316 93.5164C76.8922 90.9993 74.9791 89.6058 73.5375 91.0446ZM75.478 115.06C72.2187 112.007 71.8738 107.525 74.7739 105.906C78.9401 103.582 84.2939 109.402 82.9393 114.783C82.0419 118.347 79.1036 118.457 75.478 115.06ZM76.5127 110.718C76.7215 112.135 77.5653 113.517 78.3852 113.786C80.5907 114.511 80.2195 109.703 78.0045 108.855C76.6034 108.319 76.2275 108.788 76.5127 110.718ZM91.3435 119.166C90.4197 124.074 83.6303 132.577 81.9631 130.915C81.3127 130.266 80.0393 130.017 79.1347 130.364C78.0033 130.797 77.4901 130.048 77.4901 127.961C77.4901 124.299 79.365 122.883 81.6791 124.798C82.6135 125.571 84.0552 125.978 84.8846 125.702C85.8024 125.398 85.0696 124.337 83.0145 122.994C79.0702 120.417 76.1905 121.532 75.0185 126.091C74.1414 129.501 76.8862 133.275 79.513 132.27C80.5023 131.892 81.7614 132.308 82.3116 133.196C84.307 136.415 92.007 126.664 93.4153 119.135C93.8127 117.009 93.6742 115.268 93.1074 115.268C92.5405 115.268 91.7468 117.022 91.3435 119.166ZM108.479 127.093C107.784 125.799 107.541 124.215 107.938 123.573C108.336 122.933 109.031 122.412 109.485 122.418C110.41 122.427 116.093 131.953 115.477 132.458C115.26 132.637 113.079 133.09 110.629 133.467C105.567 134.246 103.667 132.692 107.308 130.748C109.288 129.691 109.507 129.008 108.479 127.093ZM114.017 117.15C112.97 119.873 113.128 122.408 114.347 122.408C114.927 122.408 115.697 121.281 116.058 119.903C116.974 116.412 119.766 117.723 120.079 121.789C120.432 126.36 122.007 127.697 125.1 126.046C128.212 124.386 128.382 119.899 125.431 117.237C122.587 114.67 114.994 114.613 114.017 117.15ZM124.034 123.598C123.378 123.598 122.84 122.795 122.84 121.813C122.84 120.831 123.378 120.028 124.034 120.028C124.69 120.028 125.227 120.831 125.227 121.813C125.227 122.795 124.69 123.598 124.034 123.598ZM128.693 108.942C130.667 109.458 131.195 109.048 131.195 107.006C131.195 105.581 131.732 104.747 132.388 105.152C133.044 105.556 133.581 106.926 133.581 108.197C133.581 110.044 134.419 110.507 137.758 110.507C140.056 110.507 141.935 111.039 141.935 111.69C141.935 112.36 140.037 112.63 137.553 112.314C134.085 111.871 132.81 112.266 131.448 114.206C130.116 116.103 129.419 116.333 128.371 115.219C127.359 114.143 127.393 113.643 128.509 113.235C131.623 112.096 129.931 110.224 126.421 110.924C124.452 111.316 122.84 111.172 122.84 110.605C122.84 109.06 125.859 108.203 128.693 108.942ZM129.264 95.3074C127.306 99.0824 127.254 99.1014 126.26 96.4214C124.878 92.6952 122.84 94.2661 123.905 98.2374C125.157 102.904 127.063 102.86 130.315 98.0863C133.233 93.8056 134.775 93.6413 134.775 97.615C134.775 98.8146 135.312 99.7964 135.968 99.7964C137.964 99.7964 137.342 92.9797 135.274 92.1882C132.06 90.9577 131.32 91.3421 129.264 95.3074ZM125.227 87.8956C123.258 87.8956 121.647 87.3601 121.647 86.7055C121.647 86.051 123.258 85.5154 125.227 85.5154C127.197 85.5154 128.808 86.051 128.808 86.7055C128.808 87.3601 127.197 87.8956 125.227 87.8956ZM132.948 84.3849C131.814 86.2152 133.367 87.3958 134.899 85.8677C135.756 85.0132 135.776 84.348 134.961 83.8457C134.293 83.434 133.387 83.6768 132.948 84.3849ZM108.519 73.1897C108.519 72.3008 111.338 69.6576 114.785 67.3143C118.231 64.971 121.47 63.0193 121.982 62.9788C123.738 62.8384 124.302 66.5027 122.803 68.3033C120.88 70.6156 121.88 71.5474 127.908 73.0553C133.799 74.5286 134.721 76.2851 130.589 78.1619C126.126 80.1898 118.067 81.2883 118.067 79.8697C118.067 79.2151 120.184 78.3416 122.772 77.9287C131.258 76.5755 129.661 74.0407 120.772 74.7559C116.755 75.0784 115.458 73.8705 116.912 71.1618C118.654 67.9177 116.626 68.2914 113.293 71.8295C110.169 75.1462 108.519 75.6163 108.519 73.1897Z" fill="white"/>
</svg>
