<svg width="134" height="145" viewBox="0 0 134 145" fill="none" xmlns="http://www.w3.org/2000/svg">
<path fill-rule="evenodd" clip-rule="evenodd" d="M81.5123 46.9321C81.2853 47.2039 79.9018 46.5036 78.4373 45.3765C74.408 42.2741 68.7438 41.2656 61.2729 42.3207C52.4118 43.5713 47.3268 46.3246 41.7853 52.871C37.8464 57.5252 37.4376 58.3792 35.779 65.4342C33.8648 73.5807 34.3908 80.7296 37.3337 86.5548C38.1898 88.2487 39.3114 90.5191 39.8259 91.6007C40.3415 92.6822 43.7758 96.0762 47.4581 99.1425C59.1881 108.913 66.8517 110.668 76.7787 105.861C81.1354 103.75 82.4963 102.607 87.1205 97.1716C90.049 93.7287 92.9354 89.6433 93.534 88.0924C94.132 86.5409 95.3554 83.7271 96.2518 81.8388C99.1659 75.6991 96.5184 63.1862 90.5197 54.7519C88.2162 51.5127 82.1124 46.2134 81.5123 46.9321ZM76.0052 59.1271C76.7846 60.1892 78.1533 60.4595 81.0344 60.1198C85.2485 59.6234 87.8929 60.9877 87.8925 63.6572C87.8923 64.9536 87.2391 65.3585 84.2824 65.8928C82.2964 66.2512 80.4419 66.387 80.1608 66.1949C79.1539 65.5054 80.939 64.3506 83.4782 64.0494L86.0642 63.7435L84.517 62.4846C83.6319 61.7647 81.952 61.4795 80.5903 61.818C78.2113 62.4086 78.211 62.4115 79.7113 66.5536C80.943 69.9547 81.5328 70.7434 83.0016 70.9503C86.2243 71.4051 86.4217 72.5725 83.287 72.645L80.2219 72.7149L82.1512 74.3259C84.246 76.0751 83.8795 77.5482 81.5574 76.713C80.7639 76.4275 79.5754 76.379 78.9155 76.6046C77.0928 77.2283 76.1923 76.0161 77.6882 74.9523C78.5608 74.3321 78.7113 73.6013 78.1324 72.7919C77.6512 72.1183 77.5446 70.4302 77.896 69.0393C78.7108 65.814 75.5125 59.8545 73.3494 60.5689C71.5281 61.1704 71.5722 60.0576 73.4217 58.7436C74.5564 57.9365 75.2036 58.0327 76.0052 59.1271ZM62.9401 58.4726C62.892 57.3575 63.3848 55.8087 64.0347 55.0304C64.745 54.1798 65.4435 53.9811 65.7853 54.5329C66.0982 55.0371 65.9231 55.968 65.3967 56.6023C64.8701 57.2354 64.6953 58.1698 65.0085 58.6763C65.3464 59.2238 66.0346 59.0515 66.7008 58.2537C67.3182 57.5143 67.9619 57.3209 68.1309 57.8243C68.6321 59.3157 66.4939 61.2527 63.7047 61.8353C61.6559 62.2626 61.1024 62.6996 61.1025 63.8929C61.1026 64.5845 61.2634 64.9535 61.8145 65.0523C62.2754 65.1349 63.0093 65.0284 64.1506 64.7634C68.1615 63.832 74.3766 67.5707 75.3639 71.4762C76.1807 74.7045 74.4981 80.3188 72.1867 83.0869C71.0607 84.4354 71.2094 84.6059 71.7161 85.1869C71.8401 85.3291 71.9855 85.4959 72.1389 85.7105C72.9862 86.8953 73.0138 86.5107 73.0144 85.2115C73.0142 84.0298 73.3393 83.6237 74.3515 83.5357C76.3909 83.3583 78.8205 80.0676 77.6405 79.0823C77.0995 78.6305 77.0677 78.1245 77.5706 77.9586C78.0735 77.7926 79.036 78.1169 79.7103 78.6799C80.3846 79.2429 80.6998 79.9856 80.4116 80.3308C80.1233 80.6761 80.4455 81.4245 81.1279 81.9944C82.5023 83.1421 82.1709 86.5238 80.6339 87.0312C80.0942 87.2091 79.0948 86.6761 78.4138 85.8454C77.0801 84.2203 75.3936 84.6296 74.6722 86.7524C74.3186 87.7931 74.5354 88.021 75.889 88.0348C77.344 88.0491 77.2435 88.3029 75.0256 90.216C73.6452 91.4071 71.9814 93.0147 71.3293 93.788C70.6771 94.5613 69.8589 94.9573 69.5117 94.6673C69.1644 94.3774 69.4496 93.4585 70.1451 92.6255C71.3292 91.2076 71.2533 91.0558 68.9539 90.2512C66.7766 89.4889 66.3427 89.6518 65.1284 91.6911C64.044 93.5108 63.3651 93.9081 61.8742 93.5954C60.3603 93.2783 60.0788 92.9378 60.4433 91.8636C60.6937 91.1287 61.4863 90.4759 62.2061 90.4133C64.0641 90.2516 64.5459 89.4117 63.0725 88.9048C62.3855 88.6689 62.0978 88.1473 62.4327 87.7462C62.7682 87.3445 64.9528 87.6154 67.2881 88.3477C71.072 89.5343 73.1897 89.435 72.0285 88.1245C71.0315 86.999 70.8748 85.9661 70.7796 85.3391C70.654 84.5116 70.6357 84.3911 68.9346 85.6982C68.3659 86.3793 61.6978 83.881 60.1883 82.6205C59.4869 82.0348 58.1487 79.9724 57.2151 78.039C55.9159 75.3487 55.7662 73.7545 56.5764 71.2509C57.159 69.4522 58.2925 67.6276 58.9828 67.1025C59.0043 67.0861 59.0252 67.0695 59.0456 67.0524C59.9028 66.334 59.7711 64.9508 58.7458 62.0135C57.9629 59.7712 57.5417 57.6733 57.8106 57.3513C58.6277 56.3727 60.9896 57.6056 61.2815 59.1629C61.6935 61.3618 63.0392 60.8011 62.9401 58.4726ZM52.8301 67.7338C50.7169 66.4252 51.6298 62.5499 54.3575 61.2479C56.6685 60.1446 57.2585 60.421 57.882 62.8966C58.5181 65.4275 54.8217 68.9675 52.8301 67.7338ZM43.0187 72.2988C42.0523 70.5767 44.3297 66.2235 46.0767 66.454C46.7972 66.5485 47.6496 67.0803 47.9709 67.6362C48.292 68.1909 48.8326 68.8767 49.1723 69.1603C49.5113 69.4434 49.3777 69.8113 48.8748 69.9773C48.3719 70.1433 48.3866 70.635 48.9075 71.07C49.4283 71.5049 50.2658 71.7248 50.7688 71.5588C51.2717 71.3928 52.2992 71.7842 53.0521 72.4289C54.2833 73.4825 54.0517 73.5981 50.7534 73.5777C47.3083 73.5561 47.0967 73.6735 47.2664 75.508C47.4951 77.9725 46.8196 78.7956 45.063 78.1917C44.2111 77.8991 43.6938 76.9248 43.7083 75.6435C43.7212 74.5027 43.4109 72.9982 43.0187 72.2988ZM57.6425 85.1419C57.9977 85.7751 58.5166 86.0199 58.7954 85.6859C59.0748 85.3514 59.6922 85.4024 60.1676 85.7994C60.6752 86.2232 60.3881 87.6103 59.4729 89.158C57.7312 92.1036 56.2867 92.8608 57.5502 90.1658C58.0956 89.0019 57.9421 88.2888 57.0824 87.9928C56.3773 87.7503 55.8723 86.9962 55.9595 86.3168C56.2073 84.3877 56.9353 83.8791 57.6425 85.1419ZM52.7182 94.247C50.6191 93.9505 50.8258 93.0332 53.035 92.841C53.7976 92.7747 54.6489 92.9102 54.9267 93.1421C55.8566 93.9187 54.655 94.5197 52.7182 94.247Z" fill="white"/>
<path d="M54.9 62.6385C53.5979 63.3612 53.1494 65.0237 54.0522 65.7776C54.8483 66.4424 56.763 64.0801 56.3713 62.9156C56.2013 62.4083 55.5392 62.2837 54.9 62.6385Z" fill="white"/>
<path d="M44.9855 68.8604C44.6973 69.2056 44.7455 69.7253 45.0927 70.0153C45.44 70.3052 45.9599 70.26 46.2482 69.9148C46.5365 69.5695 46.4882 69.0498 46.141 68.7599C45.7938 68.4699 45.2738 68.5152 44.9855 68.8604Z" fill="white"/>
<path d="M44.9973 75.2625C44.709 75.6077 44.7743 76.1416 45.1417 76.4484C45.5091 76.7552 45.8706 76.5777 45.9443 76.0532C46.0179 75.5287 45.9533 74.9953 45.7998 74.8672C45.6464 74.7391 45.2856 74.9172 44.9973 75.2625Z" fill="white"/>
<path d="M78.9463 83.3688C78.658 83.714 78.7233 84.248 79.0907 84.5548C79.4581 84.8616 79.8196 84.684 79.8933 84.1595C79.9669 83.6351 79.9023 83.1017 79.7488 82.9736C79.5954 82.8455 79.2346 83.0236 78.9463 83.3688Z" fill="white"/>
<path fill-rule="evenodd" clip-rule="evenodd" d="M93.4203 8.00167C96.01 8.94115 100.593 11.3784 103.604 13.4187C110.664 18.2017 114.39 21.9125 120.571 30.3123C126.847 38.8413 132.054 50.3178 133.229 58.2094C135.023 70.253 131.596 85.6739 124.911 95.6489C123.4 97.9032 121.017 101.667 119.615 104.012C108.901 121.936 82.8672 142.261 67.8072 144.46C55.184 146.302 31.7134 136.33 21.1652 124.641C13.3794 116.015 7.68585 104.731 3.14743 88.9381C-0.53518 76.1223 -0.909685 68.0643 1.62624 56.2052C3.45435 47.6576 4.4345 44.9901 8.17521 38.3816C15.7613 24.9812 28.2446 11.4971 37.5619 6.63981C42.9649 3.8239 53.6677 0.718061 59.8312 0.177775C69.8827 -0.701927 83.3199 1.79103 87.546 5.31992C88.1874 5.85553 90.8305 7.0622 93.4203 8.00167ZM78.4373 45.3765C79.9018 46.5036 81.2853 47.2039 81.5123 46.9321C82.1124 46.2134 88.2162 51.5127 90.5197 54.7519C96.5184 63.1862 99.1659 75.6991 96.2518 81.8388C95.3554 83.7271 94.132 86.5409 93.534 88.0924C92.9354 89.6433 90.049 93.7287 87.1205 97.1716C82.4963 102.607 81.1354 103.75 76.7787 105.861C66.8517 110.668 59.1881 108.913 47.4581 99.1425C43.7758 96.0762 40.3415 92.6822 39.8259 91.6007C39.3114 90.5191 38.1898 88.2487 37.3337 86.5548C34.3908 80.7296 33.8648 73.5807 35.779 65.4342C37.4376 58.3792 37.8464 57.5252 41.7853 52.871C47.3268 46.3246 52.4118 43.5713 61.2729 42.3207C68.7438 41.2656 74.408 42.2741 78.4373 45.3765ZM95.0554 10.8235L97.8154 12.0095C102.635 14.081 114.114 24.0961 118.272 29.8575C127.746 42.9833 130.63 49.6075 131.532 60.3089C132.797 75.3194 130.966 82.3253 121.853 97.3335C114.421 109.573 107.232 118.22 97.8655 126.187C84.8867 137.224 74.5057 142.581 65.3446 142.964C53.1315 143.476 33.4229 135.121 23.9965 125.435C14.5897 115.771 6.12771 97.2799 2.30019 78.0265C0.417179 68.5554 3.85278 48.6562 8.84332 40.1274C13.1629 32.746 24.2326 18.8657 29.3556 14.4064C37.7933 7.06323 48.9988 2.65866 61.8454 1.63707C69.7415 1.00833 80.812 3.00053 84.8541 5.77706C85.5697 6.26852 88.1036 7.46363 90.5084 8.5979C92.4494 9.51337 94.3063 10.3892 95.0554 10.8235ZM69.5399 67.6858C66.134 66.329 63.8146 66.2758 61.441 67.5027C59.0941 68.7157 58.766 69.1715 58.3255 71.824C57.6596 75.8309 58.9235 78.5557 62.6118 81.0656C66.1595 83.4794 69.4083 83.2422 71.7847 80.3962C75.5664 75.8674 74.4687 69.6495 69.5399 67.6858ZM70.7796 85.3391C70.654 84.5116 70.6357 84.3911 68.9346 85.6982L70.5606 84.3926L72.1867 83.0869C71.0607 84.4354 71.2094 84.6059 71.7161 85.1869C71.8401 85.3291 71.9855 85.4959 72.1389 85.7105C72.9862 86.8953 73.0138 86.5107 73.0144 85.2115C73.0142 84.0298 73.3393 83.6237 74.3515 83.5357C76.3909 83.3583 78.8205 80.0676 77.6405 79.0823C77.0995 78.6305 77.0677 78.1245 77.5706 77.9586C78.0735 77.7926 79.036 78.1169 79.7103 78.6799C80.3846 79.2429 80.6998 79.9856 80.4116 80.3308C80.1233 80.6761 80.4455 81.4245 81.1279 81.9944C82.5023 83.1421 82.1709 86.5238 80.6339 87.0312C80.0942 87.2091 79.0948 86.6761 78.4138 85.8454C77.0801 84.2203 75.3936 84.6296 74.6722 86.7524C74.3186 87.7931 74.5354 88.021 75.889 88.0348C77.344 88.0491 77.2435 88.3029 75.0256 90.216C73.6452 91.4071 71.9814 93.0147 71.3293 93.788C70.6771 94.5613 69.8589 94.9573 69.5117 94.6673C69.1644 94.3774 69.4496 93.4585 70.1451 92.6255C71.3292 91.2076 71.2533 91.0558 68.9539 90.2512C66.7766 89.4889 66.3427 89.6518 65.1284 91.6911C64.044 93.5108 63.3651 93.9081 61.8742 93.5954C60.3603 93.2783 60.0788 92.9378 60.4433 91.8636C60.6937 91.1287 61.4863 90.4759 62.2061 90.4133C64.0641 90.2516 64.5459 89.4117 63.0725 88.9048C62.3855 88.6689 62.0978 88.1473 62.4327 87.7462C62.7682 87.3445 64.9528 87.6154 67.2881 88.3477C71.072 89.5343 73.1897 89.435 72.0285 88.1245C71.0315 86.999 70.8748 85.9661 70.7796 85.3391ZM78.9463 83.3688C78.658 83.714 78.7233 84.248 79.0907 84.5548C79.4581 84.8616 79.8196 84.684 79.8933 84.1595C79.9669 83.6351 79.9023 83.1017 79.7488 82.9736C79.5954 82.8455 79.2346 83.0236 78.9463 83.3688ZM58.7954 85.6859C58.5166 86.0199 57.9977 85.7751 57.6425 85.1419C56.9353 83.8791 56.2073 84.3877 55.9595 86.3168C55.8723 86.9962 56.3773 87.7503 57.0824 87.9928C57.9421 88.2888 58.0956 89.0019 57.5502 90.1658C56.2867 92.8608 57.7312 92.1036 59.4729 89.158C60.3881 87.6103 60.6752 86.2232 60.1676 85.7994C59.6922 85.4024 59.0748 85.3514 58.7954 85.6859ZM52.7182 94.247C50.6191 93.9505 50.8258 93.0332 53.035 92.841C53.7976 92.7747 54.6489 92.9102 54.9267 93.1421C55.8566 93.9187 54.655 94.5197 52.7182 94.247ZM46.0767 66.454C44.3297 66.2235 42.0523 70.5767 43.0187 72.2988C43.4109 72.9982 43.7212 74.5027 43.7083 75.6435C43.6938 76.9248 44.2111 77.8991 45.063 78.1917C46.8196 78.7956 47.4951 77.9725 47.2664 75.508C47.0967 73.6735 47.3083 73.5561 50.7534 73.5777C54.0517 73.5981 54.2833 73.4825 53.0521 72.4289C52.2992 71.7842 51.2717 71.3928 50.7688 71.5588C50.2658 71.7248 49.4283 71.5049 48.9075 71.07C48.3866 70.635 48.3719 70.1433 48.8748 69.9773C49.3777 69.8113 49.5113 69.4434 49.1723 69.1603C48.8326 68.8767 48.292 68.1909 47.9709 67.6362C47.6496 67.0803 46.7972 66.5485 46.0767 66.454ZM45.0927 70.0153C44.7455 69.7253 44.6973 69.2056 44.9855 68.8604C45.2738 68.5152 45.7938 68.4699 46.141 68.7599C46.4882 69.0498 46.5365 69.5695 46.2482 69.9148C45.9599 70.26 45.44 70.3052 45.0927 70.0153ZM45.1417 76.4484C44.7743 76.1416 44.709 75.6077 44.9973 75.2625C45.2856 74.9172 45.6464 74.7391 45.7998 74.8672C45.9533 74.9953 46.0179 75.5287 45.9443 76.0532C45.8706 76.5777 45.5091 76.7552 45.1417 76.4484ZM52.8301 67.7338C50.7169 66.4252 51.6298 62.5499 54.3575 61.2479C56.6685 60.1446 57.2585 60.421 57.882 62.8966C58.5181 65.4275 54.8217 68.9675 52.8301 67.7338ZM54.9 62.6385C53.5979 63.3612 53.1494 65.0237 54.0522 65.7776C54.8483 66.4424 56.763 64.0801 56.3713 62.9156C56.2013 62.4083 55.5392 62.2837 54.9 62.6385ZM64.0347 55.0304C63.3848 55.8087 62.892 57.3575 62.9401 58.4726C63.0392 60.8011 61.6935 61.3618 61.2815 59.1629C60.9896 57.6056 58.6277 56.3727 57.8106 57.3513C57.5417 57.6733 57.9629 59.7712 58.7458 62.0135C59.7711 64.9508 59.9028 66.334 59.0456 67.0524C59.2333 66.9028 59.8016 66.4509 60.196 66.1494C60.3483 66.0329 60.481 65.9179 60.61 65.806C60.8861 65.5664 61.1457 65.3412 61.5471 65.1469C61.6177 65.1127 61.7088 65.0812 61.8145 65.0523C61.2634 64.9535 61.1026 64.5845 61.1025 63.8929C61.1024 62.6996 61.6559 62.2626 63.7047 61.8353C66.4939 61.2527 68.6321 59.3157 68.1309 57.8243C67.9619 57.3209 67.3182 57.5143 66.7008 58.2537C66.0346 59.0515 65.3464 59.2238 65.0085 58.6763C64.6953 58.1698 64.8701 57.2354 65.3967 56.6023C65.9231 55.968 66.0982 55.0371 65.7853 54.5329C65.4435 53.9811 64.745 54.1798 64.0347 55.0304ZM76.0052 59.1271C76.7846 60.1892 78.1533 60.4595 81.0344 60.1198C85.2485 59.6234 87.8929 60.9877 87.8925 63.6572C87.8923 64.9536 87.2391 65.3585 84.2824 65.8928C82.2964 66.2512 80.4419 66.387 80.1608 66.1949C79.1539 65.5054 80.939 64.3506 83.4782 64.0494L86.0642 63.7435L84.517 62.4846C83.6319 61.7647 81.952 61.4795 80.5903 61.818C78.2113 62.4086 78.211 62.4115 79.7113 66.5536C80.943 69.9547 81.5328 70.7434 83.0016 70.9503C86.2243 71.4051 86.4217 72.5725 83.287 72.645L80.2219 72.7149L82.1512 74.3259C84.246 76.0751 83.8795 77.5482 81.5574 76.713C80.7639 76.4275 79.5754 76.379 78.9155 76.6046C77.0928 77.2283 76.1923 76.0161 77.6882 74.9523C78.5608 74.3321 78.7113 73.6013 78.1324 72.7919C77.6512 72.1183 77.5446 70.4302 77.896 69.0393C78.7108 65.814 75.5125 59.8545 73.3494 60.5689C71.5281 61.1704 71.5722 60.0576 73.4217 58.7436C74.5564 57.9365 75.2036 58.0327 76.0052 59.1271Z" fill="white"/>
</svg>
