<svg width="163" height="171" viewBox="0 0 163 171" fill="none" xmlns="http://www.w3.org/2000/svg">
<path fill-rule="evenodd" clip-rule="evenodd" d="M70.4867 65.7156C70.1983 65.6324 69.2959 65.9768 68.4818 66.481C66.2133 67.8853 65.8459 67.3257 67.6007 65.1402C69.354 62.9577 69.5267 61.4069 68.0634 60.9847C67.0796 60.7008 63.661 63.4175 63.2567 64.8046C63.0283 65.5867 57.1061 69.2461 56.3984 69.0418C56.1881 68.9812 56.4989 67.2566 57.0896 65.2096C58.3128 60.9705 57.3961 59.8391 54.8855 62.4899C53.6098 63.8373 53.5197 64.1425 54.1314 65.0428C54.514 65.6054 54.6017 66.8455 54.3264 67.7996C52.822 73.0132 55.4285 73.5395 60.9612 69.1409C62.1587 68.1882 63.1057 67.8312 63.2323 68.2843C63.6028 69.6108 65.659 69.7735 68.1336 68.6726C70.3606 67.6824 71.6566 66.0532 70.4867 65.7156ZM96.5826 74.8369C97.6762 74.9287 98.9505 75.291 99.415 75.6421C101.55 77.2559 98.5324 79.8558 95.5301 78.9895C93.9756 78.541 92.8069 79.5127 93.7071 80.5055C94.0944 80.9331 95.212 81.0816 96.3462 80.8558C98.7713 80.3737 99.0571 80.4474 98.76 81.4771C98.4949 82.3958 94.1413 83.2924 92.3939 82.7882C90.4853 82.2375 90.119 80.3981 91.3821 77.7113C92.5015 75.3317 92.4895 75.2779 90.8265 75.2193C89.5253 75.1738 88.892 74.6927 88.1242 73.1689C87.2443 71.4213 86.9929 71.2654 86.0675 71.8948C85.2943 72.4202 84.8495 72.3712 84.4 71.7099C83.8985 70.9726 84.0807 70.3969 85.4021 68.5466C87.7181 65.3035 87.6818 64.8193 85.2216 66.1031C82.4267 67.5617 79.5307 67.7804 76.7216 66.7454C75.4934 66.2929 73.9807 66.1446 73.3603 66.4152C71.5635 67.2002 71.3157 65.5624 72.3888 59.9878C73.279 55.361 73.428 55.0357 74.4233 55.5427C75.0133 55.8433 75.4201 56.6689 75.3268 57.3764C75.2339 58.0847 75.1087 59.4059 75.0493 60.3127L74.9412 61.9614L76.3178 60.5275C78.1528 58.6159 80.3983 58.1369 81.3007 59.4644C82.2909 60.9206 81.7264 62.099 79.5025 63.2184C76.9638 64.497 76.9063 64.8802 79.1561 65.5294C81.151 66.1051 82.8532 65.0218 84.4514 62.1589C85.2917 60.653 85.5003 60.6171 87.5425 61.6203C90.605 63.1255 90.7595 63.6451 89.028 66.6161C87.2339 69.6947 87.175 69.8591 87.8021 70.0401C88.0682 70.1169 88.866 69.4037 89.5749 68.4559C90.7242 66.9181 91.0357 66.8353 92.4618 67.6937C93.3414 68.2223 94.4126 68.7692 94.8428 68.9082C95.6945 69.1842 95.8286 71.9913 95.0693 73.6402C94.6783 74.4896 94.9442 74.7001 96.5826 74.8369ZM92.9985 70.9966C92.5966 71.013 92.1909 71.2917 92.0975 71.6155C92.0041 71.9393 92.1989 72.3913 92.5302 72.6193C92.8615 72.8473 93.267 72.5692 93.4312 72.0004C93.5953 71.4315 93.4003 70.9802 92.9985 70.9966ZM102.826 98.3633C102.6 98.1192 100.588 97.4452 98.3538 96.8664C94.6129 95.8958 94.2174 95.6433 93.337 93.6644C92.4052 91.5705 91.2757 91.1135 90.8322 92.6506C90.5693 93.5619 95.9457 104.643 96.7651 104.88C97.7626 105.168 97.7471 103.799 96.7232 101.164L95.7294 98.6074L99.0399 99.3578C102.016 100.032 103.911 99.5343 102.826 98.3633ZM90.1741 95.7533C90.9655 97.1838 91.9458 99.508 92.3524 100.919C93.3432 104.355 92.4185 106.684 90.3525 105.957C86.5065 104.603 82.5706 100.324 83.1917 98.1713C83.599 96.7595 84.1097 96.8713 85.1845 98.6073C85.8605 99.6994 86.2295 99.8529 87.1812 99.4374C88.6736 98.7855 89.0918 97.3594 88.026 96.554C87.3669 96.0553 87.5373 94.8453 88.8654 90.6015C90.3219 85.9452 90.4187 85.7702 89.6334 89.2137C88.845 92.6726 88.9111 93.4704 90.1741 95.7533ZM90.6502 101.921C90.3902 100.172 89.2136 99.8411 88.4641 101.307C88.1926 101.838 88.5039 102.575 89.1919 103.035C90.7236 104.056 90.9433 103.888 90.6502 101.921ZM86.4743 111.188C85.7266 110.547 84.8297 109.009 84.4808 107.771C84.1326 106.533 83.1673 104.336 82.3356 102.889C80.8458 100.298 80.7894 100.265 78.5628 100.674C74.8069 101.365 74.4526 105.261 77.855 108.446C79.2385 109.741 79.6239 109.856 81.0745 109.409C82.4348 108.989 82.7664 109.069 82.9763 109.872C83.3762 111.397 85.8837 113.996 86.7271 113.761C88.0033 113.404 87.9063 112.415 86.4743 111.188ZM78.3172 103.353C79.0225 102.972 79.438 103.29 80.0233 104.659C81.4057 107.891 80.0073 108.606 78.3117 105.536C77.6056 104.257 77.6071 103.737 78.3172 103.353ZM73.3445 104.442C73.2498 104.819 73.744 107.258 74.4427 109.862C75.1415 112.466 75.6165 114.971 75.4983 115.43C75.0745 117.073 73.8806 115.243 72.8509 111.369C72.2739 109.2 71.5438 107.247 71.2269 107.03C70.9101 106.812 69.9441 107.514 69.0791 108.591C67.9989 109.936 67.1088 110.433 66.2342 110.181C64.2821 109.618 62.8974 107.973 62.7368 106.029L62.5912 104.27L60.4996 105.424C57.857 106.884 56.1442 106.411 55.8077 104.131C55.6058 102.765 55.7733 102.233 56.5335 101.82C57.3143 101.396 57.625 101.561 58.011 102.601C58.7262 104.528 59.5767 104.51 61.7715 102.521C64.2053 100.315 64.6801 97.9735 62.8031 97.4319C60.8163 96.8586 60.6506 96.0193 62.4487 95.635C64.5325 95.1901 66.5776 96.9003 66.3092 98.8643C66.178 99.8243 66.6628 100.643 67.7475 101.294C68.6478 101.835 69.8318 102.953 70.379 103.779C71.2581 105.105 71.3129 105.127 70.8507 103.962C70.5628 103.237 70.6371 102.234 71.0151 101.735C71.6446 100.902 71.7795 100.949 72.6099 102.29C73.1085 103.096 73.4393 104.064 73.3445 104.442ZM67.7838 103.933C66.8788 102.603 65.6729 102.995 65.1557 104.788C64.597 106.724 65.8941 108.709 67.0484 107.685C68.2615 106.609 68.5616 105.077 67.7838 103.933ZM59.0118 93.6878C58.757 93.4066 58.1173 93.2133 57.5903 93.2581C56.9778 93.3105 56.4791 92.4167 56.2084 90.7817C55.9243 89.0628 55.4522 88.2513 54.7722 88.3097C54.1796 88.3605 53.862 88.0384 54.0074 87.5347C54.3417 86.376 51.1981 84.7418 49.3807 85.1299C47.4058 85.5518 46.0943 87.0139 45.3375 89.6365C44.5489 92.3695 45.7503 93.7107 49.3856 94.1576C51.9202 94.4697 52.0252 94.4039 52.6964 92.0778C53.5549 89.1028 54.6496 89.2259 54.3589 92.2639C54.1197 94.7603 53.3957 95.7253 52.0521 95.3376C51.4492 95.1636 50.9819 95.7397 50.6156 97.107C50.1236 98.9472 50.1623 99.0202 51.0371 97.9005C51.5676 97.2217 52.4249 96.7891 52.9434 96.9387C53.7139 97.161 53.4129 97.7757 51.296 100.303C49.1498 102.865 48.5259 104.153 47.658 107.82L46.6101 112.246L48.1146 107.493C49.3881 103.471 49.7512 102.841 50.4801 103.392C51.0708 103.838 51.5931 103.614 52.148 102.676C52.5926 101.925 54.3989 99.7938 56.1627 97.9402C56.352 97.7412 56.531 97.5533 56.7002 97.3756C58.9282 95.0361 59.4487 94.4895 59.3439 94.1208C59.3119 94.0084 59.2218 93.9125 59.1043 93.7874L59.103 93.7861C59.0741 93.7553 59.0436 93.7228 59.0118 93.6878ZM47.2109 90.1301C47.781 88.1544 49.9844 86.6218 51.0728 87.4445C52.0203 88.1614 51.2447 91.1731 49.9251 91.9017C48.149 92.8823 46.6913 91.9308 47.2109 90.1301ZM81.3254 73.4346C83.809 76.6247 84.2347 77.6829 84.6479 81.6907C85.1598 86.6583 83.0511 92.1451 79.7341 94.4771C76.5622 96.7066 74.3698 97.0765 70.4608 96.0433C66.1534 94.9052 63.5549 92.2975 62.3111 87.8659C61.4313 84.73 61.4741 83.8131 62.6841 79.8691C63.7386 76.4313 64.5631 74.9013 66.2979 73.167C71.0187 68.4454 77.5307 68.5613 81.3254 73.4346ZM82.3072 80.0618C81.6228 76.2741 79.2792 73.6283 75.6914 72.5931C72.2214 71.5918 70.0355 72.3466 67.5271 75.4112C63.3931 80.4628 63.0986 88.2201 66.9084 91.7277C69.2717 93.9047 73.5249 95.1468 76.0008 94.3836C80.0812 93.1252 83.3328 85.7407 82.3072 80.0618ZM111.044 95.4349C110.346 96.9307 110.357 97.7766 111.091 99.0018C112.435 101.246 110.956 106.03 107.214 111.542C102.728 118.15 100.702 119.976 93.2416 124.131C86.9422 127.639 85.9492 127.974 81.6242 128.055C75.6147 128.167 64.0491 125.522 58.2706 122.715C48.5763 118.005 40.6815 108.755 37.891 98.837C37.1227 96.1063 36.2587 93.3419 35.9713 92.6938C34.1607 88.6127 37.0971 75.5608 42.0116 65.848C46.9065 56.1733 56.4411 46.1145 61.5706 45.2139C73.1464 43.1806 82.8423 43.4236 88.757 45.8937C91.7309 47.1355 97.1927 50.7327 100.003 53.3001C103.793 56.7636 104.84 57.9562 106.357 60.5362C108.529 64.2276 111.728 74.0943 112.429 79.261C113.068 83.9757 112.322 92.6959 111.044 95.4349ZM157.521 102.127C157.213 102.523 157.081 103.065 157.227 103.33C157.374 103.595 157.626 103.271 157.788 102.61C157.967 101.879 157.862 101.689 157.521 102.127ZM155.465 109.232C155.133 109.79 154.902 110.63 154.951 111.099C154.999 111.568 155.27 111.111 155.553 110.084C155.836 109.057 155.796 108.674 155.465 109.232ZM154.391 112.953C154.059 113.512 153.828 114.352 153.877 114.821C153.926 115.29 154.196 114.833 154.479 113.806C154.762 112.779 154.722 112.395 154.391 112.953Z" fill="white"/>
<path fill-rule="evenodd" clip-rule="evenodd" d="M39.1305 10.2267C36.8624 11.6949 28.1646 19.091 26.0191 21.3754C24.82 22.6528 23.3823 24.4728 22.8245 25.4206C22.2674 26.3686 20.2966 29.2772 18.445 31.8843C14.4675 37.4856 12.7285 41.5235 6.73238 59.0783C0.220262 78.1418 -2.06539 107.696 2.09782 119C4.10009 124.438 10.7331 135.834 15.6524 142.289C20.868 149.134 21.5822 149.83 26.6976 153.07C28.8847 154.456 32.2985 156.772 34.2835 158.218C37.6313 160.655 38.9237 161.155 52.1163 165.113C65.0876 169.005 67.0054 169.43 73.9029 169.95C80.6176 170.455 82.4614 170.288 90.3373 168.458C95.2162 167.324 99.7609 166.245 100.436 166.06C102.16 165.588 106.733 163.361 113.84 159.531C117.19 157.726 122.113 155.216 124.779 153.952C127.445 152.689 131.099 150.417 132.898 148.904C137.853 144.737 147.987 134.432 148.342 133.2C148.515 132.602 149.379 131.213 150.262 130.113C153.001 126.704 157.796 117.053 159.484 111.555C161.392 105.338 162.562 97.0019 162.384 90.8889C162.197 84.4703 158.602 72.6093 153.373 61.1541C151.2 56.3939 141.273 40.3211 139.841 39.2431C139.385 38.9007 137.16 36.1919 134.897 33.2247C123.95 18.8717 117.325 13.7981 99.6584 6.23279C96.1395 4.72556 91.3872 3.23398 87.118 2.29642L80.2436 0.78651L78.2636 0.375769C65.5593 -0.772982 59.0272 0.5057 44.2362 7.03794L39.1305 10.2267ZM159.493 89.6212C159.784 90.2879 159.903 93.7579 159.757 97.3316C159.528 102.982 159.156 104.857 156.908 111.712C155.155 117.056 153.841 120.117 152.826 121.22C152.003 122.115 151.149 123.473 150.929 124.237C150.194 126.784 145.563 133.338 141.198 138.008C134.528 145.147 129.499 149.211 123.605 152.227C120.632 153.747 115.151 156.55 111.423 158.455C100.593 163.989 96.9437 165.252 85.3064 167.494C76.5142 169.188 71.5179 168.502 53.1126 163.076C38.6469 158.812 37.188 158.272 34.9005 156.331C33.5321 155.17 30.1792 152.792 27.4483 151.046C23.246 148.358 21.7571 146.905 17.7499 141.576C13.4685 135.881 6.79421 124.344 4.09523 117.972C2.22323 113.552 1.61529 99.6959 2.78859 88.178C3.44479 81.7379 6.79795 64.7402 7.98899 61.8142C8.59959 60.3152 10.7935 54.4377 12.8647 48.7527C15.7512 40.8287 17.2045 37.6411 19.0923 35.0948C20.4466 33.2682 22.2773 30.6215 23.1601 29.2132C26.3366 24.1474 31.1055 19.4551 38.543 14.0767L42.4138 11.2789C46.0618 8.64255 58.4184 3.82887 63.8032 2.94686C70.9594 1.77366 76.5428 2.29218 88.1778 5.20936C100.732 8.35686 106.785 11.0295 117.383 18.1024C121.665 20.9607 126.866 26.0994 131.5 32.0516C140.214 43.2415 143.351 47.4366 144.349 49.2331C144.957 50.3278 146.469 52.7652 147.71 54.6499C150.03 58.1744 154.829 69.0188 156.936 75.5025C157.591 77.5178 158.316 81.2458 158.545 83.7875C158.775 86.3292 159.201 88.9546 159.493 89.6212Z" fill="white"/>
</svg>
