<svg width="258" height="251" viewBox="0 0 258 251" fill="none" xmlns="http://www.w3.org/2000/svg">
<path fill-rule="evenodd" clip-rule="evenodd" d="M101.759 152.142C101.759 152.607 102.659 153.802 103.759 154.797C106.823 157.57 106.148 158.357 102.142 156.684C98.1411 155.012 95.7591 155.421 95.7591 157.78C95.7591 159.366 101.27 163.287 103.508 163.293C104.77 163.297 112.759 170.539 112.759 171.68C112.759 172.019 110.059 172.297 106.759 172.297C99.9251 172.297 98.6351 174.147 103.658 176.745C106.211 178.065 106.704 178.068 107.781 176.771C108.454 175.96 110.262 175.297 111.8 175.297C120.205 175.297 119.869 171.192 110.947 164.847C109.015 163.474 108.077 162.218 108.697 161.835C110.512 160.714 109.871 157.584 107.17 154.374C104.74 151.485 101.759 150.256 101.759 152.142ZM104.127 109.389C103.794 107.722 103.786 105.67 104.109 104.828C105.594 100.958 110.759 104.332 110.759 109.172C110.759 111.678 112.707 113 113.798 111.234C114.268 110.474 114.009 108.747 113.186 107.156C111.427 103.754 111.414 103.297 113.074 103.297C114.555 103.297 117.759 109.391 117.759 112.208C117.759 115.285 115.179 116.62 110.638 115.894C106.616 115.25 106.541 115.291 107.168 117.791C107.659 119.747 107.215 120.896 105.277 122.693C103.054 124.753 102.93 125.194 104.264 126.301C105.378 127.226 105.496 127.909 104.705 128.862C103.823 129.925 102.888 129.901 99.5672 128.729C93.7462 126.675 93.0411 126.937 96.0081 130.047C99.3791 133.58 100.948 137.796 100.614 142.421C100.468 144.443 100.897 146.758 101.566 147.565C103.506 149.902 101.175 150.974 92.4181 151.771C85.1501 152.433 84.6022 152.351 84.9292 150.652C85.1232 149.645 86.1771 148.685 87.2701 148.52C88.3641 148.354 90.3841 147.973 91.7591 147.672L94.2591 147.125L91.5341 145.692C87.9011 143.782 86.2241 140.646 87.8121 138.733C89.5541 136.634 91.5501 136.968 94.1711 139.797C97.1641 143.026 97.7591 142.947 97.7591 139.32C97.7591 136.104 95.4161 134.036 90.4691 132.887C87.8671 132.283 87.7241 131.988 88.3401 128.518C89.2651 123.314 89.9721 122.861 95.1371 124.162C100.489 125.51 100.759 125.527 100.759 124.516C100.759 124.087 99.3552 123.206 97.6402 122.558C94.8582 121.508 94.6011 121.08 95.2661 118.589C95.6751 117.053 96.0291 115.224 96.0511 114.524C96.0961 113.138 100.216 111.733 102.996 112.155C104.428 112.372 104.627 111.886 104.127 109.389ZM99.9511 116.372C100.148 116.963 100.737 117.447 101.259 117.447C101.781 117.447 102.37 116.963 102.567 116.372C102.764 115.781 102.176 115.297 101.259 115.297C100.342 115.297 99.7541 115.781 99.9511 116.372ZM136.458 89.9939C136.192 90.4359 136.053 93.7198 136.151 97.2928C136.313 103.277 136.107 103.974 133.54 106.134C130.824 108.42 130.629 110.297 133.107 110.297C134.576 110.297 148.759 97.5369 148.759 96.2159C148.759 94.6079 146.728 95.2189 143.247 97.8739L139.869 100.451L139.564 95.2019C139.29 90.4829 137.735 87.8769 136.458 89.9939ZM138.007 109.944C139.796 108.152 142.834 105.695 144.759 104.484C149.447 101.534 153.31 101.91 153.115 105.297C152.752 111.602 148.074 119.297 144.604 119.297C142.328 119.297 142.275 118.489 144.397 116.144C145.732 114.669 145.802 114.054 144.775 112.816C143.164 110.875 140.862 110.865 140.121 112.797C139.662 113.992 137.788 114.258 130.902 114.104C123.347 113.936 123.045 113.867 128.507 113.557C133.993 113.245 135.152 112.804 138.007 109.944ZM146.981 106.587C144.49 107.725 144.503 109.618 147.006 110.104C147.913 110.28 148.877 109.5 149.265 108.279C150.127 105.561 149.783 105.306 146.981 106.587ZM162.566 108.822C161.933 110.21 160.03 112.205 158.337 113.256C156.644 114.306 153.789 116.686 151.993 118.545C148.776 121.875 148.751 121.973 150.316 125.111C152.957 130.404 158.908 129.258 162.186 122.827C163.519 120.212 163.525 119.589 162.237 117.622C161.028 115.778 161.005 115.25 162.109 114.593C164.207 113.343 166.999 108.495 166.286 107.341C165.207 105.595 163.777 106.164 162.566 108.822ZM154.409 124.326C153.539 123.44 153.834 122.685 155.62 121.226C159.836 117.781 161.501 119.555 157.659 123.397C156.059 124.997 155.285 125.218 154.409 124.326ZM158.164 131.259C158.766 131.238 162.184 129.455 165.759 127.297C169.334 125.139 172.859 123.356 173.592 123.335C176.22 123.26 174.008 125.823 168.685 129.019C165.705 130.809 163.113 132.734 162.925 133.299C162.737 133.864 164.197 135 166.171 135.825C168.636 136.855 169.759 137.966 169.759 139.376C169.759 142.523 167.906 145.29 165.081 146.364L162.526 147.336L165.142 149.953C168.449 153.259 168.481 156.011 165.232 157.491C163.286 158.378 162.423 158.357 161.482 157.403C160.516 156.423 160.627 155.89 162.009 154.869C164.57 152.977 164.178 151.719 160.275 149.307C155.948 146.632 152.259 146.931 152.259 149.957C152.259 153.16 151.081 153.767 149.737 151.256C148.18 148.346 149.847 144.568 152.885 144.124C154.37 143.907 155.38 142.834 155.884 140.94C156.302 139.368 157.457 137.126 158.451 135.957C160.048 134.079 160.057 133.988 158.522 135.176C157.566 135.916 156.042 136.236 155.136 135.888C153.626 135.309 153.638 135.088 155.278 133.276C156.263 132.188 157.562 131.28 158.164 131.259ZM159.795 139.753C158.204 141.671 159.306 143.297 162.196 143.297C165.317 143.297 167.715 140.514 165.695 139.236C163.572 137.893 161.164 138.104 159.795 139.753ZM148.315 157.207C148.006 157.707 147.993 158.742 148.286 159.507C148.627 160.396 147.511 161.522 145.194 162.627C142.758 163.788 141.753 164.839 142.132 165.826C142.462 166.686 142.119 167.297 141.307 167.297C139.439 167.297 138.357 172.677 139.715 175.215C141.191 177.973 143.93 179.297 148.158 179.297C152.564 179.297 154.044 176.933 153.148 171.331C152.524 167.425 152.381 167.297 148.631 167.297C143.835 167.297 143.548 165.615 148.194 164.743C152.012 164.027 153.759 164.69 153.759 166.856C153.759 167.828 154.817 168.276 157.009 168.234C159.959 168.176 160.051 168.087 158.009 167.266C156.771 166.768 155.759 165.678 155.759 164.842C155.759 163.6 156.803 163.784 161.473 165.849C166.207 167.943 168.393 168.318 174.223 168.035L181.259 167.694L173.54 167.496C167.007 167.328 165.914 167.058 166.42 165.737C166.831 164.666 166.273 163.985 164.639 163.562C163.33 163.223 159.383 161.45 155.867 159.621C155.49 159.425 155.133 159.239 154.796 159.063C150.358 156.752 149.321 156.212 148.817 156.527C148.663 156.623 148.559 156.798 148.424 157.027L148.422 157.029C148.389 157.085 148.354 157.145 148.315 157.207ZM148.088 176.297C144.903 176.297 141.676 173.676 142.433 171.703C143.093 169.985 147.908 169.846 149.559 171.497C151.781 173.719 150.991 176.297 148.088 176.297ZM108.592 132.697C112.273 127.631 113.665 126.543 119.452 124.207C126.625 121.312 135.696 122.094 140.591 126.029C145.271 129.792 146.763 132.896 146.904 139.157C147.06 146.056 144.295 151.043 138.234 154.797C133.945 157.453 132.562 157.783 126.173 157.676C120.604 157.583 117.973 157.013 114.647 155.176C105.593 150.178 102.969 140.437 108.592 132.697ZM118.033 128.39C112.69 131.035 109.759 135.659 109.759 141.443C109.759 147.037 111.821 149.966 117.459 152.383C126.752 156.366 138.423 153.473 142.007 146.297C144.232 141.845 144.254 134.982 142.055 131.625C138.43 126.093 126.044 124.425 118.033 128.39ZM128.571 79.0219C131.097 79.4189 132.351 79.0389 133.859 77.4199C136.621 74.4559 144.377 74.6029 154.187 77.8049C165.947 81.6439 169.534 83.8749 178.921 93.1929C186.848 101.061 187.773 102.395 189.75 108.797C192.498 117.692 193.528 136.04 191.832 145.845C188.985 162.295 178.61 178.016 165.048 186.428C161.314 188.744 157.571 191.217 156.73 191.923C151.434 196.37 130.749 197.605 114.184 194.462C97.6841 191.332 78.6201 181.462 75.0771 174.215C67.0801 157.861 63.2781 143.327 64.4141 133.464C64.9851 128.505 67.9931 118.832 70.6071 113.547C74.1341 106.42 75.4591 104.349 78.6471 100.983C83.2081 96.1658 96.5181 87.1679 103.906 83.9059C110.648 80.9299 123.946 78.2959 128.571 79.0219ZM118.572 6.97986C119.293 7.26886 120.156 7.23288 120.488 6.90088C120.82 6.56888 120.23 6.33285 119.176 6.37585C118.011 6.42385 117.774 6.66086 118.572 6.97986ZM130.028 6.98987C131.001 7.24387 132.351 7.22688 133.028 6.95288C133.705 6.67888 132.909 6.47188 131.259 6.49188C129.609 6.51188 129.055 6.73587 130.028 6.98987ZM136.028 6.98987C137.001 7.24387 138.351 7.22688 139.028 6.95288C139.705 6.67888 138.909 6.47188 137.259 6.49188C135.609 6.51188 135.055 6.73587 136.028 6.98987Z" fill="white"/>
<path fill-rule="evenodd" clip-rule="evenodd" d="M32.6451 222.635C35.8041 225.38 50.5461 235.148 54.8671 237.36C57.2831 238.596 60.6091 239.954 62.2591 240.377C63.9091 240.799 69.0841 242.483 73.7591 244.119C83.8031 247.633 90.5591 248.487 119.259 249.872C150.426 251.377 195.391 242.087 210.426 231.037C217.659 225.722 231.77 210.957 239.264 200.864C247.21 190.163 247.94 188.801 250.565 179.797C251.688 175.947 253.669 169.872 254.968 166.297C257.158 160.268 257.347 158.13 257.572 136.797C257.793 115.822 257.603 112.785 255.414 102.297C253.283 92.0869 252.242 89.4149 246.136 78.4799C242.354 71.7059 238.796 65.4059 238.231 64.4799C236.788 62.1169 231.51 56.2679 222.759 47.3359C218.634 43.1259 212.784 36.8779 209.759 33.4529C206.734 30.0269 201.784 25.5649 198.759 23.5369C190.43 17.9529 170.743 7.29687 168.757 7.29687C167.792 7.29687 165.354 6.60789 163.338 5.76489C157.088 3.15389 140.667 0.161863 131.759 0.0108625C121.688 -0.159137 108.78 1.67988 99.7591 4.56988C90.2871 7.60388 74.1791 18.0469 59.3771 30.7489C53.2261 36.0269 33.5691 57.7019 32.5801 60.2969C32.2661 61.1219 29.1901 65.5959 25.7461 70.2379C9.08714 92.6939 4.38114 104.731 0.709136 134.272C-0.0228639 140.156 -0.201856 147.869 0.236144 154.625L0.941146 165.504L1.18014 168.627C4.92614 188.027 9.63414 197.199 25.7071 216.406L32.6451 222.635ZM99.1142 9.41687C99.9812 8.69687 105.094 7.02985 110.475 5.71185C118.983 3.62685 121.933 3.37485 133.099 3.77685C141.805 4.09085 146.925 4.73186 149.003 5.76886C150.688 6.60886 153.075 7.29687 154.307 7.29687C158.413 7.29687 170.155 11.3739 178.98 15.8639C192.468 22.7249 200.676 28.4639 207.695 35.9409C211.235 39.7119 217.76 46.6659 222.195 51.3949C235.081 65.1359 238.528 70.0249 246.862 86.3809C253.159 98.7379 254.284 106.468 254.113 136.189C253.979 159.548 253.802 161.951 251.895 166.189C250.755 168.724 248.656 174.735 247.23 179.549C245.035 186.957 243.511 189.797 237.301 198.049C230.665 206.866 216.362 221.753 208.038 228.506C202.264 233.19 181.904 240.045 164.259 243.245C154.393 245.034 127.657 247.343 122.791 246.827C120.298 246.562 110.609 245.821 101.259 245.18C88.2271 244.287 82.8591 243.493 78.2591 241.777C74.9591 240.546 70.2341 238.958 67.7591 238.249C58.8561 235.697 49.8251 230.615 38.6271 221.856L32.8011 217.297C27.3111 213 14.8411 196.678 11.2161 189.043C6.39714 178.897 4.77113 170.365 4.11613 151.797C3.40913 131.762 4.78715 121.606 10.7621 102.797C13.1771 95.1969 18.5911 85.2499 25.4591 75.7969C38.3701 58.0239 43.2661 51.5539 45.5111 49.2969C46.8791 47.9219 49.8571 44.6249 52.1291 41.9689C56.3781 37.0029 70.4561 25.2049 79.2001 19.2839C81.9181 17.4439 87.1551 14.7648 90.8391 13.3318C94.5231 11.8988 98.2472 10.1369 99.1142 9.41687Z" fill="white"/>
</svg>
