<svg width="84" height="168" viewBox="0 0 84 168" fill="none" xmlns="http://www.w3.org/2000/svg">
<path fill-rule="evenodd" clip-rule="evenodd" d="M24.3715 96.9307C23.3211 98.4251 23.0013 113.722 24.0198 113.722C25.1098 113.722 25.8732 111.331 25.648 108.625C25.4963 106.804 25.9544 106.44 28.8572 106.076C31.7977 105.707 32.2809 105.31 32.5321 103.057C33.0452 98.4464 26.6704 93.6605 24.3715 96.9307ZM29.6747 102.327C27.7189 104.046 24.9958 102.961 24.9958 100.463C24.9958 98.0793 27.8918 97.6537 29.868 99.7463C30.8894 100.829 30.8546 101.289 29.6747 102.327Z" fill="black"/>
<path d="M56.8641 97.1762C55.3644 98.7658 54.9334 113.876 56.4013 113.42C56.9328 113.254 57.241 112.102 57.0874 110.858C56.7511 108.152 59.135 107.01 61.9267 108.543C63.5559 109.438 63.7637 109.369 63.4516 108.04C63.1974 106.958 62.3123 106.548 60.4705 106.66C58.4895 106.782 57.8508 106.433 57.8508 105.229C57.8508 102.135 59.6945 99.279 61.6919 99.279C63.0042 99.279 63.6487 98.7191 63.6487 97.5798C63.6487 96.2739 63.0042 95.8805 60.8676 95.8805C59.3389 95.8805 57.5367 96.4634 56.8641 97.1762Z" fill="black"/>
<path d="M47.2077 107.164C47.2009 108.202 46.9323 109.909 46.6124 110.961C46.2916 112.013 46.4646 112.873 46.996 112.873C47.5275 112.873 48.174 112.013 48.4339 110.961C48.6929 109.909 49.2041 108.43 49.5684 107.672C49.9868 106.803 49.6766 106.108 48.7258 105.787C47.6445 105.423 47.2173 105.809 47.2077 107.164Z" fill="black"/>
<path d="M36.5916 110.799C36.5916 112.032 37.0101 112.746 37.558 112.448C38.0894 112.159 38.5243 111.181 38.5243 110.274C38.5243 109.366 38.0894 108.625 37.558 108.625C37.0265 108.625 36.5916 109.604 36.5916 110.799Z" fill="black"/>
<path d="M39.0567 112.087C37.4894 113.423 36.4651 114.744 36.7801 115.021C37.4604 115.619 42.3896 111.457 42.3896 110.286V110.269C42.3896 109.938 42.3896 109.714 42.2788 109.657C42.0471 109.538 41.3307 110.149 39.1169 112.036L39.0567 112.087Z" fill="black"/>
<path d="M47.8242 99.7369C46.7893 102.106 47.1603 104.174 48.7113 104.698C49.9559 105.118 50.0941 104.676 49.55 102.028C48.7606 98.1864 48.5953 97.968 47.8242 99.7369Z" fill="black"/>
<path d="M44.3222 98.8542C44.3222 99.5551 44.4933 100.129 44.702 100.129C44.9107 100.129 45.332 99.5551 45.6384 98.8542C45.9437 98.1533 45.7727 97.5798 45.2586 97.5798C44.7436 97.5798 44.3222 98.1533 44.3222 98.8542Z" fill="black"/>
<path d="M15.3325 98.4294C15.3325 98.8967 15.9848 99.279 16.782 99.279C17.5792 99.279 18.2315 98.8967 18.2315 98.4294C18.2315 97.9621 17.5792 97.5798 16.782 97.5798C15.9848 97.5798 15.3325 97.9621 15.3325 98.4294Z" fill="black"/>
<path d="M59.0026 110.388C59.193 110.89 59.7612 111.301 60.2666 111.301C60.772 111.301 61.3402 110.89 61.5305 110.388C61.7209 109.886 61.1527 109.474 60.2666 109.474C59.3805 109.474 58.8123 109.886 59.0026 110.388Z" fill="black"/>
<path d="M62.407 111.429C62.0601 112.223 60.8937 112.873 59.8134 112.873C58.734 112.873 57.8508 113.255 57.8508 113.722C57.8508 114.19 58.4199 114.572 59.1157 114.572C61.1769 114.572 63.9492 112.391 63.4757 111.142C63.1452 110.27 62.8814 110.341 62.407 111.429Z" fill="black"/>
<path d="M72.0238 102.395C70.8082 103.463 71.3793 106.076 72.8288 106.076C73.7304 106.076 74.2783 105.274 74.2783 103.952C74.2783 101.889 73.3371 101.239 72.0238 102.395Z" fill="black"/>
<path d="M70.5811 99.1694C68.603 100.272 68.0754 106.197 69.7771 108.198C70.5714 109.133 71.5445 109.613 71.9388 109.266C72.3331 108.919 71.9504 107.949 71.0875 107.112C69.3316 105.406 69.7868 102.316 72.1485 99.9162C73.6762 98.364 72.7872 97.94 70.5811 99.1694Z" fill="black"/>
<path d="M71.9716 109.846C70.0632 110.587 69.5597 111.134 70.3782 111.58C71.0884 111.965 72.4075 111.497 73.6241 110.427C75.949 108.383 75.8389 108.344 71.9716 109.846Z" fill="black"/>
<path fill-rule="evenodd" clip-rule="evenodd" d="M23.7395 95.2433C22.4534 96.0836 21.9837 98.3512 21.487 106.109L20.8589 115.913L23.6526 115.809C26.2713 115.712 26.4636 115.459 26.74 111.74C26.9825 108.468 27.3623 107.775 28.9142 107.775C29.9482 107.775 31.6634 107.01 32.7264 106.076L32.8531 105.964L32.9646 105.866C33.6765 105.236 34.12 104.844 34.3876 104.922C34.8298 105.05 34.7913 106.461 34.6892 110.204L34.6687 110.961L34.5256 116.271H37.4729C40.0018 116.271 40.7662 115.699 42.8621 112.236L45.304 108.2L45.0624 111.555C44.8247 114.856 44.8759 114.911 48.1953 114.954L51.5697 114.997L51.2865 107.35C50.9097 97.1779 50.04 95.2816 45.9428 95.7013C42.981 96.0054 42.7925 96.2306 42.6225 99.6588C42.5239 101.657 41.9219 104.397 41.2841 105.746C40.1883 108.067 40.083 107.858 39.336 101.909C39.2804 101.466 39.2292 101.052 39.1814 100.666L39.1811 100.664C38.7117 96.8741 38.5701 95.7305 37.8631 95.2927C37.5576 95.1035 37.1465 95.0461 36.5578 94.9639L36.5566 94.9638L36.5555 94.9636C36.4167 94.9442 36.268 94.9234 36.1085 94.8992C34.4126 94.6418 34.2048 95.0216 34.4136 98.0046L34.6503 101.403L32.7737 98.6962C31.015 96.1592 28.1402 94.1813 26.2104 94.1813C25.7456 94.1813 24.6334 94.6596 23.7395 95.2433ZM30.9824 61.642C31.336 64.3871 31.0508 68.164 22.3762 75.6678C19.6502 78.0258 17.1964 79.9104 15.0507 81.5583C9.53075 85.7978 6.05021 88.4709 5.22285 93.607C4.61407 97.3878 4.70007 97.6435 6.32446 96.9043C7.29272 96.4642 10.8034 95.844 14.1246 95.5254L20.1641 94.9468V97.4625C20.1641 99.7242 19.7834 100.036 16.4061 100.537C11.8451 101.215 11.1387 103.118 12.4413 111.22C13.3709 117.001 12.6606 118.82 9.47371 118.82C6.83371 118.82 6.54768 117.868 6.54768 109.068C6.54768 102.832 6.24812 100.978 5.23928 100.978C3.52212 100.978 2.90851 106.497 3.32016 118.244C3.39546 120.397 3.56803 121.498 3.74855 122.65C3.99197 124.203 4.24984 125.848 4.30311 130.29C4.36838 135.712 4.19112 138.111 4.09977 139.347C4.04536 140.083 4.02144 140.407 4.09741 140.711C4.15703 140.95 4.27817 141.177 4.49439 141.582C4.72469 142.014 5.06287 142.648 5.54947 143.713C7.49951 147.982 10.4304 150.618 18.2315 155.119L28.3779 160.973L48.0397 159.916C66.798 158.907 67.9314 158.629 72.709 153.876C76.1404 150.461 78.1532 146.979 79.107 142.813L79.1862 142.467L79.2757 142.077L79.2884 142.021L79.2894 142.017C80.0566 138.674 80.3357 137.457 80.2531 136.26C80.2059 135.576 80.0405 134.898 79.7804 133.832L79.78 133.83C79.5989 133.088 79.3719 132.157 79.107 130.905C79.107 126.49 79.0148 125.369 78.8601 123.49L78.86 123.489L78.8599 123.488C78.7761 122.47 78.6739 121.228 78.5581 119.118C78.2296 113.113 77.816 108.069 77.6401 107.909C77.4642 107.748 76.6516 108.753 75.835 110.142C73.6337 113.885 71.3532 114.292 68.5634 111.44C67.2772 110.126 66.0732 109.433 65.8886 109.899C64.2372 114.061 62.9839 115.01 58.5494 115.461L53.9855 115.925V106.327C53.9855 101.049 53.97 96.443 53.9516 96.0929C53.9024 95.1499 60.8918 94.0369 63.4071 94.5874C65.132 94.9647 65.5813 95.663 65.5813 97.9647C65.5813 100.495 65.2431 100.9 62.9327 101.135C60.1033 101.422 58.4499 104.377 61.1179 104.377C61.9306 104.377 63.7019 105.349 65.0547 106.539L67.514 108.702L67.6609 103.778C67.828 98.2 67.9015 97.7267 68.919 95.6681C69.7076 94.0726 73.7758 93.6291 74.7614 95.0309C75.09 95.4982 75.7944 95.8805 76.3278 95.8805C77.2234 95.8805 76.0633 93.7252 74.5069 90.8336C73.7509 89.429 72.9013 87.8507 72.1485 86.2613C71.6793 85.2713 70.8131 84.1976 69.9513 83.1293C68.9139 81.8434 67.8829 80.5655 67.5588 79.4512C64.2211 75.6678 62.3732 73.9287 55.9404 69.6144C51.442 66.5979 51.7399 63.6093 52.5023 55.9597C52.7489 53.4851 53.0442 50.5228 53.2414 46.914C54.1313 30.6172 52.95 22.7038 52.3613 18.7604C52.1861 17.5869 52.0634 16.7649 52.0634 16.1782C52.0634 13.6202 29.9033 13.836 29.9685 17.0253C30.0077 18.9423 29.9907 25.2803 29.9763 30.626V30.6269V30.628V30.6294V30.6311L29.9746 31.2868V31.2878V31.2891L29.9728 31.9338L29.9728 31.9374C29.965 34.922 29.9597 37.4207 29.9685 38.3754C30.0559 47.888 30.1209 54.9609 30.9824 61.642Z" fill="black"/>
<path fill-rule="evenodd" clip-rule="evenodd" d="M34.659 0.669428C25.5118 2.29219 21.316 7.00925 22.5384 14.293C23.1916 18.1791 23.4767 23.1128 24.4865 47.9632L25.0431 61.642L21.8784 65.5638C20.1381 67.7209 16.267 72.0973 13.2743 75.2885C5.32335 83.7684 2.69205 88.8228 2.16251 96.6367C1.92189 100.192 1.53826 105.014 1.31214 107.35C1.08505 109.687 0.604793 120.01 0.244354 130.29C-0.677519 156.606 0.443415 159.395 13.6849 163.723C26.5902 167.941 44.99 169.125 62.922 166.891C75.032 165.382 78.9388 163.629 81.7808 158.425C83.5801 155.131 83.9743 152.956 83.9995 146.178C84.0169 141.645 83.5994 135.984 83.0718 133.598C82.5432 131.213 81.632 122.801 81.0464 114.907C79.4829 93.8449 77.0207 81.8458 72.766 74.551C72.0557 73.3343 69.3539 70.9163 66.7612 69.178C64.1686 67.4397 61.2232 64.8034 60.2163 63.3191C58.1252 60.2376 58.0701 56.0158 59.7071 24.0882C59.7474 23.3006 59.7867 22.5436 59.8244 21.816L59.8256 21.7932L59.8265 21.7746L59.8267 21.7723C60.4678 9.40431 60.6683 5.53832 58.5677 3.6077C57.6125 2.72982 56.1816 2.2521 54.1 1.55716C53.8252 1.46545 53.5392 1.36995 53.2414 1.26925C49.035 -0.152999 40.7942 -0.418927 34.659 0.669428ZM25.3591 7.21485C26.0877 4.66176 29.6467 3.34401 38.1648 2.47486C41.8175 2.10188 46.0442 1.74674 47.5585 1.68472C51.5445 1.52329 56.8941 4.0339 57.9967 6.58359C58.8036 8.45019 58.5803 9.06191 56.5259 10.6159C54.5276 12.1273 52.334 12.5538 43.9995 13.0534C30.0351 13.8903 23.9937 11.9982 25.3591 7.21485ZM22.3762 75.6678C31.0508 68.164 31.336 64.3871 30.9824 61.642C30.1209 54.9609 30.0559 47.888 29.9685 38.3754C29.9597 37.4207 29.965 34.922 29.9728 31.9374L29.9728 31.9338L29.9746 31.2891V31.2878V31.2868L29.9763 30.6311V30.6294V30.628V30.6269V30.626C29.9907 25.2803 30.0077 18.9423 29.9685 17.0253C29.9033 13.836 52.0634 13.6202 52.0634 16.1782C52.0634 16.7649 52.1861 17.5869 52.3613 18.7604C52.95 22.7038 54.1313 30.6172 53.2414 46.914C53.0442 50.5228 52.7489 53.4851 52.5023 55.9597C51.7399 63.6093 51.442 66.5979 55.9404 69.6144C62.3732 73.9287 64.2211 75.6678 67.5588 79.4512C67.8829 80.5655 68.9139 81.8434 69.9513 83.1293C70.8131 84.1976 71.6793 85.2713 72.1485 86.2613C72.9013 87.8507 73.7509 89.429 74.5069 90.8336C76.0633 93.7252 77.2234 95.8805 76.3278 95.8805C75.7944 95.8805 75.09 95.4982 74.7614 95.0309C73.7758 93.6291 69.7076 94.0726 68.919 95.6681C67.9015 97.7267 67.828 98.2 67.6609 103.778L67.514 108.702L65.0547 106.539C63.7019 105.349 61.9306 104.377 61.1179 104.377C58.4499 104.377 60.1033 101.422 62.9327 101.135C65.2431 100.9 65.5813 100.495 65.5813 97.9647C65.5813 95.663 65.132 94.9647 63.4071 94.5874C60.8918 94.0369 53.9024 95.1499 53.9516 96.0929C53.97 96.443 53.9855 101.049 53.9855 106.327V115.925L58.5494 115.461C62.9839 115.01 64.2372 114.061 65.8886 109.899C66.0732 109.433 67.2772 110.126 68.5634 111.44C71.3532 114.292 73.6337 113.885 75.835 110.142C76.6516 108.753 77.4642 107.748 77.6401 107.909C77.816 108.069 78.2296 113.113 78.5581 119.118C78.6739 121.228 78.7761 122.47 78.8599 123.488L78.86 123.489L78.8601 123.49C79.0148 125.369 79.107 126.49 79.107 130.905C79.3719 132.157 79.5989 133.088 79.78 133.83L79.7804 133.832C80.0405 134.898 80.2059 135.576 80.2531 136.26C80.3357 137.457 80.0566 138.674 79.2894 142.017L79.2884 142.021L79.2757 142.077L79.1862 142.467L79.107 142.813C78.1532 146.979 76.1404 150.461 72.709 153.876C67.9314 158.629 66.798 158.907 48.0397 159.916L28.3779 160.973L18.2315 155.119C10.4304 150.618 7.49951 147.982 5.54947 143.713C5.06287 142.648 4.72469 142.014 4.49439 141.582C4.27817 141.177 4.15703 140.95 4.09741 140.711C4.02144 140.407 4.04536 140.083 4.09977 139.347C4.19112 138.111 4.36838 135.712 4.30311 130.29C4.24984 125.848 3.99197 124.203 3.74855 122.65C3.56803 121.498 3.39546 120.397 3.32016 118.244C2.90851 106.497 3.52212 100.978 5.23928 100.978C6.24812 100.978 6.54768 102.832 6.54768 109.068C6.54768 117.868 6.83371 118.82 9.47371 118.82C12.6606 118.82 13.3709 117.001 12.4413 111.22C11.1387 103.118 11.8451 101.215 16.4061 100.537C19.7834 100.036 20.1641 99.7242 20.1641 97.4625V94.9468L14.1246 95.5254C10.8034 95.844 7.29272 96.4642 6.32446 96.9043C4.70007 97.6435 4.61407 97.3878 5.22285 93.607C6.05021 88.4709 9.53075 85.7978 15.0507 81.5583C17.1964 79.9104 19.6502 78.0258 22.3762 75.6678ZM72.3514 97.1533C70.8729 97.5662 70.5598 97.3818 71.0053 96.3606C71.7571 94.6393 72.6703 94.6809 74.4648 96.5178C77.011 99.1244 77.3782 100.129 75.7848 100.129C74.9064 100.129 74.2783 99.3962 74.2783 98.3725C74.2783 97.0037 73.8521 96.7344 72.3514 97.1533ZM56.4013 113.42C54.9334 113.876 55.3644 98.7658 56.8641 97.1762C57.5367 96.4634 59.3389 95.8805 60.8676 95.8805C63.0042 95.8805 63.6487 96.2739 63.6487 97.5798C63.6487 98.7191 63.0042 99.279 61.6919 99.279C59.6945 99.279 57.8508 102.135 57.8508 105.229C57.8508 106.433 58.4895 106.782 60.4705 106.66C62.3123 106.548 63.1974 106.958 63.4516 108.04C63.7637 109.369 63.5559 109.438 61.9267 108.543C59.135 107.01 56.7511 108.152 57.0874 110.858C57.241 112.102 56.9328 113.254 56.4013 113.42ZM16.782 99.279C15.9848 99.279 15.3325 98.8967 15.3325 98.4294C15.3325 97.9621 15.9848 97.5798 16.782 97.5798C17.5792 97.5798 18.2315 97.9621 18.2315 98.4294C18.2315 98.8967 17.5792 99.279 16.782 99.279ZM69.7771 108.198C68.0754 106.197 68.603 100.272 70.5811 99.1694C72.7872 97.94 73.6762 98.364 72.1485 99.9162C69.7868 102.316 69.3316 105.406 71.0875 107.112C71.9504 107.949 72.3331 108.919 71.9388 109.266C71.5445 109.613 70.5714 109.133 69.7771 108.198ZM72.8288 106.076C71.3793 106.076 70.8082 103.463 72.0238 102.395C73.3371 101.239 74.2783 101.889 74.2783 103.952C74.2783 105.274 73.7304 106.076 72.8288 106.076ZM70.3782 111.58C69.5597 111.134 70.0632 110.587 71.9716 109.846C75.8389 108.344 75.949 108.383 73.6241 110.427C72.4075 111.497 71.0884 111.965 70.3782 111.58ZM60.2666 111.301C59.7612 111.301 59.193 110.89 59.0026 110.388C58.8123 109.886 59.3805 109.474 60.2666 109.474C61.1527 109.474 61.7209 109.886 61.5305 110.388C61.3402 110.89 60.772 111.301 60.2666 111.301ZM59.8134 112.873C60.8937 112.873 62.0601 112.223 62.407 111.429C62.8814 110.341 63.1452 110.27 63.4757 111.142C63.9492 112.391 61.1769 114.572 59.1157 114.572C58.4199 114.572 57.8508 114.19 57.8508 113.722C57.8508 113.255 58.734 112.873 59.8134 112.873Z" fill="white"/>
<path fill-rule="evenodd" clip-rule="evenodd" d="M23.7395 95.2433C22.4534 96.0836 21.9837 98.3512 21.487 106.109L20.8589 115.913L23.6526 115.809C26.2713 115.712 26.4636 115.459 26.74 111.74C26.9825 108.468 27.3623 107.775 28.9142 107.775C29.9482 107.775 31.6634 107.01 32.7264 106.076L32.8531 105.964L32.9646 105.866C33.6765 105.236 34.12 104.844 34.3876 104.922C34.8298 105.05 34.7913 106.461 34.6892 110.204L34.6687 110.961L34.5256 116.271H37.4729C40.0018 116.271 40.7662 115.699 42.8621 112.236L45.304 108.2L45.0624 111.555C44.8247 114.856 44.8759 114.911 48.1953 114.954L51.5697 114.997L51.2865 107.35C50.9097 97.1779 50.04 95.2816 45.9428 95.7013C42.981 96.0054 42.7925 96.2306 42.6225 99.6588C42.5239 101.657 41.9219 104.397 41.2841 105.746C40.1883 108.067 40.083 107.858 39.336 101.909C39.2804 101.466 39.2292 101.052 39.1814 100.666L39.1811 100.664C38.7117 96.8741 38.5701 95.7305 37.8631 95.2927C37.5576 95.1035 37.1465 95.0461 36.5578 94.9639L36.5566 94.9638L36.5555 94.9636C36.4167 94.9442 36.268 94.9234 36.1085 94.8992C34.4126 94.6418 34.2048 95.0216 34.4136 98.0046L34.6503 101.403L32.7737 98.6962C31.015 96.1592 28.1402 94.1813 26.2104 94.1813C25.7456 94.1813 24.6334 94.6596 23.7395 95.2433ZM24.0198 113.722C23.0013 113.722 23.3211 98.4251 24.3715 96.9307C26.6704 93.6605 33.0452 98.4464 32.5321 103.057C32.2809 105.31 31.7977 105.707 28.8572 106.076C25.9544 106.44 25.4963 106.804 25.648 108.625C25.8732 111.331 25.1098 113.722 24.0198 113.722ZM44.702 100.129C44.4933 100.129 44.3222 99.5551 44.3222 98.8542C44.3222 98.1533 44.7436 97.5798 45.2586 97.5798C45.7727 97.5798 45.9437 98.1533 45.6384 98.8542C45.332 99.5551 44.9107 100.129 44.702 100.129ZM48.7113 104.698C47.1603 104.174 46.7893 102.106 47.8242 99.7369C48.5953 97.968 48.7606 98.1864 49.55 102.028C50.0941 104.676 49.9559 105.118 48.7113 104.698ZM46.6124 110.961C46.9323 109.909 47.2009 108.202 47.2077 107.164C47.2173 105.809 47.6445 105.423 48.7258 105.787C49.6766 106.108 49.9868 106.803 49.5684 107.672C49.2041 108.43 48.6929 109.909 48.4339 110.961C48.174 112.013 47.5275 112.873 46.996 112.873C46.4646 112.873 46.2916 112.013 46.6124 110.961ZM37.558 112.448C37.0101 112.746 36.5916 112.032 36.5916 110.799C36.5916 109.604 37.0265 108.625 37.558 108.625C38.0894 108.625 38.5243 109.366 38.5243 110.274C38.5243 111.181 38.0894 112.159 37.558 112.448ZM36.7801 115.021C36.4651 114.744 37.4894 113.423 39.0567 112.087L39.1169 112.036C41.3307 110.149 42.0471 109.538 42.2788 109.657C42.3896 109.714 42.3896 109.938 42.3896 110.269V110.286C42.3896 111.457 37.4604 115.619 36.7801 115.021Z" fill="white"/>
<path fill-rule="evenodd" clip-rule="evenodd" d="M24.9958 100.463C24.9958 102.961 27.7189 104.046 29.6747 102.327C30.8546 101.289 30.8894 100.829 29.868 99.7463C27.8918 97.6537 24.9958 98.0793 24.9958 100.463ZM27.9517 101.828C27.4512 101.828 26.7738 101.446 26.4453 100.978C26.1167 100.511 26.5264 100.129 27.3546 100.129C28.1827 100.129 28.8611 100.511 28.8611 100.978C28.8611 101.446 28.4523 101.828 27.9517 101.828Z" fill="white"/>
<path d="M26.4453 100.978C26.7738 101.446 27.4512 101.828 27.9517 101.828C28.4523 101.828 28.8611 101.446 28.8611 100.978C28.8611 100.511 28.1827 100.129 27.3546 100.129C26.5264 100.129 26.1167 100.511 26.4453 100.978Z" fill="black"/>
<path d="M71.0053 96.3606C70.5598 97.3818 70.8729 97.5662 72.3514 97.1533C73.8521 96.7344 74.2783 97.0037 74.2783 98.3725C74.2783 99.3962 74.9064 100.129 75.7848 100.129C77.3782 100.129 77.011 99.1244 74.4648 96.5178C72.6703 94.6809 71.7571 94.6393 71.0053 96.3606Z" fill="black"/>
<path d="M38.1648 2.47486C29.6467 3.34401 26.0877 4.66176 25.3591 7.21485C23.9937 11.9982 30.0351 13.8903 43.9995 13.0534C52.334 12.5538 54.5276 12.1273 56.5259 10.6159C58.5803 9.06191 58.8036 8.45019 57.9967 6.58359C56.8941 4.0339 51.5445 1.52329 47.5585 1.68472C46.0442 1.74674 41.8175 2.10188 38.1648 2.47486Z" fill="black"/>
</svg>
