<svg width="74" height="168" viewBox="0 0 74 168" fill="none" xmlns="http://www.w3.org/2000/svg">
<path fill-rule="evenodd" clip-rule="evenodd" d="M21.4638 96.8399C20.5387 98.333 20.257 113.616 21.154 113.616C22.114 113.616 22.7863 111.227 22.588 108.523C22.4544 106.704 22.8578 106.341 25.4143 105.977C28.004 105.608 28.4295 105.211 28.6508 102.961C29.1027 98.3542 23.4884 93.5728 21.4638 96.8399ZM26.1343 102.231C24.4118 103.949 22.0136 102.865 22.0136 100.368C22.0136 97.9876 24.5641 97.5623 26.3045 99.6529C27.204 100.734 27.1734 101.194 26.1343 102.231Z" fill="#D9D9D9"/>
<path d="M50.0798 97.0853C48.759 98.6734 48.3794 113.77 49.6721 113.314C50.1402 113.148 50.4117 111.997 50.2764 110.755C49.9802 108.05 52.0797 106.91 54.5383 108.442C55.9732 109.335 56.1561 109.267 55.8812 107.939C55.6574 106.858 54.8779 106.449 53.2558 106.561C51.5112 106.682 50.9487 106.333 50.9487 105.13C50.9487 102.04 52.5724 99.1861 54.3315 99.1861C55.4872 99.1861 56.0549 98.6267 56.0549 97.4884C56.0549 96.1838 55.4872 95.7908 53.6056 95.7908C52.2593 95.7908 50.6721 96.3731 50.0798 97.0853Z" fill="#D9D9D9"/>
<path d="M41.5754 107.064C41.5694 108.1 41.3329 109.806 41.0512 110.857C40.7686 111.908 40.9209 112.767 41.389 112.767C41.8571 112.767 42.4264 111.908 42.6554 110.857C42.8834 109.806 43.3336 108.329 43.6545 107.572C44.023 106.703 43.7498 106.009 42.9124 105.688C41.9601 105.324 41.5839 105.71 41.5754 107.064Z" fill="#D9D9D9"/>
<path d="M32.2259 110.695C32.2259 111.927 32.5944 112.641 33.077 112.343C33.545 112.054 33.928 111.077 33.928 110.171C33.928 109.264 33.545 108.523 33.077 108.523C32.6089 108.523 32.2259 109.501 32.2259 110.695Z" fill="#D9D9D9"/>
<path d="M34.3969 111.982C33.0166 113.317 32.1145 114.636 32.3919 114.913C32.991 115.511 37.3321 111.353 37.3321 110.183V110.166C37.3322 109.835 37.3322 109.611 37.2346 109.554C37.0305 109.436 36.3996 110.046 34.4499 111.931L34.3969 111.982Z" fill="#D9D9D9"/>
<path d="M42.1184 99.6436C41.2069 102.01 41.5337 104.077 42.8996 104.6C43.9957 105.019 44.1174 104.578 43.6383 101.932C42.943 98.0945 42.7975 97.8764 42.1184 99.6436Z" fill="#D9D9D9"/>
<path d="M39.0342 98.7617C39.0342 99.4619 39.1848 100.035 39.3687 100.035C39.5525 100.035 39.9235 99.4619 40.1933 98.7617C40.4622 98.0614 40.3116 97.4884 39.8589 97.4884C39.4053 97.4884 39.0342 98.0614 39.0342 98.7617Z" fill="#D9D9D9"/>
<path d="M13.5032 98.3373C13.5032 98.8041 14.0777 99.1861 14.7798 99.1861C15.4819 99.1861 16.0563 98.8041 16.0563 98.3373C16.0563 97.8704 15.4819 97.4884 14.7798 97.4884C14.0777 97.4884 13.5032 97.8704 13.5032 98.3373Z" fill="#D9D9D9"/>
<path d="M51.9631 110.284C52.1308 110.786 52.6312 111.197 53.0763 111.197C53.5213 111.197 54.0217 110.786 54.1894 110.284C54.3571 109.783 53.8567 109.372 53.0763 109.372C52.2959 109.372 51.7954 109.783 51.9631 110.284Z" fill="#D9D9D9"/>
<path d="M54.9613 111.325C54.6558 112.118 53.6286 112.767 52.6771 112.767C51.7265 112.767 50.9487 113.149 50.9487 113.616C50.9487 114.083 51.4499 114.465 52.0627 114.465C53.8779 114.465 56.3195 112.286 55.9025 111.038C55.6115 110.167 55.3791 110.238 54.9613 111.325Z" fill="#D9D9D9"/>
<path d="M63.4308 102.299C62.3602 103.367 62.8631 105.977 64.1397 105.977C64.9337 105.977 65.4162 105.175 65.4162 103.855C65.4162 101.794 64.5873 101.144 63.4308 102.299Z" fill="#D9D9D9"/>
<path d="M62.1602 99.0766C60.4181 100.178 59.9534 106.098 61.4521 108.097C62.1517 109.031 63.0087 109.51 63.3559 109.164C63.7031 108.817 63.3661 107.848 62.6061 107.011C61.0598 105.307 61.4606 102.221 63.5405 99.8227C64.886 98.2719 64.1031 97.8483 62.1602 99.0766Z" fill="#D9D9D9"/>
<path d="M63.3848 109.743C61.704 110.483 61.2606 111.03 61.9815 111.475C62.607 111.861 63.7686 111.393 64.8401 110.323C66.8877 108.282 66.7906 108.243 63.3848 109.743Z" fill="#D9D9D9"/>
<path fill-rule="evenodd" clip-rule="evenodd" d="M20.9072 95.1542C19.7745 95.9937 19.3609 98.2592 18.9235 106.01L18.3703 115.804L20.8306 115.701C23.1369 115.604 23.3063 115.351 23.5497 111.636C23.7633 108.366 24.0977 107.674 25.4645 107.674C26.3751 107.674 27.8857 106.91 28.8218 105.977L28.9334 105.865L29.0316 105.767C29.6586 105.138 30.0492 104.746 30.2848 104.824C30.6743 104.952 30.6404 106.361 30.5505 110.101L30.5324 110.857L30.4064 116.162H33.0021C35.2292 116.162 35.9024 115.59 37.7483 112.131L39.8989 108.099L39.6861 111.451C39.4767 114.748 39.5219 114.803 42.4452 114.846L45.417 114.889L45.1676 107.25C44.8357 97.087 44.0698 95.1924 40.4614 95.6117C37.853 95.9156 37.687 96.1405 37.5372 99.5655C37.4504 101.562 36.9202 104.299 36.3586 105.647C35.3935 107.965 35.3007 107.757 34.6429 101.813C34.5939 101.371 34.5488 100.957 34.5067 100.572L34.5065 100.57C34.0931 96.7834 33.9683 95.6409 33.3457 95.2035C33.0766 95.0145 32.7146 94.9572 32.1961 94.875L32.1951 94.8749L32.1941 94.8747C32.0718 94.8554 31.9409 94.8346 31.8004 94.8104C30.3069 94.5532 30.1239 94.9327 30.3077 97.9129L30.5162 101.308L28.8635 98.6038C27.3146 96.0692 24.7828 94.0932 23.0833 94.0932C22.674 94.0932 21.6944 94.5711 20.9072 95.1542ZM27.2859 61.5843C27.5974 64.3268 27.3462 68.1002 19.7065 75.597C17.3058 77.9527 15.1447 79.8356 13.255 81.482C8.39365 85.7175 5.32836 88.3881 4.59972 93.5194C4.06357 97.2966 4.13931 97.5521 5.5699 96.8136C6.42263 96.3739 9.51444 95.7543 12.4394 95.436L17.7584 94.858V97.3713C17.7584 99.6309 17.4231 99.9424 14.4487 100.443C10.4319 101.121 9.80974 103.022 10.9569 111.116C11.7756 116.892 11.1501 118.709 8.34342 118.709C6.01839 118.709 5.76649 117.757 5.76649 108.966C5.76649 102.736 5.50267 100.884 4.61419 100.884C3.1019 100.884 2.5615 106.398 2.92404 118.133C2.99035 120.285 3.14234 121.385 3.30132 122.535C3.5157 124.087 3.7428 125.73 3.78971 130.168C3.8472 135.585 3.69108 137.982 3.61063 139.216C3.56272 139.952 3.54165 140.275 3.60856 140.579C3.66106 140.818 3.76775 141.045 3.95817 141.45C4.161 141.881 4.45883 142.514 4.88737 143.579C6.60476 147.844 9.18594 150.477 16.0563 154.974L24.9922 160.822L42.3081 159.766C58.8284 158.758 59.8266 158.481 64.0342 153.732C67.0562 150.32 68.8289 146.841 69.6688 142.679L69.7386 142.334L69.8174 141.944L69.8286 141.888L69.8295 141.884C70.5051 138.544 70.7509 137.329 70.6782 136.133C70.6367 135.449 70.491 134.771 70.2619 133.706L70.2616 133.705C70.1021 132.963 69.9021 132.033 69.6688 130.783C69.6688 126.371 69.5876 125.252 69.4514 123.375L69.4513 123.374L69.4512 123.373C69.3774 122.355 69.2874 121.115 69.1854 119.007C68.8961 113.007 68.5319 107.968 68.377 107.808C68.2221 107.647 67.5064 108.651 66.7872 110.039C64.8486 113.778 62.8402 114.185 60.3832 111.336C59.2505 110.023 58.1901 109.33 58.0276 109.796C56.5731 113.954 55.4694 114.903 51.564 115.353L47.5445 115.816V106.228C47.5445 100.954 47.5309 96.3527 47.5147 96.003C47.4713 95.0608 53.6269 93.9489 55.8421 94.4989C57.3612 94.8758 57.7569 95.5735 57.7569 97.873C57.7569 100.401 57.4591 100.806 55.4243 101.04C52.9324 101.327 51.4763 104.279 53.826 104.279C54.5417 104.279 56.1017 105.251 57.2931 106.439L59.459 108.6L59.5884 103.681C59.7356 98.1081 59.8003 97.6353 60.6964 95.5786C61.3908 93.9845 64.9737 93.5414 65.8417 94.942C66.1311 95.4088 66.7515 95.7908 67.2213 95.7908C68.01 95.7908 66.9883 93.6375 65.6176 90.7486C64.9518 89.3453 64.2036 87.7685 63.5406 86.1806C63.1274 85.1915 62.3645 84.1187 61.6055 83.0515C60.6918 81.7668 59.7839 80.4901 59.4984 79.3768C56.559 75.597 54.9316 73.8595 49.2662 69.5492C45.3046 66.5355 45.5669 63.5497 46.2383 55.9073C46.4555 53.4351 46.7156 50.4755 46.8893 46.8701C47.673 30.5885 46.6326 22.6826 46.1141 18.7429C45.9598 17.5704 45.8518 16.7492 45.8518 16.1631C45.8518 13.6075 26.3355 13.8231 26.393 17.0093C26.4275 18.9246 26.4125 25.2566 26.3999 30.5973V30.5982V30.5993V30.6007V30.6025L26.3983 31.2575V31.2585V31.2598L26.3968 31.9039L26.3968 31.9075C26.3899 34.8893 26.3853 37.3857 26.393 38.3395C26.47 47.8432 26.5272 54.9095 27.2859 61.5843Z" fill="#D9D9D9"/>
<path fill-rule="evenodd" clip-rule="evenodd" d="M30.5239 0.668802C22.468 2.29004 18.7728 7.00269 19.8494 14.2796C20.4247 18.1621 20.6757 23.0912 21.5651 47.9183L22.0553 61.5843L19.2681 65.5024C17.7354 67.6576 14.3262 72.0298 11.6905 75.218C4.68823 83.69 2.37087 88.7397 1.9045 96.5463C1.69259 100.099 1.35473 104.916 1.15559 107.25C0.955599 109.584 0.532636 119.897 0.2152 130.168C-0.596685 156.459 0.390512 159.246 12.0522 163.57C23.4178 167.784 39.6223 168.967 55.4149 166.735C66.08 165.228 69.5208 163.476 72.0236 158.277C73.6083 154.986 73.9555 152.813 73.9776 146.041C73.9929 141.512 73.6253 135.857 73.1606 133.473C72.6951 131.09 71.8926 122.686 71.3769 114.799C69.9999 93.757 67.8314 81.7692 64.0844 74.4812C63.4588 73.2657 61.0794 70.85 58.796 69.1133C56.5127 67.3766 53.9188 64.7427 53.032 63.2598C51.1904 60.1812 51.1419 55.9634 52.5835 24.0656C52.6191 23.2787 52.6536 22.5225 52.6868 21.7956L52.6879 21.7728L52.6887 21.7542L52.6888 21.7519C53.2535 9.39551 53.43 5.53314 51.58 3.60432C50.7388 2.72726 49.4786 2.25 47.6454 1.55571C47.4034 1.46408 47.1515 1.36867 46.8892 1.26807C43.1847 -0.152855 35.9271 -0.418535 30.5239 0.668802ZM22.3335 7.2081C22.9752 4.6574 26.1096 3.34088 33.6114 2.47254C36.8283 2.09991 40.5508 1.7451 41.8843 1.68314C45.3948 1.52186 50.1061 4.03012 51.0772 6.57743C51.7878 8.44228 51.5912 9.05343 49.7819 10.6059C48.022 12.116 46.0901 12.5421 38.75 13.0412C26.4517 13.8773 21.131 11.9869 22.3335 7.2081ZM19.7065 75.597C27.3462 68.1002 27.5974 64.3268 27.2859 61.5843C26.5272 54.9095 26.47 47.8432 26.393 38.3395C26.3853 37.3857 26.3899 34.8893 26.3968 31.9075L26.3968 31.9039L26.3983 31.2598V31.2585V31.2575L26.3999 30.6025V30.6007V30.5993V30.5982V30.5973C26.4125 25.2566 26.4275 18.9246 26.393 17.0093C26.3355 13.8231 45.8518 13.6075 45.8518 16.1631C45.8518 16.7492 45.9598 17.5704 46.1141 18.7429C46.6326 22.6826 47.673 30.5885 46.8893 46.8701C46.7156 50.4755 46.4555 53.4351 46.2383 55.9073C45.5669 63.5497 45.3046 66.5355 49.2662 69.5492C54.9316 73.8595 56.559 75.597 59.4984 79.3768C59.7839 80.4901 60.6918 81.7668 61.6055 83.0515C62.3645 84.1187 63.1274 85.1915 63.5406 86.1806C64.2036 87.7685 64.9518 89.3453 65.6176 90.7486C66.9883 93.6375 68.01 95.7908 67.2213 95.7908C66.7515 95.7908 66.1311 95.4088 65.8417 94.942C64.9737 93.5414 61.3908 93.9845 60.6964 95.5786C59.8003 97.6353 59.7356 98.1081 59.5884 103.681L59.459 108.6L57.2931 106.439C56.1017 105.251 54.5417 104.279 53.826 104.279C51.4763 104.279 52.9324 101.327 55.4243 101.04C57.4591 100.806 57.7569 100.401 57.7569 97.873C57.7569 95.5735 57.3612 94.8758 55.8421 94.4989C53.6269 93.9489 47.4713 95.0608 47.5147 96.003C47.5309 96.3527 47.5445 100.954 47.5445 106.228V115.816L51.564 115.353C55.4694 114.903 56.5731 113.954 58.0276 109.796C58.1901 109.33 59.2505 110.023 60.3832 111.336C62.8402 114.185 64.8486 113.778 66.7872 110.039C67.5064 108.651 68.2221 107.647 68.377 107.808C68.5319 107.968 68.8961 113.007 69.1854 119.007C69.2874 121.115 69.3774 122.355 69.4512 123.373L69.4513 123.374L69.4514 123.375C69.5876 125.252 69.6688 126.371 69.6688 130.783C69.9021 132.033 70.1021 132.963 70.2616 133.705L70.2619 133.706C70.491 134.771 70.6367 135.449 70.6782 136.133C70.7509 137.329 70.5051 138.544 69.8295 141.884L69.8286 141.888L69.8174 141.944L69.7386 142.334L69.6688 142.679C68.8289 146.841 67.0562 150.32 64.0342 153.732C59.8266 158.481 58.8284 158.758 42.3081 159.766L24.9922 160.822L16.0563 154.974C9.18594 150.477 6.60476 147.844 4.88737 143.579C4.45883 142.514 4.161 141.881 3.95817 141.45C3.76775 141.045 3.66106 140.818 3.60856 140.579C3.54165 140.275 3.56272 139.952 3.61063 139.216C3.69108 137.982 3.8472 135.585 3.78971 130.168C3.7428 125.73 3.5157 124.087 3.30132 122.535C3.14234 121.385 2.99035 120.285 2.92404 118.133C2.5615 106.398 3.1019 100.884 4.61419 100.884C5.50267 100.884 5.76649 102.736 5.76649 108.966C5.76649 117.757 6.01839 118.709 8.34342 118.709C11.1501 118.709 11.7756 116.892 10.9569 111.116C9.80974 103.022 10.4319 101.121 14.4487 100.443C17.4231 99.9424 17.7584 99.6309 17.7584 97.3713V94.858L12.4394 95.436C9.51444 95.7543 6.42263 96.3739 5.5699 96.8136C4.13931 97.5521 4.06357 97.2966 4.59972 93.5194C5.32836 88.3881 8.39365 85.7175 13.255 81.482C15.1447 79.8356 17.3058 77.9527 19.7065 75.597ZM63.7193 97.0623C62.4172 97.4749 62.1414 97.2907 62.5338 96.2704C63.1959 94.5507 64.0001 94.5923 65.5805 96.4274C67.8229 99.0316 68.1463 100.035 66.743 100.035C65.9694 100.035 65.4162 99.3032 65.4162 98.2804C65.4162 96.9129 65.0409 96.6439 63.7193 97.0623ZM49.6721 113.314C48.3794 113.77 48.759 98.6734 50.0798 97.0853C50.6721 96.3731 52.2593 95.7908 53.6056 95.7908C55.4872 95.7908 56.0549 96.1838 56.0549 97.4884C56.0549 98.6267 55.4872 99.1861 54.3315 99.1861C52.5724 99.1861 50.9487 102.04 50.9487 105.13C50.9487 106.333 51.5112 106.682 53.2558 106.561C54.8779 106.449 55.6574 106.858 55.8812 107.939C56.1561 109.267 55.9732 109.335 54.5383 108.442C52.0797 106.91 49.9802 108.05 50.2764 110.755C50.4117 111.997 50.1402 113.148 49.6721 113.314ZM14.7798 99.1861C14.0777 99.1861 13.5032 98.8041 13.5032 98.3373C13.5032 97.8704 14.0777 97.4884 14.7798 97.4884C15.4819 97.4884 16.0563 97.8704 16.0563 98.3373C16.0563 98.8041 15.4819 99.1861 14.7798 99.1861ZM61.4521 108.097C59.9534 106.098 60.4181 100.178 62.1602 99.0766C64.1031 97.8483 64.886 98.2719 63.5405 99.8227C61.4606 102.221 61.0598 105.307 62.6061 107.011C63.3661 107.848 63.7031 108.817 63.3559 109.164C63.0087 109.51 62.1517 109.031 61.4521 108.097ZM64.1397 105.977C62.8631 105.977 62.3602 103.367 63.4308 102.299C64.5873 101.144 65.4162 101.794 65.4162 103.855C65.4162 105.175 64.9337 105.977 64.1397 105.977ZM61.9815 111.475C61.2606 111.03 61.704 110.483 63.3848 109.743C66.7906 108.243 66.8877 108.282 64.8401 110.323C63.7686 111.393 62.607 111.861 61.9815 111.475ZM53.0763 111.197C52.6312 111.197 52.1308 110.786 51.9631 110.284C51.7954 109.783 52.2959 109.372 53.0763 109.372C53.8567 109.372 54.3571 109.783 54.1894 110.284C54.0217 110.786 53.5213 111.197 53.0763 111.197ZM52.6771 112.767C53.6286 112.767 54.6558 112.118 54.9613 111.325C55.3791 110.238 55.6115 110.167 55.9025 111.038C56.3195 112.286 53.8779 114.465 52.0627 114.465C51.4499 114.465 50.9487 114.083 50.9487 113.616C50.9487 113.149 51.7265 112.767 52.6771 112.767Z" fill="black"/>
<path fill-rule="evenodd" clip-rule="evenodd" d="M20.9072 95.1542C19.7745 95.9937 19.3609 98.2592 18.9235 106.01L18.3703 115.804L20.8306 115.701C23.1369 115.604 23.3063 115.351 23.5497 111.636C23.7633 108.366 24.0977 107.674 25.4645 107.674C26.3751 107.674 27.8857 106.91 28.8218 105.977L28.9334 105.865L29.0316 105.767C29.6586 105.138 30.0492 104.746 30.2848 104.824C30.6743 104.952 30.6404 106.361 30.5505 110.101L30.5324 110.857L30.4064 116.162H33.0021C35.2292 116.162 35.9024 115.59 37.7483 112.131L39.8989 108.099L39.6861 111.451C39.4767 114.748 39.5219 114.803 42.4452 114.846L45.417 114.889L45.1676 107.25C44.8357 97.087 44.0698 95.1924 40.4614 95.6117C37.853 95.9156 37.687 96.1405 37.5372 99.5655C37.4504 101.562 36.9202 104.299 36.3586 105.647C35.3935 107.965 35.3007 107.757 34.6429 101.813C34.5939 101.371 34.5488 100.957 34.5067 100.572L34.5065 100.57C34.0931 96.7834 33.9683 95.6409 33.3457 95.2035C33.0766 95.0145 32.7146 94.9572 32.1961 94.875L32.1951 94.8749L32.1941 94.8747C32.0718 94.8554 31.9409 94.8346 31.8004 94.8104C30.3069 94.5532 30.1239 94.9327 30.3077 97.9129L30.5162 101.308L28.8635 98.6038C27.3146 96.0692 24.7828 94.0932 23.0833 94.0932C22.674 94.0932 21.6944 94.5711 20.9072 95.1542ZM21.154 113.616C20.257 113.616 20.5387 98.333 21.4638 96.8399C23.4884 93.5728 29.1027 98.3542 28.6508 102.961C28.4295 105.211 28.004 105.608 25.4143 105.977C22.8578 106.341 22.4544 106.704 22.588 108.523C22.7863 111.227 22.114 113.616 21.154 113.616ZM39.3687 100.035C39.1848 100.035 39.0342 99.4619 39.0342 98.7617C39.0342 98.0614 39.4053 97.4884 39.8589 97.4884C40.3116 97.4884 40.4622 98.0614 40.1933 98.7617C39.9235 99.4619 39.5525 100.035 39.3687 100.035ZM42.8996 104.6C41.5337 104.077 41.2069 102.01 42.1184 99.6436C42.7975 97.8764 42.943 98.0945 43.6383 101.932C44.1174 104.578 43.9957 105.019 42.8996 104.6ZM41.0512 110.857C41.3329 109.806 41.5694 108.1 41.5754 107.064C41.5839 105.71 41.9601 105.324 42.9124 105.688C43.7498 106.009 44.023 106.703 43.6545 107.572C43.3336 108.329 42.8834 109.806 42.6554 110.857C42.4264 111.908 41.8571 112.767 41.389 112.767C40.9209 112.767 40.7686 111.908 41.0512 110.857ZM33.077 112.343C32.5944 112.641 32.2259 111.927 32.2259 110.695C32.2259 109.501 32.6089 108.523 33.077 108.523C33.545 108.523 33.928 109.264 33.928 110.171C33.928 111.077 33.545 112.054 33.077 112.343ZM32.3919 114.913C32.1145 114.636 33.0166 113.317 34.3969 111.982L34.4499 111.931C36.3996 110.046 37.0305 109.436 37.2346 109.554C37.3322 109.611 37.3322 109.835 37.3321 110.166V110.183C37.3321 111.353 32.991 115.511 32.3919 114.913Z" fill="black"/>
<path fill-rule="evenodd" clip-rule="evenodd" d="M22.0136 100.368C22.0136 102.865 24.4118 103.949 26.1343 102.231C27.1734 101.194 27.204 100.734 26.3045 99.6529C24.5641 97.5623 22.0136 97.9876 22.0136 100.368ZM24.6169 101.733C24.176 101.733 23.5795 101.351 23.2901 100.884C23.0008 100.417 23.3616 100.035 24.0909 100.035C24.8203 100.035 25.4177 100.417 25.4177 100.884C25.4177 101.351 25.0577 101.733 24.6169 101.733Z" fill="black"/>
<path d="M23.2901 100.884C23.5795 101.351 24.176 101.733 24.6169 101.733C25.0577 101.733 25.4177 101.351 25.4177 100.884C25.4177 100.417 24.8203 100.035 24.0909 100.035C23.3616 100.035 23.0008 100.417 23.2901 100.884Z" fill="#D9D9D9"/>
<path d="M62.5338 96.2704C62.1414 97.2907 62.4172 97.4749 63.7193 97.0623C65.0409 96.6439 65.4162 96.9129 65.4162 98.2804C65.4162 99.3032 65.9694 100.035 66.743 100.035C68.1463 100.035 67.8229 99.0316 65.5805 96.4274C64.0001 94.5923 63.1959 94.5507 62.5338 96.2704Z" fill="#D9D9D9"/>
<path d="M33.6114 2.47254C26.1096 3.34088 22.9752 4.6574 22.3335 7.2081C21.131 11.9869 26.4517 13.8773 38.75 13.0412C46.0901 12.5421 48.022 12.116 49.7819 10.6059C51.5912 9.05343 51.7878 8.44228 51.0772 6.57743C50.1061 4.03012 45.3948 1.52186 41.8843 1.68314C40.5508 1.7451 36.8283 2.09991 33.6114 2.47254Z" fill="#D9D9D9"/>
</svg>
