<svg width="113" height="128" viewBox="0 0 113 128" fill="none" xmlns="http://www.w3.org/2000/svg">
<path d="M44.5755 1.98021C62.8147 2.26082 81.7706 1.69816 95.1999 0.477391C103.829 -0.307287 110.126 -0.113466 111.439 0.976405C112.32 1.70757 112.557 3.54957 112.557 9.67946C112.557 18.8924 111.49 22.5641 107.644 26.5916C102.136 32.3592 82.0541 40.1249 69.5261 41.332C62.7243 41.9879 60.9856 41.9272 60.6957 41.0217C60.5171 40.4627 61.9678 40.0222 65.0137 39.712C77.0223 38.4869 91.8199 33.5698 98.9268 28.443C103.627 25.0519 104.715 23.7299 105.988 19.8607C107.411 15.5324 107.402 4.41594 105.974 3.14527C105.126 2.38952 104.428 0.549785 88.1153 3.21109C77.0958 5.01145 57.5903 6.70722 44.7693 6.98072C31.9483 7.2566 18.5075 8.65976 14.8995 10.1034C8.23222 12.7694 6.96878 12.27 6.96878 6.96881C6.96878 1.61054 23.8187 1.66056 44.5755 1.98021Z" fill="#DE0004"/>
<path d="M0.199765 15.3299C0.389245 10.6457 1.19551 6.46277 1.67644 4.92307C2.28682 2.96752 5.14413 3.22844 5.67496 3.75927C6.20579 4.2901 6.06695 6.55882 5.21501 11.29C2.61943 25.705 6.62236 33.9611 19.094 39.9167C24.1297 42.3213 25.156 42.5592 29.3882 42.3076C31.9736 42.1535 37.1807 42.0675 40.9594 42.116C44.7382 42.1651 49.5482 42.2179 51.6491 42.2338L55.4684 42.2635L55.0106 45.716C54.7582 47.6152 54.9267 52.7326 55.3845 57.0877C56.7072 69.6744 56.7839 73.0185 56.0173 84.5334C55.6203 90.4998 55.2428 97.3862 55.1784 99.8364C55.0388 105.169 58.9342 105.168 49.4653 109.087C40.4958 112.799 30.7025 117.608 25.8049 121.6C24.8552 122.373 25.4163 123.141 29.8315 124.25C33.9827 125.293 36.1169 125.34 47.3417 124.639C64.4072 123.572 77.8154 120.597 80.5831 117.261C81.2492 116.459 80.5333 115.755 76.9143 113.652C72.6532 111.175 62.7894 107.314 60.7217 107.314C60.1945 107.314 59.7628 107.946 59.7628 108.718C59.7628 110.189 58.5312 111.386 57.7848 110.64C56.9372 109.793 56.4828 87.2772 57.3788 76.5781C57.8783 70.6117 56.7775 59.2105 56.8202 55.6306C56.9284 46.3468 59.0909 43.6723 59.9393 43.6723C59.9393 42.116 60.5171 47.9211 60.2191 56.1476C59.1307 86.1606 58.8805 98.6475 59.3209 100.992C59.7678 103.377 60.1063 103.622 66.1053 105.905C72.8239 108.461 84.5695 114.301 84.9296 115.265C85.0482 115.582 84.5029 116.898 83.7183 118.188C81.9956 121.021 76.2237 123.26 65.1868 125.374C54.5246 127.417 36.3164 128.628 31.4681 127.616C25.3338 126.336 18.987 124.205 18.6941 123.326C18.2884 122.108 23.5946 115.993 25.0583 115.993C25.7634 115.993 29.7107 114.261 33.8308 112.143C37.9502 110.026 42.8267 107.736 44.668 107.055C46.5086 106.373 48.5929 105.177 49.3002 104.396C50.0068 103.614 51.0084 102.975 51.5255 102.975C52.0426 102.975 52.6428 101.918 52.8598 100.625C54.858 88.7215 55.2326 73.6774 53.8983 58.8596C52.7809 46.4429 50.7645 46.8269 46.4817 45.716C42.2372 44.6161 33.3698 44.7122 30.7279 45.716C27.9559 46.7705 17.8603 44.3398 11.528 41.0217C5.39445 37.8078 4.59891 34.0464 1.67644 28.2702C-0.276939 24.4097 -0.134356 23.5534 0.199765 15.3299Z" fill="#DE0004"/>
<path fill-rule="evenodd" clip-rule="evenodd" d="M97.7311 16.9484C96.14 17.2311 87.8651 17.6954 79.3421 17.9804C60.9778 18.5944 60.6899 18.6081 41.6826 19.7617C30.9929 20.4096 26.5387 20.9455 25.715 21.6803C25.0873 22.2408 23.7855 22.7073 22.8222 22.7174C21.5696 22.7297 20.7314 23.4189 19.8773 25.1394C18.7903 27.3271 18.7838 27.7516 19.8035 29.8569C21.2709 32.8864 25.2536 34.7696 33.0461 36.1198C41.9018 37.6545 66.4394 36.4655 72.5874 34.2041C74.8814 33.3608 79.3617 31.9462 82.5438 31.061C94.426 27.756 101.709 23.0732 101.709 18.739C101.709 16.5217 101.262 16.3206 97.7311 16.9484ZM66.0481 21.9219C65.7299 20.7076 66.2753 20.5644 71.951 20.3757C87.4457 19.8607 98.8159 19.9171 98.8159 20.5094C98.8159 22.397 87.4616 28.0156 80.4298 29.6081C78.0129 30.1556 73.7568 31.2512 70.9725 32.0439C64.3146 33.9379 46.876 35.0213 37.5025 34.1223C32.8342 33.6754 29.1972 32.8712 26.6761 31.73C23.1303 30.1252 22.8793 29.8417 22.8793 27.4399C22.8793 25.1358 23.0796 24.8689 24.811 24.8689C25.8734 24.8689 27.2641 24.3974 27.9012 23.821C28.7372 23.0646 32.5746 22.5525 41.6985 21.9812C48.6507 21.5458 56.2097 21.0012 58.4972 20.7705C62.3237 20.3843 62.6556 20.4668 62.6556 21.809C62.6556 23.3408 64.447 24.4647 65.6764 23.7046C66.0735 23.4601 66.2405 22.6574 66.0481 21.9219ZM51.3179 23.8572C50.8059 25.1908 52.5553 26.58 53.5244 25.6109C54.3142 24.8212 53.5895 22.6993 52.5307 22.6993C52.1077 22.6993 51.5624 23.22 51.3179 23.8572Z" fill="#DE0004"/>
<path d="M8.86141 15.3299C7.65149 17.2883 12.1072 26.11 15.3978 28.2702C18.2443 30.1389 17.7981 28.0503 14.6355 24.7019C12.5686 22.5134 11.2342 20.2787 10.6788 18.0722C9.83484 14.7202 9.52604 14.2544 8.86141 15.3299Z" fill="#DE0004"/>
<path fill-rule="evenodd" clip-rule="evenodd" d="M71.951 20.3757C66.2753 20.5644 65.7299 20.7076 66.0481 21.9219C66.2405 22.6574 66.0735 23.4601 65.6764 23.7046C64.447 24.4647 62.6556 23.3408 62.6556 21.809C62.6556 20.4668 62.3237 20.3843 58.4972 20.7705C56.2097 21.0012 48.6507 21.5458 41.6985 21.9812C32.5746 22.5525 28.7372 23.0646 27.9012 23.821C27.2641 24.3974 25.8734 24.8689 24.811 24.8689C23.0796 24.8689 22.8793 25.1358 22.8793 27.4399C22.8793 29.8417 23.1303 30.1252 26.6761 31.73C29.1972 32.8712 32.8342 33.6754 37.5025 34.1223C46.876 35.0213 64.3146 33.9379 70.9725 32.0439C73.7568 31.2512 78.0129 30.1556 80.4298 29.6081C87.4616 28.0156 98.8159 22.397 98.8159 20.5094C98.8159 19.9171 87.4457 19.8607 71.951 20.3757ZM53.5244 25.6109C52.5553 26.58 50.8059 25.1908 51.3179 23.8572C51.5624 23.22 52.1077 22.6993 52.5307 22.6993C53.5895 22.6993 54.3142 24.8212 53.5244 25.6109Z" fill="#DE0004"/>
</svg>
