<svg width="112" height="138" viewBox="0 0 112 138" fill="none" xmlns="http://www.w3.org/2000/svg">
<path d="M85.3351 18.505C84.957 18.7493 84.0977 18.9523 83.4253 18.9564C82.753 18.9601 80.8216 19.6961 79.1331 20.5917C77.4451 21.4877 74.0765 23.2683 71.6474 24.5493C62.827 29.2008 60.1274 31.4828 60.1274 34.2877C60.1274 35.115 60.7682 36.9927 61.551 38.4598C63.3174 41.7703 69.8746 51.6719 71.6309 53.6811C72.3468 54.5006 73.9742 56.7148 75.2475 58.6012C77.4103 61.8063 79.3146 63.4205 80.9339 63.4205C81.3111 63.4205 83.8479 61.9351 86.5712 60.1192C91.3268 56.9485 95.5589 53.0491 101.202 46.6409C103.388 44.1577 103.668 43.6118 103.663 41.8285C103.655 38.4351 102.128 34.3707 98.433 27.9006C96.3321 24.2221 92.963 19.461 91.8653 18.6195C90.9858 17.9454 86.3279 17.8633 85.3351 18.505Z" fill="#39FF14"/>
<path d="M57.3775 70.1546C51.8951 70.4333 45.2494 71.1624 43.4757 71.6799C41.8973 72.1405 41.5627 72.526 40.1785 75.4835C39.0708 77.8503 38.3691 80.399 37.6798 84.5619C37.1522 87.7454 36.5221 91.044 36.2787 91.8923C35.7021 93.9025 35.7044 107.233 36.2814 108.311C36.5262 108.768 37.5615 109.477 38.5822 109.885C40.1291 110.504 42.4413 110.627 52.4597 110.624C65.3473 110.621 72.3422 109.954 73.8551 108.585C74.313 108.171 74.9276 106.862 75.2209 105.678C75.5147 104.493 75.951 102.89 76.1907 102.116C76.8438 100.01 76.7026 73.6484 76.0284 71.6703L75.4812 70.0661L67.9189 70.0345C63.7596 70.0171 59.016 70.0712 57.3775 70.1546Z" fill="#39FF14"/>
<path d="M32.7249 26.0329C29.9703 27.9134 28.3777 29.2384 20.2878 36.3795C17.8606 38.5222 14.7834 41.1002 13.4497 42.1085C10.1842 44.577 9.17996 46.3026 9.10479 49.5732C9.05988 51.5142 9.29683 52.621 10.0095 53.8012C10.5403 54.6803 11.6512 56.6373 12.478 58.1498C14.8132 62.4213 15.8187 63.8907 18.4752 66.9152C19.8314 68.4593 21.8278 70.8975 22.9122 72.3335C24.8601 74.9138 26.9473 76.2535 29.0198 76.2535C29.5987 76.2535 31.1184 75.2333 32.6043 73.8473C34.0233 72.5241 37.1357 69.8594 39.5208 67.9267C46.095 62.5987 53.4295 54.6101 55.0735 50.9862C55.6079 49.8088 55.9865 47.9773 55.9925 46.5423C56.0067 43.121 53.6243 39.222 47.6606 32.9068C45.0606 30.1532 42.521 27.3849 42.0173 26.7548C40.4879 24.8417 39.5713 24.3367 37.4708 24.2491C35.797 24.1794 35.0023 24.4783 32.7249 26.0329Z" fill="#39FF14"/>
<path fill-rule="evenodd" clip-rule="evenodd" d="M34.3835 2.91654C45.2196 1.78219 62.2531 0.356809 68.6064 0.0524847C72.4875 -0.133135 78.0171 0.18219 82.8144 0.862338C93.6311 2.39657 97.1621 3.20295 102.463 5.4883C101.992 5.63994 99.5119 6.36657 95.189 5.03765C93.0345 4.37492 90.5847 4.07196 78.2311 2.94083C68.6628 2.06452 65.8267 2.06177 57.6067 2.92204C53.0693 3.39686 48.2225 4.02247 46.8361 4.31213C45.4497 4.60224 41.6342 5.00053 38.3572 5.19715C35.0802 5.39377 27.5522 6.31545 21.6284 7.24538C9.03101 9.22304 7.35676 9.56679 5.42585 10.5746L3.98305 11.3277L6.30034 11.334C9.49026 13.7723 17.0173 15.3694 18.6076 13.9442C19.5458 13.103 21.3049 13.0601 28.1412 13.7086C36.7256 14.5237 61.2806 13.9335 62.2907 12.8881C62.5891 12.5796 66.2974 11.8052 70.5318 11.1666C74.7667 10.5281 80.801 9.2955 83.9418 8.42823C87.0827 7.5602 90.3212 7.03216 91.1379 7.25396C92.7196 7.68376 100.689 6.62539 101.944 5.81875C102.218 5.64302 102.397 5.54432 102.484 5.49739C102.753 5.61369 103.027 5.73381 103.307 5.85805C107.484 7.71195 107.726 8.51496 107.998 21.4369C108.2 31.057 108.773 41.1704 110.09 58.3789C111.143 72.1299 111.371 79.4769 111.208 94.3572C111.114 102.928 110.827 111.384 110.57 113.148C110.313 114.913 110.099 117.929 110.094 119.85L110.084 123.344L108.057 125.213C106.007 127.102 101.266 129.708 95.8531 131.92C92.5849 133.256 84.8209 134.742 77.7728 135.382C75.2521 135.611 70.3022 136.11 66.7731 136.491C58.488 137.385 41.202 137.406 33.3156 136.531C18.6672 134.907 13.9346 134.2 9.94216 133.041C6.33012 131.993 0.778469 128.524 0.235358 126.977C0.0428625 126.43 -0.0506364 109.894 0.0277365 90.2323C0.105651 70.5703 0.202372 45.2022 0.243162 33.8587L0.316481 13.2343L1.39123 11.5059C2.84915 9.16072 4.90703 7.71653 7.64963 7.11384C10.1388 6.56661 20.6623 4.81215 23.8055 4.42029C24.8766 4.28692 25.7533 3.99817 25.7533 3.7791C25.7533 3.55956 26.6979 3.38036 27.8524 3.38036C29.0065 3.38036 31.9457 3.17137 34.3835 2.91654ZM102.484 5.49739L102.502 5.48762C102.531 5.47181 102.545 5.46279 102.545 5.46279C102.545 5.46279 102.53 5.46619 102.503 5.47525L102.463 5.4883L102.484 5.49739ZM104.126 11.1567C103.35 11.5926 100.747 11.9212 94.7307 12.3428C92.462 12.5019 89.1983 12.9423 87.4778 13.3214C85.7577 13.7004 83.9065 13.8947 83.3648 13.7531C82.4491 13.5138 76.3562 14.0845 64.7107 15.5011C59.2855 16.1611 47.8096 16.4517 28.2741 16.4233C14.8788 16.404 10.3192 16.0195 6.38608 14.5756C5.73958 16.3248 5.736 20.9802 6.02524 32.3454C6.44322 48.8213 5.90227 91.7162 3.86935 111.421C4.04699 110.619 5.37827 110.139 10.4559 111.803C13.1976 112.702 19.6691 114.478 24.8367 115.75L34.2323 118.063L48.2111 117.835C55.8994 117.709 63.943 117.368 66.0856 117.076C82.4651 114.845 90.2474 113.258 93.8842 111.409C94.6019 111.043 97.5334 109.984 100.399 109.054C103.264 108.124 106.441 106.838 107.459 106.195L109.31 105.026L108.942 83.4212C108.739 71.5387 108.306 60.4758 107.98 58.8373C107.139 54.6097 105.998 40.948 104.667 15.7743C104.569 13.9278 104.661 12.705 104.717 11.9539C104.796 10.901 104.806 10.775 104.126 11.1567ZM65.1406 25.8711C69.7733 23.1899 79.8261 17.9829 82.1269 17.0723C83.5188 16.5213 85.4726 16.2491 88.1378 16.2349C93.0138 16.2083 93.5377 16.5566 97.3624 22.3686C103.183 31.2137 106.627 39.9686 105.687 43.5298C105.021 46.0524 95.629 55.9957 90.1475 59.9812C87.6267 61.8136 84.7425 63.75 83.7379 64.2835C79.9778 66.2809 77.1367 65.2203 74.2653 60.7466C73.1869 59.0664 71.1551 56.2477 69.7499 54.4832C67.3886 51.5174 62.1812 43.687 59.6916 39.3586C59.0366 38.2201 58.5499 36.4597 58.4069 34.714C58.1782 31.9168 58.1874 31.8916 60.1549 29.7572C61.243 28.577 63.4865 26.8281 65.1406 25.8711ZM18.7901 35.0866C26.0013 28.6343 30.8567 24.7074 33.5448 23.1546C35.6233 21.9538 36.3873 21.7444 37.8988 21.9612C40.5924 22.3466 41.5957 22.9828 43.8735 25.7497C45.0019 27.1205 47.8316 30.2545 50.1617 32.7139C52.4918 35.1737 55.2156 38.6028 56.2143 40.3348C57.8102 43.1026 58.032 43.8437 58.0476 46.4626C58.0709 50.4399 56.7854 53.0455 52.1187 58.4784C48.4879 62.7055 44.5019 66.4912 38.3572 71.5474C36.5926 72.9999 34.2208 75.0628 33.0865 76.132C31.3513 77.7673 30.7238 78.0767 29.1321 78.0813C26.3556 78.0895 24.2166 77.0042 22.1527 74.5416C16.4586 67.747 14.1257 64.7166 12.5326 62.0455C7.44292 53.5125 7.0451 52.6224 7.00156 49.6708C6.95343 46.4122 8.68589 43.2442 11.7566 40.976C13.1797 39.9246 16.3449 37.2741 18.7901 35.0866ZM44.2273 69.4405C46.2673 68.9341 55.9223 68.1957 65.169 67.8382C75.7755 67.4285 77.0743 67.7677 77.9951 71.1858C78.2412 72.0997 78.4566 79.1606 78.4736 86.8765C78.502 99.6664 78.42 101.237 77.5464 104.658C77.0198 106.721 76.3507 108.791 76.0596 109.257C74.588 111.613 69.5537 112.416 54.079 112.764C41.641 113.043 41.3285 113.028 38.5955 112.006C34.0063 110.29 33.938 110.108 34.1264 100.116C34.2543 93.3365 34.5334 90.3033 35.4986 85.1908C36.913 77.7013 37.166 76.808 38.7591 73.6731C40.1254 70.9855 41.1273 70.2101 44.2273 69.4405ZM2.90195 125.364L2.23317 120.711C2.85111 119.248 3.38718 116.032 3.84746 111.632C3.84746 112.66 6.97263 113.4 14.493 115.182C16.7084 115.707 19.3052 116.323 22.3159 117.062C26.3491 118.054 30.2825 119.074 31.0566 119.329C32.9141 119.943 57.6763 119.936 63.0754 119.32C79.355 117.464 85.6385 116.337 92.4391 114.053C99.4056 111.712 106.388 109.146 107.481 108.524C108.192 108.119 108.858 107.873 108.96 107.976C109.063 108.079 108.947 109.388 108.702 110.885C108.457 112.382 108.255 115.514 108.254 117.846C108.252 121.472 108.119 122.218 107.335 123.002C106.83 123.506 106.193 123.919 105.917 123.919C105.87 123.919 105.764 123.855 105.609 123.762C104.87 123.315 103.011 122.193 101.005 124.109C98.5783 126.426 96.1391 128.321 95.585 128.321C95.0309 128.321 93.5808 129.037 92.3626 129.913C89.9072 131.677 83.517 132.384 77.5961 133.04C77.2714 133.076 76.9482 133.111 76.627 133.147C73.8221 133.46 65.1103 133.536 52.1412 133.36C35.5458 133.136 31.8825 133.198 31.2876 133.711C30.6794 134.236 29.7371 134.233 25.295 133.691C17.0342 132.683 10.1484 131.302 7.64963 130.149C7.0803 129.887 6.89212 129.482 6.68036 129.027C6.42332 128.474 6.13153 127.846 5.08119 127.308L2.90195 125.364Z" fill="black"/>
<path fill-rule="evenodd" clip-rule="evenodd" d="M2.23317 120.711L2.90195 125.364L5.08119 127.308C6.13153 127.846 6.42332 128.474 6.68036 129.027C6.89212 129.482 7.0803 129.887 7.64963 130.149C10.1484 131.302 17.0342 132.683 25.295 133.691C29.7371 134.233 30.6794 134.236 31.2876 133.711C31.8825 133.198 35.5458 133.136 52.1412 133.36C65.1103 133.536 73.8221 133.46 76.627 133.147C76.9482 133.111 77.2714 133.076 77.5961 133.04C83.517 132.384 89.9072 131.677 92.3626 129.913C93.5808 129.037 95.0309 128.321 95.585 128.321C96.1391 128.321 98.5783 126.426 101.005 124.109C103.011 122.193 104.87 123.315 105.609 123.762C105.764 123.855 105.87 123.919 105.917 123.919C106.193 123.919 106.83 123.506 107.335 123.002C108.119 122.218 108.252 121.472 108.254 117.846C108.255 115.514 108.457 112.382 108.702 110.885C108.947 109.388 109.063 108.079 108.96 107.976C108.858 107.873 108.192 108.119 107.481 108.524C106.388 109.146 99.4056 111.712 92.4391 114.053C85.6385 116.337 79.355 117.464 63.0754 119.32C57.6763 119.936 32.9141 119.943 31.0566 119.329C30.2825 119.074 26.3491 118.054 22.3159 117.062C19.3052 116.323 16.7084 115.707 14.493 115.182C6.97263 113.4 3.84746 112.66 3.84746 111.632C3.38718 116.032 2.85111 119.248 2.23317 120.711ZM6.36448 126.017C4.80436 124.966 3.51694 122.84 3.98442 122.084C4.48308 121.277 5.42539 121.596 5.95109 122.749C6.23204 123.366 6.93555 124.177 7.51395 124.551C9.71298 125.974 23.8087 128.956 28.3511 128.959C31.3105 128.961 32.1698 129.282 32.1698 130.384C32.1698 131.121 31.8206 131.252 29.8567 131.252C24.3999 131.252 9.06537 127.835 6.36448 126.017Z" fill="black"/>
</svg>
