<svg width="112" height="138" viewBox="0 0 112 138" fill="none" xmlns="http://www.w3.org/2000/svg">
<mask id="path-1-inside-1_1073_26" fill="white">
<path fill-rule="evenodd" clip-rule="evenodd" d="M65.169 67.8382C55.9223 68.1957 46.2673 68.9341 44.2273 69.4405C41.1273 70.2101 40.1254 70.9855 38.7591 73.6731C37.166 76.808 36.913 77.7013 35.4986 85.1908C34.5334 90.3033 34.2543 93.3365 34.1264 100.116C33.938 110.108 34.0063 110.29 38.5955 112.006C41.3285 113.028 41.641 113.043 54.079 112.764C69.5537 112.416 74.588 111.613 76.0596 109.257C76.3507 108.791 77.0198 106.721 77.5464 104.658C78.42 101.237 78.502 99.6664 78.4736 86.8765C78.4566 79.1606 78.2412 72.0997 77.9951 71.1858C77.0743 67.7677 75.7755 67.4285 65.169 67.8382ZM43.4757 71.6799C45.2494 71.1624 51.8951 70.4333 57.3775 70.1546C59.016 70.0712 63.7596 70.0171 67.9189 70.0345L75.4812 70.0661L76.0284 71.6703C76.7026 73.6484 76.8438 100.01 76.1907 102.116C75.951 102.89 75.5147 104.493 75.2209 105.678C74.9276 106.862 74.313 108.171 73.8551 108.585C72.3422 109.954 65.3473 110.621 52.4597 110.624C42.4413 110.627 40.1291 110.504 38.5822 109.885C37.5615 109.477 36.5262 108.768 36.2814 108.311C35.7044 107.233 35.7021 93.9025 36.2787 91.8923C36.5221 91.044 37.1522 87.7454 37.6798 84.5619C38.3691 80.399 39.0708 77.8503 40.1785 75.4835C41.5627 72.526 41.8973 72.1405 43.4757 71.6799Z"/>
<path fill-rule="evenodd" clip-rule="evenodd" d="M33.5448 23.1546C30.8567 24.7074 26.0013 28.6343 18.7901 35.0866C16.3449 37.2741 13.1797 39.9246 11.7566 40.976C8.68589 43.2442 6.95343 46.4122 7.00156 49.6708C7.0451 52.6224 7.44292 53.5125 12.5326 62.0455C14.1257 64.7166 16.4586 67.747 22.1527 74.5416C24.2166 77.0042 26.3556 78.0895 29.1321 78.0813C30.7238 78.0767 31.3513 77.7673 33.0865 76.132C34.2208 75.0628 36.5926 72.9999 38.3572 71.5474C44.5019 66.4912 48.4879 62.7055 52.1187 58.4784C56.7854 53.0455 58.0709 50.4399 58.0476 46.4626C58.032 43.8437 57.8102 43.1026 56.2143 40.3348C55.2156 38.6028 52.4918 35.1737 50.1617 32.7139C47.8316 30.2545 45.0019 27.1205 43.8735 25.7497C41.5957 22.9828 40.5924 22.3466 37.8988 21.9612C36.3873 21.7444 35.6233 21.9538 33.5448 23.1546ZM20.2878 36.3795C28.3777 29.2384 29.9703 27.9134 32.7249 26.0329C35.0023 24.4783 35.797 24.1794 37.4708 24.2491C39.5713 24.3367 40.4879 24.8417 42.0173 26.7548C42.521 27.3849 45.0606 30.1532 47.6606 32.9068C53.6243 39.222 56.0067 43.121 55.9925 46.5423C55.9865 47.9773 55.6079 49.8088 55.0735 50.9862C53.4295 54.6101 46.095 62.5987 39.5208 67.9267C37.1357 69.8594 34.0233 72.5241 32.6043 73.8473C31.1184 75.2333 29.5987 76.2535 29.0198 76.2535C26.9473 76.2535 24.8601 74.9138 22.9122 72.3335C21.8278 70.8975 19.8314 68.4593 18.4752 66.9152C15.8187 63.8907 14.8132 62.4213 12.478 58.1498C11.6512 56.6373 10.5403 54.6803 10.0095 53.8012C9.29683 52.621 9.05988 51.5142 9.10479 49.5732C9.17996 46.3026 10.1842 44.577 13.4497 42.1085C14.7834 41.1002 17.8606 38.5222 20.2878 36.3795Z"/>
<path fill-rule="evenodd" clip-rule="evenodd" d="M82.1269 17.0723C79.8261 17.9829 69.7733 23.1899 65.1406 25.8711C63.4865 26.8281 61.243 28.577 60.1549 29.7572C58.1874 31.8916 58.1782 31.9168 58.4069 34.714C58.5499 36.4597 59.0366 38.2201 59.6916 39.3586C62.1812 43.687 67.3886 51.5174 69.7499 54.4832C71.1551 56.2477 73.1869 59.0664 74.2653 60.7466C77.1367 65.2203 79.9778 66.2809 83.7379 64.2835C84.7425 63.75 87.6267 61.8136 90.1475 59.9812C95.629 55.9957 105.021 46.0524 105.687 43.5298C106.627 39.9686 103.183 31.2137 97.3624 22.3686C93.5377 16.5566 93.0138 16.2083 88.1378 16.2349C85.4726 16.2491 83.5188 16.5213 82.1269 17.0723ZM83.4253 18.9564C84.0977 18.9523 84.957 18.7493 85.3351 18.505C86.3279 17.8633 90.9858 17.9454 91.8653 18.6195C92.963 19.461 96.3321 24.2221 98.433 27.9006C102.128 34.3707 103.655 38.4351 103.663 41.8285C103.668 43.6118 103.388 44.1577 101.202 46.6409C95.5589 53.0491 91.3268 56.9485 86.5712 60.1192C83.8479 61.9351 81.3111 63.4205 80.9339 63.4205C79.3146 63.4205 77.4103 61.8063 75.2475 58.6012C73.9742 56.7148 72.3468 54.5006 71.6309 53.6811C69.8746 51.6719 63.3174 41.7703 61.551 38.4598C60.7682 36.9927 60.1274 35.115 60.1274 34.2877C60.1274 31.4828 62.827 29.2008 71.6474 24.5493C74.0765 23.2683 77.4451 21.4877 79.1331 20.5917C80.8216 19.6961 82.753 18.9601 83.4253 18.9564Z"/>
<path fill-rule="evenodd" clip-rule="evenodd" d="M104.126 11.1567C103.35 11.5926 100.747 11.9212 94.7307 12.3428C92.462 12.5019 89.1983 12.9423 87.4778 13.3214C85.7577 13.7004 83.9065 13.8947 83.3648 13.7531C82.4491 13.5138 76.3562 14.0845 64.7107 15.5011C59.2855 16.1611 47.8096 16.4517 28.2741 16.4233C14.8788 16.404 10.3192 16.0195 6.38608 14.5756C5.73958 16.3248 5.736 20.9802 6.02524 32.3454C6.44322 48.8213 5.90227 91.7162 3.86935 111.421C4.04699 110.619 5.37827 110.139 10.4559 111.803C13.1976 112.702 19.6691 114.478 24.8367 115.75L34.2323 118.063L48.2111 117.835C55.8994 117.709 63.943 117.368 66.0856 117.076C82.4651 114.845 90.2474 113.258 93.8842 111.409C94.6019 111.043 97.5334 109.984 100.399 109.054C100.537 109.009 100.676 108.964 100.815 108.917C102.25 108.44 103.732 107.886 104.96 107.379C106.085 106.913 106.996 106.487 107.459 106.195L109.31 105.026L108.942 83.4212C108.739 71.5387 108.306 60.4758 107.98 58.8373C107.139 54.6097 105.998 40.948 104.667 15.7743C104.569 13.9278 104.661 12.705 104.717 11.9539C104.796 10.901 104.806 10.775 104.126 11.1567ZM65.1406 25.8711C69.7733 23.1899 79.8261 17.9829 82.1269 17.0723C83.5188 16.5213 85.4726 16.2491 88.1378 16.2349C93.0138 16.2083 93.5377 16.5566 97.3624 22.3686C103.183 31.2137 106.627 39.9686 105.687 43.5298C105.021 46.0524 95.629 55.9957 90.1475 59.9812C87.6267 61.8136 84.7425 63.75 83.7379 64.2835C79.9778 66.2809 77.1367 65.2203 74.2653 60.7466C73.1869 59.0664 71.1551 56.2477 69.7499 54.4832C67.3886 51.5174 62.1812 43.687 59.6916 39.3586C59.0366 38.2201 58.5499 36.4597 58.4069 34.714C58.1782 31.9168 58.1874 31.8916 60.1549 29.7572C61.243 28.577 63.4865 26.8281 65.1406 25.8711ZM18.7901 35.0866C26.0013 28.6343 30.8567 24.7074 33.5448 23.1546C35.6233 21.9538 36.3873 21.7444 37.8988 21.9612C40.5924 22.3466 41.5957 22.9828 43.8735 25.7497C45.0019 27.1205 47.8316 30.2545 50.1617 32.7139C52.4918 35.1737 55.2156 38.6028 56.2143 40.3348C57.8102 43.1026 58.032 43.8437 58.0476 46.4626C58.0709 50.4399 56.7854 53.0455 52.1187 58.4784C48.4879 62.7055 44.5019 66.4912 38.3572 71.5474C36.5926 72.9999 34.2208 75.0628 33.0865 76.132C31.3513 77.7673 30.7238 78.0767 29.1321 78.0813C26.3556 78.0895 24.2166 77.0042 22.1527 74.5416C16.4586 67.747 14.1257 64.7166 12.5326 62.0455C7.44292 53.5125 7.0451 52.6224 7.00156 49.6708C6.95343 46.4122 8.68589 43.2442 11.7566 40.976C13.1797 39.9246 16.3449 37.2741 18.7901 35.0866ZM44.2273 69.4405C46.2673 68.9341 55.9223 68.1957 65.169 67.8382C75.7755 67.4285 77.0743 67.7677 77.9951 71.1858C78.2412 72.0997 78.4566 79.1606 78.4736 86.8765C78.502 99.6664 78.42 101.237 77.5464 104.658C77.0198 106.721 76.3507 108.791 76.0596 109.257C74.588 111.613 69.5537 112.416 54.079 112.764C41.641 113.043 41.3285 113.028 38.5955 112.006C34.0063 110.29 33.938 110.108 34.1264 100.116C34.2543 93.3365 34.5334 90.3033 35.4986 85.1908C36.913 77.7013 37.166 76.808 38.7591 73.6731C40.1254 70.9855 41.1273 70.2101 44.2273 69.4405Z"/>
<path d="M57.6067 2.92204C53.0693 3.39686 48.2225 4.02247 46.8361 4.31213C45.4497 4.60224 41.6342 5.00053 38.3572 5.19715C35.0802 5.39377 27.5522 6.31545 21.6284 7.24538C9.03101 9.22304 7.35676 9.56679 5.42585 10.5746L3.98305 11.3277L6.30034 11.334C9.49026 13.7723 17.0173 15.3694 18.6076 13.9442C19.5458 13.103 21.3049 13.0601 28.1412 13.7086C36.7256 14.5237 61.2806 13.9335 62.2907 12.8881C62.5891 12.5796 66.2974 11.8052 70.5318 11.1666C74.7667 10.5281 80.801 9.2955 83.9418 8.42823C87.0827 7.5602 90.3212 7.03216 91.1379 7.25396C92.7196 7.68376 100.689 6.62539 101.944 5.81875C102.218 5.64302 102.397 5.54432 102.484 5.49739L102.463 5.4883C101.992 5.63994 99.5119 6.36657 95.189 5.03765C93.0345 4.37492 90.5847 4.07196 78.2311 2.94083C68.6628 2.06452 65.8267 2.06177 57.6067 2.92204Z"/>
<path fill-rule="evenodd" clip-rule="evenodd" d="M68.6064 0.0524847C62.2531 0.356809 45.2196 1.78219 34.3835 2.91654C31.9457 3.17137 29.0065 3.38036 27.8524 3.38036C26.6979 3.38036 25.7533 3.55956 25.7533 3.7791C25.7533 3.99817 24.8766 4.28692 23.8055 4.42029C20.6623 4.81215 10.1388 6.56661 7.64963 7.11384C4.90703 7.71653 2.84915 9.16072 1.39123 11.5059L0.316481 13.2343L0.243162 33.8587C0.202372 45.2022 0.105651 70.5703 0.0277365 90.2323C-0.0506364 109.894 0.0428625 126.43 0.235358 126.977C0.778469 128.524 6.33012 131.993 9.94216 133.041C13.9346 134.2 18.6672 134.907 33.3156 136.531C41.202 137.406 58.488 137.385 66.7731 136.491C70.3022 136.11 75.2521 135.611 77.7728 135.382C84.8209 134.742 92.5849 133.256 95.8531 131.92C101.266 129.708 106.007 127.102 108.057 125.213L110.084 123.344L110.094 119.85C110.099 117.929 110.313 114.913 110.57 113.148C110.827 111.384 111.114 102.928 111.208 94.3572C111.371 79.4769 111.143 72.1299 110.09 58.3789C108.773 41.1704 108.2 31.057 107.998 21.4369C107.726 8.51496 107.484 7.71195 103.307 5.85805C103.027 5.73381 102.753 5.61369 102.484 5.49739C102.397 5.54432 102.218 5.64302 101.944 5.81875C100.689 6.62539 92.7196 7.68376 91.1379 7.25396C90.3212 7.03216 87.0827 7.5602 83.9418 8.42823C80.801 9.2955 74.7667 10.5281 70.5318 11.1666C66.2974 11.8052 62.5891 12.5796 62.2907 12.8881C61.2806 13.9335 36.7256 14.5237 28.1412 13.7086C21.3049 13.0601 19.5458 13.103 18.6076 13.9442C17.0173 15.3694 9.49026 13.7723 6.30034 11.334L3.98305 11.3277L5.42585 10.5746C7.35676 9.56679 9.03101 9.22304 21.6284 7.24538C27.5522 6.31545 35.0802 5.39377 38.3572 5.19715C41.6342 5.00053 45.4497 4.60224 46.8361 4.31213C48.2225 4.02247 53.0693 3.39686 57.6067 2.92204C65.8267 2.06177 68.6628 2.06452 78.2311 2.94083C90.5847 4.07196 93.0345 4.37492 95.189 5.03765C99.5119 6.36657 101.992 5.63994 102.463 5.4883C97.1621 3.20295 93.6311 2.39657 82.8144 0.862338C78.0171 0.18219 72.4875 -0.133135 68.6064 0.0524847ZM94.7307 12.3428C100.747 11.9212 103.35 11.5926 104.126 11.1567C104.806 10.775 104.796 10.901 104.717 11.9539C104.661 12.705 104.569 13.9278 104.667 15.7743C105.998 40.948 107.139 54.6097 107.98 58.8373C108.306 60.4758 108.739 71.5387 108.942 83.4212L109.31 105.026L107.459 106.195C106.996 106.487 106.085 106.913 104.96 107.379C103.732 107.886 102.25 108.44 100.815 108.917C100.676 108.964 100.537 109.009 100.399 109.054C97.5334 109.984 94.6019 111.043 93.8842 111.409C90.2474 113.258 82.4651 114.845 66.0856 117.076C63.943 117.368 55.8994 117.709 48.2111 117.835L34.2323 118.063L24.8367 115.75C19.6691 114.478 13.1976 112.702 10.4559 111.803C5.37827 110.139 4.04699 110.619 3.86935 111.421C3.86207 111.492 3.85478 111.562 3.84746 111.632C3.84746 112.595 6.59413 113.306 13.1339 114.86C13.5699 114.964 14.023 115.071 14.493 115.182C16.7084 115.707 19.3052 116.323 22.3159 117.062C26.3491 118.054 30.2825 119.074 31.0566 119.329C32.9141 119.943 57.6763 119.936 63.0754 119.32C79.355 117.464 85.6385 116.337 92.4391 114.053C94.6551 113.308 96.8728 112.541 98.902 111.821C103.252 110.276 106.736 108.948 107.481 108.524C107.59 108.462 107.697 108.404 107.802 108.35C108.382 108.052 108.873 107.888 108.96 107.976C109.063 108.079 108.947 109.388 108.702 110.885C108.457 112.382 108.255 115.514 108.254 117.846C108.252 120.579 108.174 112.12 107.802 108.35C107.68 107.117 107.527 106.386 107.335 106.711C106.832 107.558 106.198 108.252 105.923 108.252C105.876 108.252 105.771 108.144 105.616 107.987C105.45 107.818 105.228 107.592 104.96 107.379C104.038 106.647 102.579 106.077 101.031 108.571C100.959 108.687 100.887 108.803 100.815 108.917C100.162 109.959 99.5115 110.943 98.902 111.821C97.3251 114.092 96.0198 115.652 95.6337 115.652C95.0819 115.652 93.6378 116.855 92.4246 118.327C89.9794 121.292 83.6156 122.481 77.7193 123.583C77.396 123.643 77.074 123.703 76.7542 123.763C73.9609 124.289 65.2852 124.417 52.3698 124.122C35.8432 123.745 32.195 123.849 31.6026 124.711C30.9969 125.593 30.0585 125.588 25.6349 124.677C17.4083 122.984 10.551 120.661 8.06258 118.724C7.49561 118.283 7.30821 117.603 7.09732 116.838C6.84135 115.908 6.55077 114.853 5.50478 113.949L3.85972 111.472L3.33456 110.681L2.23317 120.711C2.85111 119.248 3.38718 116.032 3.84746 111.632C3.84746 111.578 3.85132 111.524 3.85972 111.472C3.86244 111.455 3.86564 111.438 3.86935 111.421C5.90227 91.7162 6.44322 48.8213 6.02524 32.3454C5.736 20.9802 5.73958 16.3248 6.38608 14.5756C10.3192 16.0195 14.8788 16.404 28.2741 16.4233C47.8096 16.4517 59.2855 16.1611 64.7107 15.5011C76.3562 14.0845 82.4491 13.5138 83.3648 13.7531C83.9065 13.8947 85.7577 13.7004 87.4778 13.3214C89.1983 12.9423 92.462 12.5019 94.7307 12.3428Z"/>
<path d="M3.33456 110.681L2.23317 120.711C2.85111 119.248 3.38718 116.032 3.84746 111.632C3.84746 111.578 3.85132 111.524 3.85972 111.472L3.33456 110.681Z"/>
<path d="M100.815 108.917C100.162 109.959 99.5115 110.943 98.902 111.821C103.252 110.276 106.736 108.948 107.481 108.524C107.59 108.462 107.697 108.404 107.802 108.35C107.68 107.117 107.527 106.386 107.335 106.711C106.832 107.558 106.198 108.252 105.923 108.252C105.876 108.252 105.771 108.144 105.616 107.987C105.45 107.818 105.228 107.592 104.96 107.379C103.732 107.886 102.25 108.44 100.815 108.917Z"/>
<path d="M108.254 117.846C108.255 115.514 108.457 112.382 108.702 110.885C108.947 109.388 109.063 108.079 108.96 107.976C108.873 107.888 108.382 108.052 107.802 108.35C108.174 112.12 108.252 120.579 108.254 117.846Z"/>
</mask>
<path fill-rule="evenodd" clip-rule="evenodd" d="M65.169 67.8382C55.9223 68.1957 46.2673 68.9341 44.2273 69.4405C41.1273 70.2101 40.1254 70.9855 38.7591 73.6731C37.166 76.808 36.913 77.7013 35.4986 85.1908C34.5334 90.3033 34.2543 93.3365 34.1264 100.116C33.938 110.108 34.0063 110.29 38.5955 112.006C41.3285 113.028 41.641 113.043 54.079 112.764C69.5537 112.416 74.588 111.613 76.0596 109.257C76.3507 108.791 77.0198 106.721 77.5464 104.658C78.42 101.237 78.502 99.6664 78.4736 86.8765C78.4566 79.1606 78.2412 72.0997 77.9951 71.1858C77.0743 67.7677 75.7755 67.4285 65.169 67.8382ZM43.4757 71.6799C45.2494 71.1624 51.8951 70.4333 57.3775 70.1546C59.016 70.0712 63.7596 70.0171 67.9189 70.0345L75.4812 70.0661L76.0284 71.6703C76.7026 73.6484 76.8438 100.01 76.1907 102.116C75.951 102.89 75.5147 104.493 75.2209 105.678C74.9276 106.862 74.313 108.171 73.8551 108.585C72.3422 109.954 65.3473 110.621 52.4597 110.624C42.4413 110.627 40.1291 110.504 38.5822 109.885C37.5615 109.477 36.5262 108.768 36.2814 108.311C35.7044 107.233 35.7021 93.9025 36.2787 91.8923C36.5221 91.044 37.1522 87.7454 37.6798 84.5619C38.3691 80.399 39.0708 77.8503 40.1785 75.4835C41.5627 72.526 41.8973 72.1405 43.4757 71.6799Z" fill="black"/>
<path fill-rule="evenodd" clip-rule="evenodd" d="M33.5448 23.1546C30.8567 24.7074 26.0013 28.6343 18.7901 35.0866C16.3449 37.2741 13.1797 39.9246 11.7566 40.976C8.68589 43.2442 6.95343 46.4122 7.00156 49.6708C7.0451 52.6224 7.44292 53.5125 12.5326 62.0455C14.1257 64.7166 16.4586 67.747 22.1527 74.5416C24.2166 77.0042 26.3556 78.0895 29.1321 78.0813C30.7238 78.0767 31.3513 77.7673 33.0865 76.132C34.2208 75.0628 36.5926 72.9999 38.3572 71.5474C44.5019 66.4912 48.4879 62.7055 52.1187 58.4784C56.7854 53.0455 58.0709 50.4399 58.0476 46.4626C58.032 43.8437 57.8102 43.1026 56.2143 40.3348C55.2156 38.6028 52.4918 35.1737 50.1617 32.7139C47.8316 30.2545 45.0019 27.1205 43.8735 25.7497C41.5957 22.9828 40.5924 22.3466 37.8988 21.9612C36.3873 21.7444 35.6233 21.9538 33.5448 23.1546ZM20.2878 36.3795C28.3777 29.2384 29.9703 27.9134 32.7249 26.0329C35.0023 24.4783 35.797 24.1794 37.4708 24.2491C39.5713 24.3367 40.4879 24.8417 42.0173 26.7548C42.521 27.3849 45.0606 30.1532 47.6606 32.9068C53.6243 39.222 56.0067 43.121 55.9925 46.5423C55.9865 47.9773 55.6079 49.8088 55.0735 50.9862C53.4295 54.6101 46.095 62.5987 39.5208 67.9267C37.1357 69.8594 34.0233 72.5241 32.6043 73.8473C31.1184 75.2333 29.5987 76.2535 29.0198 76.2535C26.9473 76.2535 24.8601 74.9138 22.9122 72.3335C21.8278 70.8975 19.8314 68.4593 18.4752 66.9152C15.8187 63.8907 14.8132 62.4213 12.478 58.1498C11.6512 56.6373 10.5403 54.6803 10.0095 53.8012C9.29683 52.621 9.05988 51.5142 9.10479 49.5732C9.17996 46.3026 10.1842 44.577 13.4497 42.1085C14.7834 41.1002 17.8606 38.5222 20.2878 36.3795Z" fill="black"/>
<path fill-rule="evenodd" clip-rule="evenodd" d="M82.1269 17.0723C79.8261 17.9829 69.7733 23.1899 65.1406 25.8711C63.4865 26.8281 61.243 28.577 60.1549 29.7572C58.1874 31.8916 58.1782 31.9168 58.4069 34.714C58.5499 36.4597 59.0366 38.2201 59.6916 39.3586C62.1812 43.687 67.3886 51.5174 69.7499 54.4832C71.1551 56.2477 73.1869 59.0664 74.2653 60.7466C77.1367 65.2203 79.9778 66.2809 83.7379 64.2835C84.7425 63.75 87.6267 61.8136 90.1475 59.9812C95.629 55.9957 105.021 46.0524 105.687 43.5298C106.627 39.9686 103.183 31.2137 97.3624 22.3686C93.5377 16.5566 93.0138 16.2083 88.1378 16.2349C85.4726 16.2491 83.5188 16.5213 82.1269 17.0723ZM83.4253 18.9564C84.0977 18.9523 84.957 18.7493 85.3351 18.505C86.3279 17.8633 90.9858 17.9454 91.8653 18.6195C92.963 19.461 96.3321 24.2221 98.433 27.9006C102.128 34.3707 103.655 38.4351 103.663 41.8285C103.668 43.6118 103.388 44.1577 101.202 46.6409C95.5589 53.0491 91.3268 56.9485 86.5712 60.1192C83.8479 61.9351 81.3111 63.4205 80.9339 63.4205C79.3146 63.4205 77.4103 61.8063 75.2475 58.6012C73.9742 56.7148 72.3468 54.5006 71.6309 53.6811C69.8746 51.6719 63.3174 41.7703 61.551 38.4598C60.7682 36.9927 60.1274 35.115 60.1274 34.2877C60.1274 31.4828 62.827 29.2008 71.6474 24.5493C74.0765 23.2683 77.4451 21.4877 79.1331 20.5917C80.8216 19.6961 82.753 18.9601 83.4253 18.9564Z" fill="black"/>
<path fill-rule="evenodd" clip-rule="evenodd" d="M104.126 11.1567C103.35 11.5926 100.747 11.9212 94.7307 12.3428C92.462 12.5019 89.1983 12.9423 87.4778 13.3214C85.7577 13.7004 83.9065 13.8947 83.3648 13.7531C82.4491 13.5138 76.3562 14.0845 64.7107 15.5011C59.2855 16.1611 47.8096 16.4517 28.2741 16.4233C14.8788 16.404 10.3192 16.0195 6.38608 14.5756C5.73958 16.3248 5.736 20.9802 6.02524 32.3454C6.44322 48.8213 5.90227 91.7162 3.86935 111.421C4.04699 110.619 5.37827 110.139 10.4559 111.803C13.1976 112.702 19.6691 114.478 24.8367 115.75L34.2323 118.063L48.2111 117.835C55.8994 117.709 63.943 117.368 66.0856 117.076C82.4651 114.845 90.2474 113.258 93.8842 111.409C94.6019 111.043 97.5334 109.984 100.399 109.054C100.537 109.009 100.676 108.964 100.815 108.917C102.25 108.44 103.732 107.886 104.96 107.379C106.085 106.913 106.996 106.487 107.459 106.195L109.31 105.026L108.942 83.4212C108.739 71.5387 108.306 60.4758 107.98 58.8373C107.139 54.6097 105.998 40.948 104.667 15.7743C104.569 13.9278 104.661 12.705 104.717 11.9539C104.796 10.901 104.806 10.775 104.126 11.1567ZM65.1406 25.8711C69.7733 23.1899 79.8261 17.9829 82.1269 17.0723C83.5188 16.5213 85.4726 16.2491 88.1378 16.2349C93.0138 16.2083 93.5377 16.5566 97.3624 22.3686C103.183 31.2137 106.627 39.9686 105.687 43.5298C105.021 46.0524 95.629 55.9957 90.1475 59.9812C87.6267 61.8136 84.7425 63.75 83.7379 64.2835C79.9778 66.2809 77.1367 65.2203 74.2653 60.7466C73.1869 59.0664 71.1551 56.2477 69.7499 54.4832C67.3886 51.5174 62.1812 43.687 59.6916 39.3586C59.0366 38.2201 58.5499 36.4597 58.4069 34.714C58.1782 31.9168 58.1874 31.8916 60.1549 29.7572C61.243 28.577 63.4865 26.8281 65.1406 25.8711ZM18.7901 35.0866C26.0013 28.6343 30.8567 24.7074 33.5448 23.1546C35.6233 21.9538 36.3873 21.7444 37.8988 21.9612C40.5924 22.3466 41.5957 22.9828 43.8735 25.7497C45.0019 27.1205 47.8316 30.2545 50.1617 32.7139C52.4918 35.1737 55.2156 38.6028 56.2143 40.3348C57.8102 43.1026 58.032 43.8437 58.0476 46.4626C58.0709 50.4399 56.7854 53.0455 52.1187 58.4784C48.4879 62.7055 44.5019 66.4912 38.3572 71.5474C36.5926 72.9999 34.2208 75.0628 33.0865 76.132C31.3513 77.7673 30.7238 78.0767 29.1321 78.0813C26.3556 78.0895 24.2166 77.0042 22.1527 74.5416C16.4586 67.747 14.1257 64.7166 12.5326 62.0455C7.44292 53.5125 7.0451 52.6224 7.00156 49.6708C6.95343 46.4122 8.68589 43.2442 11.7566 40.976C13.1797 39.9246 16.3449 37.2741 18.7901 35.0866ZM44.2273 69.4405C46.2673 68.9341 55.9223 68.1957 65.169 67.8382C75.7755 67.4285 77.0743 67.7677 77.9951 71.1858C78.2412 72.0997 78.4566 79.1606 78.4736 86.8765C78.502 99.6664 78.42 101.237 77.5464 104.658C77.0198 106.721 76.3507 108.791 76.0596 109.257C74.588 111.613 69.5537 112.416 54.079 112.764C41.641 113.043 41.3285 113.028 38.5955 112.006C34.0063 110.29 33.938 110.108 34.1264 100.116C34.2543 93.3365 34.5334 90.3033 35.4986 85.1908C36.913 77.7013 37.166 76.808 38.7591 73.6731C40.1254 70.9855 41.1273 70.2101 44.2273 69.4405Z" fill="black"/>
<path d="M57.6067 2.92204C53.0693 3.39686 48.2225 4.02247 46.8361 4.31213C45.4497 4.60224 41.6342 5.00053 38.3572 5.19715C35.0802 5.39377 27.5522 6.31545 21.6284 7.24538C9.03101 9.22304 7.35676 9.56679 5.42585 10.5746L3.98305 11.3277L6.30034 11.334C9.49026 13.7723 17.0173 15.3694 18.6076 13.9442C19.5458 13.103 21.3049 13.0601 28.1412 13.7086C36.7256 14.5237 61.2806 13.9335 62.2907 12.8881C62.5891 12.5796 66.2974 11.8052 70.5318 11.1666C74.7667 10.5281 80.801 9.2955 83.9418 8.42823C87.0827 7.5602 90.3212 7.03216 91.1379 7.25396C92.7196 7.68376 100.689 6.62539 101.944 5.81875C102.218 5.64302 102.397 5.54432 102.484 5.49739L102.463 5.4883C101.992 5.63994 99.5119 6.36657 95.189 5.03765C93.0345 4.37492 90.5847 4.07196 78.2311 2.94083C68.6628 2.06452 65.8267 2.06177 57.6067 2.92204Z" fill="black"/>
<path fill-rule="evenodd" clip-rule="evenodd" d="M68.6064 0.0524847C62.2531 0.356809 45.2196 1.78219 34.3835 2.91654C31.9457 3.17137 29.0065 3.38036 27.8524 3.38036C26.6979 3.38036 25.7533 3.55956 25.7533 3.7791C25.7533 3.99817 24.8766 4.28692 23.8055 4.42029C20.6623 4.81215 10.1388 6.56661 7.64963 7.11384C4.90703 7.71653 2.84915 9.16072 1.39123 11.5059L0.316481 13.2343L0.243162 33.8587C0.202372 45.2022 0.105651 70.5703 0.0277365 90.2323C-0.0506364 109.894 0.0428625 126.43 0.235358 126.977C0.778469 128.524 6.33012 131.993 9.94216 133.041C13.9346 134.2 18.6672 134.907 33.3156 136.531C41.202 137.406 58.488 137.385 66.7731 136.491C70.3022 136.11 75.2521 135.611 77.7728 135.382C84.8209 134.742 92.5849 133.256 95.8531 131.92C101.266 129.708 106.007 127.102 108.057 125.213L110.084 123.344L110.094 119.85C110.099 117.929 110.313 114.913 110.57 113.148C110.827 111.384 111.114 102.928 111.208 94.3572C111.371 79.4769 111.143 72.1299 110.09 58.3789C108.773 41.1704 108.2 31.057 107.998 21.4369C107.726 8.51496 107.484 7.71195 103.307 5.85805C103.027 5.73381 102.753 5.61369 102.484 5.49739C102.397 5.54432 102.218 5.64302 101.944 5.81875C100.689 6.62539 92.7196 7.68376 91.1379 7.25396C90.3212 7.03216 87.0827 7.5602 83.9418 8.42823C80.801 9.2955 74.7667 10.5281 70.5318 11.1666C66.2974 11.8052 62.5891 12.5796 62.2907 12.8881C61.2806 13.9335 36.7256 14.5237 28.1412 13.7086C21.3049 13.0601 19.5458 13.103 18.6076 13.9442C17.0173 15.3694 9.49026 13.7723 6.30034 11.334L3.98305 11.3277L5.42585 10.5746C7.35676 9.56679 9.03101 9.22304 21.6284 7.24538C27.5522 6.31545 35.0802 5.39377 38.3572 5.19715C41.6342 5.00053 45.4497 4.60224 46.8361 4.31213C48.2225 4.02247 53.0693 3.39686 57.6067 2.92204C65.8267 2.06177 68.6628 2.06452 78.2311 2.94083C90.5847 4.07196 93.0345 4.37492 95.189 5.03765C99.5119 6.36657 101.992 5.63994 102.463 5.4883C97.1621 3.20295 93.6311 2.39657 82.8144 0.862338C78.0171 0.18219 72.4875 -0.133135 68.6064 0.0524847ZM94.7307 12.3428C100.747 11.9212 103.35 11.5926 104.126 11.1567C104.806 10.775 104.796 10.901 104.717 11.9539C104.661 12.705 104.569 13.9278 104.667 15.7743C105.998 40.948 107.139 54.6097 107.98 58.8373C108.306 60.4758 108.739 71.5387 108.942 83.4212L109.31 105.026L107.459 106.195C106.996 106.487 106.085 106.913 104.96 107.379C103.732 107.886 102.25 108.44 100.815 108.917C100.676 108.964 100.537 109.009 100.399 109.054C97.5334 109.984 94.6019 111.043 93.8842 111.409C90.2474 113.258 82.4651 114.845 66.0856 117.076C63.943 117.368 55.8994 117.709 48.2111 117.835L34.2323 118.063L24.8367 115.75C19.6691 114.478 13.1976 112.702 10.4559 111.803C5.37827 110.139 4.04699 110.619 3.86935 111.421C3.86207 111.492 3.85478 111.562 3.84746 111.632C3.84746 112.595 6.59413 113.306 13.1339 114.86C13.5699 114.964 14.023 115.071 14.493 115.182C16.7084 115.707 19.3052 116.323 22.3159 117.062C26.3491 118.054 30.2825 119.074 31.0566 119.329C32.9141 119.943 57.6763 119.936 63.0754 119.32C79.355 117.464 85.6385 116.337 92.4391 114.053C94.6551 113.308 96.8728 112.541 98.902 111.821C103.252 110.276 106.736 108.948 107.481 108.524C107.59 108.462 107.697 108.404 107.802 108.35C108.382 108.052 108.873 107.888 108.96 107.976C109.063 108.079 108.947 109.388 108.702 110.885C108.457 112.382 108.255 115.514 108.254 117.846C108.252 120.579 108.174 112.12 107.802 108.35C107.68 107.117 107.527 106.386 107.335 106.711C106.832 107.558 106.198 108.252 105.923 108.252C105.876 108.252 105.771 108.144 105.616 107.987C105.45 107.818 105.228 107.592 104.96 107.379C104.038 106.647 102.579 106.077 101.031 108.571C100.959 108.687 100.887 108.803 100.815 108.917C100.162 109.959 99.5115 110.943 98.902 111.821C97.3251 114.092 96.0198 115.652 95.6337 115.652C95.0819 115.652 93.6378 116.855 92.4246 118.327C89.9794 121.292 83.6156 122.481 77.7193 123.583C77.396 123.643 77.074 123.703 76.7542 123.763C73.9609 124.289 65.2852 124.417 52.3698 124.122C35.8432 123.745 32.195 123.849 31.6026 124.711C30.9969 125.593 30.0585 125.588 25.6349 124.677C17.4083 122.984 10.551 120.661 8.06258 118.724C7.49561 118.283 7.30821 117.603 7.09732 116.838C6.84135 115.908 6.55077 114.853 5.50478 113.949L3.85972 111.472L3.33456 110.681L2.23317 120.711C2.85111 119.248 3.38718 116.032 3.84746 111.632C3.84746 111.578 3.85132 111.524 3.85972 111.472C3.86244 111.455 3.86564 111.438 3.86935 111.421C5.90227 91.7162 6.44322 48.8213 6.02524 32.3454C5.736 20.9802 5.73958 16.3248 6.38608 14.5756C10.3192 16.0195 14.8788 16.404 28.2741 16.4233C47.8096 16.4517 59.2855 16.1611 64.7107 15.5011C76.3562 14.0845 82.4491 13.5138 83.3648 13.7531C83.9065 13.8947 85.7577 13.7004 87.4778 13.3214C89.1983 12.9423 92.462 12.5019 94.7307 12.3428Z" fill="#39FF14"/>
<path d="M3.33456 110.681L2.23317 120.711C2.85111 119.248 3.38718 116.032 3.84746 111.632C3.84746 111.578 3.85132 111.524 3.85972 111.472L3.33456 110.681Z" fill="black"/>
<path d="M100.815 108.917C100.162 109.959 99.5115 110.943 98.902 111.821C103.252 110.276 106.736 108.948 107.481 108.524C107.59 108.462 107.697 108.404 107.802 108.35C107.68 107.117 107.527 106.386 107.335 106.711C106.832 107.558 106.198 108.252 105.923 108.252C105.876 108.252 105.771 108.144 105.616 107.987C105.45 107.818 105.228 107.592 104.96 107.379C103.732 107.886 102.25 108.44 100.815 108.917Z" fill="black"/>
<path d="M108.254 117.846C108.255 115.514 108.457 112.382 108.702 110.885C108.947 109.388 109.063 108.079 108.96 107.976C108.873 107.888 108.382 108.052 107.802 108.35C108.174 112.12 108.252 120.579 108.254 117.846Z" fill="black"/>
<path d="M57.6067 2.92204L57.6587 3.41932L57.6587 3.41932L57.6067 2.92204ZM46.8361 4.31213L46.7339 3.8227L46.7337 3.82273L46.8361 4.31213ZM21.6284 7.24538L21.5509 6.75143L21.5509 6.75143L21.6284 7.24538ZM5.42585 10.5746L5.6572 11.0179L5.65721 11.0179L5.42585 10.5746ZM3.98305 11.3277L3.75171 10.8844L3.98169 11.8276L3.98305 11.3277ZM6.30034 11.334L6.60399 10.9367L6.47015 10.8344L6.3017 10.834L6.30034 11.334ZM18.6076 13.9442L18.9413 14.3166L18.9414 14.3165L18.6076 13.9442ZM28.1412 13.7086L28.1885 13.2108L28.1884 13.2108L28.1412 13.7086ZM62.2907 12.8881L61.9313 12.5406L61.9312 12.5407L62.2907 12.8881ZM70.5318 11.1666L70.4572 10.6722L70.4572 10.6722L70.5318 11.1666ZM83.9418 8.42823L84.0749 8.91019L84.075 8.91016L83.9418 8.42823ZM91.1379 7.25396L91.2691 6.77146L91.269 6.77144L91.1379 7.25396ZM101.944 5.81875L102.215 6.2394L102.215 6.23938L101.944 5.81875ZM95.189 5.03765L95.042 5.51555L95.0421 5.51557L95.189 5.03765ZM78.2311 2.94083L78.1855 3.43874L78.1856 3.43874L78.2311 2.94083ZM104.126 11.1567L104.371 11.5926L104.371 11.5926L104.126 11.1567ZM94.7307 12.3428L94.6958 11.8441H94.6957L94.7307 12.3428ZM87.4778 13.3214L87.3702 12.8331L87.3702 12.8331L87.4778 13.3214ZM83.3648 13.7531L83.4913 13.2693L83.4912 13.2693L83.3648 13.7531ZM64.7107 15.5011L64.6503 15.0048V15.0048L64.7107 15.5011ZM28.2741 16.4233L28.2748 15.9233H28.2748L28.2741 16.4233ZM6.37917 14.573L6.55149 14.1037L6.20665 15.0423L6.37917 14.573ZM6.02524 32.3454L6.52508 32.3327L6.52508 32.3326L6.02524 32.3454ZM2.23317 120.711L1.73616 120.656L2.69377 120.905L2.23317 120.711ZM3.33456 110.681L3.75107 110.404L2.98809 109.256L2.83755 110.626L3.33456 110.681ZM107.335 106.711L106.904 106.456V106.456L107.335 106.711ZM108.254 117.846L108.754 117.846V117.846L108.254 117.846ZM108.702 110.885L109.196 110.966L109.196 110.966L108.702 110.885ZM108.96 107.976L108.606 108.329L108.607 108.329L108.96 107.976ZM107.481 108.524L107.728 108.958L107.728 108.958L107.481 108.524ZM3.84746 111.632L4.34475 111.684L4.34746 111.658V111.632H3.84746ZM10.4559 111.803L10.6117 111.328L10.6116 111.328L10.4559 111.803ZM24.8367 115.75L24.7171 116.236L24.7172 116.236L24.8367 115.75ZM34.2323 118.063L34.1127 118.549L34.1757 118.564L34.2405 118.563L34.2323 118.063ZM48.2111 117.835L48.2029 117.335H48.2029L48.2111 117.835ZM66.0856 117.076L66.0181 116.58H66.0181L66.0856 117.076ZM93.8842 111.409L94.1109 111.854L94.111 111.854L93.8842 111.409ZM100.399 109.054L100.553 109.53H100.553L100.399 109.054ZM107.459 106.195L107.192 105.772L107.192 105.772L107.459 106.195ZM109.31 105.026L109.577 105.449L109.815 105.299L109.81 105.018L109.31 105.026ZM108.942 83.4212L108.442 83.4297V83.4297L108.942 83.4212ZM107.98 58.8373L107.49 58.9348L107.49 58.9348L107.98 58.8373ZM104.667 15.7743L105.167 15.7479L105.167 15.7479L104.667 15.7743ZM82.1269 17.0723L81.9429 16.6073L81.9429 16.6073L82.1269 17.0723ZM65.1406 25.8711L65.3909 26.3039L65.391 26.3039L65.1406 25.8711ZM60.1549 29.7572L59.7873 29.4183L59.7873 29.4183L60.1549 29.7572ZM58.4069 34.714L57.9086 34.7547L57.9086 34.7548L58.4069 34.714ZM59.6916 39.3586L60.125 39.1093L60.125 39.1093L59.6916 39.3586ZM69.7499 54.4832L69.3587 54.7946L69.3588 54.7947L69.7499 54.4832ZM74.2653 60.7466L74.6861 60.4765V60.4765L74.2653 60.7466ZM83.7379 64.2835L83.5034 63.8419L83.5033 63.8419L83.7379 64.2835ZM90.1475 59.9812L90.4415 60.3857L90.4415 60.3856L90.1475 59.9812ZM105.687 43.5298L106.171 43.6574L106.171 43.6573L105.687 43.5298ZM97.3624 22.3686L97.7801 22.0938L97.7801 22.0938L97.3624 22.3686ZM88.1378 16.2349L88.1404 16.7349H88.1405L88.1378 16.2349ZM33.5448 23.1546L33.7949 23.5876L33.7949 23.5876L33.5448 23.1546ZM18.7901 35.0866L19.1234 35.4592L19.1235 35.4592L18.7901 35.0866ZM11.7566 40.976L12.0537 41.3782L12.0538 41.3782L11.7566 40.976ZM7.00156 49.6708L7.5015 49.6635V49.6634L7.00156 49.6708ZM12.5326 62.0455L12.962 61.7894L12.962 61.7894L12.5326 62.0455ZM22.1527 74.5416L21.7695 74.8628L21.7695 74.8628L22.1527 74.5416ZM29.1321 78.0813L29.1306 77.5813H29.1306L29.1321 78.0813ZM33.0865 76.132L33.4294 76.4959L33.4294 76.4959L33.0865 76.132ZM38.3572 71.5474L38.0395 71.1613L38.0394 71.1614L38.3572 71.5474ZM52.1187 58.4784L51.7394 58.1526H51.7394L52.1187 58.4784ZM58.0476 46.4626L58.5476 46.4596V46.4596L58.0476 46.4626ZM56.2143 40.3348L56.6474 40.0851L56.6474 40.0851L56.2143 40.3348ZM50.1617 32.7139L50.5247 32.37L50.5247 32.37L50.1617 32.7139ZM43.8735 25.7497L44.2596 25.4319L44.2595 25.4319L43.8735 25.7497ZM37.8988 21.9612L37.8279 22.4561L37.828 22.4561L37.8988 21.9612ZM65.169 67.8382L65.1497 67.3386H65.1497L65.169 67.8382ZM44.2273 69.4405L44.3478 69.9258L44.3478 69.9258L44.2273 69.4405ZM38.7591 73.6731L38.3134 73.4465L38.3134 73.4466L38.7591 73.6731ZM35.4986 85.1908L35.0073 85.098L35.0073 85.098L35.4986 85.1908ZM34.1264 100.116L33.6265 100.106V100.106L34.1264 100.116ZM38.5955 112.006L38.7706 111.537L38.7706 111.537L38.5955 112.006ZM54.079 112.764L54.0677 112.264H54.0677L54.079 112.764ZM76.0596 109.257L75.6356 108.992L75.6355 108.992L76.0596 109.257ZM77.5464 104.658L77.062 104.534L77.0619 104.534L77.5464 104.658ZM78.4736 86.8765L77.9736 86.8776V86.8776L78.4736 86.8765ZM77.9951 71.1858L78.4779 71.0558L78.4779 71.0558L77.9951 71.1858ZM102.545 5.46279L102.819 5.88104L102.432 4.97575L102.545 5.46279ZM105.616 107.987L105.973 107.637V107.637L105.616 107.987ZM104.717 11.9539L105.216 11.9913V11.9913L104.717 11.9539ZM102.502 5.48762L102.265 5.04754L102.264 5.04755L102.502 5.48762ZM3.86935 111.421L3.37199 111.37V111.37L3.86935 111.421ZM3.85972 111.472L4.35341 111.551L4.38436 111.358L4.27623 111.195L3.85972 111.472ZM100.815 108.917L100.657 108.443V108.443L100.815 108.917ZM98.902 111.821L98.4913 111.535L97.6053 112.811L99.0693 112.292L98.902 111.821ZM104.96 107.379L104.769 106.916V106.916L104.96 107.379ZM57.6067 2.92204L57.5546 2.42475C53.0228 2.89899 48.1498 3.52688 46.7339 3.8227L46.8361 4.31213L46.9384 4.80156C48.2953 4.51806 53.1158 3.89472 57.6587 3.41932L57.6067 2.92204ZM46.8361 4.31213L46.7337 3.82273C45.3864 4.10465 41.6031 4.50149 38.3272 4.69804L38.3572 5.19715L38.3871 5.69625C41.6652 5.49956 45.513 5.09984 46.9385 4.80153L46.8361 4.31213ZM38.3572 5.19715L38.3272 4.69804C35.0263 4.8961 27.4799 5.82068 21.5509 6.75143L21.6284 7.24538L21.706 7.73933C27.6246 6.81021 35.134 5.89143 38.3871 5.69625L38.3572 5.19715ZM21.6284 7.24538L21.5509 6.75143C15.2566 7.73956 11.6753 8.32189 9.42657 8.78392C7.16461 9.24866 6.21487 9.59879 5.1945 10.1314L5.42585 10.5746L5.65721 11.0179C6.56774 10.5426 7.42059 10.217 9.62783 9.76345C11.8483 9.30723 15.4028 8.72886 21.706 7.73933L21.6284 7.24538ZM5.42585 10.5746L5.19451 10.1314L3.75171 10.8844L3.98305 11.3277L4.2144 11.7709L5.6572 11.0179L5.42585 10.5746ZM3.98305 11.3277L3.98169 11.8276L6.29898 11.834L6.30034 11.334L6.3017 10.834L3.98441 10.8277L3.98305 11.3277ZM6.30034 11.334L5.9967 11.7312C7.6753 13.0143 10.4363 14.0438 12.9501 14.577C14.2134 14.845 15.4416 14.9937 16.4687 14.9805C16.9821 14.9739 17.4586 14.9267 17.8704 14.8273C18.2766 14.7292 18.657 14.5714 18.9413 14.3166L18.6076 13.9442L18.2739 13.5718C18.1607 13.6734 17.958 13.7774 17.6357 13.8552C17.3189 13.9317 16.9216 13.9746 16.4558 13.9806C15.5246 13.9925 14.3735 13.8567 13.1576 13.5988C10.7128 13.0802 8.1153 12.0919 6.60399 10.9367L6.30034 11.334ZM18.6076 13.9442L18.9414 14.3165C19.2738 14.0185 19.7957 13.8016 21.1749 13.7676C22.5517 13.7336 24.6708 13.8816 28.094 14.2064L28.1412 13.7086L28.1884 13.2108C24.7752 12.887 22.5967 12.7322 21.1503 12.7679C19.7064 12.8035 18.8797 13.0287 18.2739 13.5719L18.6076 13.9442ZM28.1412 13.7086L28.0939 14.2064C32.4182 14.6169 40.7289 14.6722 48.0683 14.4959C51.7417 14.4076 55.183 14.261 57.7725 14.0706C59.066 13.9755 60.1553 13.8688 60.9576 13.7517C61.3575 13.6933 61.6976 13.6307 61.9605 13.5626C62.0915 13.5286 62.2142 13.4905 62.3202 13.4464C62.4144 13.4073 62.5461 13.3433 62.6503 13.2356L62.2907 12.8881L61.9312 12.5407C61.9721 12.4983 61.9947 12.4988 61.9362 12.5231C61.8896 12.5425 61.816 12.567 61.7096 12.5946C61.4976 12.6495 61.1982 12.706 60.8132 12.7622C60.0458 12.8742 58.984 12.9788 57.6992 13.0733C55.1323 13.2621 51.7089 13.4081 48.0443 13.4962C40.7075 13.6725 32.4486 13.6153 28.1885 13.2108L28.1412 13.7086ZM62.2907 12.8881L62.6501 13.2357C62.6099 13.2774 62.5817 13.2864 62.6134 13.2702C62.6351 13.2591 62.6734 13.2421 62.7327 13.2198C62.8508 13.1754 63.0205 13.1219 63.242 13.0607C63.683 12.9388 64.2952 12.7956 65.0375 12.6406C66.52 12.3309 68.4962 11.9793 70.6063 11.6611L70.5318 11.1666L70.4572 10.6722C68.3329 10.9926 66.3378 11.3474 64.833 11.6617C64.0816 11.8187 63.4461 11.9668 62.9756 12.0969C62.7413 12.1616 62.5392 12.2242 62.3809 12.2837C62.302 12.3134 62.2259 12.3453 62.1584 12.3797C62.101 12.4091 62.0088 12.4604 61.9313 12.5406L62.2907 12.8881ZM70.5318 11.1666L70.6063 11.6611C74.8553 11.0204 80.91 9.78411 84.0749 8.91019L83.9418 8.42823L83.8088 7.94627C80.692 8.80688 74.6781 10.0358 70.4572 10.6722L70.5318 11.1666ZM83.9418 8.42823L84.075 8.91016C85.6298 8.48047 87.207 8.13551 88.492 7.92588C89.1349 7.82099 89.6979 7.7511 90.1447 7.72064C90.6128 7.68873 90.8922 7.70534 91.0069 7.73649L91.1379 7.25396L91.269 6.77144C90.9753 6.69168 90.5436 6.69112 90.0767 6.72296C89.5883 6.75625 88.9923 6.83104 88.3309 6.93893C87.0072 7.15488 85.3948 7.50795 83.8086 7.9463L83.9418 8.42823ZM91.1379 7.25396L91.0068 7.73647C91.2641 7.80638 91.6105 7.83772 91.9906 7.84857C92.3802 7.8597 92.8405 7.8499 93.3431 7.82379C94.3488 7.77154 95.5462 7.65279 96.7293 7.49567C97.9122 7.33856 99.0895 7.14195 100.055 6.93236C100.537 6.82765 100.972 6.71838 101.332 6.6074C101.679 6.50016 101.997 6.37934 102.215 6.2394L101.944 5.81875L101.674 5.39811C101.578 5.45982 101.372 5.54853 101.037 5.65188C100.714 5.7515 100.309 5.8539 99.8425 5.95513C98.9109 6.15742 97.7617 6.34978 96.5976 6.50437C95.4337 6.65895 94.2638 6.77462 93.2912 6.82514C92.8046 6.85042 92.373 6.85909 92.0192 6.84898C91.6558 6.8386 91.4072 6.809 91.2691 6.77146L91.1379 7.25396ZM95.189 5.03765L95.336 4.55974C93.1184 3.8776 90.6003 3.57129 78.2767 2.44291L78.2311 2.94083L78.1856 3.43874C90.5692 4.57263 92.9506 4.87223 95.042 5.51555L95.189 5.03765ZM78.2311 2.94083L78.2767 2.44291C68.681 1.56409 65.8118 1.56059 57.5546 2.42475L57.6067 2.92204L57.6587 3.41932C65.8415 2.56294 68.6445 2.56494 78.1855 3.43874L78.2311 2.94083ZM104.126 11.1567L103.881 10.7208C103.754 10.7924 103.505 10.8822 103.069 10.9784C102.643 11.0724 102.074 11.1653 101.331 11.259C99.8459 11.4465 97.7026 11.6333 94.6958 11.8441L94.7307 12.3428L94.7657 12.8416C97.7752 12.6307 99.9418 12.4423 101.456 12.2512C102.213 12.1556 102.816 12.0582 103.285 11.9549C103.743 11.8536 104.111 11.7389 104.371 11.5926L104.126 11.1567ZM94.7307 12.3428L94.6957 11.8441C92.4092 12.0043 89.1203 12.4475 87.3702 12.8331L87.4778 13.3214L87.5853 13.8096C89.2763 13.4371 92.5148 12.9994 94.7657 12.8416L94.7307 12.3428ZM87.4778 13.3214L87.3702 12.8331C86.5275 13.0187 85.6532 13.159 84.9272 13.2352C84.5639 13.2733 84.2437 13.2948 83.9865 13.2987C83.7158 13.3029 83.5566 13.2864 83.4913 13.2693L83.3648 13.7531L83.2383 14.2368C83.4439 14.2906 83.7192 14.3029 84.0017 14.2986C84.2978 14.2941 84.6493 14.2699 85.0316 14.2297C85.7966 14.1494 86.7079 14.003 87.5854 13.8096L87.4778 13.3214ZM83.3648 13.7531L83.4912 13.2693C83.3131 13.2228 83.0644 13.206 82.7862 13.2015C82.4942 13.1967 82.1238 13.2054 81.6776 13.2266C80.7844 13.2692 79.5643 13.3631 78.0147 13.5083C74.9144 13.7988 70.4743 14.2963 64.6503 15.0048L64.7107 15.5011L64.771 15.9975C70.5925 15.2893 75.0216 14.7931 78.108 14.504C79.6519 14.3593 80.8545 14.267 81.7252 14.2255C82.1609 14.2048 82.5078 14.1971 82.7698 14.2013C83.0456 14.2058 83.1875 14.2236 83.2384 14.2369L83.3648 13.7531ZM64.7107 15.5011L64.6503 15.0048C59.2618 15.6603 47.8194 15.9517 28.2748 15.9233L28.2741 16.4233L28.2734 16.9233C47.7998 16.9517 59.3092 16.6619 64.771 15.9975L64.7107 15.5011ZM2.23317 120.711L2.73018 120.765L3.83158 110.736L3.33456 110.681L2.83755 110.626L1.73616 120.656L2.23317 120.711ZM105.923 108.252V108.752C106.165 108.752 106.37 108.618 106.486 108.532C106.627 108.428 106.772 108.29 106.912 108.137C107.195 107.828 107.499 107.415 107.765 106.966L107.335 106.711L106.904 106.456C106.668 106.855 106.404 107.211 106.175 107.461C106.059 107.587 105.963 107.676 105.892 107.728C105.796 107.799 105.819 107.752 105.923 107.752V108.252ZM108.254 117.846L108.754 117.846C108.755 115.529 108.956 112.426 109.196 110.966L108.702 110.885L108.209 110.804C107.958 112.338 107.755 115.5 107.754 117.846L108.254 117.846ZM108.702 110.885L109.196 110.966C109.32 110.208 109.412 109.494 109.46 108.952C109.484 108.682 109.498 108.446 109.498 108.264C109.498 108.175 109.495 108.085 109.485 108.005C109.48 107.966 109.471 107.916 109.455 107.863C109.443 107.824 109.409 107.717 109.314 107.622L108.96 107.976L108.607 108.329C108.525 108.247 108.501 108.162 108.499 108.155C108.492 108.133 108.492 108.123 108.493 108.132C108.495 108.15 108.498 108.191 108.498 108.263C108.498 108.402 108.487 108.606 108.464 108.863C108.418 109.376 108.33 110.065 108.209 110.804L108.702 110.885ZM10.4559 111.803L10.3002 112.278C13.0598 113.183 19.5457 114.962 24.7171 116.236L24.8367 115.75L24.9563 115.265C19.7925 113.993 13.3354 112.22 10.6117 111.328L10.4559 111.803ZM24.8367 115.75L24.7172 116.236L34.1127 118.549L34.2323 118.063L34.3518 117.578L24.9562 115.265L24.8367 115.75ZM34.2323 118.063L34.2405 118.563L48.2193 118.335L48.2111 117.835L48.2029 117.335L34.2241 117.563L34.2323 118.063ZM48.2111 117.835L48.2192 118.335C55.8988 118.209 63.9749 117.868 66.1531 117.571L66.0856 117.076L66.0181 116.58C63.9111 116.867 55.9 117.209 48.2029 117.335L48.2111 117.835ZM66.0856 117.076L66.1531 117.571C74.3456 116.455 80.3992 115.499 84.8633 114.589C89.3181 113.681 92.2289 112.812 94.1109 111.854L93.8842 111.409L93.6575 110.963C91.9028 111.855 89.104 112.704 84.6636 113.609C80.2325 114.513 74.2051 115.465 66.0181 116.58L66.0856 117.076ZM93.8842 111.409L94.111 111.854C94.4366 111.688 95.3171 111.343 96.5061 110.913C97.6813 110.489 99.1253 109.993 100.553 109.53L100.399 109.054L100.244 108.579C98.8069 109.045 97.3524 109.544 96.1662 109.973C94.9936 110.397 94.0495 110.763 93.6574 110.963L93.8842 111.409ZM107.459 106.195L107.726 106.618L109.577 105.449L109.31 105.026L109.044 104.604L107.192 105.772L107.459 106.195ZM109.31 105.026L109.81 105.018L109.441 83.4126L108.942 83.4212L108.442 83.4297L108.81 105.035L109.31 105.026ZM108.942 83.4212L109.441 83.4126C109.34 77.4684 109.181 71.7283 109.007 67.2682C108.919 65.0384 108.828 63.1265 108.738 61.668C108.649 60.2261 108.56 59.1896 108.47 58.7397L107.98 58.8373L107.49 58.9348C107.563 59.3042 107.65 60.265 107.74 61.7295C107.829 63.1775 107.92 65.0812 108.007 67.3073C108.182 71.7589 108.34 77.4915 108.442 83.4297L108.942 83.4212ZM107.98 58.8373L108.47 58.7398C107.639 54.5562 106.498 40.9385 105.167 15.7479L104.667 15.7743L104.168 15.8007C105.498 40.9576 106.64 54.6632 107.49 58.9348L107.98 58.8373ZM82.1269 17.0723L81.9429 16.6073C79.6054 17.5326 69.5255 22.7556 64.8901 25.4384L65.1406 25.8711L65.391 26.3039C70.021 23.6243 80.0468 18.4333 82.3109 17.5372L82.1269 17.0723ZM65.1406 25.8711L64.8902 25.4383C63.2005 26.4159 60.9152 28.1949 59.7873 29.4183L60.1549 29.7572L60.5225 30.0961C61.5707 28.9592 63.7724 27.2403 65.3909 26.3039L65.1406 25.8711ZM60.1549 29.7572L59.7873 29.4183C58.8344 30.452 58.2479 31.0777 57.9858 31.8207C57.7223 32.5678 57.7979 33.401 57.9086 34.7547L58.4069 34.714L58.9052 34.6732C58.7872 33.2298 58.753 32.6518 58.9288 32.1534C59.1061 31.6509 59.5079 31.1968 60.5226 30.0961L60.1549 29.7572ZM58.4069 34.714L57.9086 34.7548C58.0557 36.5506 58.5564 38.388 59.2582 39.6079L59.6916 39.3586L60.125 39.1093C59.5169 38.0523 59.0441 36.3688 58.9052 34.6731L58.4069 34.714ZM59.6916 39.3586L59.2582 39.6079C61.7566 43.9516 66.9778 51.8042 69.3587 54.7946L69.7499 54.4832L70.1411 54.1718C67.7994 51.2306 62.6058 43.4223 60.125 39.1093L59.6916 39.3586ZM69.7499 54.4832L69.3588 54.7947C70.7547 56.5476 72.7763 59.3524 73.8445 61.0167L74.2653 60.7466L74.6861 60.4765C73.5974 58.7804 71.5555 55.9479 70.141 54.1717L69.7499 54.4832ZM74.2653 60.7466L73.8445 61.0167C75.3025 63.2882 76.8045 64.7795 78.4934 65.4101C80.2089 66.0506 82.0122 65.7664 83.9724 64.7251L83.7379 64.2835L83.5033 63.8419C81.7035 64.798 80.2062 64.9822 78.8432 64.4733C77.4538 63.9545 76.0995 62.6787 74.6861 60.4765L74.2653 60.7466ZM83.7379 64.2835L83.9724 64.7251C85.0126 64.1727 87.9237 62.2159 90.4415 60.3857L90.1475 59.9812L89.8535 59.5768C87.3298 61.4113 84.4725 63.3273 83.5034 63.8419L83.7379 64.2835ZM90.1475 59.9812L90.4415 60.3856C93.2184 58.3666 96.9612 54.8591 100.087 51.5502C101.652 49.8936 103.07 48.2778 104.142 46.9129C104.678 46.2309 105.132 45.6058 105.475 45.0657C105.811 44.5368 106.067 44.0513 106.171 43.6574L105.687 43.5298L105.204 43.4022C105.141 43.6389 104.958 44.0159 104.631 44.5292C104.312 45.0314 103.88 45.6281 103.356 46.2952C102.308 47.6288 100.911 49.2209 99.3598 50.8636C96.2523 54.1533 92.5581 57.6103 89.8535 59.5768L90.1475 59.9812ZM105.687 43.5298L106.171 43.6573C106.434 42.6601 106.38 41.3582 106.092 39.8701C105.803 38.3713 105.268 36.6361 104.525 34.7477C103.039 30.97 100.706 26.5393 97.7801 22.0938L97.3624 22.3686L96.9447 22.6435C99.8399 27.0431 102.139 31.4124 103.595 35.1137C104.323 36.9648 104.836 38.6389 105.111 40.0596C105.387 41.491 105.411 42.6189 105.204 43.4022L105.687 43.5298ZM97.3624 22.3686L97.7801 22.0938C96.8251 20.6426 96.0647 19.5147 95.3873 18.6469C94.7093 17.7783 94.0944 17.1436 93.4212 16.6959C92.0571 15.7889 90.5518 15.7217 88.135 15.7349L88.1378 16.2349L88.1405 16.7349C90.5998 16.7215 91.7945 16.8152 92.8675 17.5287C93.4128 17.8913 93.9508 18.4317 94.5991 19.2622C95.248 20.0935 95.9874 21.1887 96.9447 22.6435L97.3624 22.3686ZM88.1378 16.2349L88.1351 15.7349C85.4486 15.7492 83.4211 16.0223 81.9429 16.6073L82.1269 17.0723L82.3109 17.5372C83.6165 17.0204 85.4967 16.749 88.1404 16.7349L88.1378 16.2349ZM33.5448 23.1546L33.2947 22.7217C30.554 24.3049 25.6601 28.2686 18.4566 34.714L18.7901 35.0866L19.1235 35.4592C26.3424 29 31.1595 25.11 33.7949 23.5876L33.5448 23.1546ZM18.7901 35.0866L18.4567 34.7139C16.0151 36.8983 12.8637 39.5365 11.4595 40.5739L11.7566 40.976L12.0538 41.3782C13.4958 40.3128 16.6747 37.65 19.1234 35.4592L18.7901 35.0866ZM11.7566 40.976L11.4596 40.5738C8.2845 42.9191 6.45068 46.2291 6.50161 49.6782L7.00156 49.6708L7.5015 49.6634C7.45619 46.5952 9.08728 43.5694 12.0537 41.3782L11.7566 40.976ZM7.00156 49.6708L6.50161 49.6782C6.52411 51.2035 6.64291 52.2344 7.4183 53.9692C8.17427 55.6605 9.56475 58.0459 12.1032 62.3016L12.5326 62.0455L12.962 61.7894C10.4108 57.5121 9.05749 55.1859 8.33125 53.5611C7.62443 51.9797 7.52254 51.0897 7.5015 49.6635L7.00156 49.6708ZM12.5326 62.0455L12.1032 62.3016C13.7199 65.0124 16.0787 68.0722 21.7695 74.8628L22.1527 74.5416L22.536 74.2205C16.8384 67.4219 14.5315 64.4208 12.962 61.7894L12.5326 62.0455ZM22.1527 74.5416L21.7695 74.8628C23.9119 77.4191 26.1843 78.59 29.1336 78.5813L29.1321 78.0813L29.1306 77.5813C26.5268 77.589 24.5212 76.5893 22.536 74.2205L22.1527 74.5416ZM29.1321 78.0813L29.1335 78.5813C29.9643 78.5789 30.6062 78.4971 31.2766 78.1666C31.9236 77.8477 32.5623 77.3131 33.4294 76.4959L33.0865 76.132L32.7435 75.7681C31.8754 76.5863 31.3328 77.024 30.8344 77.2697C30.3593 77.5039 29.8917 77.5791 29.1306 77.5813L29.1321 78.0813ZM33.0865 76.132L33.4294 76.4959C34.5528 75.4369 36.9154 73.3817 38.6749 71.9335L38.3572 71.5474L38.0394 71.1614C36.2698 72.618 33.8888 74.6886 32.7435 75.7682L33.0865 76.132ZM38.3572 71.5474L38.6749 71.9335C44.8333 66.8661 48.8424 63.0602 52.498 58.8042L52.1187 58.4784L51.7394 58.1526C48.1334 62.3508 44.1705 66.1164 38.0395 71.1613L38.3572 71.5474ZM52.1187 58.4784L52.498 58.8042C54.8363 56.0819 56.3592 54.0328 57.2903 52.1459C58.231 50.2393 58.5596 48.5151 58.5476 46.4596L58.0476 46.4626L57.5476 46.4655C57.5589 48.3873 57.2564 49.9546 56.3935 51.7034C55.521 53.4718 54.0678 55.442 51.7394 58.1526L52.1187 58.4784ZM58.0476 46.4626L58.5476 46.4596C58.5397 45.1413 58.4809 44.2416 58.2026 43.3112C57.927 42.3903 57.4445 41.4674 56.6474 40.0851L56.2143 40.3348L55.7811 40.5846C56.5799 41.97 57.0063 42.8016 57.2445 43.5979C57.4799 44.3847 57.5398 45.165 57.5476 46.4656L58.0476 46.4626ZM56.2143 40.3348L56.6474 40.0851C55.6202 38.3036 52.8659 34.8415 50.5247 32.37L50.1617 32.7139L49.7987 33.0577C52.1177 35.5058 54.811 38.9021 55.7811 40.5846L56.2143 40.3348ZM50.1617 32.7139L50.5247 32.37C48.1968 29.913 45.3767 26.789 44.2596 25.4319L43.8735 25.7497L43.4875 26.0674C44.6272 27.452 47.4664 30.596 49.7987 33.0577L50.1617 32.7139ZM43.8735 25.7497L44.2595 25.4319C43.1175 24.0446 42.2545 23.1391 41.3098 22.5401C40.3507 21.9319 39.3455 21.6631 37.9697 21.4662L37.8988 21.9612L37.828 22.4561C39.1457 22.6447 39.989 22.8867 40.7743 23.3846C41.5741 23.8918 42.3517 24.6878 43.4875 26.0674L43.8735 25.7497ZM37.8988 21.9612L37.9698 21.4662C37.1738 21.3521 36.5306 21.3445 35.8022 21.5441C35.0951 21.7379 34.3363 22.1199 33.2947 22.7217L33.5448 23.1546L33.7949 23.5876C34.8318 22.9886 35.4942 22.6654 36.0666 22.5085C36.6178 22.3574 37.1124 22.3535 37.8279 22.4561L37.8988 21.9612ZM65.169 67.8382L65.1497 67.3386C60.5205 67.5176 55.7888 67.7919 51.9575 68.085C48.1496 68.3763 45.1769 68.6896 44.1069 68.9553L44.2273 69.4405L44.3478 69.9258C45.3178 69.685 48.1926 69.3759 52.0338 69.0821C55.8517 68.79 60.5708 68.5164 65.1883 68.3379L65.169 67.8382ZM44.2273 69.4405L44.1069 68.9553C42.5405 69.3441 41.4309 69.7502 40.537 70.4422C39.6397 71.1367 39.0069 72.0823 38.3134 73.4465L38.7591 73.6731L39.2048 73.8997C39.8776 72.5763 40.4289 71.7904 41.1491 71.2329C41.8727 70.6729 42.8141 70.3065 44.3478 69.9258L44.2273 69.4405ZM38.7591 73.6731L38.3134 73.4466C37.5107 75.026 37.0327 76.0662 36.5807 77.6628C36.1342 79.2402 35.7132 81.3601 35.0073 85.098L35.4986 85.1908L35.9899 85.2835C36.6984 81.5319 37.1111 79.4605 37.5429 77.9352C37.9693 76.4291 38.4144 75.4551 39.2049 73.8997L38.7591 73.6731ZM35.4986 85.1908L35.0073 85.098C34.0356 90.2448 33.7547 93.307 33.6265 100.106L34.1264 100.116L34.6263 100.125C34.7538 93.366 35.0312 90.3618 35.9899 85.2835L35.4986 85.1908ZM34.1264 100.116L33.6265 100.106C33.5795 102.6 33.548 104.5 33.6002 105.965C33.6522 107.424 33.7877 108.506 34.1013 109.34C34.7614 111.096 36.1726 111.634 38.4204 112.474L38.5955 112.006L38.7706 111.537C36.4292 110.662 35.5117 110.25 35.0374 108.988C34.7838 108.314 34.6508 107.369 34.5996 105.93C34.5485 104.497 34.5791 102.628 34.6263 100.125L34.1264 100.116ZM38.5955 112.006L38.4204 112.474C39.8187 112.997 40.6323 113.272 42.6734 113.372C44.6707 113.47 47.8821 113.403 54.0902 113.264L54.079 112.764L54.0677 112.264C47.8379 112.404 44.6741 112.469 42.7223 112.374C40.8144 112.28 40.1053 112.037 38.7706 111.537L38.5955 112.006ZM54.079 112.764L54.0902 113.264C61.8256 113.09 66.9845 112.802 70.3992 112.258C73.779 111.718 75.6193 110.906 76.4837 109.522L76.0596 109.257L75.6355 108.992C75.0283 109.964 73.6157 110.732 70.2417 111.27C66.9027 111.803 61.8071 112.09 54.0677 112.264L54.079 112.764ZM76.0596 109.257L76.4836 109.522C76.5848 109.36 76.696 109.102 76.8075 108.811C76.9236 108.508 77.054 108.132 77.1904 107.71C77.4634 106.866 77.7652 105.823 78.0309 104.782L77.5464 104.658L77.0619 104.534C76.801 105.557 76.5049 106.58 76.2389 107.403C76.1058 107.814 75.9815 108.172 75.8738 108.453C75.7616 108.746 75.68 108.921 75.6356 108.992L76.0596 109.257ZM77.5464 104.658L78.0309 104.782C78.9234 101.287 79.002 99.6455 78.9736 86.8753L78.4736 86.8765L77.9736 86.8776C78.002 99.6872 77.9165 101.188 77.062 104.534L77.5464 104.658ZM78.4736 86.8765L78.9736 86.8754C78.9651 83.0137 78.907 79.3147 78.82 76.4652C78.7766 75.0408 78.7259 73.8259 78.6704 72.9078C78.6427 72.4491 78.6135 72.061 78.5832 71.7563C78.554 71.4635 78.5207 71.2148 78.4779 71.0558L77.9951 71.1858L77.5123 71.3158C77.531 71.3853 77.5583 71.5572 77.5881 71.8556C77.6167 72.1421 77.6449 72.5158 77.6722 72.9682C77.7269 73.8722 77.7772 75.0761 77.8205 76.4957C77.9071 79.334 77.9651 83.0234 77.9736 86.8776L78.4736 86.8765ZM77.9951 71.1858L78.4779 71.0558C78.2436 70.1859 77.9677 69.4371 77.48 68.8452C76.9794 68.2376 76.2964 67.8423 75.3405 67.5928C74.3983 67.3469 73.1644 67.2356 71.5267 67.2078C69.8837 67.18 67.8015 67.2362 65.1497 67.3386L65.169 67.8382L65.1883 68.3379C67.8397 68.2354 69.8973 68.1804 71.5097 68.2077C73.1274 68.2351 74.2644 68.3454 75.0879 68.5604C75.8976 68.7717 76.3749 69.0765 76.7082 69.481C77.0545 69.9013 77.2863 70.4767 77.5123 71.3159L77.9951 71.1858ZM102.463 5.4883L102.309 5.01242C101.922 5.13737 99.547 5.85427 95.336 4.55972L95.189 5.03765L95.0421 5.51557C99.4768 6.87887 102.063 6.1425 102.616 5.96417L102.463 5.4883ZM101.944 5.81875L102.215 6.23938C102.475 6.07202 102.643 5.97971 102.722 5.93716L102.484 5.49739L102.246 5.05761C102.151 5.10894 101.96 5.21401 101.674 5.39813L101.944 5.81875ZM102.463 5.4883L102.265 5.94748C102.272 5.95046 102.279 5.95345 102.286 5.95644L102.484 5.49739L102.682 5.03833C102.675 5.03526 102.668 5.03219 102.661 5.02911L102.463 5.4883ZM28.2741 16.4233L28.2748 15.9233C14.8592 15.904 10.3932 15.514 6.55839 14.1062L6.38608 14.5756L6.21377 15.0449C10.2452 16.5249 14.8983 16.9041 28.2734 16.9233L28.2741 16.4233ZM6.37917 14.573L6.20665 15.0423C6.20906 15.0432 6.21177 15.0442 6.21376 15.0449L6.38608 14.5756L6.5584 14.1062C6.55579 14.1052 6.55389 14.1045 6.5517 14.1037L6.37917 14.573ZM6.38608 14.5756L5.91709 14.4022C5.55938 15.3701 5.40014 17.0582 5.35482 19.8464C5.30908 22.6616 5.38082 26.6769 5.5254 32.3581L6.02524 32.3454L6.52508 32.3326C6.38042 26.6487 6.30934 22.6537 6.35469 19.8626C6.40049 17.0446 6.56628 15.5303 6.85508 14.7489L6.38608 14.5756ZM105.616 107.987L105.26 108.338C105.332 108.412 105.41 108.491 105.475 108.55C105.508 108.579 105.552 108.617 105.602 108.65C105.63 108.669 105.753 108.752 105.923 108.752V108.252V107.752C105.967 107.752 106.004 107.758 106.031 107.764C106.059 107.771 106.081 107.779 106.096 107.786C106.126 107.798 106.146 107.811 106.153 107.815C106.16 107.82 106.163 107.823 106.16 107.821C106.158 107.819 106.153 107.814 106.145 107.807C106.128 107.792 106.106 107.771 106.075 107.741C106.046 107.711 106.012 107.677 105.973 107.637L105.616 107.987ZM104.667 15.7743L105.167 15.7479C105.07 13.9325 105.16 12.7341 105.216 11.9913L104.717 11.9539L104.219 11.9166C104.162 12.6759 104.068 13.923 104.168 15.8008L104.667 15.7743ZM104.717 11.9539L105.216 11.9913C105.235 11.7352 105.252 11.5103 105.254 11.3359C105.255 11.2477 105.252 11.1549 105.239 11.0667C105.227 10.9836 105.201 10.8646 105.129 10.7508C105.046 10.6186 104.914 10.5157 104.746 10.4765C104.6 10.4427 104.47 10.4667 104.385 10.4897C104.223 10.5338 104.044 10.6292 103.881 10.7208L104.126 11.1567L104.371 11.5926C104.453 11.5469 104.516 11.5131 104.566 11.4889C104.591 11.477 104.611 11.4686 104.625 11.4627C104.632 11.4599 104.638 11.4579 104.642 11.4565C104.644 11.4559 104.645 11.4554 104.646 11.4551C104.647 11.4549 104.647 11.4548 104.647 11.4547C104.648 11.4547 104.648 11.4546 104.648 11.4546C104.648 11.4546 104.647 11.4547 104.647 11.4547C104.647 11.4548 104.647 11.4549 104.646 11.455C104.645 11.4553 104.643 11.4557 104.641 11.4561C104.636 11.457 104.628 11.4582 104.618 11.4589C104.598 11.4605 104.563 11.4607 104.52 11.4506C104.474 11.44 104.425 11.4194 104.379 11.3859C104.334 11.3529 104.303 11.3155 104.283 11.2838C104.248 11.2277 104.246 11.1888 104.249 11.2099C104.252 11.2259 104.254 11.2613 104.254 11.327C104.253 11.4605 104.239 11.6462 104.219 11.9166L104.717 11.9539ZM102.484 5.49739L102.721 5.93735L102.739 5.92759L102.502 5.48762L102.264 5.04766L102.246 5.05743L102.484 5.49739ZM102.502 5.48762L102.739 5.9277C102.76 5.91646 102.777 5.90677 102.79 5.8989C102.797 5.89496 102.802 5.89148 102.807 5.88849C102.81 5.887 102.812 5.88563 102.814 5.88438C102.815 5.88376 102.816 5.88317 102.817 5.88261C102.817 5.88234 102.817 5.88206 102.818 5.8818C102.818 5.88167 102.818 5.88154 102.818 5.88141C102.818 5.88135 102.819 5.88129 102.819 5.88123C102.819 5.88119 102.819 5.88116 102.819 5.88113C102.819 5.88112 102.819 5.88109 102.819 5.88109C102.819 5.88106 102.819 5.88104 102.545 5.46279C102.271 5.04453 102.271 5.04451 102.271 5.04449C102.271 5.04448 102.271 5.04446 102.271 5.04444C102.271 5.04441 102.271 5.04438 102.271 5.04435C102.271 5.04429 102.271 5.04423 102.272 5.04417C102.272 5.04405 102.272 5.04394 102.272 5.04382C102.272 5.0436 102.273 5.04338 102.273 5.04317C102.274 5.04275 102.274 5.04237 102.275 5.04203C102.276 5.04134 102.277 5.04079 102.277 5.04039C102.279 5.03959 102.279 5.03936 102.279 5.03965C102.278 5.04024 102.273 5.04297 102.265 5.04754L102.502 5.48762ZM102.545 5.46279C102.432 4.97575 102.432 4.97576 102.432 4.97576C102.432 4.97577 102.432 4.97578 102.432 4.97578C102.432 4.9758 102.432 4.97581 102.432 4.97582C102.431 4.97585 102.431 4.97587 102.431 4.9759C102.431 4.97595 102.431 4.97601 102.43 4.97606C102.43 4.97617 102.43 4.97628 102.429 4.9764C102.428 4.97664 102.427 4.97689 102.426 4.97716C102.424 4.9777 102.421 4.9783 102.419 4.97899C102.413 4.98035 102.407 4.98201 102.4 4.98399C102.386 4.98797 102.368 4.99327 102.347 5.0002L102.503 5.47525L102.659 5.9503C102.665 5.94816 102.669 5.94723 102.668 5.94724C102.668 5.94725 102.668 5.94749 102.666 5.94793C102.665 5.94815 102.664 5.94842 102.663 5.94874C102.662 5.9489 102.661 5.94907 102.66 5.94925C102.66 5.94934 102.66 5.94943 102.659 5.94953C102.659 5.94958 102.659 5.94963 102.659 5.94968C102.659 5.9497 102.658 5.94973 102.658 5.94975C102.658 5.94976 102.658 5.94978 102.658 5.94979C102.658 5.9498 102.658 5.9498 102.658 5.94981C102.658 5.94982 102.658 5.94983 102.545 5.46279ZM102.503 5.47525L102.347 5.00022C102.336 5.00385 102.323 5.00786 102.309 5.01241L102.463 5.4883L102.616 5.96418C102.633 5.95872 102.648 5.95396 102.659 5.95028L102.503 5.47525ZM6.38608 14.5756L6.5584 14.1062L6.55149 14.1037L6.37917 14.573L6.20685 15.0424L6.21376 15.0449L6.38608 14.5756ZM102.484 5.49739L102.722 5.93717C102.728 5.93378 102.734 5.93066 102.739 5.9277L102.502 5.48762L102.264 5.04755C102.259 5.05052 102.253 5.0539 102.246 5.05761L102.484 5.49739ZM102.503 5.47525L102.348 4.99988L102.308 5.01292L102.463 5.4883L102.618 5.96367L102.658 5.95062L102.503 5.47525ZM3.84746 111.632L3.35018 111.58C3.12067 113.774 2.87298 115.666 2.60691 117.187C2.33906 118.718 2.05809 119.84 1.77257 120.516L2.23317 120.711L2.69377 120.905C3.02619 120.118 3.32222 118.901 3.59196 117.359C3.86349 115.807 4.11397 113.89 4.34475 111.684L3.84746 111.632ZM10.4559 111.803L10.6116 111.328C8.06128 110.492 6.39438 110.174 5.3189 110.187C4.77989 110.194 4.34224 110.284 4.0101 110.475C3.6578 110.678 3.45563 110.977 3.38118 111.313L3.86935 111.421L4.35751 111.529C4.37188 111.464 4.40274 111.403 4.50869 111.342C4.63481 111.269 4.88064 111.193 5.33136 111.187C6.23534 111.176 7.7729 111.45 10.3002 112.278L10.4559 111.803ZM3.86935 111.421L4.36671 111.472C6.40281 91.7367 6.94328 48.8175 6.52508 32.3327L6.02524 32.3454L5.5254 32.358C5.94316 48.8252 5.40172 91.6958 3.37199 111.37L3.86935 111.421ZM3.86935 111.421L3.37199 111.37C3.14003 113.618 2.8893 115.557 2.61957 117.114C2.34802 118.682 2.06276 119.829 1.77257 120.516L2.23317 120.711L2.69377 120.905C3.03134 120.106 3.33159 118.863 3.6049 117.285C3.88003 115.696 4.13351 113.733 4.36671 111.472L3.86935 111.421ZM3.84746 111.632H4.34746C4.34746 111.601 4.34965 111.574 4.35341 111.551L3.85972 111.472L3.36603 111.393C3.35299 111.474 3.34746 111.554 3.34746 111.632H3.84746ZM3.85972 111.472L4.27623 111.195L3.75107 110.404L3.33456 110.681L2.91805 110.958L3.44321 111.748L3.85972 111.472ZM100.815 108.917L100.391 108.652C99.742 109.687 99.0961 110.664 98.4913 111.535L98.902 111.821L99.3127 112.106C99.9269 111.221 100.581 110.231 101.238 109.183L100.815 108.917ZM98.902 111.821L99.0693 112.292C101.247 111.519 103.209 110.799 104.722 110.219C106.216 109.646 107.315 109.194 107.728 108.958L107.481 108.524L107.233 108.089C106.902 108.278 105.886 108.702 104.364 109.285C102.861 109.861 100.907 110.578 98.7347 111.349L98.902 111.821ZM107.481 108.524L107.728 108.958C107.831 108.9 107.932 108.845 108.03 108.795L107.802 108.35L107.574 107.905C107.462 107.962 107.348 108.024 107.233 108.089L107.481 108.524ZM107.802 108.35L108.3 108.301C108.239 107.685 108.167 107.158 108.078 106.82C108.056 106.733 108.029 106.646 107.996 106.568C107.967 106.499 107.914 106.39 107.82 106.298C107.769 106.249 107.69 106.188 107.578 106.156C107.459 106.121 107.336 106.129 107.227 106.17C107.04 106.241 106.943 106.391 106.904 106.456L107.335 106.711L107.765 106.966C107.764 106.967 107.753 106.985 107.73 107.009C107.708 107.032 107.66 107.075 107.582 107.105C107.496 107.138 107.396 107.144 107.299 107.116C107.21 107.09 107.152 107.044 107.123 107.015C107.072 106.966 107.062 106.927 107.074 106.956C107.082 106.975 107.095 107.012 107.111 107.073C107.178 107.327 107.244 107.783 107.304 108.399L107.802 108.35ZM105.616 107.987L105.973 107.637C105.808 107.469 105.566 107.222 105.271 106.987L104.96 107.379L104.649 107.77C104.89 107.962 105.093 108.168 105.26 108.338L105.616 107.987ZM104.96 107.379L104.769 106.916C103.553 107.419 102.081 107.969 100.657 108.443L100.815 108.917L100.973 109.392C102.418 108.91 103.912 108.353 105.151 107.841L104.96 107.379ZM107.802 108.35L107.304 108.399C107.489 110.264 107.601 113.304 107.667 115.551C107.7 116.677 107.722 117.584 107.735 118.06C107.739 118.177 107.741 118.268 107.744 118.329C107.745 118.357 107.747 118.386 107.748 118.409C107.749 118.415 107.75 118.425 107.751 118.436C107.751 118.438 107.755 118.471 107.766 118.51C107.769 118.523 107.779 118.552 107.786 118.57C107.798 118.597 107.839 118.667 107.871 118.708C107.943 118.776 108.178 118.875 108.336 118.872C108.463 118.832 108.626 118.708 108.669 118.65C108.722 118.568 108.737 118.489 108.737 118.488C108.742 118.467 108.744 118.451 108.745 118.443C108.75 118.404 108.751 118.358 108.751 118.344C108.752 118.317 108.752 118.28 108.753 118.236C108.753 118.146 108.754 118.018 108.754 117.846L108.254 117.846L107.754 117.846C107.754 118.016 107.753 118.142 107.753 118.227C107.752 118.27 107.752 118.301 107.751 118.321C107.751 118.356 107.75 118.339 107.754 118.312C107.754 118.306 107.757 118.29 107.761 118.27C107.764 118.26 107.77 118.235 107.775 118.221C107.783 118.199 107.809 118.143 107.828 118.11C107.871 118.052 108.034 117.928 108.161 117.888C108.319 117.885 108.554 117.984 108.626 118.052C108.658 118.093 108.699 118.163 108.711 118.19C108.717 118.207 108.727 118.236 108.731 118.248C108.737 118.271 108.74 118.289 108.741 118.296C108.742 118.305 108.743 118.311 108.744 118.315C108.745 118.322 108.745 118.327 108.745 118.327C108.745 118.328 108.745 118.326 108.744 118.317C108.744 118.31 108.744 118.3 108.743 118.287C108.741 118.234 108.738 118.148 108.735 118.031C108.722 117.571 108.7 116.64 108.667 115.522C108.601 113.28 108.488 110.206 108.3 108.301L107.802 108.35ZM100.399 109.054L100.553 109.53C100.692 109.485 100.832 109.438 100.973 109.392L100.815 108.917L100.657 108.443C100.519 108.489 100.381 108.534 100.244 108.579L100.399 109.054ZM104.96 107.379L105.151 107.841C106.275 107.376 107.222 106.936 107.726 106.617L107.459 106.195L107.192 105.772C106.769 106.039 105.895 106.451 104.769 106.916L104.96 107.379ZM108.96 107.976L109.315 107.623C109.195 107.503 109.055 107.47 108.981 107.46C108.9 107.448 108.824 107.452 108.767 107.459C108.652 107.472 108.528 107.505 108.411 107.543C108.172 107.621 107.878 107.749 107.574 107.905L107.802 108.35L108.03 108.795C108.306 108.653 108.548 108.55 108.721 108.494C108.81 108.465 108.862 108.454 108.881 108.452C108.891 108.451 108.873 108.454 108.838 108.449C108.81 108.445 108.704 108.427 108.606 108.329L108.96 107.976ZM68.6064 0.0524847L68.5586 -0.946374L68.5585 -0.94637L68.6064 0.0524847ZM34.3835 2.91654L34.4875 3.91112L34.4876 3.9111L34.3835 2.91654ZM23.8055 4.42029L23.6819 3.42795L23.6817 3.42797L23.8055 4.42029ZM7.64963 7.11384L7.86426 8.09054L7.86435 8.09052L7.64963 7.11384ZM1.39123 11.5059L2.24043 12.034L2.2405 12.0339L1.39123 11.5059ZM0.316481 13.2343L-0.532719 12.7062L-0.682504 12.9471L-0.683512 13.2307L0.316481 13.2343ZM0.243162 33.8587L1.24316 33.8623L1.24316 33.8623L0.243162 33.8587ZM0.0277365 90.2323L1.02773 90.2363L1.02773 90.2362L0.0277365 90.2323ZM0.235358 126.977L1.17889 126.646L1.17878 126.646L0.235358 126.977ZM9.94216 133.041L10.221 132.081H10.221L9.94216 133.041ZM33.3156 136.531L33.2054 137.525V137.525L33.3156 136.531ZM66.7731 136.491L66.6658 135.496H66.6658L66.7731 136.491ZM77.7728 135.382L77.6824 134.386L77.6823 134.386L77.7728 135.382ZM95.8531 131.92L95.4749 130.994L95.4748 130.994L95.8531 131.92ZM108.057 125.213L108.735 125.948L108.735 125.948L108.057 125.213ZM110.084 123.344L110.762 124.079L111.083 123.783L111.084 123.346L110.084 123.344ZM110.094 119.85L111.094 119.853V119.853L110.094 119.85ZM110.57 113.148L111.559 113.293L111.559 113.292L110.57 113.148ZM111.208 94.3572L110.208 94.3462V94.3462L111.208 94.3572ZM110.09 58.3789L109.093 58.4553V58.4553L110.09 58.3789ZM107.998 21.4369L108.998 21.4158V21.4158L107.998 21.4369ZM103.307 5.85805L103.713 4.94404L103.713 4.94404L103.307 5.85805ZM82.8144 0.862338L82.9548 -0.127752L82.9547 -0.12776L82.8144 0.862338ZM5.50478 113.949L4.67176 114.502L4.7473 114.616L4.85058 114.705L5.50478 113.949ZM8.06258 118.724L8.67677 117.935L8.67645 117.935L8.06258 118.724ZM25.6349 124.677L25.8365 123.698L25.8365 123.698L25.6349 124.677ZM31.6026 124.711L30.7784 124.145L30.7782 124.145L31.6026 124.711ZM52.3698 124.122L52.3927 123.122H52.3926L52.3698 124.122ZM76.7542 123.763L76.5694 122.781L76.5694 122.781L76.7542 123.763ZM92.4246 118.327L93.1962 118.963L93.1962 118.963L92.4246 118.327ZM101.031 108.571L100.181 108.044L100.181 108.044L101.031 108.571ZM92.4391 114.053L92.1207 113.105L92.1206 113.105L92.4391 114.053ZM63.0754 119.32L62.9621 118.327L62.9621 118.327L63.0754 119.32ZM31.0566 119.329L30.7429 120.279L30.7431 120.279L31.0566 119.329ZM22.3159 117.062L22.5546 116.091L22.5545 116.091L22.3159 117.062ZM3.84746 111.632L2.85289 111.528L2.84746 111.58V111.632H3.84746ZM85.3351 18.505L85.8778 19.3449L85.878 19.3448L85.3351 18.505ZM83.4253 18.9564L83.4308 19.9564L83.4314 19.9564L83.4253 18.9564ZM79.1331 20.5917L78.6646 19.7083L78.6643 19.7084L79.1331 20.5917ZM71.6474 24.5493L72.1138 25.4339V25.4339L71.6474 24.5493ZM61.551 38.4598L62.4333 37.9891L62.4333 37.9891L61.551 38.4598ZM71.6309 53.6811L72.3839 53.0232L72.3838 53.023L71.6309 53.6811ZM75.2475 58.6012L76.0764 58.0418L76.0763 58.0418L75.2475 58.6012ZM86.5712 60.1192L86.0165 59.2872L86.0165 59.2872L86.5712 60.1192ZM101.202 46.6409L100.451 45.98L100.451 45.98L101.202 46.6409ZM103.663 41.8285L102.663 41.8309V41.8311L103.663 41.8285ZM98.433 27.9006L97.5647 28.3965V28.3965L98.433 27.9006ZM91.8653 18.6195L92.4737 17.8259L92.4737 17.8259L91.8653 18.6195ZM32.7249 26.0329L32.1611 25.207L32.161 25.207L32.7249 26.0329ZM20.2878 36.3795L19.6261 35.6298L19.6261 35.6298L20.2878 36.3795ZM13.4497 42.1085L14.0527 42.9062L14.0528 42.9062L13.4497 42.1085ZM9.10479 49.5732L10.1045 49.5963L10.1045 49.5962L9.10479 49.5732ZM10.0095 53.8012L10.8656 53.2844L10.8655 53.2843L10.0095 53.8012ZM12.478 58.1498L11.6006 58.6294L11.6006 58.6295L12.478 58.1498ZM18.4752 66.9152L19.2265 66.2553H19.2265L18.4752 66.9152ZM22.9122 72.3335L23.7103 71.731L23.7102 71.7308L22.9122 72.3335ZM32.6043 73.8473L31.9223 73.1159L31.9222 73.116L32.6043 73.8473ZM39.5208 67.9267L40.1504 68.7036L40.1505 68.7036L39.5208 67.9267ZM55.0735 50.9862L54.1629 50.5729L54.1629 50.5731L55.0735 50.9862ZM55.9925 46.5423L54.9925 46.5382V46.5382L55.9925 46.5423ZM47.6606 32.9068L46.9336 33.5933L46.9336 33.5934L47.6606 32.9068ZM42.0173 26.7548L42.7985 26.1304L42.7984 26.1303L42.0173 26.7548ZM37.4708 24.2491L37.5124 23.25L37.5124 23.25L37.4708 24.2491ZM57.3775 70.1546L57.4283 71.1533L57.4284 71.1533L57.3775 70.1546ZM43.4757 71.6799L43.1957 70.7199L43.1956 70.7199L43.4757 71.6799ZM40.1785 75.4835L41.0842 75.9074L41.0843 75.9074L40.1785 75.4835ZM37.6798 84.5619L38.6663 84.7254L38.6663 84.7253L37.6798 84.5619ZM36.2787 91.8923L35.3175 91.6166L35.3175 91.6166L36.2787 91.8923ZM36.2814 108.311L37.1632 107.839L37.1631 107.839L36.2814 108.311ZM38.5822 109.885L38.2108 110.814L38.2108 110.814L38.5822 109.885ZM52.4597 110.624L52.46 111.624H52.46L52.4597 110.624ZM73.8551 108.585L74.5261 109.327L74.5261 109.327L73.8551 108.585ZM75.2209 105.678L74.2503 105.437L74.2502 105.437L75.2209 105.678ZM76.1907 102.116L75.2355 101.82L75.2354 101.82L76.1907 102.116ZM76.0284 71.6703L76.975 71.3477L76.9749 71.3474L76.0284 71.6703ZM75.4812 70.0661L76.4277 69.7433L76.1977 69.0691L75.4854 69.0661L75.4812 70.0661ZM67.9189 70.0345L67.9147 71.0345H67.9147L67.9189 70.0345ZM102.463 5.4883L102.859 4.57006L102.859 4.57001L102.463 5.4883ZM102.484 5.49739L102.88 4.57922L102.88 4.57915L102.484 5.49739ZM7.09732 116.838L6.13323 117.103L6.13323 117.103L7.09732 116.838ZM77.7193 123.583L77.9029 124.566H77.9029L77.7193 123.583ZM3.86935 111.421L4.86407 111.524L2.89301 111.205L3.86935 111.421ZM14.493 115.182L14.2624 116.155L14.2624 116.155L14.493 115.182ZM13.1339 114.86L13.3651 113.887H13.3651L13.1339 114.86ZM3.85972 111.472L2.87234 111.313L2.81043 111.699L3.0267 112.025L3.85972 111.472ZM98.902 111.821L99.7234 112.391L101.495 109.839L98.5675 110.878L98.902 111.821ZM68.6064 0.0524847L68.5585 -0.94637C62.1779 -0.640734 45.1231 0.786834 34.2794 1.92197L34.3835 2.91654L34.4876 3.9111C45.3161 2.77756 62.3284 1.35435 68.6542 1.05134L68.6064 0.0524847ZM34.3835 2.91654L34.2796 1.92196C31.8467 2.17626 28.9512 2.38036 27.8524 2.38036V3.38036V4.38036C29.0618 4.38036 32.0447 4.16647 34.4875 3.91112L34.3835 2.91654ZM27.8524 3.38036V2.38036C27.2318 2.38036 26.6417 2.42793 26.1834 2.51495C25.9624 2.55691 25.7208 2.61733 25.5107 2.71131C25.409 2.75679 25.2584 2.83453 25.1181 2.96395C24.9795 3.09178 24.7533 3.36543 24.7533 3.7791H25.7533H26.7533C26.7533 4.13787 26.5566 4.35791 26.4743 4.43391C26.4281 4.4765 26.3887 4.50245 26.3674 4.5154C26.345 4.52898 26.3303 4.53568 26.3272 4.53704C26.3227 4.53908 26.3386 4.5318 26.3832 4.51929C26.4256 4.50738 26.4831 4.49378 26.5565 4.47985C26.8591 4.42238 27.3186 4.38036 27.8524 4.38036V3.38036ZM25.7533 3.7791H24.7533C24.7533 3.46353 24.9091 3.26344 24.9684 3.19715C25.0039 3.15749 25.0344 3.13207 25.051 3.11912C25.0684 3.10561 25.0796 3.09878 25.0813 3.09776C25.0833 3.09653 25.0676 3.10597 25.0269 3.12334C24.9879 3.13997 24.9354 3.15991 24.8683 3.18198C24.5917 3.27307 24.1709 3.36707 23.6819 3.42795L23.8055 4.42029L23.929 5.41262C24.5112 5.34014 25.0643 5.22308 25.4938 5.08168C25.702 5.01313 25.926 4.92446 26.1179 4.80814C26.212 4.75111 26.3416 4.66186 26.4587 4.531C26.5702 4.40647 26.7533 4.14943 26.7533 3.7791H25.7533ZM23.8055 4.42029L23.6817 3.42797C20.515 3.82277 9.96031 5.58196 7.43491 6.13717L7.64963 7.11384L7.86435 8.09052C10.3172 7.55126 20.8096 5.80153 23.9292 5.41261L23.8055 4.42029ZM7.64963 7.11384L7.435 6.13715C4.43401 6.79662 2.14495 8.3994 0.541959 10.978L1.39123 11.5059L2.2405 12.0339C3.55335 9.92203 5.38005 8.63645 7.86426 8.09054L7.64963 7.11384ZM1.39123 11.5059L0.542031 10.9779L-0.532719 12.7062L0.316481 13.2343L1.16568 13.7623L2.24043 12.034L1.39123 11.5059ZM0.316481 13.2343L-0.683512 13.2307L-0.756831 33.8552L0.243162 33.8587L1.24316 33.8623L1.31648 13.2378L0.316481 13.2343ZM0.243162 33.8587L-0.756831 33.8551C-0.797621 45.1984 -0.894341 70.5664 -0.972256 90.2283L0.0277365 90.2323L1.02773 90.2362C1.10564 70.5742 1.20236 45.2059 1.24316 33.8623L0.243162 33.8587ZM0.0277365 90.2323L-0.972256 90.2283C-1.01145 100.062 -1.00768 109.114 -0.970012 115.778C-0.951184 119.11 -0.923872 121.847 -0.889153 123.788C-0.871809 124.757 -0.85253 125.533 -0.831311 126.086C-0.820741 126.361 -0.809403 126.59 -0.796972 126.762C-0.790816 126.848 -0.783728 126.929 -0.775111 127C-0.770479 127.038 -0.755234 127.175 -0.708069 127.309L0.235358 126.977L1.17878 126.646C1.21392 126.746 1.21733 126.817 1.21032 126.759C1.20729 126.734 1.20294 126.689 1.19786 126.619C1.18781 126.479 1.17748 126.277 1.16722 126.009C1.14679 125.477 1.12779 124.717 1.11053 123.752C1.07602 121.824 1.04877 119.096 1.02996 115.767C0.992338 109.111 0.988551 100.065 1.02773 90.2363L0.0277365 90.2323ZM0.235358 126.977L-0.708173 127.309C-0.57988 127.674 -0.341106 128.009 -0.0976548 128.291C0.156708 128.587 0.472212 128.889 0.823019 129.19C1.52538 129.791 2.42686 130.431 3.40807 131.044C5.36058 132.264 7.73808 133.443 9.66335 134.002L9.94216 133.041L10.221 132.081C8.5342 131.591 6.32986 130.511 4.46775 129.348C3.54166 128.769 2.72763 128.187 2.12344 127.67C1.82096 127.411 1.58542 127.181 1.41811 126.987C1.33504 126.89 1.27533 126.81 1.23448 126.747C1.21436 126.715 1.20048 126.691 1.19127 126.673C1.18198 126.655 1.17885 126.646 1.17889 126.646L0.235358 126.977ZM9.94216 133.041L9.66335 134.002C13.7556 135.19 18.5821 135.904 33.2054 137.525L33.3156 136.531L33.4258 135.538C18.7524 133.911 14.1136 133.211 10.221 132.081L9.94216 133.041ZM33.3156 136.531L33.2054 137.525C41.1676 138.408 58.5266 138.387 66.8804 137.485L66.7731 136.491L66.6658 135.496C58.4494 136.383 41.2364 136.404 33.4258 135.538L33.3156 136.531ZM66.7731 136.491L66.8804 137.485C70.4058 137.104 75.3498 136.606 77.8634 136.378L77.7728 135.382L77.6823 134.386C75.1543 134.616 70.1985 135.115 66.6658 135.496L66.7731 136.491ZM77.7728 135.382L77.8632 136.378C84.9317 135.736 92.8192 134.24 96.2315 132.845L95.8531 131.92L95.4748 130.994C92.3505 132.271 84.71 133.748 77.6824 134.386L77.7728 135.382ZM95.8531 131.92L96.2314 132.846C101.66 130.627 106.545 127.967 108.735 125.948L108.057 125.213L107.379 124.477C105.469 126.238 100.871 128.789 95.4749 130.994L95.8531 131.92ZM108.057 125.213L108.735 125.948L110.762 124.079L110.084 123.344L109.407 122.608L107.379 124.477L108.057 125.213ZM110.084 123.344L111.084 123.346L111.094 119.853L110.094 119.85L109.094 119.848L109.084 123.341L110.084 123.344ZM110.094 119.85L111.094 119.853C111.099 117.975 111.31 115.007 111.559 113.293L110.57 113.148L109.58 113.004C109.316 114.819 109.099 117.882 109.094 119.848L110.094 119.85ZM110.57 113.148L111.559 113.292C111.698 112.342 111.834 109.722 111.949 106.339C112.065 102.925 112.161 98.6602 112.208 94.3681L111.208 94.3572L110.208 94.3462C110.161 98.6248 110.066 102.874 109.95 106.271C109.834 109.7 109.699 112.19 109.58 113.004L110.57 113.148ZM111.208 94.3572L112.208 94.3681C112.371 79.461 112.142 72.0848 111.087 58.3026L110.09 58.3789L109.093 58.4553C110.143 72.1751 110.371 79.4928 110.208 94.3462L111.208 94.3572ZM110.09 58.3789L111.087 58.3026C109.77 41.1005 109.199 31.0085 108.998 21.4158L107.998 21.4369L106.998 21.4579C107.201 31.1055 107.775 41.2402 109.093 58.4553L110.09 58.3789ZM107.998 21.4369L108.998 21.4158C108.93 18.1888 108.863 15.6936 108.735 13.7464C108.608 11.8089 108.417 10.3457 108.074 9.20867C107.722 8.0376 107.202 7.18694 106.423 6.50489C105.682 5.8558 104.754 5.40596 103.713 4.94404L103.307 5.85805L102.902 6.77205C103.949 7.23708 104.618 7.58284 105.105 8.00953C105.555 8.40326 105.895 8.90858 106.159 9.78524C106.433 10.6959 106.614 11.9723 106.74 13.8775C106.864 15.773 106.93 18.224 106.998 21.4579L107.998 21.4369ZM82.8144 0.862338L82.9547 -0.12776C78.1098 -0.814674 72.5157 -1.13563 68.5586 -0.946374L68.6064 0.0524847L68.6542 1.05134C72.4592 0.869359 77.9245 1.17905 82.674 1.85244L82.8144 0.862338ZM8.06258 118.724L7.44838 119.513C8.83504 120.593 11.3109 121.701 14.3761 122.739C17.4764 123.789 21.2883 124.803 25.4333 125.657L25.6349 124.677L25.8365 123.698C21.7549 122.857 18.0248 121.863 15.0178 120.845C11.9755 119.814 9.77853 118.793 8.67677 117.935L8.06258 118.724ZM25.6349 124.677L25.4332 125.657C27.6197 126.107 29.0632 126.361 30.0448 126.366C30.5512 126.369 31.0238 126.309 31.448 126.117C31.8962 125.915 32.1995 125.608 32.427 125.277L31.6026 124.711L30.7782 124.145C30.7029 124.255 30.6617 124.278 30.6254 124.294C30.5651 124.322 30.413 124.368 30.0562 124.366C29.3112 124.362 28.0736 124.158 25.8365 123.698L25.6349 124.677ZM31.6026 124.711L32.4267 125.277C32.3223 125.429 32.2743 125.31 32.9534 125.186C33.5577 125.075 34.5219 124.994 36.0393 124.951C39.0606 124.866 44.0772 124.933 52.347 125.121L52.3698 124.122L52.3926 123.122C44.1359 122.934 39.065 122.865 35.9825 122.952C34.4479 122.996 33.3561 123.079 32.5933 123.219C31.9053 123.344 31.1791 123.562 30.7784 124.145L31.6026 124.711ZM52.3698 124.122L52.347 125.121C58.8115 125.269 64.2228 125.311 68.3725 125.25C72.4909 125.19 75.4442 125.027 76.9391 124.746L76.7542 123.763L76.5694 122.781C75.271 123.025 72.4898 123.189 68.3431 123.25C64.2278 123.311 58.8436 123.269 52.3927 123.122L52.3698 124.122ZM92.4246 118.327L93.1962 118.963C93.768 118.269 94.389 117.646 94.9174 117.206C95.1831 116.984 95.407 116.824 95.5754 116.726C95.7895 116.6 95.7828 116.652 95.6337 116.652V115.652V114.652C95.2087 114.652 94.8146 114.853 94.5647 115C94.2693 115.173 93.9529 115.406 93.6369 115.669C93.002 116.198 92.2944 116.913 91.653 117.691L92.4246 118.327ZM92.4391 114.053L92.1206 113.105C85.4289 115.353 79.2376 116.471 62.9621 118.327L63.0754 119.32L63.1886 120.314C79.4723 118.457 85.8482 117.322 92.7576 115.001L92.4391 114.053ZM63.0754 119.32L62.9621 118.327C60.3305 118.627 52.8522 118.783 45.7376 118.785C42.1945 118.786 38.7666 118.749 36.1124 118.674C34.7842 118.636 33.6576 118.588 32.8103 118.532C32.3859 118.504 32.0408 118.475 31.7798 118.444C31.6492 118.428 31.547 118.414 31.4707 118.4C31.3876 118.386 31.3614 118.377 31.37 118.38L31.0566 119.329L30.7431 120.279C30.9661 120.353 31.2637 120.397 31.5461 120.43C31.8546 120.466 32.2372 120.499 32.6782 120.528C33.5617 120.587 34.7166 120.635 36.0555 120.673C38.7353 120.749 42.1837 120.786 45.7382 120.785C52.8189 120.783 60.4212 120.629 63.1886 120.314L63.0754 119.32ZM31.0566 119.329L31.3703 118.38C30.5493 118.109 26.5675 117.078 22.5546 116.091L22.3159 117.062L22.0772 118.034C26.1308 119.03 30.0156 120.039 30.7429 120.279L31.0566 119.329ZM85.3351 18.505L84.7925 17.665C84.7462 17.6949 84.5676 17.775 84.2606 17.8476C83.9747 17.9151 83.6676 17.9549 83.4192 17.9564L83.4253 18.9564L83.4314 19.9564C83.8554 19.9538 84.3141 19.89 84.7206 19.7939C85.1059 19.7029 85.546 19.5593 85.8778 19.3449L85.3351 18.505ZM83.4253 18.9564L83.4199 17.9564C83.1134 17.9581 82.761 18.0355 82.4419 18.1237C82.1009 18.218 81.7127 18.3495 81.3042 18.5051C80.4868 18.8166 79.5443 19.2417 78.6646 19.7083L79.1331 20.5917L79.6017 21.4751C80.4104 21.0462 81.2778 20.6554 82.0163 20.3741C82.3858 20.2333 82.712 20.1241 82.975 20.0514C83.1063 20.015 83.2142 19.99 83.2986 19.9744C83.3403 19.9667 83.3729 19.962 83.397 19.9592C83.4218 19.9564 83.4322 19.9564 83.4308 19.9564L83.4253 18.9564ZM79.1331 20.5917L78.6643 19.7084C76.9774 20.6038 73.6096 22.384 71.1809 23.6648L71.6474 24.5493L72.1138 25.4339C74.5433 24.1527 77.9128 22.3716 79.602 21.475L79.1331 20.5917ZM71.6474 24.5493L71.1809 23.6648C66.7718 25.9899 63.8035 27.767 61.9342 29.3473C60.0381 30.9502 59.1274 32.4757 59.1274 34.2877H60.1274H61.1274C61.1274 33.2948 61.5666 32.2769 63.2253 30.8747C64.9108 29.4498 67.7025 27.7602 72.1138 25.4339L71.6474 24.5493ZM60.1274 34.2877H59.1274C59.1274 34.8785 59.3372 35.6889 59.5992 36.4568C59.8733 37.2601 60.2501 38.1461 60.6687 38.9306L61.551 38.4598L62.4333 37.9891C62.069 37.3065 61.7341 36.5201 61.4921 35.8109C61.238 35.0663 61.1274 34.5243 61.1274 34.2877H60.1274ZM61.551 38.4598L60.6687 38.9306C61.5771 40.6329 63.6828 43.9724 65.7609 47.1106C67.8292 50.2337 69.9466 53.2738 70.8779 54.3393L71.6309 53.6811L72.3838 53.023C71.5588 52.0792 69.5195 49.1639 67.4285 46.0063C65.3474 42.8638 63.2913 39.5972 62.4333 37.9891L61.551 38.4598ZM71.6309 53.6811L70.8778 54.3391C71.5505 55.1091 73.1492 57.2799 74.4186 59.1606L75.2475 58.6012L76.0763 58.0418C74.7993 56.1496 73.143 53.8922 72.3839 53.0232L71.6309 53.6811ZM75.2475 58.6012L74.4185 59.1606C75.5263 60.8021 76.602 62.0891 77.6479 62.9756C78.6844 63.854 79.7888 64.4205 80.9339 64.4205V63.4205V62.4205C80.4596 62.4205 79.8023 62.1798 78.9411 61.4499C78.0893 60.728 77.1315 59.6054 76.0764 58.0418L75.2475 58.6012ZM80.9339 63.4205V64.4205C81.0955 64.4205 81.2323 64.3852 81.302 64.3655C81.3864 64.3416 81.4689 64.3116 81.543 64.282C81.6917 64.2227 81.8612 64.1434 82.04 64.0534C82.4006 63.8722 82.8587 63.6178 83.3781 63.3137C84.4199 62.7036 85.7517 61.8675 87.126 60.9512L86.5712 60.1192L86.0165 59.2872C84.6674 60.1867 83.3691 61.0013 82.3674 61.5878C81.865 61.8821 81.448 62.1126 81.1417 62.2666C80.9871 62.3443 80.8752 62.3952 80.8024 62.4242C80.7657 62.4388 80.7523 62.4425 80.7568 62.4412C80.7597 62.4404 80.7745 62.4363 80.7986 62.4319C80.8202 62.428 80.8684 62.4205 80.9339 62.4205V63.4205ZM86.5712 60.1192L87.126 60.9512C91.9801 57.7148 96.2773 53.7465 101.952 47.3017L101.202 46.6409L100.451 45.98C94.8405 52.3518 90.6734 56.1823 86.0165 59.2872L86.5712 60.1192ZM101.202 46.6409L101.952 47.3017C103.029 46.0794 103.735 45.2286 104.144 44.4276C104.593 43.5504 104.665 42.7814 104.663 41.8259L103.663 41.8285L102.663 41.8311C102.665 42.6589 102.6 43.0546 102.364 43.5169C102.088 44.0554 101.562 44.7192 100.451 45.98L101.202 46.6409ZM103.663 41.8285L104.663 41.8261C104.654 38.1492 103.003 33.8853 99.3014 27.4046L98.433 27.9006L97.5647 28.3965C101.254 34.8561 102.655 38.721 102.663 41.8309L103.663 41.8285ZM98.433 27.9006L99.3014 27.4046C98.2322 25.5325 96.8465 23.3952 95.5892 21.6185C94.9603 20.7298 94.3574 19.9226 93.8368 19.2787C93.3382 18.6621 92.8545 18.1178 92.4737 17.8259L91.8653 18.6195L91.2569 19.4132C91.425 19.542 91.774 19.9085 92.2815 20.5362C92.767 21.1366 93.3434 21.9073 93.9567 22.7738C95.1836 24.5076 96.533 26.5901 97.5647 28.3965L98.433 27.9006ZM91.8653 18.6195L92.4737 17.8259C92.2228 17.6336 91.9194 17.5164 91.6663 17.4387C91.3946 17.3554 91.0884 17.2904 90.7721 17.2396C90.1382 17.1378 89.3936 17.0819 88.6602 17.069C87.9265 17.0561 87.176 17.0858 86.5294 17.1647C86.2066 17.2041 85.894 17.2577 85.6147 17.3298C85.3505 17.398 85.0488 17.4993 84.7923 17.6651L85.3351 18.505L85.878 19.3448C85.8696 19.3502 85.9306 19.3138 86.1146 19.2663C86.2835 19.2227 86.5046 19.1826 86.7717 19.15C87.3053 19.0849 87.9603 19.057 88.6251 19.0687C89.2902 19.0804 89.9371 19.1312 90.455 19.2143C90.7145 19.256 90.9242 19.3031 91.0795 19.3507C91.2533 19.4041 91.2879 19.437 91.2569 19.4132L91.8653 18.6195ZM32.7249 26.0329L32.161 25.207C29.3457 27.129 27.7054 28.498 19.6261 35.6298L20.2878 36.3795L20.9496 37.1292C29.0499 29.9789 30.595 28.6978 33.2887 26.8588L32.7249 26.0329ZM20.2878 36.3795L19.6261 35.6298C17.2037 37.7681 14.1493 40.326 12.8466 41.3108L13.4497 42.1085L14.0528 42.9062C15.4175 41.8745 18.5174 39.2762 20.9496 37.1292L20.2878 36.3795ZM13.4497 42.1085L12.8467 41.3108C11.1762 42.5736 9.98446 43.7178 9.21659 45.037C8.43545 46.3791 8.14503 47.8108 8.10506 49.5502L9.10479 49.5732L10.1045 49.5962C10.1397 48.065 10.389 46.9986 10.9451 46.0431C11.5145 45.0648 12.4577 44.112 14.0527 42.9062L13.4497 42.1085ZM9.10479 49.5732L8.10506 49.5501C8.05746 51.607 8.3102 52.9217 9.1535 54.3182L10.0095 53.8012L10.8655 53.2843C10.2835 52.3204 10.0623 51.4214 10.1045 49.5963L9.10479 49.5732ZM10.0095 53.8012L9.15345 54.3181C9.67353 55.1795 10.7767 57.1224 11.6006 58.6294L12.478 58.1498L13.3555 57.6701C12.5257 56.1522 11.407 54.1811 10.8656 53.2844L10.0095 53.8012ZM12.478 58.1498L11.6006 58.6295C13.964 62.9527 15.0101 64.4853 17.7238 67.5751L18.4752 66.9152L19.2265 66.2553C16.6274 63.2961 15.6624 61.89 13.3555 57.6701L12.478 58.1498ZM18.4752 66.9152L17.7238 67.5751C19.0659 69.1031 21.0465 71.5223 22.1142 72.9361L22.9122 72.3335L23.7102 71.7308C22.6091 70.2728 20.5968 67.8154 19.2265 66.2553L18.4752 66.9152ZM22.9122 72.3335L22.1141 72.9359C24.1431 75.6238 26.4899 77.2535 29.0198 77.2535V76.2535V75.2535C27.4047 75.2535 25.577 74.2038 23.7103 71.731L22.9122 72.3335ZM29.0198 76.2535V77.2535C29.3989 77.2535 29.7721 77.1049 30.044 76.9758C30.3503 76.8304 30.6854 76.6312 31.0293 76.4004C31.7194 75.9371 32.5123 75.3007 33.2864 74.5786L32.6043 73.8473L31.9222 73.116C31.2105 73.7799 30.5005 74.3465 29.9146 74.7398C29.6204 74.9373 29.3742 75.0798 29.1863 75.169C28.964 75.2746 28.9301 75.2535 29.0198 75.2535V76.2535ZM32.6043 73.8473L33.2863 74.5787C34.6816 73.2775 37.7744 70.629 40.1504 68.7036L39.5208 67.9267L38.8913 67.1498C36.4971 69.0898 33.3649 71.7707 31.9223 73.1159L32.6043 73.8473ZM39.5208 67.9267L40.1505 68.7036C43.4805 66.0048 46.9931 62.6411 49.8826 59.4937C52.7419 56.3793 55.0892 53.3723 55.9842 51.3993L55.0735 50.9862L54.1629 50.5731C53.4139 52.224 51.2719 55.0233 48.4094 58.1411C45.5771 61.2261 42.1354 64.5206 38.8912 67.1498L39.5208 67.9267ZM55.0735 50.9862L55.9841 51.3995C56.583 50.08 56.986 48.1069 56.9925 46.5465L55.9925 46.5423L54.9925 46.5382C54.9871 47.8477 54.6328 49.5376 54.1629 50.5729L55.0735 50.9862ZM55.9925 46.5423L56.9925 46.5465C57.0006 44.5884 56.319 42.5754 54.9216 40.2884C53.5283 38.0082 51.3862 35.3954 48.3877 32.2202L47.6606 32.9068L46.9336 33.5934C49.8988 36.7334 51.9297 39.2277 53.215 41.3312C54.496 43.4277 54.9986 45.0749 54.9925 46.5382L55.9925 46.5423ZM47.6606 32.9068L48.3877 32.2203C45.774 29.4522 43.2699 26.7203 42.7985 26.1304L42.0173 26.7548L41.2362 27.3791C41.7721 28.0496 44.3472 30.8542 46.9336 33.5933L47.6606 32.9068ZM42.0173 26.7548L42.7984 26.1303C42.011 25.1454 41.3 24.415 40.4409 23.9416C39.5641 23.4584 38.6329 23.2967 37.5124 23.25L37.4708 24.2491L37.4291 25.2482C38.4091 25.2891 38.9865 25.4237 39.4756 25.6932C39.9823 25.9724 40.4942 26.451 41.2363 27.3792L42.0173 26.7548ZM37.4708 24.2491L37.5124 23.25C36.5955 23.2118 35.8328 23.2724 34.9723 23.5958C34.156 23.9027 33.3006 24.4291 32.1611 25.207L32.7249 26.0329L33.2886 26.8588C34.4265 26.0821 35.1071 25.6818 35.676 25.468C36.2007 25.2707 36.6722 25.2167 37.4292 25.2482L37.4708 24.2491ZM57.3775 70.1546L57.3267 69.1559C54.5646 69.2963 51.5131 69.5499 48.9268 69.8337C46.3775 70.1134 44.1819 70.4322 43.1957 70.7199L43.4757 71.6799L43.7558 72.6399C44.5433 72.4101 46.5573 72.1056 49.1449 71.8217C51.6955 71.5419 54.708 71.2916 57.4283 71.1533L57.3775 70.1546ZM43.4757 71.6799L43.1956 70.7199C42.3412 70.9692 41.6407 71.2497 40.9987 71.9903C40.4354 72.64 39.9486 73.6157 39.2728 75.0596L40.1785 75.4835L41.0843 75.9074C41.7927 74.3937 42.1651 73.698 42.5098 73.3004C42.7757 72.9937 43.0318 72.8511 43.7558 72.6398L43.4757 71.6799ZM40.1785 75.4835L39.2728 75.0596C38.1101 77.5439 37.3895 80.1935 36.6932 84.3986L37.6798 84.5619L38.6663 84.7253C39.3487 80.6046 40.0315 78.1567 41.0842 75.9074L40.1785 75.4835ZM37.6798 84.5619L36.6932 84.3985C36.1627 87.5999 35.5416 90.8353 35.3175 91.6166L36.2787 91.8923L37.2399 92.1681C37.5025 91.2526 38.1418 87.8909 38.6663 84.7254L37.6798 84.5619ZM36.2787 91.8923L35.3175 91.6166C35.2175 91.9651 35.1483 92.4753 35.0942 93.0346C35.0381 93.6163 34.9922 94.3241 34.9558 95.1078C34.8831 96.6765 34.8471 98.5811 34.8475 100.451C34.8478 102.321 34.8843 104.169 34.9578 105.624C34.9944 106.349 35.0409 106.99 35.0985 107.492C35.1272 107.742 35.1603 107.972 35.1995 108.168C35.2328 108.333 35.2887 108.575 35.3998 108.783L36.2814 108.311L37.1631 107.839C37.2021 107.912 37.1903 107.923 37.1604 107.774C37.1365 107.655 37.1109 107.486 37.0855 107.264C37.0348 106.823 36.9909 106.23 36.9552 105.523C36.884 104.112 36.8478 102.3 36.8475 100.451C36.8472 98.6026 36.8827 96.7303 36.9537 95.2005C36.9892 94.435 37.0332 93.7632 37.085 93.2269C37.1389 92.6682 37.1957 92.3221 37.2399 92.168L36.2787 91.8923ZM36.2814 108.311L35.3997 108.783C35.5365 109.038 35.7385 109.256 35.9196 109.425C36.1122 109.604 36.3378 109.779 36.5761 109.942C37.0517 110.267 37.6304 110.581 38.2108 110.814L38.5822 109.885L38.9537 108.957C38.5134 108.781 38.064 108.536 37.7056 108.291C37.5269 108.169 37.384 108.055 37.2817 107.96C37.1679 107.854 37.1487 107.812 37.1632 107.839L36.2814 108.311ZM38.5822 109.885L38.2108 110.814C39.1404 111.185 40.2386 111.377 42.2909 111.486C44.3461 111.596 47.4562 111.626 52.46 111.624L52.4597 110.624L52.4595 109.624C47.4448 109.626 44.3896 109.595 42.3973 109.489C40.4023 109.383 39.5709 109.204 38.9536 108.957L38.5822 109.885ZM52.4597 110.624L52.46 111.624C58.9143 111.623 63.9219 111.455 67.5178 111.112C69.3139 110.941 70.7842 110.724 71.918 110.454C73.0045 110.195 73.9457 109.852 74.5261 109.327L73.8551 108.585L73.1841 107.844C73.008 108.003 72.5075 108.257 71.4542 108.508C70.4483 108.748 69.0807 108.954 67.328 109.121C63.8264 109.455 58.8927 109.623 52.4594 109.624L52.4597 110.624ZM73.8551 108.585L74.5261 109.327C74.9125 108.977 75.2497 108.389 75.5048 107.846C75.7783 107.263 76.0281 106.578 76.1916 105.918L75.2209 105.678L74.2502 105.437C74.1203 105.962 73.9162 106.524 73.6946 106.995C73.4546 107.506 73.2555 107.779 73.1841 107.844L73.8551 108.585ZM75.2209 105.678L76.1915 105.918C76.4828 104.744 76.9139 103.161 77.1459 102.412L76.1907 102.116L75.2354 101.82C74.988 102.619 74.5466 104.242 74.2503 105.437L75.2209 105.678ZM76.1907 102.116L77.1458 102.412C77.2176 102.181 77.2629 101.87 77.2977 101.56C77.3349 101.228 77.3678 100.817 77.397 100.346C77.4554 99.4018 77.5012 98.1775 77.5354 96.7728C77.6038 93.9613 77.6263 90.3964 77.6073 86.8397C77.5883 83.283 77.5277 79.7261 77.4294 76.9306C77.3803 75.5339 77.3215 74.3193 77.2531 73.3868C77.2189 72.9213 77.1817 72.5168 77.1408 72.1906C77.1031 71.8906 77.0538 71.5789 76.975 71.3477L76.0284 71.6703L75.0819 71.9929C75.0801 71.9876 75.0903 72.0187 75.1068 72.108C75.1221 72.1906 75.1389 72.3003 75.1563 72.4395C75.1912 72.7178 75.2255 73.0845 75.2584 73.5332C75.3242 74.4292 75.3819 75.6151 75.4307 77.0009C75.5281 79.7703 75.5884 83.3062 75.6073 86.8504C75.6262 90.3946 75.6037 93.9386 75.536 96.7241C75.5021 98.1179 75.457 99.3141 75.4008 100.222C75.3726 100.677 75.3422 101.051 75.3101 101.337C75.2941 101.48 75.2784 101.595 75.2635 101.683C75.2562 101.726 75.2496 101.76 75.2441 101.785C75.2384 101.811 75.2352 101.821 75.2355 101.82L76.1907 102.116ZM76.0284 71.6703L76.9749 71.3474L76.4277 69.7433L75.4812 70.0661L74.5348 70.389L75.082 71.9931L76.0284 71.6703ZM75.4812 70.0661L75.4854 69.0661L67.9231 69.0345L67.9189 70.0345L67.9147 71.0345L75.477 71.0661L75.4812 70.0661ZM67.9189 70.0345L67.9231 69.0345C63.7649 69.0171 58.996 69.0709 57.3267 69.1559L57.3775 70.1546L57.4284 71.1533C59.0361 71.0715 63.7544 71.0171 67.9147 71.0345L67.9189 70.0345ZM82.8144 0.862338L82.6739 1.85243C93.4705 3.3838 96.893 4.17591 102.067 6.40658L102.463 5.4883L102.859 4.57001C97.4312 2.22998 93.7917 1.40934 82.9548 -0.127752L82.8144 0.862338ZM102.484 5.49739L102.088 6.41555C102.354 6.53034 102.625 6.64906 102.902 6.77206L103.307 5.85805L103.713 4.94404C103.43 4.81856 103.153 4.69704 102.88 4.57922L102.484 5.49739ZM5.50478 113.949L4.85058 114.705C5.6473 115.394 5.87785 116.176 6.13323 117.103L7.09732 116.838L8.06141 116.572C7.80485 115.641 7.45425 114.313 6.15898 113.192L5.50478 113.949ZM7.09732 116.838L6.13323 117.103C6.32355 117.794 6.57358 118.833 7.44871 119.514L8.06258 118.724L8.67645 117.935C8.41764 117.734 8.29287 117.412 8.06141 116.572L7.09732 116.838ZM76.7542 123.763L76.939 124.746C77.2582 124.686 77.5795 124.626 77.9029 124.566L77.7193 123.583L77.5357 122.6C77.2124 122.66 76.8899 122.72 76.5694 122.781L76.7542 123.763ZM77.7193 123.583L77.9029 124.566C80.8373 124.018 83.961 123.435 86.6586 122.61C89.3197 121.796 91.7733 120.689 93.1962 118.963L92.4246 118.327L91.653 117.691C90.6307 118.931 88.6798 119.9 86.0736 120.698C83.504 121.484 80.4977 122.046 77.5357 122.6L77.7193 123.583ZM102.484 5.49739L102.88 4.57915L102.859 4.57006L102.463 5.4883L102.067 6.40653L102.088 6.41562L102.484 5.49739ZM14.493 115.182L14.2624 116.155C16.4779 116.68 19.0711 117.295 22.0773 118.034L22.3159 117.062L22.5545 116.091C19.5394 115.35 16.9389 114.734 14.7236 114.209L14.493 115.182ZM3.86935 111.421L2.87463 111.319C2.8674 111.389 2.86015 111.458 2.85289 111.528L3.84746 111.632L4.84204 111.736C4.8494 111.665 4.85674 111.595 4.86407 111.524L3.86935 111.421ZM14.493 115.182L14.7236 114.209C14.2535 114.098 13.8007 113.991 13.3651 113.887L13.1339 114.86L12.9028 115.833C13.3391 115.937 13.7925 116.044 14.2624 116.155L14.493 115.182ZM3.84746 111.632H2.84746C2.84746 112.412 3.41331 112.898 3.84606 113.17C4.31396 113.465 4.95831 113.723 5.72715 113.975C7.27986 114.483 9.64838 115.06 12.9028 115.833L13.1339 114.86L13.3651 113.887C10.0797 113.107 7.80496 112.551 6.3494 112.074C5.6141 111.834 5.16304 111.636 4.91157 111.478C4.62495 111.298 4.84746 111.333 4.84746 111.632H3.84746ZM3.85972 111.472L4.8471 111.63C4.8468 111.632 4.84636 111.634 4.84568 111.637L3.86935 111.421L2.89301 111.205C2.88493 111.241 2.87808 111.278 2.87234 111.313L3.85972 111.472ZM3.85972 111.472L3.0267 112.025L4.67176 114.502L5.50478 113.949L6.3378 113.395L4.69274 110.918L3.85972 111.472ZM98.902 111.821L98.5675 110.878C96.5435 111.597 94.3312 112.362 92.1207 113.105L92.4391 114.053L92.7575 115.001C94.9791 114.254 97.2021 113.485 99.2365 112.763L98.902 111.821ZM101.031 108.571L101.881 109.098C102.574 107.981 103.099 107.787 103.345 107.758C103.623 107.726 103.95 107.854 104.338 108.162L104.96 107.379L105.582 106.596C105.048 106.171 104.185 105.648 103.115 105.772C102.014 105.899 101.036 106.667 100.181 108.044L101.031 108.571ZM95.6337 115.652V116.652C95.9726 116.652 96.2351 116.5 96.3484 116.429C96.4944 116.339 96.6325 116.226 96.7556 116.115C97.0046 115.89 97.2861 115.586 97.5839 115.235C98.1844 114.527 98.9254 113.54 99.7234 112.391L98.902 111.821L98.0806 111.25C97.3017 112.372 96.6016 113.301 96.0588 113.941C95.7849 114.264 95.569 114.491 95.4154 114.63C95.3787 114.663 95.3491 114.688 95.3265 114.706C95.3154 114.715 95.3068 114.721 95.3007 114.725C95.2945 114.73 95.2917 114.731 95.2922 114.731C95.2926 114.731 95.2979 114.728 95.3077 114.722C95.3173 114.717 95.3342 114.709 95.3578 114.7C95.3982 114.685 95.4962 114.652 95.6337 114.652V115.652ZM100.815 108.917L101.662 109.449C101.735 109.333 101.808 109.216 101.881 109.098L101.031 108.571L100.181 108.044C100.11 108.159 100.039 108.273 99.9678 108.386L100.815 108.917Z" fill="black" mask="url(#path-1-inside-1_1073_26)"/>
</svg>
