<svg width="82" height="133" viewBox="0 0 82 133" fill="none" xmlns="http://www.w3.org/2000/svg">
<mask id="path-1-outside-1_1073_20" maskUnits="userSpaceOnUse" x="-0.980469" y="0" width="83" height="133" fill="black">
<rect fill="white" x="-0.980469" width="83" height="133"/>
<path fill-rule="evenodd" clip-rule="evenodd" d="M36.5502 3.8269C28.1034 6.48555 15.7407 13.1195 11.2817 17.386C4.90479 23.4869 4.06669 30.0905 2.6918 85.0561L2.01953 111.893L7.41784 117.447C17.4447 127.764 36.1249 132.303 55.005 129.011C71.0354 126.214 79.5291 120.616 79.595 112.798C79.6064 111.33 79.5671 95.0298 79.5063 76.5775C79.4456 58.1253 79.5785 37.1309 79.8001 29.9247C80.2014 16.9328 80.171 16.777 76.2615 11.6965C70.2062 3.82563 65.4307 1.8595 52.7161 2.00763C46.786 2.07599 39.5115 2.89511 36.5502 3.8269ZM6.44807 47.8768C6.76331 45.9069 7.36214 41.5885 7.77993 38.2829L8.53953 32.2719L13.2099 35.9965C17.289 39.2502 19.5881 39.9174 31.371 41.272C47.2633 43.0989 63.0734 41.4809 69.7719 37.3398C72.033 35.9421 74.2131 34.7988 74.6144 34.7988C75.0158 34.7988 75.3639 41.2087 75.388 49.0416C75.412 56.8757 75.7171 71.9705 76.0653 82.5873C76.7907 104.662 75.293 113.668 70.2847 117.343C65.075 121.166 51.8552 123.799 41.96 122.985C20.8807 121.252 14.4936 119.975 11.3995 116.881C6.19107 111.673 4.27432 100.985 5.26182 82.6544L6.12776 66.5772L9.47259 68.7801C11.3109 69.9904 13.9556 71.5894 15.3482 72.3326C18.2398 73.8758 19.0779 76.6864 17.9689 81.1086C16.9143 85.3055 15.0887 84.9573 14.0796 80.3655C13.3656 77.1131 10.3335 74.0455 7.83562 74.0455C6.09105 74.0455 7.3039 84.1103 9.3346 86.4892C13.3669 91.214 20.8769 90.2278 23.4229 84.6383L24.9193 81.3542L27.9856 84.6636C31.5761 88.5363 35.3906 88.8465 40.6686 85.6941C43.4273 84.047 45.7783 83.6482 49.2586 84.2407C52.4135 84.7775 54.3606 84.5383 54.9557 83.5406C56.1052 81.6175 65.0674 80.149 66.0409 81.7252C66.4423 82.3759 68.3806 82.9076 70.3467 82.9076C73.1648 82.9076 74.0523 82.2303 74.5334 79.7122C74.8702 77.955 74.6423 76.2066 74.0283 75.8268C73.413 75.447 73.2674 74.5608 73.7016 73.8568C74.1371 73.1529 73.2915 71.7363 71.8229 70.707C70.3555 69.679 69.1541 67.9699 69.1541 66.9102C69.1541 65.4036 68.2552 65.1694 65.0395 65.8404C62.7771 66.3114 59.7058 67.4685 58.2144 68.4117C55.5418 70.1006 55.5026 69.9993 55.3671 61.1143C55.2912 56.1579 54.9936 51.8673 54.7063 51.5787C54.4176 51.2913 52.7211 52.0117 50.9348 53.1815C48.0103 55.0982 47.7545 55.9034 48.3559 61.3043C48.8421 65.667 48.518 67.7205 47.1684 68.8409C45.6454 70.1044 45.1541 69.8575 44.4274 67.466C43.1703 63.3261 38.7531 58.8532 35.9198 58.8532C32.7978 58.8532 26.1094 65.548 26.1094 68.6725C26.1094 72.5858 24.6762 72.9086 22.0632 69.5866C20.7199 67.8787 17.8511 66.0227 15.6888 65.4619C10.3145 64.0692 8.65854 61.1739 10.8728 57.0365C13.2643 52.5687 19.7793 52.3547 19.7793 56.7428C19.7793 60.494 20.5845 61.2688 23.6508 60.4674C26.379 59.7534 26.8639 55.9401 24.8877 50.7418C23.1912 46.2779 18.1474 45.2562 12.3655 48.2047C9.82835 49.4986 7.33049 50.7608 6.81396 51.009C6.29742 51.2571 6.13283 49.848 6.44807 47.8768ZM34.2056 71.7654C34.3436 74.5025 35.0576 75.9445 36.2755 75.9445C38.981 75.9445 38.7848 68.5079 36.0654 67.9838C34.455 67.6736 34.0423 68.5142 34.2056 71.7654ZM28.8541 71.8072C27.9147 72.7465 27.7501 72.2515 28.3009 70.1461C28.749 68.4345 29.3225 67.8597 29.639 68.808C29.9429 69.722 29.5909 71.0703 28.8541 71.8072ZM47.5963 74.1653C46.3505 75.309 46.6949 77.0187 48.3627 77.9634C50.1554 78.9789 51.3944 78.1298 51.3944 75.8846C51.3944 71.5376 50.7698 71.2565 47.5963 74.1653ZM64.2166 75.7014C63.4519 76.5278 62.2014 76.2141 61.6846 74.7569C61.1693 73.2998 61.9986 71.9034 63.2786 71.9034C65.9029 71.9034 66.2882 73.4674 64.2166 75.7014ZM69.0439 77.3283C69.0439 79.4172 69.6478 81.1263 70.3847 81.1263C71.1215 81.1263 71.3734 79.4172 70.943 77.3283C70.5125 75.2393 69.9099 73.5302 69.6023 73.5302C69.2946 73.5302 69.0439 75.2393 69.0439 77.3283ZM42.0093 6.62987C43.7349 6.62987 45.4542 6.13106 45.8302 5.5221C47.0342 3.5737 58.2157 4.38902 63.557 6.81472C70.9974 10.195 74.2182 14.8413 74.2182 22.1969C74.2182 27.3825 73.6687 28.7068 70.3606 31.4895C64.6002 36.3371 55.2696 38.5969 41.0218 38.5969C31.2722 38.5969 27.5121 38.0728 23.8432 36.1991C15.2292 31.8034 11.8071 25.467 15.2279 20.2459C17.5359 16.7226 37.3884 6.62987 42.0093 6.62987ZM44.2578 15.1299C40.661 16.7644 36.725 19.618 35.5121 21.4689C33.3877 24.7099 33.4029 24.9315 35.9198 27.4471C38.1176 29.6461 39.9748 30.031 47.6229 29.8728C61.0693 29.5968 67.9691 24.8682 65.3763 17.7076C63.1747 11.6281 54.3328 10.5482 44.2578 15.1299ZM51.4298 19.6091C51.4298 20.4029 52.2439 21.8677 53.2389 22.8615C55.928 25.5518 57.9903 25.0517 57.532 21.8221C57.113 18.8723 51.4298 16.8099 51.4298 19.6091ZM44.6781 23.4047C42.8209 23.4047 41.3016 22.8387 41.3016 22.1462C41.3016 21.455 42.4259 21.06 43.8008 21.2701C47.7659 21.8753 48.3939 23.4047 44.6781 23.4047ZM40.9851 25.5088C41.8561 25.8607 43.2804 25.8607 44.1502 25.5088C45.0212 25.1581 44.3084 24.8707 42.5677 24.8707C40.8269 24.8707 40.1154 25.1581 40.9851 25.5088ZM63.2342 21.6284C62.0505 24.7162 60.7135 23.5553 60.7135 19.4395C60.7135 15.9313 60.8996 15.7262 62.3151 17.6632C63.1962 18.8672 63.6089 20.6523 63.2342 21.6284Z"/>
</mask>
<path fill-rule="evenodd" clip-rule="evenodd" d="M36.5502 3.8269C28.1034 6.48555 15.7407 13.1195 11.2817 17.386C4.90479 23.4869 4.06669 30.0905 2.6918 85.0561L2.01953 111.893L7.41784 117.447C17.4447 127.764 36.1249 132.303 55.005 129.011C71.0354 126.214 79.5291 120.616 79.595 112.798C79.6064 111.33 79.5671 95.0298 79.5063 76.5775C79.4456 58.1253 79.5785 37.1309 79.8001 29.9247C80.2014 16.9328 80.171 16.777 76.2615 11.6965C70.2062 3.82563 65.4307 1.8595 52.7161 2.00763C46.786 2.07599 39.5115 2.89511 36.5502 3.8269ZM6.44807 47.8768C6.76331 45.9069 7.36214 41.5885 7.77993 38.2829L8.53953 32.2719L13.2099 35.9965C17.289 39.2502 19.5881 39.9174 31.371 41.272C47.2633 43.0989 63.0734 41.4809 69.7719 37.3398C72.033 35.9421 74.2131 34.7988 74.6144 34.7988C75.0158 34.7988 75.3639 41.2087 75.388 49.0416C75.412 56.8757 75.7171 71.9705 76.0653 82.5873C76.7907 104.662 75.293 113.668 70.2847 117.343C65.075 121.166 51.8552 123.799 41.96 122.985C20.8807 121.252 14.4936 119.975 11.3995 116.881C6.19107 111.673 4.27432 100.985 5.26182 82.6544L6.12776 66.5772L9.47259 68.7801C11.3109 69.9904 13.9556 71.5894 15.3482 72.3326C18.2398 73.8758 19.0779 76.6864 17.9689 81.1086C16.9143 85.3055 15.0887 84.9573 14.0796 80.3655C13.3656 77.1131 10.3335 74.0455 7.83562 74.0455C6.09105 74.0455 7.3039 84.1103 9.3346 86.4892C13.3669 91.214 20.8769 90.2278 23.4229 84.6383L24.9193 81.3542L27.9856 84.6636C31.5761 88.5363 35.3906 88.8465 40.6686 85.6941C43.4273 84.047 45.7783 83.6482 49.2586 84.2407C52.4135 84.7775 54.3606 84.5383 54.9557 83.5406C56.1052 81.6175 65.0674 80.149 66.0409 81.7252C66.4423 82.3759 68.3806 82.9076 70.3467 82.9076C73.1648 82.9076 74.0523 82.2303 74.5334 79.7122C74.8702 77.955 74.6423 76.2066 74.0283 75.8268C73.413 75.447 73.2674 74.5608 73.7016 73.8568C74.1371 73.1529 73.2915 71.7363 71.8229 70.707C70.3555 69.679 69.1541 67.9699 69.1541 66.9102C69.1541 65.4036 68.2552 65.1694 65.0395 65.8404C62.7771 66.3114 59.7058 67.4685 58.2144 68.4117C55.5418 70.1006 55.5026 69.9993 55.3671 61.1143C55.2912 56.1579 54.9936 51.8673 54.7063 51.5787C54.4176 51.2913 52.7211 52.0117 50.9348 53.1815C48.0103 55.0982 47.7545 55.9034 48.3559 61.3043C48.8421 65.667 48.518 67.7205 47.1684 68.8409C45.6454 70.1044 45.1541 69.8575 44.4274 67.466C43.1703 63.3261 38.7531 58.8532 35.9198 58.8532C32.7978 58.8532 26.1094 65.548 26.1094 68.6725C26.1094 72.5858 24.6762 72.9086 22.0632 69.5866C20.7199 67.8787 17.8511 66.0227 15.6888 65.4619C10.3145 64.0692 8.65854 61.1739 10.8728 57.0365C13.2643 52.5687 19.7793 52.3547 19.7793 56.7428C19.7793 60.494 20.5845 61.2688 23.6508 60.4674C26.379 59.7534 26.8639 55.9401 24.8877 50.7418C23.1912 46.2779 18.1474 45.2562 12.3655 48.2047C9.82835 49.4986 7.33049 50.7608 6.81396 51.009C6.29742 51.2571 6.13283 49.848 6.44807 47.8768ZM34.2056 71.7654C34.3436 74.5025 35.0576 75.9445 36.2755 75.9445C38.981 75.9445 38.7848 68.5079 36.0654 67.9838C34.455 67.6736 34.0423 68.5142 34.2056 71.7654ZM28.8541 71.8072C27.9147 72.7465 27.7501 72.2515 28.3009 70.1461C28.749 68.4345 29.3225 67.8597 29.639 68.808C29.9429 69.722 29.5909 71.0703 28.8541 71.8072ZM47.5963 74.1653C46.3505 75.309 46.6949 77.0187 48.3627 77.9634C50.1554 78.9789 51.3944 78.1298 51.3944 75.8846C51.3944 71.5376 50.7698 71.2565 47.5963 74.1653ZM64.2166 75.7014C63.4519 76.5278 62.2014 76.2141 61.6846 74.7569C61.1693 73.2998 61.9986 71.9034 63.2786 71.9034C65.9029 71.9034 66.2882 73.4674 64.2166 75.7014ZM69.0439 77.3283C69.0439 79.4172 69.6478 81.1263 70.3847 81.1263C71.1215 81.1263 71.3734 79.4172 70.943 77.3283C70.5125 75.2393 69.9099 73.5302 69.6023 73.5302C69.2946 73.5302 69.0439 75.2393 69.0439 77.3283ZM42.0093 6.62987C43.7349 6.62987 45.4542 6.13106 45.8302 5.5221C47.0342 3.5737 58.2157 4.38902 63.557 6.81472C70.9974 10.195 74.2182 14.8413 74.2182 22.1969C74.2182 27.3825 73.6687 28.7068 70.3606 31.4895C64.6002 36.3371 55.2696 38.5969 41.0218 38.5969C31.2722 38.5969 27.5121 38.0728 23.8432 36.1991C15.2292 31.8034 11.8071 25.467 15.2279 20.2459C17.5359 16.7226 37.3884 6.62987 42.0093 6.62987ZM44.2578 15.1299C40.661 16.7644 36.725 19.618 35.5121 21.4689C33.3877 24.7099 33.4029 24.9315 35.9198 27.4471C38.1176 29.6461 39.9748 30.031 47.6229 29.8728C61.0693 29.5968 67.9691 24.8682 65.3763 17.7076C63.1747 11.6281 54.3328 10.5482 44.2578 15.1299ZM51.4298 19.6091C51.4298 20.4029 52.2439 21.8677 53.2389 22.8615C55.928 25.5518 57.9903 25.0517 57.532 21.8221C57.113 18.8723 51.4298 16.8099 51.4298 19.6091ZM44.6781 23.4047C42.8209 23.4047 41.3016 22.8387 41.3016 22.1462C41.3016 21.455 42.4259 21.06 43.8008 21.2701C47.7659 21.8753 48.3939 23.4047 44.6781 23.4047ZM40.9851 25.5088C41.8561 25.8607 43.2804 25.8607 44.1502 25.5088C45.0212 25.1581 44.3084 24.8707 42.5677 24.8707C40.8269 24.8707 40.1154 25.1581 40.9851 25.5088ZM63.2342 21.6284C62.0505 24.7162 60.7135 23.5553 60.7135 19.4395C60.7135 15.9313 60.8996 15.7262 62.3151 17.6632C63.1962 18.8672 63.6089 20.6523 63.2342 21.6284Z" fill="#DE0004"/>
<path fill-rule="evenodd" clip-rule="evenodd" d="M36.5502 3.8269C28.1034 6.48555 15.7407 13.1195 11.2817 17.386C4.90479 23.4869 4.06669 30.0905 2.6918 85.0561L2.01953 111.893L7.41784 117.447C17.4447 127.764 36.1249 132.303 55.005 129.011C71.0354 126.214 79.5291 120.616 79.595 112.798C79.6064 111.33 79.5671 95.0298 79.5063 76.5775C79.4456 58.1253 79.5785 37.1309 79.8001 29.9247C80.2014 16.9328 80.171 16.777 76.2615 11.6965C70.2062 3.82563 65.4307 1.8595 52.7161 2.00763C46.786 2.07599 39.5115 2.89511 36.5502 3.8269ZM6.44807 47.8768C6.76331 45.9069 7.36214 41.5885 7.77993 38.2829L8.53953 32.2719L13.2099 35.9965C17.289 39.2502 19.5881 39.9174 31.371 41.272C47.2633 43.0989 63.0734 41.4809 69.7719 37.3398C72.033 35.9421 74.2131 34.7988 74.6144 34.7988C75.0158 34.7988 75.3639 41.2087 75.388 49.0416C75.412 56.8757 75.7171 71.9705 76.0653 82.5873C76.7907 104.662 75.293 113.668 70.2847 117.343C65.075 121.166 51.8552 123.799 41.96 122.985C20.8807 121.252 14.4936 119.975 11.3995 116.881C6.19107 111.673 4.27432 100.985 5.26182 82.6544L6.12776 66.5772L9.47259 68.7801C11.3109 69.9904 13.9556 71.5894 15.3482 72.3326C18.2398 73.8758 19.0779 76.6864 17.9689 81.1086C16.9143 85.3055 15.0887 84.9573 14.0796 80.3655C13.3656 77.1131 10.3335 74.0455 7.83562 74.0455C6.09105 74.0455 7.3039 84.1103 9.3346 86.4892C13.3669 91.214 20.8769 90.2278 23.4229 84.6383L24.9193 81.3542L27.9856 84.6636C31.5761 88.5363 35.3906 88.8465 40.6686 85.6941C43.4273 84.047 45.7783 83.6482 49.2586 84.2407C52.4135 84.7775 54.3606 84.5383 54.9557 83.5406C56.1052 81.6175 65.0674 80.149 66.0409 81.7252C66.4423 82.3759 68.3806 82.9076 70.3467 82.9076C73.1648 82.9076 74.0523 82.2303 74.5334 79.7122C74.8702 77.955 74.6423 76.2066 74.0283 75.8268C73.413 75.447 73.2674 74.5608 73.7016 73.8568C74.1371 73.1529 73.2915 71.7363 71.8229 70.707C70.3555 69.679 69.1541 67.9699 69.1541 66.9102C69.1541 65.4036 68.2552 65.1694 65.0395 65.8404C62.7771 66.3114 59.7058 67.4685 58.2144 68.4117C55.5418 70.1006 55.5026 69.9993 55.3671 61.1143C55.2912 56.1579 54.9936 51.8673 54.7063 51.5787C54.4176 51.2913 52.7211 52.0117 50.9348 53.1815C48.0103 55.0982 47.7545 55.9034 48.3559 61.3043C48.8421 65.667 48.518 67.7205 47.1684 68.8409C45.6454 70.1044 45.1541 69.8575 44.4274 67.466C43.1703 63.3261 38.7531 58.8532 35.9198 58.8532C32.7978 58.8532 26.1094 65.548 26.1094 68.6725C26.1094 72.5858 24.6762 72.9086 22.0632 69.5866C20.7199 67.8787 17.8511 66.0227 15.6888 65.4619C10.3145 64.0692 8.65854 61.1739 10.8728 57.0365C13.2643 52.5687 19.7793 52.3547 19.7793 56.7428C19.7793 60.494 20.5845 61.2688 23.6508 60.4674C26.379 59.7534 26.8639 55.9401 24.8877 50.7418C23.1912 46.2779 18.1474 45.2562 12.3655 48.2047C9.82835 49.4986 7.33049 50.7608 6.81396 51.009C6.29742 51.2571 6.13283 49.848 6.44807 47.8768ZM34.2056 71.7654C34.3436 74.5025 35.0576 75.9445 36.2755 75.9445C38.981 75.9445 38.7848 68.5079 36.0654 67.9838C34.455 67.6736 34.0423 68.5142 34.2056 71.7654ZM28.8541 71.8072C27.9147 72.7465 27.7501 72.2515 28.3009 70.1461C28.749 68.4345 29.3225 67.8597 29.639 68.808C29.9429 69.722 29.5909 71.0703 28.8541 71.8072ZM47.5963 74.1653C46.3505 75.309 46.6949 77.0187 48.3627 77.9634C50.1554 78.9789 51.3944 78.1298 51.3944 75.8846C51.3944 71.5376 50.7698 71.2565 47.5963 74.1653ZM64.2166 75.7014C63.4519 76.5278 62.2014 76.2141 61.6846 74.7569C61.1693 73.2998 61.9986 71.9034 63.2786 71.9034C65.9029 71.9034 66.2882 73.4674 64.2166 75.7014ZM69.0439 77.3283C69.0439 79.4172 69.6478 81.1263 70.3847 81.1263C71.1215 81.1263 71.3734 79.4172 70.943 77.3283C70.5125 75.2393 69.9099 73.5302 69.6023 73.5302C69.2946 73.5302 69.0439 75.2393 69.0439 77.3283ZM42.0093 6.62987C43.7349 6.62987 45.4542 6.13106 45.8302 5.5221C47.0342 3.5737 58.2157 4.38902 63.557 6.81472C70.9974 10.195 74.2182 14.8413 74.2182 22.1969C74.2182 27.3825 73.6687 28.7068 70.3606 31.4895C64.6002 36.3371 55.2696 38.5969 41.0218 38.5969C31.2722 38.5969 27.5121 38.0728 23.8432 36.1991C15.2292 31.8034 11.8071 25.467 15.2279 20.2459C17.5359 16.7226 37.3884 6.62987 42.0093 6.62987ZM44.2578 15.1299C40.661 16.7644 36.725 19.618 35.5121 21.4689C33.3877 24.7099 33.4029 24.9315 35.9198 27.4471C38.1176 29.6461 39.9748 30.031 47.6229 29.8728C61.0693 29.5968 67.9691 24.8682 65.3763 17.7076C63.1747 11.6281 54.3328 10.5482 44.2578 15.1299ZM51.4298 19.6091C51.4298 20.4029 52.2439 21.8677 53.2389 22.8615C55.928 25.5518 57.9903 25.0517 57.532 21.8221C57.113 18.8723 51.4298 16.8099 51.4298 19.6091ZM44.6781 23.4047C42.8209 23.4047 41.3016 22.8387 41.3016 22.1462C41.3016 21.455 42.4259 21.06 43.8008 21.2701C47.7659 21.8753 48.3939 23.4047 44.6781 23.4047ZM40.9851 25.5088C41.8561 25.8607 43.2804 25.8607 44.1502 25.5088C45.0212 25.1581 44.3084 24.8707 42.5677 24.8707C40.8269 24.8707 40.1154 25.1581 40.9851 25.5088ZM63.2342 21.6284C62.0505 24.7162 60.7135 23.5553 60.7135 19.4395C60.7135 15.9313 60.8996 15.7262 62.3151 17.6632C63.1962 18.8672 63.6089 20.6523 63.2342 21.6284Z" stroke="black" stroke-width="4" mask="url(#path-1-outside-1_1073_20)"/>
</svg>
