<svg width="117" height="132" viewBox="0 0 117 132" fill="none" xmlns="http://www.w3.org/2000/svg">
<path d="M97.1094 1.48145C101.448 1.08693 105.223 0.936156 108.094 1.02441C109.527 1.06847 110.759 1.1723 111.733 1.34277C112.65 1.50304 113.528 1.75079 114.078 2.20703L114.214 2.32812C114.87 2.95644 115.157 3.90256 115.32 5.17578C115.499 6.56622 115.557 8.62068 115.557 11.6797C115.557 16.3056 115.292 19.6445 114.503 22.3594C113.702 25.116 112.378 27.1768 110.367 29.2822C108.883 30.8367 106.487 32.4627 103.605 34.0361C100.706 35.6195 97.2465 37.1859 93.5781 38.6045C86.2545 41.4366 78.0087 43.7118 71.6221 44.3271C68.2341 44.6539 66.0322 44.8108 64.6338 44.7617C63.9425 44.7375 63.3461 44.6619 62.873 44.4746C62.411 44.2917 62.0317 43.985 61.8223 43.5303L61.7432 43.3262C61.6487 43.0307 61.6612 42.7138 61.7871 42.4219C61.9027 42.1539 62.0876 41.9652 62.248 41.8389C62.5559 41.5966 62.961 41.4361 63.3555 41.3164C64.173 41.0684 65.3765 40.8732 66.9121 40.7168C72.8322 40.1128 79.4618 38.5959 85.4932 36.5918C91.5376 34.5833 96.9058 32.1105 100.342 29.6318L101.177 29.0225C103.022 27.6586 104.158 26.6827 104.971 25.6953C105.875 24.5956 106.418 23.4314 107.038 21.5479C107.698 19.5413 108.053 15.8128 108.05 12.3574C108.048 10.6458 107.959 9.05044 107.788 7.82227C107.702 7.20601 107.6 6.70854 107.488 6.3457C107.375 5.9806 107.29 5.87767 107.301 5.88477L107.31 5.89258L106.968 5.56934C106.881 5.4889 106.796 5.42414 106.646 5.34277C106.362 5.19005 105.828 4.99577 104.749 4.89258C102.702 4.69693 98.9314 4.84738 91.7568 5.96191L90.2764 6.19824C79.2044 8.00715 59.652 9.70609 46.791 9.98047C40.4066 10.1178 33.8684 10.5359 28.4834 11.0986C25.7905 11.38 23.3943 11.6963 21.4551 12.0303C19.4936 12.3681 18.067 12.7135 17.2705 13.0322C15.5959 13.7019 14.2082 14.1946 13.0742 14.458C11.9664 14.7153 10.9329 14.7965 10.0664 14.4541C9.16857 14.0992 8.65232 13.3774 8.36328 12.5098C8.31051 12.8175 8.25861 13.137 8.19922 13.4668C6.92094 20.5659 7.2977 25.9936 9.4043 30.3389C11.5063 34.6743 15.4096 38.0942 21.5254 41.0146C24.0551 42.2226 25.4759 42.8336 26.7686 43.1338C28.0336 43.4276 29.2253 43.4347 31.3291 43.3096C33.947 43.1536 39.1799 43.0676 42.9727 43.1162C46.7504 43.1654 51.5578 43.2175 53.6562 43.2334H53.6572L57.4766 43.2637L58.6084 43.2725L58.46 44.3945L58.002 47.8477C57.8569 48.9394 57.8611 51.2637 57.9922 53.9053C58.2227 51.1987 58.6568 49.2275 59.1611 47.8301C59.516 46.847 59.918 46.1124 60.335 45.6025C60.5349 45.358 60.788 45.1089 61.084 44.9297C61.1142 44.8765 61.1577 44.8118 61.2178 44.7461C61.3269 44.6267 61.5579 44.4375 61.9111 44.4209C62.2603 44.4046 62.505 44.5671 62.6201 44.668C62.7333 44.7672 62.7972 44.8694 62.8252 44.917C62.9167 45.0724 62.9485 45.2288 62.9502 45.2363C62.9621 45.2876 62.9706 45.3389 62.9775 45.3818C62.9917 45.4701 63.0054 45.5786 63.0186 45.6992C63.0713 46.1827 63.1354 47.0432 63.1895 48.1943C63.2978 50.5043 63.3688 54.0402 63.2188 58.1836C62.6746 73.1896 62.3397 83.8081 62.1963 90.9658C62.1246 94.5452 62.1008 97.2521 62.1221 99.2061C62.1437 101.193 62.2127 102.323 62.3037 102.808L62.3838 103.212C62.4614 103.574 62.5338 103.817 62.6279 104.014C62.7353 104.238 62.8898 104.439 63.2178 104.677C63.5716 104.933 64.1081 105.218 64.9736 105.592C65.8321 105.963 66.9575 106.398 68.46 106.97C71.8608 108.263 76.5093 110.378 80.3467 112.286C82.2665 113.241 83.9991 114.151 85.2803 114.888C85.9183 115.255 86.4609 115.589 86.8643 115.87C87.0643 116.01 87.2498 116.149 87.4004 116.284C87.4942 116.368 87.6914 116.549 87.8174 116.802L87.8662 116.915L87.917 117.089C87.9528 117.258 87.9483 117.408 87.9414 117.502C87.9307 117.646 87.9025 117.788 87.8711 117.915C87.8079 118.17 87.7069 118.455 87.5869 118.744C87.3447 119.329 86.9868 120.026 86.5723 120.708C85.5311 122.42 83.3887 123.788 80.3066 124.983C77.1856 126.194 72.9148 127.295 67.375 128.356C61.9905 129.388 54.7294 130.205 48.2139 130.639C44.9536 130.855 41.8671 130.977 39.2842 130.98C36.7265 130.984 34.5869 130.871 33.2637 130.595C30.1606 129.947 27.0021 129.085 24.5723 128.269C23.3604 127.862 22.3075 127.459 21.5264 127.093C21.1387 126.911 20.7893 126.725 20.5137 126.538C20.3761 126.445 20.2346 126.336 20.1104 126.212C19.9966 126.098 19.8336 125.908 19.7451 125.643V125.642C19.6517 125.361 19.6644 125.091 19.6943 124.894C19.7255 124.688 19.7869 124.486 19.8574 124.303C19.9984 123.936 20.2149 123.536 20.4629 123.138C20.9626 122.335 21.6686 121.413 22.4199 120.547C23.172 119.68 23.9963 118.839 24.7422 118.205C25.1134 117.89 25.4861 117.608 25.8359 117.399C26.1465 117.214 26.5887 116.993 27.0586 116.993L27.0391 116.991C27.0595 116.987 27.1096 116.976 27.1982 116.951C27.3473 116.909 27.5489 116.843 27.8027 116.75C28.309 116.565 28.9765 116.291 29.7617 115.946C31.3299 115.258 33.3288 114.305 35.374 113.254C39.4942 111.136 44.418 108.821 46.3213 108.117C47.1842 107.798 48.1149 107.353 48.9111 106.896C49.7345 106.423 50.316 105.992 50.5586 105.725L50.7178 105.555C51.0966 105.165 51.5289 104.816 51.9463 104.55C52.1854 104.397 52.4355 104.262 52.6826 104.161C52.8592 104.089 53.0722 104.02 53.3008 103.99C53.3348 103.948 53.3824 103.885 53.4355 103.791C53.6096 103.484 53.7812 103.012 53.874 102.459C55.7933 91.0258 56.2052 76.6325 55.0215 62.333L54.9023 60.9492C54.6248 57.8649 54.2942 55.6152 53.8975 53.9561C53.4996 52.2925 53.05 51.2876 52.5732 50.6426C51.6575 49.4039 50.5497 49.2851 48.2305 48.6836C46.2323 48.1658 43.0554 47.9149 40.0078 47.9268C38.495 47.9327 37.0406 48.004 35.8115 48.1328C34.5589 48.2641 33.6165 48.4477 33.083 48.6504C32.1586 49.0019 30.806 49.0223 29.3574 48.8896C27.8595 48.7524 26.0893 48.4335 24.2266 47.9805C20.5056 47.0755 16.3181 45.6126 13.0635 43.9072C6.57429 40.5068 5.63 36.3464 2.78418 30.7217C1.78293 28.7429 1.26896 27.4351 1.08496 25.5322C0.909714 23.7196 1.03507 21.3532 1.2002 17.2891C1.39229 12.541 2.20849 8.26806 2.72168 6.625L2.81934 6.35449C3.35516 5.05471 4.5847 4.54743 5.5752 4.41699C6.11435 4.34602 6.64926 4.37248 7.10352 4.46094C7.50138 4.53845 8.02963 4.69977 8.38184 5.05176C8.75683 5.42675 8.88331 5.94986 8.93848 6.3623C8.9474 6.42904 8.95157 6.49829 8.95801 6.56934C9.61203 5.88018 10.5354 5.35338 11.5625 4.95215C13.6029 4.15516 16.4738 3.66018 19.8984 3.34961C26.7692 2.72655 36.2287 2.82089 46.5908 2.98047C64.8061 3.2607 83.7252 2.69813 97.1094 1.48145ZM58.2314 108.398C57.901 108.821 57.447 109.203 56.8809 109.574C55.8267 110.265 54.2177 111.03 51.8477 112.011C43.0351 115.658 33.5491 120.319 28.6934 124.17C28.8906 124.273 29.1672 124.398 29.5488 124.537C30.1629 124.761 30.9893 125.007 32.0752 125.28C36.0557 126.28 38.0425 126.343 49.2793 125.641C57.776 125.11 65.3405 124.104 71.1074 122.824C73.9926 122.184 76.4048 121.48 78.25 120.742C80.0297 120.031 81.1588 119.334 81.7197 118.728C81.7008 118.707 81.6802 118.683 81.6543 118.657C81.2131 118.223 80.2479 117.583 78.4121 116.517C76.3473 115.316 72.871 113.753 69.6309 112.485C68.0166 111.854 66.4796 111.303 65.2266 110.911C64.5994 110.715 64.0535 110.562 63.6104 110.459C63.2627 110.378 63.0136 110.337 62.8525 110.321C62.8096 110.399 62.7627 110.535 62.7627 110.718C62.7627 111.712 62.3538 112.642 61.751 113.228C61.4491 113.521 61.0382 113.784 60.5449 113.852C60.0088 113.925 59.4817 113.75 59.0781 113.347C58.8948 113.163 58.8077 112.948 58.7715 112.853C58.7238 112.727 58.6864 112.591 58.6562 112.461C58.5956 112.199 58.5427 111.871 58.4951 111.499C58.3992 110.749 58.3136 109.733 58.2393 108.526C58.2366 108.484 58.234 108.441 58.2314 108.398ZM10.9297 15.9072C11.2562 15.7743 11.628 15.7791 11.9639 15.9521C12.2469 16.0981 12.4272 16.324 12.5361 16.4883C12.7531 16.8157 12.9266 17.2738 13.0859 17.7764C13.2535 18.3046 13.4365 18.9864 13.6484 19.8281L13.751 20.2031C14.3067 22.0845 15.5 24.0439 17.3623 26.0156C18.1781 26.8793 18.8331 27.6767 19.3105 28.3652C19.6147 28.8038 19.8754 29.2408 20.0518 29.6484C20.0506 29.6037 20.0501 29.5588 20.0508 29.5137C20.0649 28.6092 20.4534 27.7572 20.9814 26.6943C21.4349 25.7809 21.9345 25.0345 22.5654 24.5156C23.2298 23.9693 23.978 23.7261 24.8115 23.7178L25.0879 23.6992C25.3811 23.6651 25.7202 23.5844 26.0566 23.4639C26.5129 23.3003 26.8655 23.0982 27.0488 22.9346L27.0498 22.9336C27.2817 22.7269 27.5678 22.5859 27.8359 22.4814C28.1169 22.3721 28.4497 22.2755 28.8262 22.1875C29.5793 22.0115 30.5899 21.8504 31.8799 21.6953C34.4642 21.3847 38.2755 21.0878 43.6221 20.7637L54.9492 20.085C63.9163 19.5653 67.5284 19.4412 81.3086 18.9805C85.5636 18.8382 89.7556 18.6514 93.0801 18.4648C96.4407 18.2763 98.8334 18.0921 99.5557 17.9639C100.44 17.8067 101.178 17.692 101.777 17.6533C102.354 17.616 102.946 17.6366 103.454 17.8652C104.046 18.1315 104.378 18.6071 104.541 19.1455C104.685 19.621 104.709 20.1818 104.709 20.7393C104.709 22.1136 104.13 23.4309 103.17 24.6475C102.211 25.8625 100.833 27.0274 99.123 28.127C95.7022 30.3264 90.8065 32.3569 84.8115 34.0244C81.6473 34.9047 77.1944 36.3112 74.9326 37.1426C73.2763 37.7518 70.4869 38.2604 67.1826 38.666C63.8493 39.0752 59.9037 39.3891 55.8809 39.584C47.8658 39.9723 39.4206 39.8932 34.875 39.1055C30.9443 38.4244 27.8978 37.5973 25.625 36.5225C23.3399 35.4418 21.7672 34.0764 20.9033 32.293C20.6504 31.7709 20.4306 31.2974 20.2773 30.8379C20.2544 31.0137 20.1999 31.2012 20.085 31.3818C19.7633 31.8874 19.2326 31.9876 18.877 31.9707C18.538 31.9546 18.1999 31.8374 17.8994 31.7012C17.5834 31.5579 17.2315 31.3578 16.8486 31.1064C15.8806 30.4709 14.902 29.4041 14.0146 28.208C13.1151 26.9953 12.2581 25.5789 11.5488 24.1748C10.8418 22.7749 10.2647 21.3536 9.94238 20.1289C9.78163 19.518 9.67561 18.9241 9.66016 18.3887C9.64536 17.875 9.70986 17.2919 10.0107 16.8047V16.8037C10.1076 16.6471 10.2192 16.4834 10.3457 16.3398C10.4633 16.2064 10.6552 16.0191 10.9297 15.9072Z" fill="#DE0004" stroke="#39FF14" stroke-width="2"/>
</svg>
