<svg width="80" height="131" viewBox="0 0 80 131" fill="none" xmlns="http://www.w3.org/2000/svg">
<mask id="path-1-outside-1_1073_19" maskUnits="userSpaceOnUse" x="-0.990234" y="0" width="81" height="131" fill="black">
<rect fill="white" x="-0.990234" width="81" height="131"/>
<path fill-rule="evenodd" clip-rule="evenodd" d="M35.5405 2.8269C27.0936 5.48555 14.7309 12.1195 10.272 16.386C3.89502 22.4869 3.05693 29.0905 1.68203 84.0561L1.00977 110.893L6.40807 116.447C16.435 126.764 35.1151 131.303 53.9953 128.011C70.0256 125.214 78.5194 119.616 78.5852 111.798C78.5966 110.33 78.5574 94.0298 78.4966 75.5775C78.4358 57.1253 78.5687 36.1309 78.7903 28.9247C79.1916 15.9328 79.1612 15.777 75.2518 10.6965C69.1964 2.82563 64.421 0.859503 51.7063 1.00763C45.7763 1.07599 38.5017 1.89511 35.5405 2.8269ZM5.43831 46.8768C5.75355 44.9069 6.35238 40.5885 6.77017 37.2829L7.52977 31.2719L12.2001 34.9965C16.2793 38.2502 18.5783 38.9174 30.3612 40.272C46.2536 42.0989 62.0636 40.4809 68.7622 36.3398C71.0233 34.9421 73.2034 33.7988 73.6047 33.7988C74.006 33.7988 74.3542 40.2087 74.3782 48.0416C74.4023 55.8757 74.7074 70.9705 75.0555 81.5873C75.781 103.662 74.2833 112.668 69.2749 116.343C64.0652 120.166 50.8454 122.799 40.9502 121.985C19.871 120.252 13.4839 118.975 10.3897 115.881C5.1813 110.673 3.26455 99.9851 4.25205 81.6544L5.118 65.5772L8.46282 67.7801C10.3011 68.9904 12.9458 70.5894 14.3384 71.3326C17.23 72.8758 18.0681 75.6864 16.9591 80.1086C15.9045 84.3055 14.0789 83.9573 13.0699 79.3655C12.3558 76.1131 9.32372 73.0455 6.82586 73.0455C5.08128 73.0455 6.29414 83.1103 8.32483 85.4892C12.3571 90.214 19.8672 89.2278 22.4131 83.6383L23.9096 80.3542L26.9758 83.6636C30.5663 87.5363 34.3808 87.8465 39.6589 84.6941C42.4175 83.047 44.7685 82.6482 48.2488 83.2407C51.4037 83.7775 53.3509 83.5383 53.9459 82.5406C55.0955 80.6175 64.0576 79.149 65.0312 80.7252C65.4325 81.3759 67.3708 81.9076 69.3369 81.9076C72.1551 81.9076 73.0426 81.2303 73.5236 78.7122C73.8604 76.955 73.6325 75.2066 73.0185 74.8268C72.4032 74.447 72.2576 73.5608 72.6919 72.8568C73.1274 72.1529 72.2817 70.7363 70.8131 69.707C69.3458 68.679 68.1443 66.9699 68.1443 65.9102C68.1443 64.4036 67.2455 64.1694 64.0298 64.8404C61.7674 65.3114 58.696 66.4685 57.2046 67.4117C54.5321 69.1006 54.4928 68.9993 54.3574 60.1143C54.2814 55.1579 53.9839 50.8673 53.6965 50.5787C53.4078 50.2913 51.7114 51.0117 49.925 52.1815C47.0005 54.0982 46.7448 54.9034 47.3461 60.3043C47.8323 64.667 47.5082 66.7205 46.1586 67.8409C44.6356 69.1044 44.1444 68.8575 43.4177 66.466C42.1605 62.3261 37.7434 57.8532 34.91 57.8532C31.788 57.8532 25.0996 64.548 25.0996 67.6725C25.0996 71.5858 23.6665 71.9086 21.0534 68.5866C19.7102 66.8787 16.8414 65.0227 14.679 64.4619C9.30473 63.0692 7.64878 60.1739 9.86305 56.0365C12.2546 51.5687 18.7695 51.3547 18.7695 55.7428C18.7695 59.494 19.5747 60.2688 22.641 59.4674C25.3693 58.7534 25.8542 54.9401 23.8779 49.7418C22.1814 45.2779 17.1376 44.2562 11.3557 47.2047C8.81858 48.4986 6.32073 49.7608 5.80419 50.009C5.28765 50.2571 5.12307 48.848 5.43831 46.8768ZM33.1958 70.7654C33.3338 73.5025 34.0478 74.9445 35.2658 74.9445C37.9712 74.9445 37.775 67.5079 35.0556 66.9838C33.4452 66.6736 33.0325 67.5142 33.1958 70.7654ZM27.8443 70.8072C26.905 71.7465 26.7404 71.2515 27.2911 69.1461C27.7393 67.4345 28.3128 66.8597 28.6293 67.808C28.9331 68.722 28.5812 70.0703 27.8443 70.8072ZM46.5865 73.1653C45.3408 74.309 45.6851 76.0187 47.3529 76.9634C49.1456 77.9789 50.3846 77.1298 50.3846 74.8846C50.3846 70.5376 49.76 70.2565 46.5865 73.1653ZM63.2069 74.7014C62.4421 75.5278 61.1916 75.2141 60.6748 73.7569C60.1595 72.2998 60.9888 70.9034 62.2689 70.9034C64.8931 70.9034 65.2785 72.4674 63.2069 74.7014ZM68.0342 76.3283C68.0342 78.4172 68.6381 80.1263 69.3749 80.1263C70.1117 80.1263 70.3637 78.4172 69.9332 76.3283C69.5028 74.2393 68.9001 72.5302 68.5925 72.5302C68.2848 72.5302 68.0342 74.2393 68.0342 76.3283ZM40.9996 5.62987C42.7252 5.62987 44.4444 5.13106 44.8204 4.5221C46.0244 2.5737 57.2059 3.38902 62.5472 5.81472C69.9876 9.19499 73.2084 13.8413 73.2084 21.1969C73.2084 26.3825 72.659 27.7068 69.3508 30.4895C63.5905 35.3371 54.2599 37.5969 40.0121 37.5969C30.2625 37.5969 26.5024 37.0728 22.8334 35.1991C14.2194 30.8034 10.7974 24.467 14.2182 19.2459C16.5261 15.7226 36.3786 5.62987 40.9996 5.62987ZM43.248 14.1299C39.6513 15.7644 35.7152 18.618 34.5024 20.4689C32.378 23.7099 32.3932 23.9315 34.91 26.4471C37.1078 28.6461 38.9651 29.031 46.6131 28.8728C60.0595 28.5968 66.9593 23.8682 64.3665 16.7076C62.1649 10.6281 53.323 9.5482 43.248 14.1299ZM50.42 18.6091C50.42 19.4029 51.2341 20.8677 52.2292 21.8615C54.9182 24.5518 56.9806 24.0517 56.5223 20.8221C56.1032 17.8723 50.42 15.8099 50.42 18.6091ZM43.6684 22.4047C41.8111 22.4047 40.2919 21.8387 40.2919 21.1462C40.2919 20.455 41.4161 20.06 42.791 20.2701C46.7562 20.8753 47.3841 22.4047 43.6684 22.4047ZM39.9754 24.5088C40.8464 24.8607 42.2707 24.8607 43.1404 24.5088C44.0114 24.1581 43.2987 23.8707 41.5579 23.8707C39.8171 23.8707 39.1056 24.1581 39.9754 24.5088ZM62.2244 20.6284C61.0407 23.7162 59.7038 22.5553 59.7038 18.4395C59.7038 14.9313 59.8899 14.7262 61.3053 16.6632C62.1864 17.8672 62.5992 19.6523 62.2244 20.6284Z"/>
</mask>
<path fill-rule="evenodd" clip-rule="evenodd" d="M35.5405 2.8269C27.0936 5.48555 14.7309 12.1195 10.272 16.386C3.89502 22.4869 3.05693 29.0905 1.68203 84.0561L1.00977 110.893L6.40807 116.447C16.435 126.764 35.1151 131.303 53.9953 128.011C70.0256 125.214 78.5194 119.616 78.5852 111.798C78.5966 110.33 78.5574 94.0298 78.4966 75.5775C78.4358 57.1253 78.5687 36.1309 78.7903 28.9247C79.1916 15.9328 79.1612 15.777 75.2518 10.6965C69.1964 2.82563 64.421 0.859503 51.7063 1.00763C45.7763 1.07599 38.5017 1.89511 35.5405 2.8269ZM5.43831 46.8768C5.75355 44.9069 6.35238 40.5885 6.77017 37.2829L7.52977 31.2719L12.2001 34.9965C16.2793 38.2502 18.5783 38.9174 30.3612 40.272C46.2536 42.0989 62.0636 40.4809 68.7622 36.3398C71.0233 34.9421 73.2034 33.7988 73.6047 33.7988C74.006 33.7988 74.3542 40.2087 74.3782 48.0416C74.4023 55.8757 74.7074 70.9705 75.0555 81.5873C75.781 103.662 74.2833 112.668 69.2749 116.343C64.0652 120.166 50.8454 122.799 40.9502 121.985C19.871 120.252 13.4839 118.975 10.3897 115.881C5.1813 110.673 3.26455 99.9851 4.25205 81.6544L5.118 65.5772L8.46282 67.7801C10.3011 68.9904 12.9458 70.5894 14.3384 71.3326C17.23 72.8758 18.0681 75.6864 16.9591 80.1086C15.9045 84.3055 14.0789 83.9573 13.0699 79.3655C12.3558 76.1131 9.32372 73.0455 6.82586 73.0455C5.08128 73.0455 6.29414 83.1103 8.32483 85.4892C12.3571 90.214 19.8672 89.2278 22.4131 83.6383L23.9096 80.3542L26.9758 83.6636C30.5663 87.5363 34.3808 87.8465 39.6589 84.6941C42.4175 83.047 44.7685 82.6482 48.2488 83.2407C51.4037 83.7775 53.3509 83.5383 53.9459 82.5406C55.0955 80.6175 64.0576 79.149 65.0312 80.7252C65.4325 81.3759 67.3708 81.9076 69.3369 81.9076C72.1551 81.9076 73.0426 81.2303 73.5236 78.7122C73.8604 76.955 73.6325 75.2066 73.0185 74.8268C72.4032 74.447 72.2576 73.5608 72.6919 72.8568C73.1274 72.1529 72.2817 70.7363 70.8131 69.707C69.3458 68.679 68.1443 66.9699 68.1443 65.9102C68.1443 64.4036 67.2455 64.1694 64.0298 64.8404C61.7674 65.3114 58.696 66.4685 57.2046 67.4117C54.5321 69.1006 54.4928 68.9993 54.3574 60.1143C54.2814 55.1579 53.9839 50.8673 53.6965 50.5787C53.4078 50.2913 51.7114 51.0117 49.925 52.1815C47.0005 54.0982 46.7448 54.9034 47.3461 60.3043C47.8323 64.667 47.5082 66.7205 46.1586 67.8409C44.6356 69.1044 44.1444 68.8575 43.4177 66.466C42.1605 62.3261 37.7434 57.8532 34.91 57.8532C31.788 57.8532 25.0996 64.548 25.0996 67.6725C25.0996 71.5858 23.6665 71.9086 21.0534 68.5866C19.7102 66.8787 16.8414 65.0227 14.679 64.4619C9.30473 63.0692 7.64878 60.1739 9.86305 56.0365C12.2546 51.5687 18.7695 51.3547 18.7695 55.7428C18.7695 59.494 19.5747 60.2688 22.641 59.4674C25.3693 58.7534 25.8542 54.9401 23.8779 49.7418C22.1814 45.2779 17.1376 44.2562 11.3557 47.2047C8.81858 48.4986 6.32073 49.7608 5.80419 50.009C5.28765 50.2571 5.12307 48.848 5.43831 46.8768ZM33.1958 70.7654C33.3338 73.5025 34.0478 74.9445 35.2658 74.9445C37.9712 74.9445 37.775 67.5079 35.0556 66.9838C33.4452 66.6736 33.0325 67.5142 33.1958 70.7654ZM27.8443 70.8072C26.905 71.7465 26.7404 71.2515 27.2911 69.1461C27.7393 67.4345 28.3128 66.8597 28.6293 67.808C28.9331 68.722 28.5812 70.0703 27.8443 70.8072ZM46.5865 73.1653C45.3408 74.309 45.6851 76.0187 47.3529 76.9634C49.1456 77.9789 50.3846 77.1298 50.3846 74.8846C50.3846 70.5376 49.76 70.2565 46.5865 73.1653ZM63.2069 74.7014C62.4421 75.5278 61.1916 75.2141 60.6748 73.7569C60.1595 72.2998 60.9888 70.9034 62.2689 70.9034C64.8931 70.9034 65.2785 72.4674 63.2069 74.7014ZM68.0342 76.3283C68.0342 78.4172 68.6381 80.1263 69.3749 80.1263C70.1117 80.1263 70.3637 78.4172 69.9332 76.3283C69.5028 74.2393 68.9001 72.5302 68.5925 72.5302C68.2848 72.5302 68.0342 74.2393 68.0342 76.3283ZM40.9996 5.62987C42.7252 5.62987 44.4444 5.13106 44.8204 4.5221C46.0244 2.5737 57.2059 3.38902 62.5472 5.81472C69.9876 9.19499 73.2084 13.8413 73.2084 21.1969C73.2084 26.3825 72.659 27.7068 69.3508 30.4895C63.5905 35.3371 54.2599 37.5969 40.0121 37.5969C30.2625 37.5969 26.5024 37.0728 22.8334 35.1991C14.2194 30.8034 10.7974 24.467 14.2182 19.2459C16.5261 15.7226 36.3786 5.62987 40.9996 5.62987ZM43.248 14.1299C39.6513 15.7644 35.7152 18.618 34.5024 20.4689C32.378 23.7099 32.3932 23.9315 34.91 26.4471C37.1078 28.6461 38.9651 29.031 46.6131 28.8728C60.0595 28.5968 66.9593 23.8682 64.3665 16.7076C62.1649 10.6281 53.323 9.5482 43.248 14.1299ZM50.42 18.6091C50.42 19.4029 51.2341 20.8677 52.2292 21.8615C54.9182 24.5518 56.9806 24.0517 56.5223 20.8221C56.1032 17.8723 50.42 15.8099 50.42 18.6091ZM43.6684 22.4047C41.8111 22.4047 40.2919 21.8387 40.2919 21.1462C40.2919 20.455 41.4161 20.06 42.791 20.2701C46.7562 20.8753 47.3841 22.4047 43.6684 22.4047ZM39.9754 24.5088C40.8464 24.8607 42.2707 24.8607 43.1404 24.5088C44.0114 24.1581 43.2987 23.8707 41.5579 23.8707C39.8171 23.8707 39.1056 24.1581 39.9754 24.5088ZM62.2244 20.6284C61.0407 23.7162 59.7038 22.5553 59.7038 18.4395C59.7038 14.9313 59.8899 14.7262 61.3053 16.6632C62.1864 17.8672 62.5992 19.6523 62.2244 20.6284Z" fill="#39FF14"/>
<path fill-rule="evenodd" clip-rule="evenodd" d="M35.5405 2.8269C27.0936 5.48555 14.7309 12.1195 10.272 16.386C3.89502 22.4869 3.05693 29.0905 1.68203 84.0561L1.00977 110.893L6.40807 116.447C16.435 126.764 35.1151 131.303 53.9953 128.011C70.0256 125.214 78.5194 119.616 78.5852 111.798C78.5966 110.33 78.5574 94.0298 78.4966 75.5775C78.4358 57.1253 78.5687 36.1309 78.7903 28.9247C79.1916 15.9328 79.1612 15.777 75.2518 10.6965C69.1964 2.82563 64.421 0.859503 51.7063 1.00763C45.7763 1.07599 38.5017 1.89511 35.5405 2.8269ZM5.43831 46.8768C5.75355 44.9069 6.35238 40.5885 6.77017 37.2829L7.52977 31.2719L12.2001 34.9965C16.2793 38.2502 18.5783 38.9174 30.3612 40.272C46.2536 42.0989 62.0636 40.4809 68.7622 36.3398C71.0233 34.9421 73.2034 33.7988 73.6047 33.7988C74.006 33.7988 74.3542 40.2087 74.3782 48.0416C74.4023 55.8757 74.7074 70.9705 75.0555 81.5873C75.781 103.662 74.2833 112.668 69.2749 116.343C64.0652 120.166 50.8454 122.799 40.9502 121.985C19.871 120.252 13.4839 118.975 10.3897 115.881C5.1813 110.673 3.26455 99.9851 4.25205 81.6544L5.118 65.5772L8.46282 67.7801C10.3011 68.9904 12.9458 70.5894 14.3384 71.3326C17.23 72.8758 18.0681 75.6864 16.9591 80.1086C15.9045 84.3055 14.0789 83.9573 13.0699 79.3655C12.3558 76.1131 9.32372 73.0455 6.82586 73.0455C5.08128 73.0455 6.29414 83.1103 8.32483 85.4892C12.3571 90.214 19.8672 89.2278 22.4131 83.6383L23.9096 80.3542L26.9758 83.6636C30.5663 87.5363 34.3808 87.8465 39.6589 84.6941C42.4175 83.047 44.7685 82.6482 48.2488 83.2407C51.4037 83.7775 53.3509 83.5383 53.9459 82.5406C55.0955 80.6175 64.0576 79.149 65.0312 80.7252C65.4325 81.3759 67.3708 81.9076 69.3369 81.9076C72.1551 81.9076 73.0426 81.2303 73.5236 78.7122C73.8604 76.955 73.6325 75.2066 73.0185 74.8268C72.4032 74.447 72.2576 73.5608 72.6919 72.8568C73.1274 72.1529 72.2817 70.7363 70.8131 69.707C69.3458 68.679 68.1443 66.9699 68.1443 65.9102C68.1443 64.4036 67.2455 64.1694 64.0298 64.8404C61.7674 65.3114 58.696 66.4685 57.2046 67.4117C54.5321 69.1006 54.4928 68.9993 54.3574 60.1143C54.2814 55.1579 53.9839 50.8673 53.6965 50.5787C53.4078 50.2913 51.7114 51.0117 49.925 52.1815C47.0005 54.0982 46.7448 54.9034 47.3461 60.3043C47.8323 64.667 47.5082 66.7205 46.1586 67.8409C44.6356 69.1044 44.1444 68.8575 43.4177 66.466C42.1605 62.3261 37.7434 57.8532 34.91 57.8532C31.788 57.8532 25.0996 64.548 25.0996 67.6725C25.0996 71.5858 23.6665 71.9086 21.0534 68.5866C19.7102 66.8787 16.8414 65.0227 14.679 64.4619C9.30473 63.0692 7.64878 60.1739 9.86305 56.0365C12.2546 51.5687 18.7695 51.3547 18.7695 55.7428C18.7695 59.494 19.5747 60.2688 22.641 59.4674C25.3693 58.7534 25.8542 54.9401 23.8779 49.7418C22.1814 45.2779 17.1376 44.2562 11.3557 47.2047C8.81858 48.4986 6.32073 49.7608 5.80419 50.009C5.28765 50.2571 5.12307 48.848 5.43831 46.8768ZM33.1958 70.7654C33.3338 73.5025 34.0478 74.9445 35.2658 74.9445C37.9712 74.9445 37.775 67.5079 35.0556 66.9838C33.4452 66.6736 33.0325 67.5142 33.1958 70.7654ZM27.8443 70.8072C26.905 71.7465 26.7404 71.2515 27.2911 69.1461C27.7393 67.4345 28.3128 66.8597 28.6293 67.808C28.9331 68.722 28.5812 70.0703 27.8443 70.8072ZM46.5865 73.1653C45.3408 74.309 45.6851 76.0187 47.3529 76.9634C49.1456 77.9789 50.3846 77.1298 50.3846 74.8846C50.3846 70.5376 49.76 70.2565 46.5865 73.1653ZM63.2069 74.7014C62.4421 75.5278 61.1916 75.2141 60.6748 73.7569C60.1595 72.2998 60.9888 70.9034 62.2689 70.9034C64.8931 70.9034 65.2785 72.4674 63.2069 74.7014ZM68.0342 76.3283C68.0342 78.4172 68.6381 80.1263 69.3749 80.1263C70.1117 80.1263 70.3637 78.4172 69.9332 76.3283C69.5028 74.2393 68.9001 72.5302 68.5925 72.5302C68.2848 72.5302 68.0342 74.2393 68.0342 76.3283ZM40.9996 5.62987C42.7252 5.62987 44.4444 5.13106 44.8204 4.5221C46.0244 2.5737 57.2059 3.38902 62.5472 5.81472C69.9876 9.19499 73.2084 13.8413 73.2084 21.1969C73.2084 26.3825 72.659 27.7068 69.3508 30.4895C63.5905 35.3371 54.2599 37.5969 40.0121 37.5969C30.2625 37.5969 26.5024 37.0728 22.8334 35.1991C14.2194 30.8034 10.7974 24.467 14.2182 19.2459C16.5261 15.7226 36.3786 5.62987 40.9996 5.62987ZM43.248 14.1299C39.6513 15.7644 35.7152 18.618 34.5024 20.4689C32.378 23.7099 32.3932 23.9315 34.91 26.4471C37.1078 28.6461 38.9651 29.031 46.6131 28.8728C60.0595 28.5968 66.9593 23.8682 64.3665 16.7076C62.1649 10.6281 53.323 9.5482 43.248 14.1299ZM50.42 18.6091C50.42 19.4029 51.2341 20.8677 52.2292 21.8615C54.9182 24.5518 56.9806 24.0517 56.5223 20.8221C56.1032 17.8723 50.42 15.8099 50.42 18.6091ZM43.6684 22.4047C41.8111 22.4047 40.2919 21.8387 40.2919 21.1462C40.2919 20.455 41.4161 20.06 42.791 20.2701C46.7562 20.8753 47.3841 22.4047 43.6684 22.4047ZM39.9754 24.5088C40.8464 24.8607 42.2707 24.8607 43.1404 24.5088C44.0114 24.1581 43.2987 23.8707 41.5579 23.8707C39.8171 23.8707 39.1056 24.1581 39.9754 24.5088ZM62.2244 20.6284C61.0407 23.7162 59.7038 22.5553 59.7038 18.4395C59.7038 14.9313 59.8899 14.7262 61.3053 16.6632C62.1864 17.8672 62.5992 19.6523 62.2244 20.6284Z" stroke="black" stroke-width="2" mask="url(#path-1-outside-1_1073_19)"/>
</svg>
