<svg width="93" height="310" viewBox="0 0 93 310" fill="none" xmlns="http://www.w3.org/2000/svg">
<path fill-rule="evenodd" clip-rule="evenodd" d="M29.0671 2.03595C16.4585 3.45913 5.70415 5.44547 5.16845 6.45186C3.42832 9.72316 -0.504494 211.874 0.0537748 269.428C0.323407 297.261 0.709428 303.493 2.3581 306.612C4.18257 310.06 6.13651 310.292 26.9789 309.529C39.4295 309.074 52.2899 307.602 55.5564 306.258C76.0365 297.835 76.805 297.316 82.0349 288.364L87.1568 279.596L86.9132 265.301C86.6697 251.014 86.6662 251 81.8033 245.291C79.1272 242.148 74.5173 237.697 71.5608 235.398C66.616 231.555 65.5993 231.429 58.8751 233.832C52.5631 236.087 51.0439 236.012 47.7656 233.293C36.8781 224.268 36.833 195.347 47.6943 187.77C49.4059 186.576 56.9936 185.757 64.5564 185.95C76.9416 186.265 78.6259 185.871 81.5063 181.994C86.1898 175.687 88.3909 166.916 88.3909 154.557C88.3909 132.827 83.351 126.42 66.8405 127.158C61.9408 127.376 54.5443 127.707 50.4037 127.894C43.5096 128.205 42.6354 127.754 40.0103 122.529C34.4169 111.393 37.0634 89.8851 45.106 81.1203C46.9341 79.1298 48.7027 76.863 49.0365 76.0843C49.8644 74.1569 63.4648 69.013 72.1856 67.3276C83.0564 65.2274 88.0547 62.4481 89.9742 57.4364C92.4591 50.9426 93.616 25.9109 91.8521 16.7659C90.5503 10.0098 89.739 8.9892 82.4934 4.98395C72.3685 -0.613229 59.0544 -1.34717 29.0671 2.03595ZM10.8343 10.3616C12.5661 9.60933 23.3372 7.90761 34.7698 6.57591C66.1944 2.91833 76.5817 4.15443 86.2576 12.7118L89.6381 15.7026L89.2271 33.777C88.9254 47.0147 88.2994 52.7318 86.8907 55.1431C85.1993 58.0362 79.4312 60.2747 54.9624 67.539C45.4754 70.3549 35.7746 86.5019 34.0357 102.372C32.8811 112.896 35.4266 124.692 39.8441 129.289C43.1747 132.755 45.6489 133.15 61.6213 132.749C77.6709 132.349 79.9064 132.709 82.0634 136.039C85.2812 141.008 86.3098 152.755 84.5661 164.608C82.4138 179.237 79.98 181.079 62.6891 181.172C50.0663 181.241 47.8321 181.784 44.1511 185.678C38.5423 191.61 36.5194 198.783 36.7082 212.061C36.8389 221.192 37.4471 224.114 40.2717 229.203C46.3746 240.19 49.5674 241.92 58.6268 239.149C66.2513 236.817 66.8382 236.935 72.6513 241.977C75.9878 244.872 78.7186 248.033 78.7186 249.001C78.7186 249.971 79.7056 251.205 80.9124 251.746C85.9131 253.984 84.7289 277.687 79.1759 286.5C72.2296 297.526 51.7352 304.314 23.7077 304.874C9.70468 305.154 5.82534 304.632 4.70286 302.314C3.67185 300.185 3.35706 282.981 3.53166 238.216C3.77516 175.809 4.9261 85.5606 5.59603 76.3892C5.79914 73.5937 6.35387 57.9 6.82661 41.5171L7.68541 11.7258L10.8343 10.3616Z" fill="#39FF14"/>
</svg>
