<svg width="101" height="308" viewBox="0 0 101 308" fill="none" xmlns="http://www.w3.org/2000/svg">
<path fill-rule="evenodd" clip-rule="evenodd" d="M58.1089 2.0509C46.8711 6.0622 36.3617 13.3267 32.2073 19.9545C24.7376 31.8714 18.0202 50.8753 13.5308 72.7988C11.1541 84.4017 8.45303 96.819 7.52853 100.393C5.46444 108.368 3.98506 120.588 1.64765 148.959C-2.57203 200.162 1.44087 244.804 12.2224 266.593C15.1979 272.608 31.8484 292.077 34.0159 292.077C34.6671 292.077 37.5405 294.443 40.4008 297.334C45.8824 302.875 59.2319 307.239 70.7003 307.239C81.5959 307.239 87.3544 299.076 91.3994 277.895C94.3346 262.532 97.0581 237.799 97.928 218.618C98.275 210.974 99.0949 200.366 99.7485 195.046C100.403 189.724 100.786 185.189 100.601 184.966C100.415 184.743 94.1254 183.363 86.6236 181.899C71.229 178.899 70.6598 179.311 69.2909 194.446C68.9047 198.706 68.0954 205.018 67.493 208.47C66.8893 211.925 66.3962 216.824 66.3962 219.359C66.3962 223.402 66.9583 223.868 71.0045 223.164C74.7607 222.512 75.9692 223.29 77.5402 227.379C80.1544 234.182 79.9643 238.802 76.7939 245.512C74.3424 250.702 73.3609 251.172 64.9797 251.167C52.5726 251.165 49.66 248.12 44.9852 230.266C40.2902 212.337 40.1215 196.415 44.2865 164.288C45.9086 151.779 47.6078 136.185 48.0653 129.633C48.5216 123.081 49.5614 115.284 50.3754 112.305C51.1894 109.327 52.2506 102.505 52.7331 97.1439C53.8453 84.7829 57.5956 71.1527 59.8843 71.1527C61.5503 71.1527 61.9234 73.65 62.1433 86.2752C62.2787 94.0444 66.4021 96.702 79.4486 97.4254L90.7186 98.0492L92.8848 87.4123C94.0898 81.4994 95.5454 65.6599 96.1622 51.7611C96.7718 38.0053 97.6036 21.7695 98.0111 15.6811L98.7515 4.60886L89.655 2.14403C79.2454 -0.678176 65.8615 -0.719327 58.1089 2.0509ZM31.5039 29.4174C37.6582 18.356 44.0833 12.9499 57.6669 7.39858C66.9523 3.60387 88.191 4.09986 92.4048 8.20863C94.8349 10.5803 94.9573 11.8192 94.2954 27.4118C92.9336 59.487 91.2913 82.0148 89.9152 87.5206C88.5308 93.0589 88.5 93.0697 77.7588 91.5861C71.8363 90.7695 66.6612 89.758 66.2596 89.3422C65.8579 88.9263 65.2304 84.5295 64.8656 79.5717C63.6512 63.0781 58.1755 60.1368 54.2089 73.8471C51.4497 83.3859 47.4224 107.917 45.5829 126.384C44.7523 134.723 42.6443 154.168 40.8963 169.599C37.1757 202.451 37.4823 212.924 42.7441 232.922C47.5877 251.326 51.5566 255.612 63.839 255.712C76.7595 255.813 81.8644 250.26 81.8181 236.151C81.7824 225.35 78.4064 217.715 73.6687 217.715C71.0722 217.715 69.9659 216.686 69.9754 214.284C69.9968 208.988 73.2872 187.662 74.3567 185.888C75.6448 183.751 93.9365 187.914 95.8342 190.775C96.6649 192.029 97.076 194.624 96.7456 196.541C96.4153 198.457 95.9221 206.361 95.65 214.104C94.59 244.189 92.3263 261.874 86.8149 283.139C81.7706 302.604 76.7357 305.56 57.2355 300.509C49.8645 298.599 45.0708 295.467 33.7177 285.14C13.2811 266.55 9.06387 258.098 5.1983 227.97C0.345244 190.164 3.06884 139.616 12.5373 91.7355C19.1086 58.5102 23.6872 43.4635 31.5039 29.4174Z" fill="#39FF14"/>
</svg>
