<svg width="111" height="309" viewBox="0 0 111 309" fill="none" xmlns="http://www.w3.org/2000/svg">
<path fill-rule="evenodd" clip-rule="evenodd" d="M15.4541 2.39635C12.1525 3.68116 8.8772 5.29814 8.1761 5.99114C5.98696 8.15793 5.82836 20.6585 6.4138 145.147C6.51634 166.849 6.01559 192.622 5.30257 202.419C4.58835 212.217 4.00649 233.444 4.01007 249.592C4.01364 275.857 3.7656 279.489 1.65515 284.059C-1.37221 290.615 -0.480319 294.154 6.28026 302.42C11.0651 308.27 12.4793 309.005 18.9477 308.997C31.3278 308.986 36.2081 301.208 40.5792 274.527C42.1984 264.647 42.4071 258.67 41.6428 244.096C41.1205 234.121 40.7056 219.668 40.7235 211.976C40.7521 198.605 40.9333 197.706 44.874 191.398C50.3946 182.557 55.8197 181.177 61.4023 187.191C68.0269 194.327 69.6342 204.724 69.6962 240.864C69.7248 257.462 70.3699 274.995 71.1306 279.826C73.3102 293.69 84.4073 309.005 92.2732 309.005C95.285 309.005 101.517 300.584 103.851 293.36C106.346 285.632 107.854 269.384 107.978 248.879C108.034 239.423 108.619 225.674 109.277 218.324C109.935 210.974 110.419 177.47 110.353 143.87C110.254 93.1631 109.82 78.2361 107.805 56.0527C104.755 22.4836 103.634 15.5747 99.9829 7.84867C97.1201 1.79118 96.8339 1.6442 87.8711 1.65183C80.8732 1.65756 77.7851 2.54336 74.8781 5.38215L71.0638 9.10485L71.3011 62.1694C71.5324 114.033 71.4728 115.507 68.672 127.324C66.6152 136.005 64.996 139.907 62.9309 141.165C55.4406 145.724 45.5429 140.354 43.5517 130.648C42.8435 127.196 42.3904 102.218 42.4524 70.0042C42.5471 20.2951 42.6091 12.1361 38.4369 6.72043C37.5658 5.58967 36.5101 4.57851 35.2315 3.3337C31.0142 -0.772715 24.4051 -1.08579 15.4541 2.39635ZM9.68681 19.4463C10.2472 12.9554 11.0723 10.9089 14.1283 8.40996C19.8479 3.73464 33.133 5.16644 36.6671 10.8402C39.3237 15.1032 39.3439 15.5862 39.3439 72.8946C39.3439 124.8 39.5562 131.173 41.4413 135.789C44.1717 142.474 49.3751 146.669 56.6556 148.049C62.1368 149.087 62.7699 148.744 66.5675 142.663C73.4414 131.658 74.741 117.412 74.0101 61.0468C73.6751 35.1999 73.8241 12.9631 74.3416 11.6324C75.5554 8.50538 82.229 5.46232 87.8675 5.46232C98.0764 5.46232 100.787 12.0658 103.752 44.1745C104.744 54.9073 105.841 64.9394 106.19 66.4686C107.597 72.6292 108.06 187.068 106.761 207.864C106.027 219.628 105.413 234.097 105.397 240.015C105.382 245.935 104.851 258.435 104.218 267.796C102.555 292.381 98.0525 303.278 89.5583 303.278C85.7643 303.278 78.8021 294.269 75.5423 285.141C73.0229 278.085 72.8011 275.04 72.6151 245.051C72.5006 226.516 71.79 208.92 70.9589 204.023C67.184 181.801 56.3587 173.107 46.0568 184.024C38.5045 192.024 38.1063 194.626 38.5129 233.266C38.8312 263.561 38.5856 269.042 36.4191 280.174C32.6287 299.633 28.7392 305.187 18.9 305.187C13.9947 305.187 11.9451 304.171 9.08944 300.324C7.10419 297.65 5.73538 294.398 6.04658 293.1C6.35778 291.802 6.79655 272.299 7.0219 249.759C7.24726 227.22 8.09143 200.188 8.89626 189.688C9.94791 175.992 10.1149 155.764 9.48768 118.098C8.54334 61.3905 8.60297 32.0118 9.68681 19.4463Z" fill="#39FF14"/>
</svg>
