<svg width="116" height="321" viewBox="0 0 116 321" fill="none" xmlns="http://www.w3.org/2000/svg">
<path fill-rule="evenodd" clip-rule="evenodd" d="M1.37388 4.46046C-0.80543 8.99711 -0.338311 29.4303 2.41437 49.9189L3.99982 61.7162L19.499 62.2465C40.4204 62.9617 41.3241 63.4431 42.6027 74.5583C46.5683 109.042 54.8915 240.443 53.2392 242.494C52.7676 243.079 47.2224 241.918 40.917 239.914C34.6117 237.91 27.6064 236.848 25.3509 237.556C23.0954 238.263 20.9206 238.893 20.5168 238.959C18.6681 239.259 19.2681 307.101 21.1622 311.862C22.1773 314.413 42.8476 316.05 67.3626 315.52C78.959 315.269 89.0753 316.256 94.6507 318.18C99.5247 319.863 106.148 321.108 109.37 320.946L115.228 320.651L114.621 308.264C114.287 301.453 113.628 285.694 113.156 273.247L112.297 250.615L105.248 244.837C99.9027 240.457 95.8473 238.889 88.4598 238.345C84.7448 238.072 82.3493 238.12 80.5855 237.045C76.9287 234.815 75.9872 227.757 71.6323 202.995C68.8728 187.312 65.973 162.933 62.948 129.991C60.45 102.789 57.8933 79.2432 57.2665 77.6681C54.349 70.3346 66.4249 68.2603 83.8869 73.0971C89.8134 74.7379 94.9014 75.5895 95.1937 74.9896C95.4873 74.3896 95.7454 62.8277 95.7677 49.2997C95.819 18.7602 96.0644 13.2405 93.7316 11.5322C92.998 10.995 92.0093 10.8347 90.6795 10.3917C83.5655 8.02468 67.6891 5.79221 48.7258 4.49043C39.5297 3.86079 28.2151 2.5237 23.5823 1.5196C10.9223 -1.2225 3.64284 -0.257781 1.37388 4.46046ZM5.9959 54.321C5.49076 52.4202 4.26557 40.946 3.27417 28.8208L1.4703 6.77704L11.4429 6.28136C16.929 6.00728 26.0058 6.51336 31.6148 7.40352C37.2237 8.29369 46.6397 9.15196 52.5392 9.3127C66.2177 9.68425 85.8357 12.8793 89.9152 15.3992C93.0636 17.3461 93.0652 17.3525 93.1934 36.3969C93.3872 65.2528 92.8736 70.3232 89.8228 69.7015C88.4159 69.4161 82.5661 68.186 76.8229 66.9701C67.2638 64.9464 54.5599 66.4866 52.9105 69.8693C52.5773 70.5555 53.3308 74.7199 54.588 79.1224C56.1546 84.6128 57.9825 100.635 60.4096 130.138C64.0117 173.95 70.9678 221.851 75.7803 235.997C77.7304 241.727 78.3103 242.041 88.0231 242.649C95.6679 243.126 99.6848 244.545 104.083 248.323L109.95 253.362L111.043 278.987C111.643 293.08 112.247 307.278 112.386 310.536C112.624 316.158 112.347 316.477 106.99 316.747C103.884 316.903 99.4236 316.061 97.0762 314.872C94.7302 313.686 82.0808 312.36 68.9668 311.924C55.8528 311.489 40.1134 310.82 33.9897 310.437L22.8563 309.743L22.3706 284.616C22.1043 270.794 22.0541 255.591 22.2606 250.83C22.6057 242.864 22.9624 242.099 26.7397 241.241C31.7913 240.093 49.1951 245.57 52.9873 249.499C54.5168 251.085 56.1071 252.365 56.5215 252.344C56.9358 252.323 55.263 220.095 52.8047 180.729C45.8927 70.0411 45.51 62.6132 42.0695 60.4454C41.7381 60.2366 41.3783 60.0766 40.9816 59.8778C39.5372 59.1537 31.2813 58.3838 22.6357 58.1692C9.63433 57.8434 6.75501 57.1764 5.9959 54.321Z" fill="#39FF14"/>
</svg>
