<svg width="1440" height="480" viewBox="0 0 1440 480" fill="none" xmlns="http://www.w3.org/2000/svg">
<path d="M324.516 184.457C324.516 184.307 324.516 182.446 324.266 179.482C324.001 176.356 319.706 175.898 316.162 175.3C314.709 175.054 312.455 175.217 311.087 175.467C309.718 175.718 309.284 176.234 309.053 177.642C307.963 184.29 309.861 187.533 311.539 190.138C313.339 192.934 317.045 194.12 320.913 194.496C324.543 194.849 328.276 193.579 330.734 191.809C333.658 189.703 333.735 179.148 332.668 173.258C332.165 170.478 328.571 169.091 324.984 166.969C318.687 163.242 312.423 163.527 307.092 164.587C305.299 164.944 304.009 165.767 302.74 166.751C300.23 168.698 299.614 172.56 298.412 176.087C296.755 180.942 298.241 188.454 301.209 195.377C302.724 198.911 307.472 200.618 312.622 203.231C316 204.945 321.271 204.58 325.591 204.966C330.712 205.422 334.484 201.22 336.618 199.407C338.981 197.398 340.489 193.764 342.001 190.638C343.405 187.736 342.353 182.149 342.211 171.167C342.138 165.512 339.638 163.27 337.272 161.247C334.958 159.27 331.961 157.144 327.419 154.978C324.328 153.503 321.203 154.102 312.92 154.22C310.446 154.856 308.753 155.832 306.839 156.659C305.941 156.95 305.193 156.978 304.423 157.006" stroke="#39FF14" stroke-width="2" stroke-linecap="round"/>
<path d="M540.082 308.84C540.226 308.855 541.376 309.276 543.464 310.915C549.751 315.854 550.115 325.714 551.556 329.929C554.465 338.44 527.101 316.395 519.145 312.648C516.512 311.408 516.268 312.646 517.15 314.772C519.474 320.376 524.94 328.091 531.48 340.226C535.435 347.565 538.778 358.252 540.106 363.458C541.434 368.664 540.16 368.309 536.484 365.607C514.989 349.805 503.182 341.827 500.906 341.199C499.586 340.834 504.736 349.065 513.904 362.676C533.553 391.846 532.487 396.862 532.378 398.134C529.282 397.516 524.398 394.026 513.784 389.04C509.427 387.274 503.027 384.811 496.123 382.218" stroke="#39FF14" stroke-width="2" stroke-linecap="round"/>
<path d="M105.941 389.052C106.085 389.068 107.235 389.488 109.323 391.128C115.611 396.067 115.974 405.927 117.415 410.142C120.324 418.653 92.9601 396.608 85.0044 392.861C82.3718 391.621 82.1271 392.859 83.0089 394.985C85.3332 400.589 90.7998 408.304 97.3393 420.439C101.294 427.778 104.637 438.464 105.965 443.671C107.294 448.877 106.02 448.522 102.344 445.82C80.8485 430.018 69.0414 422.04 66.7651 421.412C65.445 421.047 70.5956 429.278 79.7637 442.889C99.4124 472.059 98.3461 477.075 98.2377 478.347C95.1414 477.729 90.2577 474.238 79.6437 469.253C75.2859 467.487 68.8865 465.024 61.9825 462.431" stroke="#39FF14" stroke-width="2" stroke-linecap="round"/>
<path d="M141.911 296.306C141.8 296.46 140.455 297.415 136.669 298.33C125.265 301.086 109.895 292.323 102.543 290.08C87.7003 285.553 138.179 274.071 148.764 268.251C152.267 266.326 150.513 264.885 146.711 263.936C136.69 261.433 121.518 260.641 98.904 256.986C85.2274 254.775 66.7791 248.728 57.9735 245.431C49.1679 242.133 50.4864 240.973 56.8691 239.189C94.1929 228.757 113.616 222.373 115.963 220.294C117.325 219.089 101.552 217.446 75.0753 215.492C18.3306 211.303 11.2709 205.38 9.38125 204.067C12.2107 201.02 20.5371 198.557 34.6384 190.78C39.9959 187.325 47.6644 182.131 55.8379 176.466" stroke="#39FF14" stroke-width="2" stroke-linecap="round"/>
<path d="M512.83 128.399C512.83 128.475 512.83 128.551 512.804 132.944C512.777 137.336 512.725 146.043 512.545 151.72C512.365 157.397 512.06 159.781 511.723 163.368M513.694 127.006C514.373 126.932 517.59 127.55 520.365 129.138C526.536 132.668 534.446 138.035 539.454 140.475C540.874 141.167 542.228 141.75 543 142.399C543.772 143.047 543.932 143.719 543.448 144.415C540.352 148.878 534.305 149.562 526.508 153.948C522.613 156.554 519.179 159.173 517.14 161.1C516.585 161.627 515.976 162.232 513.778 164" stroke="#DE0004" stroke-width="2" stroke-linecap="round"/>
<path d="M836.723 85C836.994 85 843.37 85 853.051 84.2308C860.919 83.6056 863.065 71.2116 867.932 66.145C874.224 59.5944 893.674 74.9276 901.595 77.7702C903.573 78.4801 904.387 74.1212 906.193 72.3812C910.907 67.8403 920.08 71.1012 924.831 71.4327C937.269 72.3007 935.268 43.9871 937.963 43.1949C946.054 40.8173 954.359 48.3312 956.769 48.2653C957.963 47.9354 959.098 47.0034 960.116 45.9675C961.135 44.9316 962.002 43.8199 963.723 42" stroke="#DE0004" stroke-width="2" stroke-linecap="round"/>
<path d="M1098.36 161.188C1098.36 159.161 1098.19 154.221 1095.9 145.259C1093.94 137.559 1089.76 123.621 1087.97 116.825C1086.19 110.029 1086.78 110.84 1093.42 116.589C1100.07 122.338 1112.76 133 1120.48 139.814C1130.83 148.956 1134.15 153.66 1135.59 156.28C1136.06 157.148 1135.21 157.422 1134.04 157.224C1132.87 157.026 1131.21 156.435 1121.2 155.027C1111.19 153.62 1092.89 151.415 1083.5 149.936C1074.11 148.458 1074.17 147.774 1075.15 147.022C1076.13 146.27 1078.03 145.47 1086.59 140.064C1095.15 134.658 1110.33 124.669 1118.04 119.922C1125.76 115.175 1125.56 115.973 1125.11 116.864C1122.62 121.724 1119.25 126.503 1114.82 133.495C1107.92 144.67 1103.11 152.64 1101.77 155.159C1100.77 157.006 1099.12 160.006 1097.05 164" stroke="#DE0004" stroke-width="2" stroke-linecap="round"/>
<path d="M941.452 174.902C941.265 175.818 937.521 184.484 929.143 200.308C927.693 203.047 927.555 203.716 927.849 204.18C929.456 206.709 939.149 206.583 950.194 210.44C956.508 212.644 957.999 214.741 959.262 214.975C961.93 215.469 962.351 208.473 964.043 204.401C965.568 200.73 967.543 196.892 969.691 192.089C970.741 189.742 971.035 187.815 970.362 186.484C967.668 181.156 959.204 180.47 955.691 179.415C952.813 178.55 948.834 177.1 945.783 175.44C945.168 175.107 944.528 174.859 943.882 174.632C943.237 174.404 942.606 174.205 941.957 174" stroke="#39FF14" stroke-width="2" stroke-linecap="round"/>
<path d="M1177.52 310.457C1177.52 310.307 1177.52 308.446 1177.27 305.482C1177 302.356 1172.71 301.898 1169.16 301.3C1167.71 301.054 1165.45 301.217 1164.09 301.467C1162.72 301.718 1162.28 302.234 1162.05 303.642C1160.96 310.29 1162.86 313.533 1164.54 316.138C1166.34 318.934 1170.05 320.12 1173.91 320.496C1177.54 320.849 1181.28 319.579 1183.73 317.809C1186.66 315.703 1186.73 305.148 1185.67 299.258C1185.17 296.478 1181.57 295.091 1177.98 292.969C1171.69 289.242 1165.42 289.527 1160.09 290.587C1158.3 290.944 1157.01 291.767 1155.74 292.751C1153.23 294.698 1152.61 298.56 1151.41 302.087C1149.76 306.942 1151.24 314.454 1154.21 321.377C1155.72 324.911 1160.47 326.618 1165.62 329.231C1169 330.945 1174.27 330.58 1178.59 330.966C1183.71 331.422 1187.48 327.22 1189.62 325.407C1191.98 323.398 1193.49 319.764 1195 316.638C1196.4 313.736 1195.35 308.149 1195.21 297.167C1195.14 291.512 1192.64 289.27 1190.27 287.247C1187.96 285.27 1184.96 283.144 1180.42 280.978C1177.33 279.503 1174.2 280.102 1165.92 280.22C1163.45 280.856 1161.75 281.832 1159.84 282.659C1158.94 282.95 1158.19 282.978 1157.42 283.006" stroke="#39FF14" stroke-width="2" stroke-linecap="round"/>
<path d="M23.7311 45.5208C25.4422 44.0035 33.2166 38.7174 40.4169 36.316C41.9965 35.7891 43.5569 35.9855 44.4953 36.4347C45.4336 36.8839 45.7659 37.8348 45.6674 38.8344C45.2486 43.085 38.7232 51.487 34.7192 59.7496C28.782 72.0013 26.4309 76.3707 24.194 86.562C23.5493 89.4994 23.6238 92.3622 24.0698 93.8943C24.5158 95.4263 25.5561 95.5819 26.6877 95.1947C42.4317 89.8072 57.3766 64.9333 59.1632 64.4106C60.012 64.1622 60.8854 64.9894 61.2173 65.8369C62.8642 70.0416 60.0419 78.5343 56.5022 96.9703C55.5322 102.022 54.9789 105.372 55.2309 108.898C55.3369 110.381 56.0619 111.158 56.9228 111.607C57.7837 112.056 58.928 112.132 60.0265 111.776C62.1429 110.629 64.0967 108.753 65.7427 106.719C66.4835 105.746 67.0328 104.895 67.7227 102.871" stroke="#DE0004" stroke-width="2" stroke-linecap="round"/>
<path d="M904.979 341.975C903.717 341.975 900 342.522 897.032 344.573C895.434 345.677 894.766 346.956 893.947 349.43C892.616 353.451 892.702 357.532 892.739 359.566C892.805 363.196 897.378 367.352 900.808 370.014C902.544 371.361 904.735 371.812 909.291 371.996C911.643 372.092 914.631 370.261 917.67 368.028C920.74 365.772 920.943 363.888 921.585 362.283C923.193 358.262 923.835 352.214 923.707 350.363C923.618 349.083 922.482 347.927 921.374 346.701C918.897 343.959 917.161 342.943 915.818 342.302C914.603 341.721 913.131 341.319 911.075 341.117C909.625 340.975 906.363 340.885 904.062 341.318C902.852 341.586 901.95 341.74 901.358 341.937C901.071 342.052 900.809 342.196 899.834 342.605" stroke="#39FF14" stroke-width="2" stroke-linecap="round"/>
<path d="M470.838 422.188C469.576 422.188 465.859 422.735 462.892 424.785C461.294 425.89 460.625 427.168 459.806 429.643C458.475 433.664 458.561 437.745 458.598 439.779C458.664 443.408 463.237 447.565 466.668 450.227C468.403 451.573 470.594 452.025 475.15 452.209C477.502 452.305 480.49 450.474 483.53 448.241C486.599 445.985 486.803 444.101 487.445 442.496C489.052 438.475 489.694 432.427 489.566 430.576C489.478 429.295 488.341 428.14 487.233 426.913C484.757 424.171 483.02 423.156 481.677 422.514C480.462 421.934 478.99 421.531 476.934 421.33C475.484 421.188 472.223 421.098 469.922 421.531C468.711 421.799 467.81 421.953 467.218 422.15C466.93 422.265 466.669 422.409 465.694 422.818" stroke="#39FF14" stroke-width="2" stroke-linecap="round"/>
<path d="M1053.98 406.188C1052.72 406.188 1049 406.735 1046.03 408.785C1044.43 409.89 1043.77 411.168 1042.95 413.643C1041.62 417.664 1041.7 421.745 1041.74 423.779C1041.8 427.408 1046.38 431.565 1049.81 434.227C1051.54 435.573 1053.73 436.025 1058.29 436.209C1060.64 436.305 1063.63 434.474 1066.67 432.241C1069.74 429.985 1069.94 428.101 1070.59 426.496C1072.19 422.475 1072.83 416.427 1072.71 414.576C1072.62 413.295 1071.48 412.14 1070.37 410.913C1067.9 408.171 1066.16 407.156 1064.82 406.514C1063.6 405.934 1062.13 405.531 1060.07 405.33C1058.62 405.188 1055.36 405.098 1053.06 405.531C1051.85 405.799 1050.95 405.953 1050.36 406.15C1050.07 406.265 1049.81 406.409 1048.83 406.818" stroke="#39FF14" stroke-width="2" stroke-linecap="round"/>
<path d="M386.746 29.2903C386.622 25.9673 386.903 16.4937 389.796 7.08067C390.955 3.30842 392.801 1.60132 394.315 1.11789C395.915 0.606979 397.899 1.86359 399.852 2.83749C401.79 3.80421 403.014 5.64517 403.826 7.472C404.565 9.13535 404.47 12.4794 403.778 20.8905C402.483 36.6418 400.235 47.8427 400.595 50.122C400.865 51.8283 403.337 52.0939 405.122 52.3474C406.941 52.6057 408.816 51.3976 410.519 49.917C413.807 47.0581 415.621 38.2225 418.012 32.8207C419.34 29.8216 428.088 30.6955 432.972 32.2951C435.97 33.2771 433.731 47.7492 435.121 55.891C435.443 57.7787 437.884 58.3964 440.308 58.8929C444.125 59.6746 447.937 58.6415 450.367 57.846C454.194 56.5932 458.476 51.7788 463.26 50.3093C470.303 52.6075 477.787 56.9981 481.817 59.3738C482.67 59.7349 483.581 60.0078 486.723 59.9998" stroke="#39FF14" stroke-width="2" stroke-linecap="round"/>
<path d="M678.774 74.013C679.731 73.9391 686.886 71.4499 698.406 67.1124C718.461 59.5616 722.851 59.9474 723.783 60.0299C727.114 60.3249 724.514 68.8952 726.189 73.0659C729.249 80.6838 733 87.3827 735.434 93.5024C735.786 94.3858 735.798 95.0418 735.569 95.4397C734.015 98.1381 725.1 97.5115 708.219 102.351C693.695 106.514 691.196 106.679 689.28 108.249C688.775 108.663 688.22 109.032 687.687 108.998C687.153 108.964 686.673 108.534 686.408 107.971C685.292 105.607 685.302 102.157 681.886 94.3665C679.971 89.997 677.544 82.3503 676.214 78.1383C676.017 77.5161 675.676 76.9267 675.728 76.3836C676.194 75.3765 677.206 74.7112 678.381 74.3388C678.97 74.1537 679.545 73.9765 680.289 73.7044" stroke="#39FF14" stroke-width="2" stroke-linecap="round"/>
<path d="M743.844 288.953C743.81 291.518 741.953 304.981 739.609 314.62C736.755 326.355 735.958 329.497 735.726 331.535C735.62 332.466 737.918 331.786 742.91 331.336C754.663 330.277 765.932 329.827 772.16 328.925C774.957 328.52 777.055 328.522 778.023 328.182C778.992 327.841 778.778 327.234 778.427 326.742C776.636 324.228 772.325 320.93 768.183 315.97C764.231 311.237 759.378 304.481 755.933 299.589C753.542 296.196 751.68 293.686 749.866 291.981C749.066 291.04 748.249 290.081 747.39 289.168C746.985 288.691 746.641 288.187 745.905 287" stroke="#DE0004" stroke-width="2" stroke-linecap="round"/>
<path d="M309.704 369.166C309.669 371.731 307.812 385.194 305.468 394.833C302.615 406.568 301.817 409.71 301.586 411.748C301.48 412.679 303.777 411.999 308.769 411.549C320.523 410.49 331.791 410.04 338.019 409.138C340.816 408.733 342.914 408.735 343.883 408.395C344.851 408.054 344.637 407.447 344.287 406.955C342.495 404.441 338.184 401.143 334.042 396.182C330.091 391.45 325.237 384.694 321.792 379.802C319.401 376.408 317.54 373.899 315.726 372.193C314.925 371.253 314.109 370.294 313.25 369.381C312.844 368.904 312.5 368.4 311.764 367.213" stroke="#DE0004" stroke-width="2" stroke-linecap="round"/>
<path d="M1272.84 237.166C1272.81 239.731 1270.95 253.194 1268.61 262.833C1265.76 274.568 1264.96 277.71 1264.73 279.748C1264.62 280.679 1266.92 279.999 1271.91 279.549C1283.66 278.49 1294.93 278.04 1301.16 277.138C1303.96 276.733 1306.05 276.735 1307.02 276.395C1307.99 276.054 1307.78 275.447 1307.43 274.955C1305.64 272.441 1301.32 269.143 1297.18 264.182C1293.23 259.45 1288.38 252.694 1284.93 247.802C1282.54 244.408 1280.68 241.899 1278.87 240.193C1278.07 239.253 1277.25 238.294 1276.39 237.381C1275.98 236.904 1275.64 236.4 1274.9 235.213" stroke="#DE0004" stroke-width="2" stroke-linecap="round"/>
<path d="M1416.13 128.022C1416.13 127.985 1411.29 127.947 1403.69 128.337C1400.18 128.516 1396.58 135.72 1391.07 145.136C1387.17 151.801 1386.29 156.702 1385.86 160.389C1384.81 169.216 1390.21 177.076 1392.84 180.635C1395.47 184.187 1398.98 184.805 1408.81 186.546C1417.52 188.087 1422.58 185.443 1428.49 182.562C1429.98 181.835 1430.79 180.673 1432.74 177.551C1436.91 170.867 1439.32 165.802 1439.61 163.31C1440.29 157.502 1437.86 151.232 1434.19 146.986C1429.18 141.19 1426.34 141.368 1423.6 140.37C1418.56 138.538 1413.97 139.194 1410.49 138.638C1407.93 138.229 1402.16 142.588 1398.83 145.398C1396.79 147.114 1395.14 153.64 1394.07 157.529C1393.2 160.672 1394.74 163.508 1396.14 166.62C1397.66 170.015 1400.43 173.695 1403.08 175.558C1406.64 178.057 1409.74 179.155 1414.66 179.205C1417.31 179.232 1418.82 177.326 1420.38 175.813C1421.93 174.321 1422.94 172.561 1424.13 170.769C1425.43 168.819 1426.88 165.041 1428.06 160.961C1429.43 156.182 1428.01 152.041 1427.49 150.729C1426.67 148.646 1424.93 147.629 1420.77 146.133C1417.33 144.897 1412.13 146.007 1409.43 147.051C1404.28 149.038 1403.31 152.785 1402.11 154.917C1400.65 157.503 1402.56 163.756 1403.97 167.05C1404.36 167.965 1405.28 168.432 1406.97 168.784C1413.57 170.155 1416.54 167.761 1417.92 166.53C1420 164.663 1418.74 160.192 1418.73 157.635C1418.72 156.479 1417.88 155.65 1417.24 154.965C1415.97 153.605 1413.65 153.982 1412.03 154.16C1411.07 154.728 1410.33 155.8 1409.57 157.064C1409.23 157.649 1409.01 158.119 1408.44 159.61" stroke="#DE0004" stroke-width="2" stroke-linecap="round"/>
</svg>
