<svg width="103" height="308" viewBox="0 0 103 308" fill="none" xmlns="http://www.w3.org/2000/svg">
<path fill-rule="evenodd" clip-rule="evenodd" d="M18.7798 0.452783C15.8681 1.8222 11.9871 28.1134 11.9371 46.7954C11.9216 52.9096 11.3964 64.2168 10.7712 71.9224C8.58006 98.9339 5.99829 140.561 5.2945 160.269C4.90271 171.21 3.55234 198.479 2.29123 220.867C1.03131 243.255 0 269.999 0 280.294V299.016L4.44669 297.747C7.71081 296.816 10.9261 297.908 16.5409 301.858L24.1897 307.239L43.6029 303.897C54.2801 302.059 66.0981 299.142 69.8648 297.416C73.6326 295.691 78.0756 294.223 79.7393 294.156C81.4029 294.087 85.9602 291.966 89.8662 289.445C99.0334 283.523 102.413 275.449 102.413 259.468C102.413 245.963 100.942 243.73 88.7039 238.644C77.8136 234.119 51.2947 234.159 43.8626 238.711C35.2515 243.984 31.3527 243.044 29.0055 235.127C26.0939 225.308 25.4758 198.885 27.7289 180.536C28.7435 172.267 30.4453 149.014 31.5111 128.86C33.5593 90.1311 35.0669 65.2637 37.0342 37.7748C38.5561 16.5194 37.507 9.55504 32.0981 4.98402C27.3443 0.965791 21.7414 -0.939673 18.7798 0.452783ZM14.3831 54.5261C14.5534 36.4472 18.014 7.69987 20.1396 6.69688C30.9382 1.60238 36.9032 13.0519 34.5763 34.4099C33.9975 39.7159 32.6424 58.6616 31.5635 76.5122C30.4846 94.3629 28.8364 120.126 27.9004 133.764C26.9644 147.402 26.1987 161.695 26.1987 165.527C26.1987 169.359 25.3294 178.459 24.266 185.75C20.6398 210.619 24.5958 244.281 31.5016 247.33C33.2045 248.08 36.8603 247.562 39.6267 246.178C47.7792 242.097 55.9759 240.152 65.4967 240.033C75.9476 239.903 90.5462 243.261 92.205 246.178C92.8421 247.299 94.3081 248.214 95.4644 248.214C100.529 248.214 101.128 265.568 96.4266 276.077C93.9247 281.67 81.6863 290.092 76.0607 290.092C74.2661 290.092 71.2878 291.141 69.4443 292.422C65.611 295.086 38.5252 300.394 28.2553 300.494C20.2206 300.572 3.02714 289.328 4.04531 284.662C4.36684 283.19 4.06562 281.656 3.37612 281.251C2.11501 280.512 2.35553 274.656 6.54374 204.241C7.46903 188.694 8.54557 167.022 8.93736 156.081C9.76619 132.899 11.4203 102.956 13.0994 80.7001C13.752 72.0627 14.3295 60.2844 14.3831 54.5261Z" fill="#39FF14"/>
</svg>
