<svg width="99" height="166" viewBox="0 0 99 166" fill="none" xmlns="http://www.w3.org/2000/svg">
<path d="M0.526937 11.56C1.11943 8.34471 12.5198 2.81467 22.1116 1.09127C26.9655 0.219843 32.8013 -0.221761 35.0801 0.110859C37.359 0.44348 43.8723 1.28574 49.5548 1.9821C68.3261 4.28516 78.1147 11.7662 78.1147 23.8126C78.1147 33.8398 72.9708 42.4626 59.6438 54.7773L48.4527 65.1178L56.2691 65.1217C67.5099 65.1256 77.3876 70.535 86.1528 81.4862C105.514 105.68 101.317 130.914 74.5742 151.101C56.2069 164.966 47.6903 167.471 29.7332 164.291C14.8525 161.654 6.88072 158.055 9.81833 155.297C10.7319 154.437 12.1303 154.661 12.9217 155.795C14.8214 158.51 31.7406 162.375 41.726 162.375C55.9459 162.375 79.8031 147.045 89.3265 131.788C94.0644 124.198 94.545 121.724 93.6314 109.714C92.7613 98.3098 91.421 94.5206 85.0962 85.5749C75.9291 72.6124 68.9372 69.0022 50.9863 67.9616C43.3771 67.522 36.6857 67.1193 36.116 67.0687C35.5463 67.0182 40.0459 64.26 46.1159 60.9377C66.0701 50.0176 78.5663 30.2082 73.4597 17.5958C69.2749 7.25736 39.8118 0.252908 19.6359 4.79678C13.8933 6.0903 9.72717 7.95955 10.3797 8.94963C11.0302 9.93971 10.7962 10.6244 9.85563 10.4708C3.07095 9.36397 3.01915 9.98444 3.51427 84.8921C3.83331 133.07 3.2781 159.356 1.9336 159.773C0.574587 160.195 -0.0862743 135.135 0.00902201 86.9929C0.0898167 46.6116 0.323914 12.6668 0.526937 11.56Z" fill="white"/>
<path fill-rule="evenodd" clip-rule="evenodd" d="M36.6463 90.4883C32.9505 91.2392 28.5461 92.9275 26.8619 94.2425C22.6398 97.5317 20.7443 108.586 23.5576 113.521C29.1656 123.361 49.7786 126.74 59.6604 119.44C66.0701 114.707 66.5735 109.049 61.2597 101.482C54.4729 91.8169 46.8534 88.4129 36.6463 90.4883ZM27.1622 101.189C26.9427 98.9536 28.8859 96.3841 31.9727 94.8279C43.9841 88.7688 60.9407 97.8624 60.9655 110.374C60.9738 114.624 59.4346 116.444 53.6401 119.039C47.044 121.992 45.4281 122.039 37.6345 119.494C29.2091 116.744 21.7449 108.294 25.708 105.995C26.7106 105.413 27.3653 103.25 27.1622 101.189Z" fill="white"/>
<path fill-rule="evenodd" clip-rule="evenodd" d="M27.8604 15.0302C27.8438 16.9014 27.1063 18.4342 26.2217 18.4342C25.3351 18.4342 24.6183 22.1553 24.6245 26.7011C24.6307 31.2469 24.1894 37.1562 23.6425 39.8308C22.7082 44.4058 23.195 44.7053 31.8463 44.8999C44.2679 45.18 51.1459 39.0858 50.224 28.619C49.6273 21.8732 48.9126 21.1555 40.2593 18.619C35.1319 17.1154 30.2511 14.9271 29.4142 13.7561C28.4798 12.447 27.8811 12.9391 27.8604 15.0302ZM26.4724 38.372C27.0193 36.5007 28.0572 31.6865 28.7781 27.6736C29.8347 21.7915 30.9845 20.3793 34.7135 20.3793C37.2575 20.3793 41.4836 21.7915 44.1084 23.5169C47.8395 25.9717 48.5811 27.767 47.5101 31.7721C45.3929 39.6927 42.505 41.776 33.6507 41.776C26.8701 41.776 25.6479 41.1963 26.4724 38.372Z" fill="white"/>
</svg>
