<svg width="160" height="166" viewBox="0 0 160 166" fill="none" xmlns="http://www.w3.org/2000/svg">
<path fill-rule="evenodd" clip-rule="evenodd" d="M90.3115 15.0207C71.8905 33.1152 62.6412 43.4173 38.6644 72.5417C20.3189 94.8291 -0.326288 123.94 0.00420274 127.055C0.276432 129.61 54.9392 165.626 57.9626 165.243C60.9905 164.858 73.4694 154.358 79.0572 147.492C83.4829 142.056 82.2858 139.835 65.1547 121.673L53.1706 108.968L61.2155 99.9916C65.6384 95.0548 69.6633 90.9475 70.1565 90.8659C71.9001 90.5755 94.848 109.123 97.3197 112.821C99.6768 116.348 100.411 115.803 109.507 103.752L119.187 90.932L103.127 79.3099C93.7436 72.5176 89.3446 69.7515 89.1041 66.5711C88.8836 63.6548 92.1592 60.3903 98.2942 53.3545C107.063 43.296 110.2 44.1293 123.859 60.1277C130.372 67.7593 136.54 73.7952 137.56 73.5434C138.584 73.2911 143.962 66.4653 149.512 58.3735L159.606 43.6633L132.604 21.8318L105.604 -9.06982e-05L90.3115 15.0207ZM4.19553 126.565C3.34541 124.158 67.1351 45.4008 91.8634 18.327L105.532 3.36118L129.599 23.7923C142.835 35.031 153.694 44.3974 153.731 44.6092C153.767 44.821 149.938 50.5436 145.22 57.3266C138.465 67.0454 136.316 69.0967 135.094 67.0048C134.238 65.5427 128.019 59.1786 121.268 52.8606C109.089 41.4572 108.955 41.3937 103.276 44.3865C100.127 46.0449 93.9637 51.9558 89.5811 57.5185L81.6097 67.6364L98.1344 79.3519L114.658 91.0661L107.299 100.577L99.939 110.09L92.3324 102.782C88.15 98.7632 80.8268 93.2696 76.0643 90.5733L67.3997 85.6726L57.4204 98.3391L47.4411 111.005L60.8334 123.378C78.831 140.005 79.1169 140.661 72.093 149.157C63.4312 159.635 57.8135 163.115 53.6948 160.554C32.5421 147.406 4.83504 128.381 4.19553 126.565Z" fill="white"/>
</svg>
