<svg width="129" height="189" viewBox="0 0 129 189" fill="none" xmlns="http://www.w3.org/2000/svg">
<path fill-rule="evenodd" clip-rule="evenodd" d="M14.6242 2.87806C13.6705 0.609096 16.404 -0.285728 23.1589 0.077889C31.895 0.553374 41.867 3.0728 43.7571 5.28535C44.1075 5.69693 42.4173 10.9789 39.9974 17.0208C37.58 23.0631 35.1617 30.935 34.6248 34.5137C33.6793 40.8148 33.7944 40.7928 38.3251 33.759C48.3488 18.1901 68.518 10.6067 90.8036 14.0264C105.098 16.2184 114.735 23.9489 121.982 39.0389C130.086 55.9195 130.271 70.5129 122.532 82.4587C114.417 94.9879 106.43 97.482 69.1287 99.1386L38.7829 100.487L38.2468 115.018C37.9513 123.014 35.7774 142.713 33.4124 158.797L29.1146 188.042L17.0199 184.648C16.6504 184.544 16.2885 184.443 15.934 184.343C7.75076 182.052 3.53126 180.87 1.54388 178.087C-0.571726 175.125 -0.157898 170.348 0.696459 160.485C0.731174 160.084 0.766617 159.675 0.802645 159.257C2.80416 136.028 11.2375 50.1214 14.0201 24.5933C15.1233 14.4866 15.3957 4.71373 14.6242 2.87806ZM66.6482 43.9482C62.6405 46.8791 62.58 59.4685 66.5494 64.3839C69.7812 68.3879 86.7504 74.0976 87.1827 71.3256C87.2399 70.9589 88.9628 67.0351 91.0143 62.6059C93.8762 56.4225 93.978 53.5031 91.4541 50.0384C88.1727 45.5339 70.4318 41.1769 66.6482 43.9482ZM15.4901 50.6648C18.4779 13.5794 19.5107 7.50238 23.0889 5.94553C25.3672 4.95307 29.624 4.49825 32.5466 4.93007C37.6065 5.68191 37.6243 6.89659 32.9317 30.2543C27.2991 58.2758 29.9411 63.1308 39.5839 42.4895C48.9283 22.4836 63.904 15.1077 87.6573 18.8122C94.795 19.9254 103.759 23.1294 107.58 25.9308C118.043 33.6035 124.604 52.915 122.133 68.7615C120.292 80.5645 119.01 82.5993 109.651 88.5551C99.4439 95.0553 97.3481 95.2531 72.5562 92.0898C67.1333 91.3986 61.6302 92.0746 60.3273 93.5947C59.0275 95.1127 53.2481 96.0093 47.4856 95.5873L37.0096 94.8165L31.1637 138.52L25.3179 182.224L16.5932 180.823C1.72903 178.435 0.828904 176.13 6.29396 154.533C9.53976 141.713 10.3231 134.577 8.64249 133.135C7.21747 131.911 7.40507 122.852 9.07818 112.278C10.7029 101.997 13.5891 74.2714 15.4901 50.6648ZM64.7029 42.2438C58.4903 46.5142 57.3935 48.7244 58.1101 55.5298C59.6727 70.4073 80.1049 81.4168 90.4989 72.9827C96.7269 67.9317 99.5667 51.751 95.1136 46.6989C93.3007 44.6396 87.3922 41.6432 81.9843 40.038C74.0384 37.6827 70.7251 38.1035 64.7029 42.2438Z" fill="white"/>
</svg>
