<svg width="170" height="182" viewBox="0 0 170 182" fill="none" xmlns="http://www.w3.org/2000/svg">
<path fill-rule="evenodd" clip-rule="evenodd" d="M56.5879 12.4757C53.7266 17.4973 53.8132 19.261 57.15 23.8332C59.3219 26.8091 63.1206 35.4996 65.5938 43.1461C68.0659 50.7911 73.5815 63.4239 77.8492 71.2164C87.98 89.7136 94.7528 114.76 93.1528 127.804C92.442 133.599 90.8894 137.749 89.5256 137.513C88.2136 137.285 73.8995 119.513 57.7167 98.0165C41.5366 76.5209 25.9921 56.7399 23.1743 54.0583C17.517 48.6716 13.286 49.3081 4.87706 56.8172L0.000852177 61.1726L26.3447 97.2689C40.8338 117.122 61.2332 144.171 71.6788 157.376L90.6675 181.387L96.9233 180.564C109.624 178.893 124.359 162.975 125.837 149.332C126.283 145.213 120.117 124.447 112.211 103.448C98.4156 66.804 97.4884 53.741 110.177 74.8118C136.868 119.133 147.52 135 150.517 134.888C152.197 134.827 157.269 131.792 161.785 128.145L169.998 121.514L164.827 111.764C161.982 106.403 156.412 98.85 152.449 94.9805C148.487 91.111 140.132 80.117 133.886 70.5479C121.992 52.3264 99.9575 26.3332 97.7641 27.9341C97.0614 28.4469 91.8493 22.514 86.1825 14.7493C79.73 5.9081 74.6597 0.420102 72.6127 0.0650351C68.2737 -0.687591 60.7807 5.11531 56.5879 12.4757ZM59.7455 20.8743C56.3852 16.27 56.9868 14.8204 65.7861 6.34785C67.706 4.49921 70.2108 3.05468 71.3533 3.13797C72.4959 3.22124 78.0745 9.16454 83.75 16.3451C89.4256 23.5256 99.3987 34.5944 105.913 40.9438C113.829 48.6602 122.285 59.1967 131.418 72.7345C139.35 84.489 147.641 95.0447 151.185 97.8999C155.601 101.458 158.383 105.375 161.25 112.069L165.212 121.319L157.704 126.798L150.196 132.277L136.549 110.888C117.479 80.9923 101.303 59.1569 98.7939 59.9211C95.7007 60.8656 99.4298 77.8167 106.519 95.0326C109.973 103.421 115.225 119.194 118.19 130.087C123.403 149.247 123.424 150.196 118.849 159.283C113.154 170.595 101.059 179.132 94.0657 176.776C90.8781 175.702 81.5315 164.598 57.0241 132.768C38.9964 109.353 20.4348 85.3663 15.7775 79.4638C3.70216 64.156 3.28817 62.4616 10.3788 57.2867C13.6411 54.9058 17.1058 53.2943 18.0783 53.7082C19.0496 54.1205 27.858 64.5641 37.6554 76.9168C47.4501 89.269 56.0244 100.073 56.7102 100.925C57.3945 101.778 60.8257 107.196 64.3353 112.962C71.3438 124.481 86.546 141.2 90.6618 141.913C102.579 143.981 95.1689 95.3029 79.2908 67.2334C75.4997 60.5339 70.2918 48.3748 67.7144 40.2142C65.1386 32.0525 61.5521 23.3497 59.7455 20.8743Z" fill="white"/>
<path fill-rule="evenodd" clip-rule="evenodd" d="M19.2165 18.2776C16.4968 25.2882 16.8279 25.9047 23.7833 26.7567C33.6551 27.966 52.1714 10.4962 47.6227 4.26356C43.0026 -2.06692 23.3496 7.62665 19.2165 18.2776ZM24.6799 19.9455C23.0704 19.2614 22.4076 17.5714 23.0669 15.8264C24.9936 10.71 33.6445 5.69221 39.7975 6.11915L45.7115 6.53128L42.6058 11.446C38.2143 18.4006 30.257 23.7433 24.6673 23.4953C20.042 23.2885 20.0112 23.2495 23.6525 22.1927C26.4045 21.3964 26.6791 20.7953 24.6799 19.9455Z" fill="white"/>
</svg>
