<svg width="53" height="84" viewBox="0 0 53 84" fill="none" xmlns="http://www.w3.org/2000/svg">
<path d="M41.1503 1.00098C41.2819 1.01481 42.3327 1.39916 44.2395 2.89689C49.9825 7.408 50.3145 16.4134 51.6307 20.264C54.2877 28.0375 29.2938 7.90196 22.0273 4.47944C19.6227 3.34688 19.3992 4.47789 20.2047 6.41989C22.3276 11.5384 27.3207 18.5851 33.2938 29.669C36.9061 36.3722 39.9594 46.1328 41.1727 50.8881C42.386 55.6433 41.2222 55.3192 37.8647 52.851C18.2313 38.4182 7.44705 31.1313 5.3679 30.5572C4.16216 30.2242 8.86662 37.7419 17.2406 50.1738C35.1873 76.8174 34.2133 81.3986 34.1144 82.561C31.2863 81.9959 26.8256 78.8081 17.131 74.2545C13.1506 72.6418 7.30557 70.3918 0.999589 68.0236" stroke="#39FF14" stroke-width="2" stroke-linecap="round"/>
</svg>
