<svg width="86" height="110" viewBox="0 0 86 110" fill="none" xmlns="http://www.w3.org/2000/svg">
<path d="M10.6281 1C17.0015 1 30.6271 1.2162 32.2731 1.87636C33.0875 2.20301 33.6279 2.98546 33.5079 3.62043C32.262 10.2131 11.9094 12.3018 3.3372 15.1868C2.07004 15.6132 1.40666 16.2104 1.12733 16.9072C0.847999 17.6039 1.01898 18.5007 1.73636 19.1149C3.39164 20.5321 17.3756 21.8 36.5855 24.0011C43.4249 24.7848 44.3742 24.7495 44.4806 25.0661C45.6379 28.5087 34.7314 30.7946 22.4754 38.8658C12.1172 45.6872 3.91183 49.1183 1.93899 50.9134C1.08418 51.6913 1.00854 52.6578 1.42034 53.2273C1.83214 53.7967 2.85689 54.057 12.7096 54.5226C22.5624 54.9882 41.212 55.6511 51.2413 56.0792C61.2707 56.5073 62.1145 56.6805 62.2371 57.083C63.2668 60.4653 50.767 64.645 40.8402 72.4456C38.3109 74.4332 36.5495 76.2595 35.2081 78.0789C34.329 79.2712 40.8532 80.0921 53.3514 80.7331C73.4711 81.7651 85.4301 84.4762 84.6216 86.0108C84.0635 86.6992 83.2053 87.2044 79.1645 90.5908C75.1236 93.9772 67.926 100.229 59.9388 108.309" stroke="#DE0004" stroke-width="2" stroke-linecap="round"/>
</svg>
