<svg width="110" height="86" viewBox="0 0 110 86" fill="none" xmlns="http://www.w3.org/2000/svg">
<path d="M1 75.0321C1 68.6586 1.2162 55.0331 1.87636 53.3871C2.20301 52.5726 2.98546 52.0323 3.62043 52.1523C10.2131 53.3982 12.3018 73.7507 15.1868 82.323C15.6132 83.5901 16.2104 84.2535 16.9072 84.5328C17.6039 84.8122 18.5007 84.6412 19.1149 83.9238C20.5321 82.2685 21.8 68.2845 24.0011 49.0746C24.7848 42.2353 24.7495 41.286 25.0661 41.1796C28.5087 40.0222 30.7946 50.9287 38.8658 63.1847C45.6872 73.5429 49.1183 81.7483 50.9134 83.7212C51.6913 84.576 52.6578 84.6516 53.2273 84.2398C53.7967 83.828 54.057 82.8033 54.5226 72.9505C54.9882 63.0978 55.6511 44.4481 56.0792 34.4188C56.5073 24.3895 56.6805 23.5456 57.083 23.4231C60.4653 22.3933 64.645 34.8931 72.4456 44.8199C74.4332 47.3493 76.2595 49.1107 78.0789 50.4521C79.2712 51.3312 80.0921 44.807 80.7331 32.3087C81.7651 12.189 84.4762 0.230059 86.0108 1.03854C86.6992 1.59663 87.2044 2.45482 90.5908 6.4957C93.9772 10.5366 100.229 17.7341 108.309 25.7214" stroke="#39FF14" stroke-width="2" stroke-linecap="round"/>
</svg>
