<svg width="102" height="308" viewBox="0 0 102 308" fill="none" xmlns="http://www.w3.org/2000/svg">
<path d="M14.8532 9.94471C14.8532 6.09881 17.4535 2.49987 21.5985 0.605491C24.8647 -0.884696 32.7481 0.517734 36.5105 3.26131C41.5688 6.94799 43.2725 28.9129 40.7427 57.8082C39.7241 69.4378 38.5441 84.9235 38.1221 92.2213C37.6989 99.5192 36.8739 109.295 36.2893 113.947C34.4099 128.88 30.3953 188.536 30.3953 201.521C30.3953 217.438 32.2208 226.63 35.676 228.11C37.1333 228.735 41.7864 227.741 46.0175 225.899C63.3935 218.336 79.4616 218.771 85.3903 226.963C87.0342 229.233 89.4755 232.056 90.8157 233.234C92.1559 234.414 95.1149 240.038 97.3912 245.733C100.746 254.125 101.53 258.014 101.53 266.245C101.53 275.765 101.176 276.947 95.8561 285.172C92.7345 289.996 87.6798 296.012 84.6216 298.539C77.8787 304.114 61.599 307.243 39.3619 307.239C25.582 307.239 22.7474 306.61 14.3606 301.701C6.91957 297.345 4.69948 296.724 3.94988 298.794C3.19071 300.89 2.69451 300.909 1.51331 298.892C0.696756 297.498 0.391988 296.357 0.835535 296.357C1.28028 296.357 1.13914 294.093 0.522236 291.325C-0.18433 288.15 -0.173518 285.846 0.552177 285.08C1.20494 284.392 1.70225 270.807 1.70225 253.69C1.70225 225.311 4.19969 181.843 9.4553 118.759C13.085 75.2026 15.054 38.1317 14.2937 27.7289C13.3121 14.3152 15.5586 10.7347 16.7123 23.8708C17.8194 36.4741 15.1306 90.8312 11.4124 131.007C7.81862 169.842 5.1861 219.365 4.93025 252.929L4.64565 290.137L10.0483 294.093C21.7838 302.691 40.5132 304.798 67.0781 300.505C79.25 298.539 87.5925 292.282 95.0754 279.505C98.4911 273.673 98.7541 272.279 98.222 262.819C97.6852 253.286 97.0863 251.628 90.3829 241.101C86.1985 234.53 81.1413 228.688 78.4406 227.306C71.7898 223.905 60.2898 224.34 54.1579 228.224C46.4921 233.081 38.8609 234.832 34.4434 232.75C30.2243 230.76 28.7741 225.787 27.398 208.578C26.6675 199.45 30.7013 132.507 32.8103 118.759C34.4291 108.205 37.712 59.5679 38.4162 35.7086C39.0139 15.4624 38.9494 14.7806 35.9618 9.68134C31.928 2.79178 22.7653 2.2794 18.0035 8.67496C15.5933 11.9105 14.8532 12.2086 14.8532 9.94471Z" fill="#39FF14"/>
</svg>
