<svg width="29" height="44" viewBox="0 0 29 44" fill="none" xmlns="http://www.w3.org/2000/svg">
<path d="M17.1489 4.14837C18.1397 3.36722 20.4808 2.039 22.3512 1.19629C26.3648 -0.611856 28.985 -0.342706 28.2851 1.80571C28.0021 2.67461 26.2088 3.99546 22.6361 5.9656C19.7575 7.55337 15.7629 9.88382 13.7597 11.1449C9.52156 13.8129 9.36754 14.3351 11.4645 18.9268C15.2701 27.2583 16.4966 33.1898 15.5124 38.5051C15.0237 41.146 14.8969 41.3221 12.7608 42.3185C8.99377 44.0757 6.61316 44.1891 3.26317 42.7698C0.364538 41.5423 0.302479 41.4705 0.0577359 39.0689C-0.223971 36.3054 0.569371 32.907 2.22619 29.78C3.0981 28.135 3.78217 27.5613 5.30448 27.201C6.38075 26.946 7.7294 26.8847 8.30154 27.0647C10.8065 27.8549 11.1905 27.074 9.88464 23.849C7.47034 17.8866 6.3056 13.028 6.86802 11.2609C7.30603 9.88279 8.14211 9.19804 11.3767 7.56852C13.5602 6.46882 16.1576 4.92936 17.1489 4.14837Z" fill="white"/>
</svg>
