<svg width="100" height="309" viewBox="0 0 100 309" fill="none" xmlns="http://www.w3.org/2000/svg">
<path fill-rule="evenodd" clip-rule="evenodd" d="M24.575 6.90082C26.5443 4.29513 28.9605 1.57287 29.9439 0.8486C30.9274 0.124333 36.8279 -0.200368 43.0563 0.128466C58.2702 0.93182 64.9336 6.48246 78.1616 29.3739C89.6945 49.3308 95.6785 66.1658 97.8527 84.7657C99.7183 100.718 99.729 147.354 97.8718 166.306C97.1626 173.543 96.0993 184.613 95.508 190.908C94.9168 197.204 93.894 207.777 93.236 214.403C92.578 221.03 90.0747 232.737 87.674 240.419C85.2732 248.1 82.0154 258.883 80.4336 264.38C74.0539 286.562 61.6961 303.519 49.0212 307.484C37.0604 311.226 30.6735 308.26 19.0059 293.546C11.9228 284.614 6.6302 270.69 4.75513 256.057C3.94694 249.755 2.53437 244.096 1.61412 243.48C0.299312 242.598 0.264756 242.013 1.45202 240.733C2.66431 239.424 2.67265 234.687 1.49254 216.568C-1.81892 165.692 0.674809 72.73 6.06994 45.928C9.46127 29.0825 14.1734 16.1643 17.8067 13.7522C19.559 12.5888 22.6046 9.50652 24.575 6.90082ZM33.5355 5.13177C29.5434 6.43253 24.5643 12.7303 17.5468 25.3509C8.14528 42.2608 7.14516 48.0633 3.70973 105.578C1.46633 143.142 3.93265 222.447 8.45521 258.159C10.4912 274.239 18.1393 288.745 29.5518 298.171C42.2052 308.62 57.58 302.737 68.7612 283.165C72.0226 277.456 76.4618 266.428 78.723 258.423C80.9653 250.479 83.8202 241.399 85.067 238.244C89.1474 227.921 91.9975 206.443 95.2172 161.771C96.5844 142.797 96.7966 98.531 95.5676 88.5286C92.665 64.9004 84.2171 42.6854 70.771 23.3196C59.4503 7.01733 46.7623 0.819465 33.5355 5.13177ZM29.9439 93.1635C29.9439 81.1944 36.1842 69.3355 43.9765 66.4967C52.111 63.5351 53.8597 63.5997 60.6078 67.0982C68.0091 70.9339 72.9036 79.9664 76.0028 95.5028C79.1164 111.106 78.8208 152.214 75.4342 174.542C70.8449 204.801 60.0225 234.622 51.3552 240.891C43.6189 246.485 31.4209 233.867 27.1141 215.814C24.6418 205.452 22.6177 177.131 23.3115 162.597C24.587 135.854 26.3035 116.661 28.0796 109.287C29.1048 105.031 29.9439 97.7755 29.9439 93.1635ZM43.0396 79.0902C45.6716 77.2858 47.8244 74.4304 47.8244 72.7446C47.8244 67.939 59.5254 70.4157 65.0683 76.3971C72.6103 84.5347 74.6546 95.3363 74.5319 126.39C74.39 162.339 74.2899 164.133 71.5482 179.632C66.7646 206.676 56.7015 232.362 49.6876 235.436C44.569 237.68 37.5002 233.18 34.1721 225.561C28.3562 212.249 27.1701 202.792 27.2178 170.096C27.2714 132.686 28.7138 117.451 34.0672 97.7693C37.7446 84.2517 38.8401 81.9706 43.0396 79.0902Z" fill="#39FF14"/>
</svg>
