<svg width="291" height="116" viewBox="0 0 291 116" fill="none" xmlns="http://www.w3.org/2000/svg">
<path fill-rule="evenodd" clip-rule="evenodd" d="M248.234 1.02655C232.295 1.17127 183.966 2.00534 140.836 2.88152C53.9087 4.64703 8.43845 4.50758 6.80191 2.46843C1.6042 -4.00422 -3.08995 31.5739 6.7361 98.7869C8.13398 108.355 9.59152 113.137 11.4787 114.346C13.6931 115.766 31.5085 114.561 75.2041 113.677C104.739 113.078 165.149 112.64 209.452 112.702C253.754 112.764 290 112.319 290 111.715C290 111.11 289.381 110.615 288.626 110.615C287.013 110.615 283.625 92.346 282.283 76.4103C281.765 70.26 280.152 55.8032 278.698 44.2853C276.558 27.338 275.969 21.5575 277.574 13.0865C278.665 7.32819 278.926 2.24878 278.154 1.79754C277.382 1.34629 264.174 0.883156 248.234 1.02655ZM54.9366 5.8113C81.5542 5.69158 123.661 5.04827 148.508 4.37864C173.354 3.71033 212.386 3.06701 235.243 2.95124L276.338 2.9513L274.915 11.1736C273.255 20.7576 274.141 36.8838 276.338 48.1255C277.187 52.4669 278.347 63.123 278.916 71.8058C279.879 86.489 282.29 102.878 284.288 108.345C285.097 110.557 281.504 110.661 215.546 110.318C177.268 110.121 117.44 110.496 82.5941 111.153L11.9338 113.677L10.8888 107.876C6.49232 83.4683 9.92497 50.5752 7.63893 20.4984L6.53939 6.02706L54.9366 5.8113Z" fill="white"/>
<path d="M148.508 4.37864C123.661 5.04827 81.5542 5.69158 54.9366 5.8113L6.53939 6.02706L7.63893 20.4984C9.92497 50.5752 6.49232 83.4683 10.8888 107.876L11.9338 113.677L82.5941 111.153C117.44 110.496 177.268 110.121 215.546 110.318C281.504 110.661 285.097 110.557 284.288 108.345C282.29 102.878 279.879 86.489 278.916 71.8058C278.347 63.123 277.187 52.4669 276.338 48.1255C274.141 36.8838 273.255 20.7576 274.915 11.1736L276.338 2.9513L235.243 2.95124C212.386 3.06701 173.354 3.71033 148.508 4.37864Z" fill="white"/>
<path fill-rule="evenodd" clip-rule="evenodd" d="M248.234 1.02655C232.295 1.17127 183.966 2.00534 140.836 2.88152C53.9087 4.64703 8.43845 4.50758 6.80191 2.46843C1.6042 -4.00422 -3.08995 31.5739 6.7361 98.7869C8.13398 108.355 9.59152 113.137 11.4787 114.346C13.6931 115.766 31.5085 114.561 75.2041 113.677C104.739 113.078 165.149 112.64 209.452 112.702C253.754 112.764 290 112.319 290 111.715C290 111.11 289.381 110.615 288.626 110.615C287.013 110.615 283.625 92.346 282.283 76.4103C281.765 70.26 280.152 55.8032 278.698 44.2853C276.558 27.338 275.969 21.5575 277.574 13.0865C278.665 7.32819 278.926 2.24878 278.154 1.79754C277.382 1.34629 264.174 0.883156 248.234 1.02655ZM54.9366 5.8113C81.5542 5.69158 123.661 5.04827 148.508 4.37864C173.354 3.71033 212.386 3.06701 235.243 2.95124L276.338 2.9513L274.915 11.1736C273.255 20.7576 274.141 36.8838 276.338 48.1255C277.187 52.4669 278.347 63.123 278.916 71.8058C279.879 86.489 282.29 102.878 284.288 108.345C285.097 110.557 281.504 110.661 215.546 110.318C177.268 110.121 117.44 110.496 82.5941 111.153L11.9338 113.677L10.8888 107.876C6.49232 83.4683 9.92497 50.5752 7.63893 20.4984L6.53939 6.02706L54.9366 5.8113Z" stroke="#39FF14" stroke-width="2" stroke-linecap="round"/>
<path d="M148.508 4.37864C123.661 5.04827 81.5542 5.69158 54.9366 5.8113L6.53939 6.02706L7.63893 20.4984C9.92497 50.5752 6.49232 83.4683 10.8888 107.876L11.9338 113.677L82.5941 111.153C117.44 110.496 177.268 110.121 215.546 110.318C281.504 110.661 285.097 110.557 284.288 108.345C282.29 102.878 279.879 86.489 278.916 71.8058C278.347 63.123 277.187 52.4669 276.338 48.1255C274.141 36.8838 273.255 20.7576 274.915 11.1736L276.338 2.9513L235.243 2.95124C212.386 3.06701 173.354 3.71033 148.508 4.37864Z" stroke="#39FF14" stroke-width="2" stroke-linecap="round"/>
<path d="M39.6894 58.4262C42.2083 63.5509 43.4942 65.8171 43.4942 65.8775C43.6416 66.2704 44.6656 66.3412 44.8927 66.4166C45.4164 66.4913 46.2309 66.3537 47.2098 66.1883L47.2396 66.1833C48.3613 66.0334 50.916 64.6269 51.8841 62.8969C52.4419 61.9001 53.6818 59.4206 54.7686 54.7864C55.4054 52.0711 56.1205 48.6264 56.2551 45.8269C56.489 40.9662 56.4207 37.9031 55.6256 36.1499C54.8098 34.3508 54.0443 32.9593 52.5875 31.5296C49.9041 28.896 48.0456 27.0436 47.2649 27.0232C45.9001 26.9875 44.6866 26.9571 43.978 27.2224C42.149 27.9071 38.9075 29.4448 37.4787 31.4104C35.933 33.5368 34.6201 35.7751 35.1007 40.5529C35.3081 42.6144 35.7235 45.5462 36.5192 48.8031C37.3149 52.06 38.2967 55.5928 39.6894 58.4262Z" fill="#39FF14"/>
<path d="M45.1149 78.0286C45.4674 77.9898 45.7708 77.968 46.0127 77.9567C46.4834 77.8165 46.9707 77.8597 47.4544 77.9071C48.5469 78.0141 49.8501 77.9371 50.7003 78.3372C51.6714 78.7942 53.1265 79.3881 53.6184 80.4514C53.9786 81.2301 54.4992 82.0778 54.2313 83.8211C54.0575 84.9518 54.212 86.0433 53.6008 86.8533C53.0688 87.5584 52.5098 88.6332 51.1959 88.6498L51.1039 88.6509C48.6675 88.6818 47.1498 88.701 46.3164 88.2258C45.4123 87.7103 43.383 87.2166 43.0427 83.5505C42.8647 81.6334 43.1857 78.2411 45.1149 78.0286Z" fill="#39FF14"/>
<path d="M39.6894 58.4262C42.2083 63.5509 43.4942 65.8171 43.4942 65.8775C43.6416 66.2704 44.6656 66.3412 44.8927 66.4166C45.4164 66.4913 46.2309 66.3537 47.2098 66.1883L47.2396 66.1833C48.3613 66.0334 50.916 64.6269 51.8841 62.8969C52.4419 61.9001 53.6818 59.4206 54.7686 54.7864C55.4054 52.0711 56.1205 48.6264 56.2551 45.8269C56.489 40.9662 56.4207 37.9031 55.6256 36.1499C54.8098 34.3508 54.0443 32.9593 52.5875 31.5296C49.9041 28.896 48.0456 27.0436 47.2649 27.0232C45.9001 26.9875 44.6866 26.9571 43.978 27.2224C42.149 27.9071 38.9075 29.4448 37.4787 31.4104C35.933 33.5368 34.6201 35.7751 35.1007 40.5529C35.3081 42.6144 35.7235 45.5462 36.5192 48.8031C37.3149 52.06 38.2967 55.5928 39.6894 58.4262Z" stroke="#39FF14" stroke-width="2" stroke-linecap="round"/>
<path d="M45.1149 78.0286C45.4674 77.9898 45.7708 77.968 46.0127 77.9567C46.4834 77.8165 46.9707 77.8597 47.4544 77.9071C48.5469 78.0141 49.8501 77.9371 50.7003 78.3372C51.6714 78.7942 53.1265 79.3881 53.6184 80.4514C53.9786 81.2301 54.4992 82.0778 54.2313 83.8211C54.0575 84.9518 54.212 86.0433 53.6008 86.8533C53.0688 87.5584 52.5098 88.6332 51.1959 88.6498L51.1039 88.6509C48.6675 88.6818 47.1498 88.701 46.3164 88.2258C45.4123 87.7103 43.383 87.2166 43.0427 83.5505C42.8647 81.6334 43.1857 78.2411 45.1149 78.0286Z" stroke="#39FF14" stroke-width="2" stroke-linecap="round"/>
</svg>
