<svg width="696" height="238" viewBox="0 0 696 238" fill="none" xmlns="http://www.w3.org/2000/svg">
<path d="M568 237C568.094 237 587.074 236.761 619.262 235.895C639.583 235.349 650.905 232.883 658.53 232.176C674.601 230.685 690.732 230.225 693.114 229.288C694.236 228.847 694.618 227.413 694.863 226.132C695.895 220.746 690.875 213.59 687.175 206.223C684.249 200.4 679.5 190.401 675.205 179.688C674.451 177.612 674.046 176.122 673.606 174.692C673.167 173.261 672.705 171.934 671.111 168" stroke="#39FF14" stroke-width="2" stroke-linecap="round"/>
<path d="M21.1776 82.9976C19.8632 83.0637 14.5791 81.7737 7.704 76.1434C4.97504 73.9085 3.61329 70.944 2.17228 68.0839C0.777535 65.3157 0.608641 62.0475 1.7662 59.5216C4.83359 52.8282 13.8909 54.6027 18.6368 50.0472C19.6828 49.0431 19.6597 47.5714 19.1784 46.5927C16.6168 41.3848 10.8535 36.1718 10.1539 27.4229C9.62574 20.8179 15.7299 15.4697 19.792 11.0152C23.567 6.87544 33.5293 7.41349 43.4622 6.94555C50.9835 6.59121 54.9105 0.673597 61.0233 1.01415C63.9099 1.17496 65.0562 5.20251 67.0949 6.96114C72.5489 11.666 85.6488 6.25297 93.995 4.64135C107.397 10.2605 111.709 11.5051 116.156 10.7623C118.763 9.8971 122.081 8.04048 128 5.37044" stroke="#39FF14" stroke-width="2" stroke-linecap="round"/>
<path fill-rule="evenodd" clip-rule="evenodd" d="M585.508 17.3084C550.21 17.5738 443.184 19.1029 347.672 20.7092C155.168 23.946 54.4727 23.6903 50.8485 19.9519C39.338 8.08535 28.9427 73.3119 50.7028 196.536C53.7984 214.078 57.0262 222.845 61.2053 225.061C66.1093 227.664 105.562 225.454 202.327 223.834C267.732 222.736 401.514 221.933 499.623 222.046C597.732 222.16 678 221.344 678 220.237C678 219.128 676.63 218.221 674.957 218.221C671.386 218.221 663.881 184.727 660.91 155.512C659.762 144.236 656.191 117.732 652.971 96.6161C648.233 65.5461 646.926 54.9485 650.483 39.4183C652.899 28.8615 653.476 19.5492 651.766 18.7219C650.056 17.8946 620.806 17.0456 585.508 17.3084ZM157.444 26.0805C216.39 25.861 309.637 24.6816 364.66 23.4539C419.683 22.2287 506.12 21.0493 556.737 20.837L647.746 20.8371L644.593 35.9114C640.916 53.4821 642.88 83.0468 647.746 103.656C649.626 111.616 652.193 131.152 653.454 147.07C655.587 173.99 660.925 204.037 665.349 214.058C667.143 218.115 659.185 218.306 513.119 217.676C428.351 217.314 295.861 218.002 218.693 219.208L62.2133 223.834L59.8991 213.2C50.1629 168.452 57.7647 108.148 52.7022 53.0068L50.2672 26.476L157.444 26.0805Z" fill="white"/>
<path d="M364.66 23.4539C309.637 24.6816 216.39 25.861 157.444 26.0805L50.2672 26.476L52.7022 53.0068C57.7647 108.148 50.1629 168.452 59.8991 213.2L62.2133 223.834L218.693 219.208C295.861 218.002 428.351 217.314 513.119 217.676C659.185 218.306 667.143 218.115 665.349 214.058C660.925 204.037 655.587 173.99 653.454 147.07C652.193 131.152 649.626 111.616 647.746 103.656C642.88 83.0468 640.916 53.4821 644.593 35.9114L647.746 20.8371L556.737 20.837C506.12 21.0493 419.683 22.2287 364.66 23.4539Z" fill="white"/>
</svg>
