<svg width="1440" height="1024" viewBox="0 0 1440 1024" fill="none" xmlns="http://www.w3.org/2000/svg">
<path d="M1440 1024H0V0H1440V1024ZM741.125 323.235C726.89 320.203 714.27 321.954 700.842 323.228C687.448 324.498 679.08 323.832 666.639 329.323C654.196 334.815 644.434 345.842 638.536 351.216C635.535 353.95 633.542 356.51 631.49 358.898C629.437 361.289 627.306 363.535 623.992 365.717C622.374 366.782 620.366 367.483 618.067 368.021C615.768 368.559 613.213 368.926 610.499 369.343C605.092 370.174 599.098 371.196 593.608 374.181C582.677 380.125 571.764 393.197 563.029 407.057C554.265 420.962 549.636 437.105 547.161 445.957C546.549 448.145 545.782 450.119 545.01 451.999C544.241 453.871 543.46 455.666 542.84 457.455C541.591 461.058 540.971 464.701 542.296 469.229C543.618 473.744 546.025 476.694 549.056 479.194C550.565 480.439 552.229 481.574 553.984 482.731C555.744 483.893 557.593 485.076 559.497 486.433C561.46 487.831 564.338 489.152 567.832 490.399C571.333 491.649 575.48 492.835 580.002 493.952C589.047 496.187 599.617 498.16 609.562 499.841C619.542 501.528 631.568 501.889 642.223 502.104C647.556 502.212 652.544 502.283 656.776 502.464C661.017 502.645 664.459 502.935 666.715 503.471C669.045 504.024 671.276 504.31 673.395 504.538C675.522 504.768 677.519 504.939 679.427 505.263C683.217 505.907 686.585 507.144 689.599 510.602C692.561 514 692.595 518.432 691.821 523.626C691.056 528.761 689.489 534.649 689.489 540.607C689.489 546.532 690.226 555.177 690.593 564.174C690.96 573.203 690.958 582.622 689.497 590.213C688.034 597.816 685.692 604.233 683.215 610.229C680.743 616.213 678.118 621.818 676.129 627.726C674.15 633.603 671.983 638.03 670.152 642.625C668.327 647.206 666.869 651.881 666.374 658.131C665.883 664.324 665.56 670.415 666.135 675.877C666.71 681.34 668.19 686.221 671.345 689.963C677.601 697.383 684.242 698.642 693.473 701.015C698.171 702.223 703.271 702.219 708.296 701.921C713.35 701.621 718.283 701.029 722.782 701.029C727.265 701.029 730.86 701.816 734.511 702.221C738.146 702.623 741.746 702.627 746.056 701C754.662 697.751 763.302 687.604 767.007 675.261C768.881 669.015 768.014 662.948 766.212 656.615C765.311 653.451 764.171 650.203 763.018 646.831C761.862 643.455 760.69 639.946 759.712 636.237C757.74 628.757 755.077 621.954 752.569 615.581C750.058 609.198 747.708 603.259 746.331 597.466C743.565 585.825 742.244 577.595 741.476 567.237C740.707 556.871 741.477 550.127 741.477 540.607C741.477 535.863 741.101 530.437 740.914 525.909C740.82 523.637 740.773 521.593 740.843 519.956C740.878 519.138 740.942 518.431 741.04 517.854C741.14 517.269 741.27 516.851 741.419 516.589C742.889 514.008 744.163 512.877 746.228 510.609C746.214 510.625 746.248 510.586 746.422 510.523C746.577 510.467 746.795 510.407 747.08 510.346C747.649 510.224 748.439 510.107 749.432 509.993C751.415 509.765 754.165 509.556 757.477 509.352C764.098 508.943 772.928 508.558 782.287 508.092C791.642 507.626 801.52 507.079 810.226 506.345C818.921 505.612 826.479 504.69 831.174 503.469C840.491 501.046 850.075 498.206 858.328 495.268C866.568 492.333 873.524 489.285 877.551 486.434C885.429 480.856 891.631 478.171 895.942 469.298C898.139 464.778 897.706 458.347 896.062 451.284C894.413 444.197 891.516 436.357 888.658 428.949C882.915 414.062 873.792 401.293 863.016 390.02C852.263 378.77 842.085 369.912 831.224 365.674C825.759 363.542 821.031 363.489 816.405 363.381C811.778 363.273 807.246 363.111 802.041 360.833C796.845 358.56 793.132 354.705 789.221 350.44C785.322 346.189 781.236 341.542 775.334 337.837C763.623 330.486 755.347 326.265 741.125 323.235Z" fill="black"/>
</svg>
