<svg width="126" height="306" viewBox="0 0 126 306" fill="none" xmlns="http://www.w3.org/2000/svg">
<path d="M10.0733 4.69076C2.63871 5.15457 0.155539 4.61608 0.0240384 2.50824C-0.0793026 0.851776 0.953783 -0.144243 2.55906 0.0675364C4.04869 0.263348 9.11633 0.26334 13.8205 0.0668101C25.3672 -0.417489 26.3638 1.25702 27.0122 22.219L27.5116 38.3785L29.472 32.9872C36.4924 13.6713 40.7196 9.1017 52.2289 8.38367C60.3761 7.8754 62.0087 8.52596 70.9674 15.8559C82.1159 24.9755 86.2225 31.3394 92.6268 49.4152C96.3509 59.9275 97.2856 64.6093 98.0295 76.4772C98.5684 85.0764 98.3544 94.0514 97.494 98.8683C95.5842 109.57 89.1473 124.071 84.6202 127.873C80.1975 131.587 71.3058 132.357 62.8786 129.755C59.4506 128.698 56.4692 128.194 56.2532 128.638C55.2993 130.596 76.3784 176.564 84.7365 190.751C90.9734 201.339 100.916 225.987 103.672 237.693C104.864 242.759 106.51 248.636 107.329 250.753C108.149 252.873 111.835 263.428 115.523 274.21C119.209 284.993 123.113 296.077 124.198 298.842C125.283 301.607 126.001 304.471 125.796 305.203C125.59 305.934 119.832 305.72 112.999 304.728C91.205 301.556 88.4871 299.917 83.9499 287.207C82.4389 282.974 77.2323 271.863 72.379 262.511C67.5259 253.161 62.3329 243.052 60.84 240.047C59.346 237.044 56.1315 230.755 53.6981 226.076C51.2635 221.396 49.2321 216.94 49.1845 216.176C49.1368 215.412 47.005 210.015 44.4469 204.18C37.8063 189.036 33.6214 178.202 31.1933 169.875C29.2681 163.272 29.2787 164.953 31.3145 188.836C33.6084 215.746 38.6684 256.592 43.3613 286.061C44.8207 295.229 45.8114 303.452 45.5631 304.334C45.3137 305.218 39.0708 305.62 31.6891 305.227C24.3076 304.836 14.6187 304.774 10.1574 305.093L2.04799 305.67L2.27399 299.262C2.39803 295.736 2.33455 284.802 2.13269 274.961C1.93201 265.121 2.12915 247.088 2.57199 234.889C3.34458 213.598 3.4768 197.492 3.25181 151.596C3.1953 140.007 3.06826 110.614 2.97124 86.2771C2.85121 56.4407 2.19585 36.4024 0.959211 24.7548C-0.815011 8.03196 -0.0419032 1.75783 2.53022 12.0111C4.09568 18.2468 6.08768 57.6046 5.6439 73.5026C5.44807 80.4911 5.46433 101.83 5.67845 120.922C6.50793 194.81 6.51232 204.797 5.72673 227.316C5.28183 240.095 4.95517 255.764 5.00279 262.137C5.05041 268.509 5.14348 279.554 5.20943 286.68L5.33097 299.636L18.2538 300.229C42.5973 301.345 42.001 301.435 41.3577 296.752C41.0423 294.453 38.6312 275.161 36.0017 253.88C33.3711 232.599 30.2828 208.826 29.1372 201.051C26.5251 183.322 24.7679 155.48 25.9932 151.248C27.2419 146.931 28.551 149.44 32.9099 164.499C34.8863 171.331 39.8518 185.066 43.9436 195.02C48.0353 204.974 51.409 213.544 51.4412 214.061C51.4735 214.579 55.1923 222.116 59.706 230.811C77.2843 264.675 83.6138 277.55 86.2718 284.853C89.2767 293.103 91.6086 295.524 99.0875 298.164C106.438 300.76 121.418 301.918 121.285 299.882C121.222 298.899 119.819 294.86 118.168 290.906C116.518 286.952 113.314 277.667 111.048 270.274C95.4631 219.412 93.0233 213.214 77.0448 183.875C71.8544 174.346 67.5536 165.752 67.4868 164.776C67.4199 163.8 63.9335 155.374 59.7392 146.055C52.7468 130.517 50.2928 122.331 52.5755 122.163C53.0666 122.128 57.8479 123.396 63.2021 124.984C77.1178 129.107 83.0828 126.757 88.4803 115.027C97.6686 95.0615 98.0265 74.7239 89.6092 50.8196C85.1705 38.2147 77.7814 25.7581 74.8512 25.9409C74.3884 25.9698 73.3372 24.7624 72.5136 23.2583C70.0399 18.7358 58.437 12.2116 53.4271 12.5242C50.849 12.685 47.0386 13.5381 44.9606 14.4223C40.3519 16.3791 32.7299 31.414 31.2363 41.4931C28.9991 56.5946 28.6071 58.3326 27.4234 58.4064C26.6655 58.4537 25.6278 49.1712 24.6631 33.7087C23.6357 17.2407 22.5867 8.12112 21.5327 6.50499C20.5541 5.0043 16.167 4.31059 10.0733 4.69076Z" fill="#39FF14"/>
<path fill-rule="evenodd" clip-rule="evenodd" d="M44.6667 55.4085C32.8565 74.1634 41.9281 103.443 59.4315 103.064C66.267 102.916 66.5254 102.691 70.9694 92.982C74.7239 84.7809 75.4268 81.6305 75.0067 74.8975C74.4269 65.6033 71.7391 60.8665 63.3188 54.2976C56.3849 48.8878 48.4755 49.3602 44.6667 55.4085ZM45.1409 87.5728C41.5515 79.8131 41.8793 67.0711 45.8482 60.1423C49.6933 53.4299 57.1168 53.2682 64.2351 59.7392C67.2107 62.4452 70.3184 66.4666 71.1418 68.6767C75.0721 79.2204 68.2269 98.0132 60.276 98.5092C54.4345 98.8737 48.3271 94.4599 45.1409 87.5728Z" fill="#39FF14"/>
</svg>
