<svg width="129" height="189" viewBox="0 0 129 189" fill="none" xmlns="http://www.w3.org/2000/svg">
<path fill-rule="evenodd" clip-rule="evenodd" d="M23.0889 5.94553C19.5107 7.50238 18.4779 13.5794 15.4901 50.6648C13.5891 74.2714 10.7029 101.997 9.07818 112.278C7.40507 122.853 7.21747 131.911 8.64249 133.135C10.3231 134.577 9.53976 141.713 6.29396 154.533C0.828901 176.13 1.72903 178.435 16.5932 180.823L25.3179 182.224L31.1637 138.52L37.0096 94.8165L47.4856 95.5873C53.2481 96.0093 59.0275 95.1127 60.3273 93.5947C61.6302 92.0746 67.1333 91.3986 72.5562 92.0898C97.3481 95.2531 99.4439 95.0553 109.651 88.5551C119.01 82.5993 120.292 80.5645 122.133 68.7615C124.604 52.915 118.043 33.6035 107.58 25.9308C103.759 23.1294 94.795 19.9254 87.6573 18.8122C63.904 15.1077 48.9283 22.4836 39.5839 42.4895C29.9411 63.1308 27.2991 58.2758 32.9317 30.2543C37.6243 6.89659 37.6065 5.68191 32.5466 4.93007C29.624 4.49825 25.3672 4.95307 23.0889 5.94553ZM58.1101 55.5298C57.3935 48.7244 58.4903 46.5142 64.7029 42.2438C70.7251 38.1035 74.0384 37.6827 81.9843 40.038C87.3922 41.6432 93.3007 44.6396 95.1136 46.6989C99.5667 51.751 96.7269 67.9317 90.4989 72.9827C80.1049 81.4168 59.6727 70.4073 58.1101 55.5298Z" fill="white"/>
<path fill-rule="evenodd" clip-rule="evenodd" d="M0.696459 160.485L0.697243 160.476C0.703616 160.402 0.710009 160.328 0.716429 160.254C0.709768 160.331 0.703069 160.408 0.696459 160.485Z" fill="white"/>
<path fill-rule="evenodd" clip-rule="evenodd" d="M23.1589 0.077889C16.404 -0.285728 13.6705 0.609096 14.6242 2.87806C15.3957 4.71373 15.1233 14.4866 14.0201 24.5933C11.2375 50.1214 2.80416 136.028 0.802645 159.257L0.716429 160.254L0.697243 160.476L0.696459 160.485C-0.157897 170.348 -0.571726 175.125 1.54388 178.087C3.53126 180.87 7.75076 182.052 15.934 184.343C16.2885 184.443 16.6504 184.544 17.0199 184.648L29.1146 188.042L33.4124 158.797C35.7774 142.713 37.9513 123.014 38.2468 115.018L38.7829 100.487L69.1287 99.1386C106.43 97.482 114.417 94.9879 122.532 82.4587C130.271 70.5129 130.086 55.9195 121.982 39.0389C114.735 23.9489 105.098 16.2184 90.8036 14.0264C68.518 10.6067 48.3488 18.1901 38.3251 33.759C33.7944 40.7928 33.6793 40.8148 34.6248 34.5137C35.1617 30.935 37.58 23.0631 39.9974 17.0208C42.4173 10.9789 44.1075 5.69693 43.7571 5.28535C41.867 3.0728 31.895 0.553374 23.1589 0.077889ZM15.4901 50.6648C18.4779 13.5794 19.5107 7.50238 23.0889 5.94553C25.3672 4.95307 29.624 4.49825 32.5466 4.93007C37.6065 5.68191 37.6243 6.89659 32.9317 30.2543C27.2991 58.2758 29.9411 63.1308 39.5839 42.4895C48.9283 22.4836 63.904 15.1077 87.6573 18.8122C94.795 19.9254 103.759 23.1294 107.58 25.9308C118.043 33.6035 124.604 52.915 122.133 68.7615C120.292 80.5645 119.01 82.5993 109.651 88.5551C99.4439 95.0553 97.3481 95.2531 72.5562 92.0898C67.1333 91.3986 61.6302 92.0746 60.3273 93.5947C59.0275 95.1127 53.2481 96.0093 47.4856 95.5873L37.0096 94.8165L31.1637 138.52L25.3179 182.224L16.5932 180.823C1.72903 178.435 0.828901 176.13 6.29396 154.533C9.53976 141.713 10.3231 134.577 8.64249 133.135C7.21747 131.911 7.40507 122.853 9.07818 112.278C10.7029 101.997 13.5891 74.2714 15.4901 50.6648Z" fill="#DE0004"/>
<path fill-rule="evenodd" clip-rule="evenodd" d="M64.7029 42.2438C58.4903 46.5142 57.3935 48.7244 58.1101 55.5298C59.6727 70.4073 80.1049 81.4168 90.4989 72.9827C96.7269 67.9317 99.5667 51.751 95.1136 46.6989C93.3007 44.6396 87.3922 41.6432 81.9843 40.038C74.0384 37.6827 70.7251 38.1035 64.7029 42.2438ZM66.5494 64.3839C62.58 59.4685 62.6405 46.8791 66.6482 43.9482C70.4318 41.1769 88.1727 45.5339 91.4541 50.0384C93.978 53.5031 93.8762 56.4225 91.0143 62.6059C88.9628 67.0351 87.2399 70.9589 87.1827 71.3256C86.7504 74.0976 69.7812 68.3879 66.5494 64.3839Z" fill="#DE0004"/>
</svg>
