<svg width="643" height="297" viewBox="0 0 643 297" fill="none" xmlns="http://www.w3.org/2000/svg">
<path fill-rule="evenodd" clip-rule="evenodd" d="M146.296 2.93562C144.921 3.77243 143.609 5.48292 143.381 6.73557C143.152 7.98924 142.782 24.7725 142.559 44.0324C142.095 84.0393 141.974 83.2722 148.793 83.2722C150.995 83.2722 153.076 82.7621 153.42 82.1394C154.139 80.8345 154.103 72.8669 153.28 50.4964C152.882 39.6793 152.994 34.9473 153.63 35.6448C154.144 36.2082 155.88 40.2119 157.488 44.5414C159.096 48.8709 161.012 52.6719 161.745 52.9873C164.189 54.0392 166.43 51.5964 168.016 46.1536C173.489 27.37 175.227 32.5844 173.648 63.0423C172.769 80.0079 172.817 81.3599 174.359 83.2711C176.647 86.1073 182.388 86.0448 184.963 83.1564C186.53 81.3978 186.77 80.2967 186.247 77.267C185.894 75.2185 185.334 58.4056 185.004 39.9067L184.403 6.27056L182.247 4.31426C177.383 -0.103307 174.009 2.98274 169.009 16.4259C164.544 28.4342 164.268 28.89 162.66 26.9388C161.964 26.0938 159.61 20.6417 157.43 14.823C154.042 5.78711 151.265 1.20465 149.276 1.37365C149.011 1.39618 147.67 2.09882 146.296 2.93562ZM314.933 2.30776C313.912 2.77175 312.529 3.89124 311.861 4.79462C309.73 7.67479 297.161 70.802 297.161 78.6262C297.161 81.6774 297.58 82.4774 299.637 83.3541C302.713 84.6662 305.963 83.8273 307.109 81.4244C307.587 80.4217 308.45 75.703 309.026 70.9382C309.602 66.1734 310.394 61.9054 310.786 61.4537C311.178 61.0031 314.127 60.7726 317.341 60.9416L323.183 61.2509L323.639 71.8324C324.156 83.8201 324.981 85.3207 331.053 85.3207C335.889 85.3207 337.614 83.0653 336.836 77.7556C334.853 64.2212 324.418 7.06332 323.628 5.40609C321.909 1.80281 318.621 0.630052 314.933 2.30776ZM86.862 4.06434C85.161 5.9725 87.0209 12.2767 96.3921 36.3639L99.0627 43.2283L95.9466 51.7275C91.6581 63.4233 88.0791 76.5613 88.0791 80.6061C88.0791 84.4029 90.3899 87.3691 93.3472 87.3691C95.8489 87.3691 95.9009 87.2514 98.6382 75.4336C101.244 64.1833 103.524 57.7962 105.628 55.847C107.747 53.8856 108.082 55.9259 107.2 65.3878C105.861 79.7221 106.094 85.1015 108.105 86.309C111.027 88.0625 114.344 87.5443 115.874 85.0922C117 83.2906 117.296 79.7703 117.296 68.1922C117.296 56.186 117.53 53.5691 118.603 53.5691C121.597 53.5691 126.046 63.7931 127.707 74.4893C128.906 82.2141 130.225 83.9666 134.034 82.8942C137.861 81.8167 139.288 78.4859 138.215 73.1332C136.896 66.5504 131.462 53.9133 127.789 48.8852C126.035 46.4834 124.603 43.9043 124.606 43.1546C124.609 42.4038 127.691 36.7551 131.454 30.6015C139.046 18.1856 139.89 14.6376 136.183 10.7291C132.479 6.82673 131.209 7.76698 127.302 17.2986C121.204 32.1778 117.597 36.2543 118.548 27.1948C120.201 11.4614 120.212 9.87077 118.674 8.14595C116.896 6.15072 112.442 5.909 111.098 7.7342C110.58 8.43888 109.869 15.2368 109.52 22.8418C109.171 30.4468 108.551 37.0696 108.143 37.5592C106.987 38.945 104.052 31.5509 100.87 19.2334C97.5279 6.30333 95.6736 3.38117 90.8108 3.38117C88.9738 3.38117 87.1962 3.68844 86.862 4.06434ZM419.278 4.42897C416.937 6.0442 415.304 10.1248 412.246 21.9947C407.878 38.9521 400.805 80.7904 401.809 83.7269C402.501 85.7498 409.71 85.9198 411.169 83.9471C411.728 83.1912 412.838 78.7143 413.636 73.9977C415.699 61.7938 415.722 61.7631 422.702 61.7631C429.983 61.7631 430.463 62.5374 430.463 74.2711C430.463 84.6641 431.712 87.3691 436.509 87.3691C443.588 87.3691 444.231 85.4559 441.844 71.4934C441.073 66.9867 439.862 59.6121 439.153 55.1055C433.811 21.1651 431.188 6.82775 430.093 5.59968C428.46 3.76833 421.351 2.9981 419.278 4.42897ZM263.667 7.48531C262.571 7.98105 261.29 9.21936 260.824 10.2375C260.312 11.3549 260.262 21.2122 260.699 35.1327C261.097 47.8077 261.459 62.5568 261.502 67.9085C261.546 73.2602 261.942 78.278 262.383 79.0594C262.825 79.843 265.339 80.7116 267.991 80.9973L272.798 81.5156L272.179 69.2216C271.465 55.0563 271.789 54.2738 278.149 54.7869L282.096 55.1055L283.01 81.7143L285.588 83.097C287.006 83.858 289.083 84.2227 290.204 83.9072L292.242 83.3326L292.14 10.0388L288.768 9.72431C286.321 9.4959 284.881 9.98754 283.518 11.5167C281.796 13.4485 281.64 14.8527 281.64 28.4393C281.64 44.8108 281.433 45.3752 275.42 45.3752C270.569 45.3752 270.201 43.7947 270.488 24.2102L270.749 6.4539L268.206 6.51843C266.807 6.55428 264.765 6.98958 263.667 7.48531ZM25.4219 10.092C24.088 12.3761 23.9748 14.6878 24.5226 28.471C25.1197 43.4957 25.0649 44.2884 23.3494 45.3188C20.9098 46.7825 14.3917 46.6893 13.559 45.1785C13.1892 44.5066 12.9884 37.1976 13.1126 28.935C13.3116 15.8001 13.1399 13.6902 11.7467 12.1272C10.5972 10.8377 9.28699 10.4986 7.03638 10.9083C0.951084 12.0166 1.18117 10.4925 1.50529 47.5824C1.78468 79.5767 1.88511 81.2657 3.62442 83.1974C5.65498 85.4538 12.6031 86.4125 14.1707 84.6539C14.8309 83.9133 14.7825 80.0734 14.0137 72.1151C12.7136 58.6719 12.8898 58.2489 20.2497 57.1632C25.8027 56.3438 25.3279 55.3206 26.8946 71.4749C28.098 83.8785 29.4767 86.8437 33.6072 85.9168C35.1913 85.5614 37.2739 84.3886 38.2353 83.309C39.9399 81.3968 39.9445 81.0322 38.4234 68.7392C37.5651 61.804 36.3609 45.621 35.7464 32.778C34.544 7.63588 34.5166 7.52628 29.4383 7.4935C27.7666 7.48326 26.4472 8.33748 25.4219 10.092ZM58.3008 8.9469C54.9537 10.5816 55.2394 9.46825 51.5727 35.1327C50.0023 46.1177 47.9197 60.4797 46.9428 67.0492C44.7187 82.0082 44.7178 83.9543 46.9328 85.2848C49.4947 86.8232 54.8094 86.5846 56.0749 84.8741C56.6738 84.0649 57.5421 78.9089 58.005 73.4169C58.5081 67.4517 59.3097 63.1007 59.9963 62.6121C61.5064 61.5367 72.3175 61.5234 72.9092 62.5968C73.1612 63.0546 73.7912 68.055 74.3088 73.7088C75.472 86.434 75.7825 87.3691 78.8429 87.3691C82.5361 87.3691 85.34 84.6877 85.34 81.1551C85.34 70.4015 74.475 11.824 71.9569 8.99812C70.2395 7.07254 62.2022 7.04181 58.3008 8.9469ZM216.887 8.77381C215.552 9.53789 214.226 11.6601 213.537 14.1357C212.909 16.3891 210.734 24.2317 208.7 31.5643C206.667 38.8968 204.419 45.792 203.704 46.888C202.538 48.6773 202.351 47.8948 201.867 39.1897C200.126 7.89705 200.322 9.64339 198.487 8.98992C197.536 8.65192 195.621 8.98992 194.233 9.74172L191.707 11.1091L192.019 42.326C192.229 63.2308 192.683 74.3879 193.395 76.1025C194.212 78.067 195.272 78.7378 197.947 78.9857C202.845 79.4384 205.39 77.2271 206.704 71.3735C208.493 63.4008 215.961 40.8828 217.351 39.2666C218.467 37.9699 218.637 38.8712 218.609 45.9241C218.591 50.4103 218.2 60.2083 217.739 67.6965C217.279 75.1847 217.127 81.9652 217.4 82.7652C218.178 85.0369 220.538 85.3801 225.489 83.9379C230.893 82.3647 230.535 85.8502 228.866 51.0085C227.1 14.1245 226.937 12.5942 224.495 9.85439C222.122 7.19238 220.141 6.91071 216.887 8.77381ZM388.166 11.0312C386.893 12.458 386.638 14.9756 386.638 26.0548C386.638 33.3751 386.241 40.1945 385.758 41.2085C384.65 43.5315 376.156 45.0443 374.241 43.2601C373.211 42.3014 373.078 39.4489 373.55 28.3983C373.994 18.0207 373.854 14.3447 372.971 13.1494C371.57 11.2556 364.677 11.0149 363.082 12.8042C361.479 14.6018 361.554 76.6177 363.163 80.1994C364.133 82.3606 365.053 82.8082 369.057 83.0683L373.801 83.3766L374.312 56.1297L378.42 55.4465C385.663 54.243 385.543 54.0239 385.881 69.0157C386.221 84.11 386.398 84.4818 393.029 84.0516L397.137 83.7843L397.031 75.5903C396.973 71.0837 397.316 55.2386 397.795 40.3789C398.76 10.3849 398.857 10.9841 392.896 9.89945C390.594 9.48054 389.265 9.79806 388.166 11.0312ZM627.314 11.8312C626.591 13.0982 625.514 16.1985 624.92 18.7192C623.645 24.1457 619.519 33.5861 616.851 37.1843L614.955 39.7418L614.924 27.2676C614.888 12.4621 614.211 10.9483 608.117 12.0319C601.641 13.1842 601.531 13.5959 603.266 30.2542C605.426 50.9993 605.79 59.8108 604.968 71.4934C604.572 77.1267 604.593 82.5224 605.016 83.4832C605.959 85.6259 611.054 87.321 614.398 86.604C618.492 85.7263 618.988 82.8195 617.358 69.2288C615.756 55.8716 616.176 53.9983 620.048 57.241C623.286 59.9532 627.269 68.0775 628.979 75.4562C630.66 82.715 631.718 84.2964 634.889 84.2964C638.539 84.2964 641.371 81.6078 641.371 78.1417C641.371 74.4729 635.198 61.0799 630.104 53.6961C628.015 50.6674 625.744 47.3274 625.056 46.2744C623.704 44.2024 623.073 45.6527 634.402 24.7776C636.728 20.4901 638.632 16.26 638.632 15.3771C638.632 13.0162 634.215 9.52663 631.226 9.52663C629.534 9.52663 628.173 10.3286 627.314 11.8312ZM515.374 11.8732C513.499 12.9343 512.26 15.9077 508.444 28.5018C499.952 56.5271 498.241 57.156 500.244 31.5192C501.212 19.1289 501.316 13.8561 500.612 12.9036C499.221 11.0241 493.031 11.2238 491.572 13.1965C490.667 14.4215 490.276 21.9128 489.975 43.8378C489.756 59.7985 489.846 74.4626 490.174 76.4241C490.881 80.6552 493.754 81.9509 498.516 80.1871C501.467 79.0943 501.706 78.5729 506.238 63.3179C510.78 48.0331 512.441 44.4871 514.421 45.8596C515.587 46.6678 515.599 56.649 514.454 70.9085C513.472 83.1349 513.864 84.2964 518.963 84.2964C525.859 84.2964 525.608 85.7467 525.266 47.7862C524.936 11.2095 524.842 10.5355 520.056 10.5662C518.736 10.5744 516.629 11.1623 515.374 11.8732ZM449.865 12.7223C448.574 14.2044 448.285 44.0242 449.326 68.3551C449.895 81.6764 450.04 82.4978 451.995 83.4975C454.569 84.8137 460.246 83.7116 460.912 81.7665C461.365 80.4422 460.698 64.8173 459.152 40.51L458.549 31.0357L462.082 31.047C464.025 31.0532 467.155 31.344 469.038 31.6933L472.462 32.3283L472.432 41.6684C472.415 46.805 472.032 58.1423 471.58 66.8617C471.014 77.7802 471.058 83.1206 471.721 84.0178C472.788 85.4589 479.553 85.7662 481.393 84.4562C483.026 83.2937 483.811 15.2491 482.207 13.8018C481.618 13.2692 474.356 12.5143 466.071 12.1221C454.357 11.569 450.752 11.7021 449.865 12.7223ZM578.696 13.2784C575.706 13.98 574.262 16.3839 570.751 26.5045C566.647 38.3335 565.236 47.4912 565.803 58.6412C566.613 74.5835 573.069 85.3207 581.844 85.3207C587.712 85.3207 594.865 76.9075 597.05 67.4374C599.77 55.6504 598.286 29.3294 594.429 20.9633C591.992 15.6772 584.358 11.9479 578.696 13.2784ZM531.581 15.3546C529.655 15.9179 528.84 19.0838 529.234 24.4714L529.526 28.4669L534.547 29.3355C537.309 29.8128 539.921 30.5789 540.352 31.0368C540.787 31.4997 540.671 41.9296 540.091 54.4981C539.382 69.8669 539.344 77.7474 539.973 79.0666C542.002 83.3183 549.902 83.8099 551.283 79.7713C551.586 78.8864 551.577 67.5582 551.263 54.5985L550.691 31.0357H557.62C565.259 31.0357 567.416 29.7647 567.416 25.2621C567.416 21.6363 565.974 19.0726 563.56 18.4089C561.698 17.8967 548.266 16.2907 537.286 15.2685C535.027 15.0586 532.459 15.0965 531.581 15.3546ZM63.327 29.6356C62.6459 30.5554 61.6105 35.5096 61.0244 40.6462C59.7096 52.1782 60.1524 53.0478 66.7015 51.7808L71.1881 50.9132L70.969 45.8391C70.5444 35.9869 67.9999 27.963 65.3 27.963C64.8956 27.963 64.0072 28.7158 63.327 29.6356ZM315.089 30.2041C313.725 32.5772 311.067 49.0256 311.898 49.9566C312.471 50.6009 315.104 50.861 318.976 50.6582L322.074 50.4964L321.579 42.4018C320.852 30.5113 317.998 25.1453 315.089 30.2041ZM420.982 31.2918C420.263 32.5598 419.014 37.259 418.204 41.735C416.362 51.9324 416.978 53.0652 423.694 51.8105C428.069 50.9931 428.188 50.8764 428.466 47.1092C428.844 41.9921 427.029 32.4513 425.311 30.5247C423.44 28.425 422.513 28.5888 420.982 31.2918ZM579.059 36.8504C576.526 42.8104 576.09 44.9685 576.09 51.5206C576.09 61.1895 578.328 66.3721 582.503 66.3721C584.639 66.3721 585.551 65.5947 587.142 62.4124C590.822 55.0512 590.704 43.6227 586.851 34.4434C584.247 28.2396 582.486 28.7834 579.059 36.8504Z" fill="#DE0004"/>
<path d="M485.095 109.793C481.815 107.824 480.815 105.911 481.738 103.366C482.116 102.32 482.92 102.15 485.303 102.611C489.198 103.365 493.308 103.368 497.125 102.621C502.597 101.551 502.531 107.068 497.036 110.038C492.828 112.313 489.17 112.238 485.095 109.793Z" fill="#DE0004"/>
<path d="M399.54 114.843L402.419 113.319C404.003 112.481 406.086 111.794 407.049 111.794C410.529 111.79 410.936 113.603 410.376 126.643C409.956 136.424 410.067 138.813 410.94 138.813C411.537 138.813 414.161 135.671 416.771 131.83C426.783 117.096 429.521 114.851 434.858 117C439.387 118.825 437.256 123.205 425.156 136.938C421.247 141.376 418.048 145.345 418.048 145.761C418.048 146.176 419.508 148.125 421.292 150.092C428.666 158.227 437.871 178.465 436.612 183.78C436.055 186.131 430.816 189.369 427.57 189.369C424.911 189.369 424.144 187.681 423.411 180.217C422.278 168.681 414.788 152.765 411.504 154.915C410.32 155.69 410.407 172.177 411.635 179.762C412.813 187.047 412.443 187.699 406.785 188.274C403.464 188.613 402.564 188.368 401.185 186.753C399.598 184.898 399.54 183.598 399.54 149.836V114.843Z" fill="#DE0004"/>
<path d="M335.458 126.484C339.202 120.421 342.752 115.255 343.347 115.003C346.523 113.657 352.242 115.041 352.242 117.157C352.242 118.919 343.254 133.983 338.28 140.557C335.56 144.152 333.332 147.75 333.328 148.552C333.325 149.355 334.199 151.12 335.27 152.475C340.469 159.05 349.996 176.265 351.489 181.781C352.444 185.312 350.046 187.63 345.456 187.613C343.532 187.605 341.536 187.311 341.019 186.959C340.5 186.607 339.091 183.18 337.886 179.345C334.479 168.5 327.093 156.246 324.85 157.716C324.324 158.06 324.223 163.016 324.57 171.536C325.169 186.255 325.294 185.883 319.729 185.883C318.028 185.883 316.157 185.127 314.871 183.921C312.93 182.1 312.718 181.121 311.898 170.193C311.412 163.721 311.229 154.699 311.491 150.145C312.473 133.074 313.886 119.528 314.828 118.162C315.444 117.27 317.445 116.607 320.276 116.358C327.059 115.762 327.333 116.423 325.734 129.5C325.019 135.342 324.582 140.282 324.761 140.479C325.573 141.37 329.178 136.654 335.458 126.484Z" fill="#DE0004"/>
<path d="M492.911 132.306C494.888 124.724 496.63 119.711 497.53 119.014C498.326 118.397 500.562 117.894 502.501 117.894C508.055 117.894 508.183 118.394 509.671 145.787C510.39 159.051 511.516 172.093 512.19 174.987C513.789 181.849 513.767 184.959 512.106 186.903C510.102 189.251 505.62 188.978 503.148 186.358C501.156 184.247 501.129 184.008 501.12 168.707C501.109 150.434 500.687 146.658 498.655 146.658C496.416 146.658 492.583 157.784 488.293 176.73C486.581 184.286 485.364 185.883 481.318 185.883C475.28 185.883 475.089 185.064 474.452 156.538C474.214 145.911 473.605 134.384 473.099 130.922C471.978 123.268 472.7 121.093 476.84 119.645C481.666 117.957 481.969 118.729 482.567 134.269C483.238 151.715 483.758 156.424 484.966 156.005C486.221 155.57 489.029 147.193 492.911 132.306Z" fill="#DE0004"/>
<path fill-rule="evenodd" clip-rule="evenodd" d="M449.306 117.637C445.356 119.168 442.327 124.273 439.324 134.466C437.669 140.078 437.398 142.824 437.39 154.067C437.378 167.809 437.771 169.868 441.676 176.544C446.769 185.25 457.649 185.561 463.293 177.163C469.246 168.303 470.563 142.596 465.76 128.994C462.742 120.446 455.306 115.314 449.306 117.637ZM447.124 162.454C444.996 154.698 446.938 139.545 450.611 135.244C451.391 134.33 452.527 133.583 453.136 133.583C457.746 133.583 461.042 146.574 459.23 157.6C458.057 164.739 456.474 168.204 453.794 169.497C450.971 170.86 448.801 168.569 447.124 162.454Z" fill="#DE0004"/>
<path fill-rule="evenodd" clip-rule="evenodd" d="M370.384 114.713C368.826 115.332 366.907 116.79 366.121 117.956C363.401 121.983 356.346 159.932 355.072 177.388C354.416 186.372 354.995 187.626 359.8 187.626C365.839 187.626 366.224 186.985 366.238 176.918C366.255 164.555 366.741 163.724 374.139 163.402C378.342 163.219 380.216 163.485 380.904 164.363C381.428 165.032 382.084 169.853 382.364 175.077C382.95 186.025 383.93 188.497 387.686 188.497C390.32 188.497 393.369 187.149 394.387 185.534C395.555 183.68 394.955 179.963 388.816 151.016C385.41 134.956 382.408 120.758 382.144 119.464C381.166 114.65 375.899 112.523 370.384 114.713ZM368.159 154.228C367.2 153.21 369.956 137.382 371.539 134.824C373.191 132.151 375.311 132.364 376.649 135.337C378.325 139.061 380.655 152.639 379.775 153.556C378.78 154.591 369.035 155.155 368.159 154.228Z" fill="#DE0004"/>
<path d="M258.301 105.386C261.061 105.856 262.351 105.548 264.229 103.976C269.185 99.8215 273.313 104.481 269.005 109.366C265.658 113.161 262.197 114.211 257.954 112.719C250.955 110.258 251.241 104.183 258.301 105.386Z" fill="#DE0004"/>
<path d="M30.1846 125.069C32.7131 117.381 34.1701 114.293 35.5549 113.697C36.5999 113.246 39.0023 112.85 40.8941 112.816C43.8227 112.764 44.6019 113.224 46.1429 115.917C47.8502 118.9 47.9507 120.851 47.9169 150.219C47.8812 180.589 47.3733 188.697 45.3719 190.829C43.8236 192.478 36.1742 192.309 35.0982 190.602C34.5254 189.694 34.4048 185.278 34.7794 178.925C36.9297 142.423 36.8694 140.228 33.8495 145.137C31.7339 148.578 24.1201 167.274 21.081 176.492C18.1268 185.452 16.2195 187.688 11.548 187.668C7.13688 187.648 6.36225 187 4.03017 181.384C2.27539 177.159 2.11462 175.548 2.62434 167.308C2.94131 162.191 3.61636 150.027 4.12425 140.278C4.63214 130.528 5.4369 121.464 5.91099 120.135C6.51936 118.431 7.88411 117.399 10.5368 116.638C17.1622 114.738 17.2216 114.957 16.4597 138.271C15.8011 158.417 16.1958 161.517 18.6941 155.814C21.6382 149.095 27.0194 134.696 30.1846 125.069Z" fill="#DE0004"/>
<path d="M120.124 124.509C120.124 121.961 123.631 117.6 126.897 116.084C133.305 113.112 142.318 115.429 146.529 121.13C151.42 127.755 151.232 136.877 146.037 144.92C142.988 149.643 142.908 149.967 144.491 151.243C145.408 151.984 146.412 152.604 146.721 152.62C147.032 152.638 148.411 154.465 149.789 156.681C152.717 161.396 153.755 169.49 152.21 175.571C150.909 180.693 145.416 187.471 140.728 189.74C133.897 193.045 124.374 191.533 121.978 186.763C120.328 183.479 120.888 179.413 123.328 176.972C125.564 174.734 125.695 174.718 128.84 176.315C132.668 178.26 133.875 178.329 137.049 176.789C142.236 174.271 143.81 164.671 139.839 159.761C137.847 157.296 137.116 157.05 132.343 157.226C129.434 157.334 126.523 156.952 125.873 156.377C124.361 155.04 124.331 147.353 125.833 146.094C126.461 145.567 128.581 144.874 130.543 144.551C134.879 143.841 139.085 139.818 139.813 135.685C140.563 131.427 138.929 127.531 136.075 126.768C133.745 126.145 132.373 126.651 127.15 130.057C124.626 131.703 124.548 131.685 122.355 129C121.128 127.498 120.124 125.477 120.124 124.509Z" fill="#DE0004"/>
<path d="M102.761 126.071C102.765 122.423 103.194 118.591 103.713 117.556C104.974 115.047 109.16 115.114 112.236 117.691C115.163 120.143 115.255 122.415 113.232 142.233C110.161 172.315 104.189 187.336 93.1765 192.678C83.0882 197.573 70.9765 191.042 75.7503 183.281C77.21 180.908 77.7087 180.733 81.348 181.314C88.4886 182.455 94.6837 176.916 97.3511 167.009C97.9878 164.647 97.7274 163.901 95.6392 162.102C87.9232 155.452 81.9427 147.938 80.028 142.486C77.3972 134.995 75.7768 122.382 77.1049 119.737C78.297 117.365 82.1491 116.356 85.8688 117.441L88.6092 118.241L89.1655 127.91C89.6113 135.668 90.1995 138.582 92.1416 142.665C94.723 148.092 98.5751 151.669 100.096 150.048C101.202 148.87 102.751 134.927 102.761 126.071Z" fill="#DE0004"/>
<path d="M264.575 138.055C268.943 121.089 270.212 117.829 272.901 116.678C275.605 115.519 275.82 115.516 278.496 116.6C282.408 118.186 282.94 120.771 283.702 141.899C284.099 152.898 284.704 166.773 285.045 172.733C285.632 182.935 285.555 183.691 283.738 185.626C281.308 188.215 277.784 188.262 275.414 185.736C273.717 183.929 273.586 182.481 273.573 165.545C273.552 138.687 272.053 138.296 264.937 163.297C262.567 171.625 260.223 179.86 259.729 181.598C258.017 187.623 251.616 189.667 247.66 185.452C245.64 183.301 245.543 182.43 244.935 160.882C244.588 148.595 244.05 134.933 243.739 130.523L243.174 122.506L246.635 120.966C248.538 120.118 251.001 119.667 252.107 119.962C254.025 120.475 254.145 121.141 254.714 134.387C255.042 142.023 255.312 151.667 255.314 155.814C255.315 159.961 255.699 163.355 256.165 163.355C257.383 163.355 260.399 154.282 264.575 138.055Z" fill="#DE0004"/>
<path d="M158.37 121.307C159.015 119.536 160.318 118.387 162.335 117.81C163.989 117.338 166.163 117.265 167.167 117.647C168.881 118.3 168.994 119.224 168.994 132.496C168.994 140.281 169.339 147.014 169.759 147.461C170.872 148.642 181.324 148.027 182.834 146.691C183.878 145.768 184.004 143.211 183.501 133.077C182.796 118.846 183.198 117.62 188.571 117.62C194.948 117.62 194.806 117.006 195.406 147.299C195.702 162.285 196.197 177.977 196.504 182.171C196.834 186.674 196.698 190.185 196.173 190.745C194.884 192.118 187.948 192.014 186.346 190.598C185.258 189.636 184.98 186.729 184.98 176.309C184.98 169.114 184.554 162.38 184.035 161.345C183.298 159.878 182.104 159.463 178.613 159.463C176.151 159.463 173.083 159.89 171.794 160.412C169.783 161.227 169.451 161.949 169.454 165.521C169.456 167.808 170.094 173.561 170.873 178.304C172.191 186.331 172.182 187.055 170.728 188.765C168.54 191.341 162.955 191.224 160.687 188.554C159.09 186.674 158.885 183.955 158.179 155.226C157.652 133.784 157.712 123.115 158.37 121.307Z" fill="#DE0004"/>
<path fill-rule="evenodd" clip-rule="evenodd" d="M218.133 115.311C214.737 117.094 214.62 117.424 210.125 137.761C205.978 156.524 203.436 171.249 202.682 180.88C202.105 188.247 202.151 188.482 204.453 190.088C207.095 191.933 209.529 191.479 211.89 188.7C213.069 187.311 213.59 184.399 213.97 177.05C214.249 171.661 214.931 166.873 215.485 166.411C216.041 165.949 218.39 165.307 220.707 164.986C227.183 164.089 227.791 165.025 228.492 176.979C229.242 189.772 229.82 191.575 233.168 191.575C234.576 191.575 236.693 190.855 237.873 189.975C238.249 189.695 238.57 189.47 238.83 189.189C240.343 187.552 239.78 183.997 235.724 156.4C229.629 114.921 229.308 113.717 224.377 113.75C222.554 113.762 219.744 114.465 218.133 115.311ZM217.325 145.395C218.093 140.705 219.196 136.259 219.776 135.515C221.25 133.623 222.187 133.822 223.701 136.352C225.202 138.858 227.251 151.795 226.484 153.923C225.745 155.975 218.799 156.984 217.194 155.272C216.114 154.123 216.134 152.664 217.325 145.395Z" fill="#DE0004"/>
<path d="M210.996 217.364C207.759 216.474 208.088 212.114 211.495 210.751C216.01 208.944 227.551 213.934 227.551 217.693C227.551 218.765 226.274 218.882 220.029 218.382C215.892 218.051 211.828 217.593 210.996 217.364Z" fill="#DE0004"/>
<path d="M84.7339 223.906C85.1022 222.471 86.1032 221.45 87.3769 221.21C91.0028 220.527 92.4533 220.564 94.697 221.398L96.8961 222.216L97.5161 245.236C97.857 257.898 98.674 272.468 99.3313 277.614C99.9886 282.761 100.23 287.773 99.8674 288.754C98.1725 293.337 90.6965 296.106 87.7616 293.237C86.5144 292.018 86.2382 289.923 86.2491 281.784C86.2573 276.304 85.786 261.56 85.2016 249.019C84.6181 236.478 84.4075 225.177 84.7339 223.906Z" fill="#DE0004"/>
<path d="M171.952 225.9C172.51 224.88 173.864 223.692 174.959 223.261C177.789 222.146 190.876 222.193 195.076 223.333L198.612 224.294L198 230.141C197.028 239.415 196.865 239.555 187.905 238.826C178.649 238.072 178.319 238.425 178.319 249.039V256.227L184.017 256.24C190.896 256.257 191.908 256.799 192.576 260.823C193.298 265.171 191.3 266.921 185.612 266.921C182.802 266.921 180.661 267.432 179.751 268.321C177.147 270.867 178.396 278.421 181.708 280.153C182.789 280.718 185.95 280.684 190.817 280.056C199.859 278.89 201.111 279.525 201.111 285.277C201.111 290.006 199.447 291.303 191.599 292.695C179.359 294.866 170.993 293.359 169.162 288.653C167.225 283.671 169.603 230.191 171.952 225.9Z" fill="#DE0004"/>
<path d="M3.48094 227.136C4.09908 226.764 7.48428 226.197 11.0026 225.878C14.5218 225.559 23.2241 225.239 30.341 225.168C42.7549 225.042 43.3393 225.117 44.7005 227.018C45.4809 228.107 46.12 230.69 46.12 232.76C46.12 237.895 43.9492 239.295 35.9854 239.295C31.9547 239.295 29.7611 239.67 29.4794 240.409C28.7728 242.264 30.6418 273.075 31.9519 281.179C32.9731 287.495 32.9749 289.066 31.9602 290.635C30.0054 293.66 21.8 294.708 19.2892 292.255C18.0556 291.048 17.8569 287.398 17.8569 265.906V240.957L10.9652 241.208C5.69825 241.399 3.8748 241.151 3.22931 240.154C1.95382 238.182 2.15166 227.94 3.48094 227.136Z" fill="#DE0004"/>
<path d="M206.174 230.46C205.24 228.982 206.459 226.099 208.22 225.623C209.074 225.392 211.619 225.266 213.875 225.343L217.978 225.482V233.057C217.978 237.223 217.773 245.807 217.522 252.131C217.199 260.3 217.367 263.732 218.107 263.981C218.748 264.196 221.475 257.366 225.227 246.145C228.572 236.142 231.776 227.502 232.348 226.943C232.918 226.385 234.881 225.928 236.709 225.928C242.623 225.928 242.766 226.46 243.415 250.88C243.734 262.888 244.239 276.558 244.537 281.258C245.077 289.785 245.073 289.808 242.573 291.729C241.196 292.789 238.944 293.655 237.569 293.655C232.924 293.655 232.566 292.229 232.566 273.765C232.566 261.123 232.28 256.741 231.439 256.461C230.05 256 229.717 256.794 223.85 274.576C218.461 290.902 217.198 293.061 213.029 293.061C207.048 293.061 207.082 293.245 206.932 260.75C206.857 244.631 206.516 231.001 206.174 230.46Z" fill="#DE0004"/>
<path fill-rule="evenodd" clip-rule="evenodd" d="M133.693 217.297C130.779 219.291 130.869 225.677 130.513 256.84C130.179 286.172 129.841 294.011 132.486 295.198C133.659 295.724 135.418 294.943 138.023 294.149C145.517 291.862 145.622 291.718 145.087 284.391C144.832 280.909 144.392 273.596 144.107 268.142L143.59 258.223L147.008 257.596C154.178 256.281 159.782 252.064 163.476 245.204C165.47 241.5 165.484 231.77 163.501 228.089C161.636 224.625 155.293 218.984 151.551 217.46C147.567 215.839 141.063 215.21 137.409 216.093C135.807 216.48 134.604 216.675 133.693 217.297ZM143.502 244.831C142.08 243.441 142.264 228.925 143.726 227.203C146.753 223.638 153.702 227.9 153.702 233.322C153.702 239.964 146.657 247.914 143.502 244.831Z" fill="#DE0004"/>
<path fill-rule="evenodd" clip-rule="evenodd" d="M52.2175 223.477C50.8171 224.486 50.6694 227.494 50.6494 255.464C50.6248 288.837 50.9439 293.254 53.4757 294.578C59.5459 297.754 73.1223 290.635 78.7083 281.346C80.9493 277.621 81.221 276.301 81.2173 269.149C81.2146 263.335 80.7943 260.378 79.6875 258.4C77.2277 254.004 72.4594 250.025 68.4953 249.063C65.8104 248.411 64.242 248.084 63.3478 247.127C62.0354 245.722 62.1753 242.961 62.3695 235.82L62.6648 225L59.4356 223.682C55.4979 222.074 54.2151 222.037 52.2175 223.477ZM63.8127 276.314C62.5391 274.611 61.1113 262.37 61.941 260.257C62.4935 258.85 66.7603 258.415 68.5481 259.582C73.3155 262.694 72.247 274.025 66.9244 276.81C65.3106 277.654 64.7482 277.564 63.8127 276.314Z" fill="#DE0004"/>
<path fill-rule="evenodd" clip-rule="evenodd" d="M251.574 228.374C251.901 227.101 252.887 225.875 253.764 225.651C254.641 225.427 258.487 225.197 262.309 225.14C270.338 225.021 275.98 226.647 279.846 230.196C286.872 236.644 286.524 246.532 278.999 254.208L275.239 258.044L277.607 258.545C286.686 260.464 291.371 265.818 291.371 274.272C291.371 285.686 280.369 293.655 264.607 293.655C255.571 293.655 254.366 292.808 253.054 285.525C251.993 279.648 250.75 231.586 251.574 228.374ZM264.248 238.103C263.493 238.401 263.108 240.597 263.108 244.607C263.108 251.136 264.139 252.933 267.211 251.761C269.647 250.831 273.69 246.474 274.478 243.93C275.536 240.51 272.836 237.5 268.785 237.583C266.916 237.622 264.875 237.856 264.248 238.103ZM265.172 275.814C264.725 270.992 264.894 270.038 266.387 268.944C268.405 267.464 275.11 267.866 277.239 269.594C280.872 272.541 277.308 280.534 271.272 282.978C267.299 284.587 265.826 282.857 265.172 275.814Z" fill="#DE0004"/>
<path fill-rule="evenodd" clip-rule="evenodd" d="M146.296 2.93562C144.921 3.77243 143.609 5.48292 143.381 6.73557C143.152 7.98924 142.782 24.7725 142.559 44.0324C142.095 84.0393 141.974 83.2722 148.793 83.2722C150.995 83.2722 153.076 82.7621 153.42 82.1394C154.139 80.8345 154.103 72.8669 153.28 50.4964C152.882 39.6793 152.994 34.9473 153.63 35.6448C154.144 36.2082 155.88 40.2119 157.488 44.5414C159.096 48.8709 161.012 52.6719 161.745 52.9873C164.189 54.0392 166.43 51.5964 168.016 46.1536C173.489 27.37 175.227 32.5844 173.648 63.0423C172.769 80.0079 172.817 81.3599 174.359 83.2711C176.647 86.1073 182.388 86.0448 184.963 83.1564C186.53 81.3978 186.77 80.2967 186.247 77.267C185.894 75.2185 185.334 58.4056 185.004 39.9067L184.403 6.27056L182.247 4.31426C177.383 -0.103307 174.009 2.98274 169.009 16.4259C164.544 28.4342 164.268 28.89 162.66 26.9388C161.964 26.0938 159.61 20.6417 157.43 14.823C154.042 5.78711 151.265 1.20465 149.276 1.37365C149.011 1.39618 147.67 2.09882 146.296 2.93562ZM314.933 2.30776C313.912 2.77175 312.529 3.89124 311.861 4.79462C309.73 7.67479 297.161 70.802 297.161 78.6262C297.161 81.6774 297.58 82.4774 299.637 83.3541C302.713 84.6662 305.963 83.8273 307.109 81.4244C307.587 80.4217 308.45 75.703 309.026 70.9382C309.602 66.1734 310.394 61.9054 310.786 61.4537C311.178 61.0031 314.127 60.7726 317.341 60.9416L323.183 61.2509L323.639 71.8324C324.156 83.8201 324.981 85.3207 331.053 85.3207C335.889 85.3207 337.614 83.0653 336.836 77.7556C334.853 64.2212 324.418 7.06332 323.628 5.40609C321.909 1.80281 318.621 0.630052 314.933 2.30776ZM86.862 4.06434C85.161 5.9725 87.0209 12.2767 96.3921 36.3639L99.0627 43.2283L95.9466 51.7275C91.6581 63.4233 88.0791 76.5613 88.0791 80.6061C88.0791 84.4029 90.3899 87.3691 93.3472 87.3691C95.8489 87.3691 95.9009 87.2514 98.6382 75.4336C101.244 64.1833 103.524 57.7962 105.628 55.847C107.747 53.8856 108.082 55.9259 107.2 65.3878C105.861 79.7221 106.094 85.1015 108.105 86.309C111.027 88.0625 114.344 87.5443 115.874 85.0922C117 83.2906 117.296 79.7703 117.296 68.1922C117.296 56.186 117.53 53.5691 118.603 53.5691C121.597 53.5691 126.046 63.7931 127.707 74.4893C128.906 82.2141 130.225 83.9666 134.034 82.8942C137.861 81.8167 139.288 78.4859 138.215 73.1332C136.896 66.5504 131.462 53.9133 127.789 48.8852C126.035 46.4834 124.603 43.9043 124.606 43.1546C124.609 42.4038 127.691 36.7551 131.454 30.6015C139.046 18.1856 139.89 14.6376 136.183 10.7291C132.479 6.82673 131.209 7.76698 127.302 17.2986C121.204 32.1778 117.597 36.2543 118.548 27.1948C120.201 11.4614 120.212 9.87077 118.674 8.14595C116.896 6.15072 112.442 5.909 111.098 7.7342C110.58 8.43888 109.869 15.2368 109.52 22.8418C109.171 30.4468 108.551 37.0696 108.143 37.5592C106.987 38.945 104.052 31.5509 100.87 19.2334C97.5279 6.30333 95.6736 3.38117 90.8108 3.38117C88.9738 3.38117 87.1962 3.68844 86.862 4.06434ZM419.278 4.42897C416.937 6.0442 415.304 10.1248 412.246 21.9947C407.878 38.9521 400.805 80.7904 401.809 83.7269C402.501 85.7498 409.71 85.9198 411.169 83.9471C411.728 83.1912 412.838 78.7143 413.636 73.9977C415.699 61.7938 415.722 61.7631 422.702 61.7631C429.983 61.7631 430.463 62.5374 430.463 74.2711C430.463 84.6641 431.712 87.3691 436.509 87.3691C443.588 87.3691 444.231 85.4559 441.844 71.4934C441.073 66.9867 439.862 59.6121 439.153 55.1055C433.811 21.1651 431.188 6.82775 430.093 5.59968C428.46 3.76833 421.351 2.9981 419.278 4.42897ZM263.667 7.48531C262.571 7.98105 261.29 9.21936 260.824 10.2375C260.312 11.3549 260.262 21.2122 260.699 35.1327C261.097 47.8077 261.459 62.5568 261.502 67.9085C261.546 73.2602 261.942 78.278 262.383 79.0594C262.825 79.843 265.339 80.7116 267.991 80.9973L272.798 81.5156L272.179 69.2216C271.465 55.0563 271.789 54.2738 278.149 54.7869L282.096 55.1055L283.01 81.7143L285.588 83.097C287.006 83.858 289.083 84.2227 290.204 83.9072L292.242 83.3326L292.14 10.0388L288.768 9.72431C286.321 9.4959 284.881 9.98754 283.518 11.5167C281.796 13.4485 281.64 14.8527 281.64 28.4393C281.64 44.8108 281.433 45.3752 275.42 45.3752C270.569 45.3752 270.201 43.7947 270.488 24.2102L270.749 6.4539L268.206 6.51843C266.807 6.55428 264.765 6.98958 263.667 7.48531ZM25.4219 10.092C24.088 12.3761 23.9748 14.6878 24.5226 28.471C25.1197 43.4957 25.0649 44.2884 23.3494 45.3188C20.9098 46.7825 14.3917 46.6893 13.559 45.1785C13.1892 44.5066 12.9884 37.1976 13.1126 28.935C13.3116 15.8001 13.1399 13.6902 11.7467 12.1272C10.5972 10.8377 9.28699 10.4986 7.03638 10.9083C0.951084 12.0166 1.18117 10.4925 1.50529 47.5824C1.78468 79.5767 1.88511 81.2657 3.62442 83.1974C5.65498 85.4538 12.6031 86.4125 14.1707 84.6539C14.8309 83.9133 14.7825 80.0734 14.0137 72.1151C12.7136 58.6719 12.8898 58.2489 20.2497 57.1632C25.8027 56.3438 25.3279 55.3206 26.8946 71.4749C28.098 83.8785 29.4767 86.8437 33.6072 85.9168C35.1913 85.5614 37.2739 84.3886 38.2353 83.309C39.9399 81.3968 39.9445 81.0322 38.4234 68.7392C37.5651 61.804 36.3609 45.621 35.7464 32.778C34.544 7.63588 34.5166 7.52628 29.4383 7.4935C27.7666 7.48326 26.4472 8.33748 25.4219 10.092ZM58.3008 8.9469C54.9537 10.5816 55.2394 9.46825 51.5727 35.1327C50.0023 46.1177 47.9197 60.4797 46.9428 67.0492C44.7187 82.0082 44.7178 83.9543 46.9328 85.2848C49.4947 86.8232 54.8094 86.5846 56.0749 84.8741C56.6738 84.0649 57.5421 78.9089 58.005 73.4169C58.5081 67.4517 59.3097 63.1007 59.9963 62.6121C61.5064 61.5367 72.3175 61.5234 72.9092 62.5968C73.1612 63.0546 73.7912 68.055 74.3088 73.7088C75.472 86.434 75.7825 87.3691 78.8429 87.3691C82.5361 87.3691 85.34 84.6877 85.34 81.1551C85.34 70.4015 74.475 11.824 71.9569 8.99812C70.2395 7.07254 62.2022 7.04181 58.3008 8.9469ZM216.887 8.77381C215.552 9.53789 214.226 11.6601 213.537 14.1357C212.909 16.3891 210.734 24.2317 208.7 31.5643C206.667 38.8968 204.419 45.792 203.704 46.888C202.538 48.6773 202.351 47.8948 201.867 39.1897C200.126 7.89705 200.322 9.64339 198.487 8.98992C197.536 8.65192 195.621 8.98992 194.233 9.74172L191.707 11.1091L192.019 42.326C192.229 63.2308 192.683 74.3879 193.395 76.1025C194.212 78.067 195.272 78.7378 197.947 78.9857C202.845 79.4384 205.39 77.2271 206.704 71.3735C208.493 63.4008 215.961 40.8828 217.351 39.2666C218.467 37.9699 218.637 38.8712 218.609 45.9241C218.591 50.4103 218.2 60.2083 217.739 67.6965C217.279 75.1847 217.127 81.9652 217.4 82.7652C218.178 85.0369 220.538 85.3801 225.489 83.9379C230.893 82.3647 230.535 85.8502 228.866 51.0085C227.1 14.1245 226.937 12.5942 224.495 9.85439C222.122 7.19238 220.141 6.91071 216.887 8.77381ZM388.166 11.0312C386.893 12.458 386.638 14.9756 386.638 26.0548C386.638 33.3751 386.241 40.1945 385.758 41.2085C384.65 43.5315 376.156 45.0443 374.241 43.2601C373.211 42.3014 373.078 39.4489 373.55 28.3983C373.994 18.0207 373.854 14.3447 372.971 13.1494C371.57 11.2556 364.677 11.0149 363.082 12.8042C361.479 14.6018 361.554 76.6177 363.163 80.1994C364.133 82.3606 365.053 82.8082 369.057 83.0683L373.801 83.3766L374.312 56.1297L378.42 55.4465C385.663 54.243 385.543 54.0239 385.881 69.0157C386.221 84.11 386.398 84.4818 393.029 84.0516L397.137 83.7843L397.031 75.5903C396.973 71.0837 397.316 55.2386 397.795 40.3789C398.76 10.3849 398.857 10.9841 392.896 9.89945C390.594 9.48054 389.265 9.79806 388.166 11.0312ZM627.314 11.8312C626.591 13.0982 625.514 16.1985 624.92 18.7192C623.645 24.1457 619.519 33.5861 616.851 37.1843L614.955 39.7418L614.924 27.2676C614.888 12.4621 614.211 10.9483 608.117 12.0319C601.641 13.1842 601.531 13.5959 603.266 30.2542C605.426 50.9993 605.79 59.8108 604.968 71.4934C604.572 77.1267 604.593 82.5224 605.016 83.4832C605.959 85.6259 611.054 87.321 614.398 86.604C618.492 85.7263 618.988 82.8195 617.358 69.2288C615.756 55.8716 616.176 53.9983 620.048 57.241C623.286 59.9532 627.269 68.0775 628.979 75.4562C630.66 82.715 631.718 84.2964 634.889 84.2964C638.539 84.2964 641.371 81.6078 641.371 78.1417C641.371 74.4729 635.198 61.0799 630.104 53.6961C628.015 50.6674 625.744 47.3274 625.056 46.2744C623.704 44.2024 623.073 45.6527 634.402 24.7776C636.728 20.4901 638.632 16.26 638.632 15.3771C638.632 13.0162 634.215 9.52663 631.226 9.52663C629.534 9.52663 628.173 10.3286 627.314 11.8312ZM515.374 11.8732C513.499 12.9343 512.26 15.9077 508.444 28.5018C499.952 56.5271 498.241 57.156 500.244 31.5192C501.212 19.1289 501.316 13.8561 500.612 12.9036C499.221 11.0241 493.031 11.2238 491.572 13.1965C490.667 14.4215 490.276 21.9128 489.975 43.8378C489.756 59.7985 489.846 74.4626 490.174 76.4241C490.881 80.6552 493.754 81.9509 498.516 80.1871C501.467 79.0943 501.706 78.5729 506.238 63.3179C510.78 48.0331 512.441 44.4871 514.421 45.8596C515.587 46.6678 515.599 56.649 514.454 70.9085C513.472 83.1349 513.864 84.2964 518.963 84.2964C525.859 84.2964 525.608 85.7467 525.266 47.7862C524.936 11.2095 524.842 10.5355 520.056 10.5662C518.736 10.5744 516.629 11.1623 515.374 11.8732ZM449.865 12.7223C448.574 14.2044 448.285 44.0242 449.326 68.3551C449.895 81.6764 450.04 82.4978 451.995 83.4975C454.569 84.8137 460.246 83.7116 460.912 81.7665C461.365 80.4422 460.698 64.8173 459.152 40.51L458.549 31.0357L462.082 31.047C464.025 31.0532 467.155 31.344 469.038 31.6933L472.462 32.3283L472.432 41.6684C472.415 46.805 472.032 58.1423 471.58 66.8617C471.014 77.7802 471.058 83.1206 471.721 84.0178C472.788 85.4589 479.553 85.7662 481.393 84.4562C483.026 83.2937 483.811 15.2491 482.207 13.8018C481.618 13.2692 474.356 12.5143 466.071 12.1221C454.357 11.569 450.752 11.7021 449.865 12.7223ZM578.696 13.2784C575.706 13.98 574.262 16.3839 570.751 26.5045C566.647 38.3335 565.236 47.4912 565.803 58.6412C566.613 74.5835 573.069 85.3207 581.844 85.3207C587.712 85.3207 594.865 76.9075 597.05 67.4374C599.77 55.6504 598.286 29.3294 594.429 20.9633C591.992 15.6772 584.358 11.9479 578.696 13.2784ZM531.581 15.3546C529.655 15.9179 528.84 19.0838 529.234 24.4714L529.526 28.4669L534.547 29.3355C537.309 29.8128 539.921 30.5789 540.352 31.0368C540.787 31.4997 540.671 41.9296 540.091 54.4981C539.382 69.8669 539.344 77.7474 539.973 79.0666C542.002 83.3183 549.902 83.8099 551.283 79.7713C551.586 78.8864 551.577 67.5582 551.263 54.5985L550.691 31.0357H557.62C565.259 31.0357 567.416 29.7647 567.416 25.2621C567.416 21.6363 565.974 19.0726 563.56 18.4089C561.698 17.8967 548.266 16.2907 537.286 15.2685C535.027 15.0586 532.459 15.0965 531.581 15.3546ZM63.327 29.6356C62.6459 30.5554 61.6105 35.5096 61.0244 40.6462C59.7096 52.1782 60.1524 53.0478 66.7015 51.7808L71.1881 50.9132L70.969 45.8391C70.5444 35.9869 67.9999 27.963 65.3 27.963C64.8956 27.963 64.0072 28.7158 63.327 29.6356ZM315.089 30.2041C313.725 32.5772 311.067 49.0256 311.898 49.9566C312.471 50.6009 315.104 50.861 318.976 50.6582L322.074 50.4964L321.579 42.4018C320.852 30.5113 317.998 25.1453 315.089 30.2041ZM420.982 31.2918C420.263 32.5598 419.014 37.259 418.204 41.735C416.362 51.9324 416.978 53.0652 423.694 51.8105C428.069 50.9931 428.188 50.8764 428.466 47.1092C428.844 41.9921 427.029 32.4513 425.311 30.5247C423.44 28.425 422.513 28.5888 420.982 31.2918ZM579.059 36.8504C576.526 42.8104 576.09 44.9685 576.09 51.5206C576.09 61.1895 578.328 66.3721 582.503 66.3721C584.639 66.3721 585.551 65.5947 587.142 62.4124C590.822 55.0512 590.704 43.6227 586.851 34.4434C584.247 28.2396 582.486 28.7834 579.059 36.8504Z" stroke="#39FF14" stroke-width="2.73894"/>
<path d="M485.095 109.793C481.815 107.824 480.815 105.911 481.738 103.366C482.116 102.32 482.92 102.15 485.303 102.611C489.198 103.365 493.308 103.368 497.125 102.621C502.597 101.551 502.531 107.068 497.036 110.038C492.828 112.313 489.17 112.238 485.095 109.793Z" stroke="#39FF14" stroke-width="2.73894"/>
<path d="M399.54 114.843L402.419 113.319C404.003 112.481 406.086 111.794 407.049 111.794C410.529 111.79 410.936 113.603 410.376 126.643C409.956 136.424 410.067 138.813 410.94 138.813C411.537 138.813 414.161 135.671 416.771 131.83C426.783 117.096 429.521 114.851 434.858 117C439.387 118.825 437.256 123.205 425.156 136.938C421.247 141.376 418.048 145.345 418.048 145.761C418.048 146.176 419.508 148.125 421.292 150.092C428.666 158.227 437.871 178.465 436.612 183.78C436.055 186.131 430.816 189.369 427.57 189.369C424.911 189.369 424.144 187.681 423.411 180.217C422.278 168.681 414.788 152.765 411.504 154.915C410.32 155.69 410.407 172.177 411.635 179.762C412.813 187.047 412.443 187.699 406.785 188.274C403.464 188.613 402.564 188.368 401.185 186.753C399.598 184.898 399.54 183.598 399.54 149.836V114.843Z" stroke="#39FF14" stroke-width="2.73894"/>
<path d="M335.458 126.484C339.202 120.421 342.752 115.255 343.347 115.003C346.523 113.657 352.242 115.041 352.242 117.157C352.242 118.919 343.254 133.983 338.28 140.557C335.56 144.152 333.332 147.75 333.328 148.552C333.325 149.355 334.199 151.12 335.27 152.475C340.469 159.05 349.996 176.265 351.489 181.781C352.444 185.312 350.046 187.63 345.456 187.613C343.532 187.605 341.536 187.311 341.019 186.959C340.5 186.607 339.091 183.18 337.886 179.345C334.479 168.5 327.093 156.246 324.85 157.716C324.324 158.06 324.223 163.016 324.57 171.536C325.169 186.255 325.294 185.883 319.729 185.883C318.028 185.883 316.157 185.127 314.871 183.921C312.93 182.1 312.718 181.121 311.898 170.193C311.412 163.721 311.229 154.699 311.491 150.145C312.473 133.074 313.886 119.528 314.828 118.162C315.444 117.27 317.445 116.607 320.276 116.358C327.059 115.762 327.333 116.423 325.734 129.5C325.019 135.342 324.582 140.282 324.761 140.479C325.573 141.37 329.178 136.654 335.458 126.484Z" stroke="#39FF14" stroke-width="2.73894"/>
<path d="M492.911 132.306C494.888 124.724 496.63 119.711 497.53 119.014C498.326 118.397 500.562 117.894 502.501 117.894C508.055 117.894 508.183 118.394 509.671 145.787C510.39 159.051 511.516 172.093 512.19 174.987C513.789 181.849 513.767 184.959 512.106 186.903C510.102 189.251 505.62 188.978 503.148 186.358C501.156 184.247 501.129 184.008 501.12 168.707C501.109 150.434 500.687 146.658 498.655 146.658C496.416 146.658 492.583 157.784 488.293 176.73C486.581 184.286 485.364 185.883 481.318 185.883C475.28 185.883 475.089 185.064 474.452 156.538C474.214 145.911 473.605 134.384 473.099 130.922C471.978 123.268 472.7 121.093 476.84 119.645C481.666 117.957 481.969 118.729 482.567 134.269C483.238 151.715 483.758 156.424 484.966 156.005C486.221 155.57 489.029 147.193 492.911 132.306Z" stroke="#39FF14" stroke-width="2.73894"/>
<path fill-rule="evenodd" clip-rule="evenodd" d="M449.306 117.637C445.356 119.168 442.327 124.273 439.324 134.466C437.669 140.078 437.398 142.824 437.39 154.067C437.378 167.809 437.771 169.868 441.676 176.544C446.769 185.25 457.649 185.561 463.293 177.163C469.246 168.303 470.563 142.596 465.76 128.994C462.742 120.446 455.306 115.314 449.306 117.637ZM447.124 162.454C444.996 154.698 446.938 139.545 450.611 135.244C451.391 134.33 452.527 133.583 453.136 133.583C457.746 133.583 461.042 146.574 459.23 157.6C458.057 164.739 456.474 168.204 453.794 169.497C450.971 170.86 448.801 168.569 447.124 162.454Z" stroke="#39FF14" stroke-width="2.73894"/>
<path fill-rule="evenodd" clip-rule="evenodd" d="M370.384 114.713C368.826 115.332 366.907 116.79 366.121 117.956C363.401 121.983 356.346 159.932 355.072 177.388C354.416 186.372 354.995 187.626 359.8 187.626C365.839 187.626 366.224 186.985 366.238 176.918C366.255 164.555 366.741 163.724 374.139 163.402C378.342 163.219 380.216 163.485 380.904 164.363C381.428 165.032 382.084 169.853 382.364 175.077C382.95 186.025 383.93 188.497 387.686 188.497C390.32 188.497 393.369 187.149 394.387 185.534C395.555 183.68 394.955 179.963 388.816 151.016C385.41 134.956 382.408 120.758 382.144 119.464C381.166 114.65 375.899 112.523 370.384 114.713ZM368.159 154.228C367.2 153.21 369.956 137.382 371.539 134.824C373.191 132.151 375.311 132.364 376.649 135.337C378.325 139.061 380.655 152.639 379.775 153.556C378.78 154.591 369.035 155.155 368.159 154.228Z" stroke="#39FF14" stroke-width="2.73894"/>
<path d="M258.301 105.386C261.061 105.856 262.351 105.548 264.229 103.976C269.185 99.8215 273.313 104.481 269.005 109.366C265.658 113.161 262.197 114.211 257.954 112.719C250.955 110.258 251.241 104.183 258.301 105.386Z" stroke="#39FF14" stroke-width="2.73894"/>
<path d="M30.1846 125.069C32.7131 117.381 34.1701 114.293 35.5549 113.697C36.5999 113.246 39.0023 112.85 40.8941 112.816C43.8227 112.764 44.6019 113.224 46.1429 115.917C47.8502 118.9 47.9507 120.851 47.9169 150.219C47.8812 180.589 47.3733 188.697 45.3719 190.829C43.8236 192.478 36.1742 192.309 35.0982 190.602C34.5254 189.694 34.4048 185.278 34.7794 178.925C36.9297 142.423 36.8694 140.228 33.8495 145.137C31.7339 148.578 24.1201 167.274 21.081 176.492C18.1268 185.452 16.2195 187.688 11.548 187.668C7.13688 187.648 6.36225 187 4.03017 181.384C2.27539 177.159 2.11462 175.548 2.62434 167.308C2.94131 162.191 3.61636 150.027 4.12425 140.278C4.63214 130.528 5.4369 121.464 5.91099 120.135C6.51936 118.431 7.88411 117.399 10.5368 116.638C17.1622 114.738 17.2216 114.957 16.4597 138.271C15.8011 158.417 16.1958 161.517 18.6941 155.814C21.6382 149.095 27.0194 134.696 30.1846 125.069Z" stroke="#39FF14" stroke-width="2.73894"/>
<path d="M120.124 124.509C120.124 121.961 123.631 117.6 126.897 116.084C133.305 113.112 142.318 115.429 146.529 121.13C151.42 127.755 151.232 136.877 146.037 144.92C142.988 149.643 142.908 149.967 144.491 151.243C145.408 151.984 146.412 152.604 146.721 152.62C147.032 152.638 148.411 154.465 149.789 156.681C152.717 161.396 153.755 169.49 152.21 175.571C150.909 180.693 145.416 187.471 140.728 189.74C133.897 193.045 124.374 191.533 121.978 186.763C120.328 183.479 120.888 179.413 123.328 176.972C125.564 174.734 125.695 174.718 128.84 176.315C132.668 178.26 133.875 178.329 137.049 176.789C142.236 174.271 143.81 164.671 139.839 159.761C137.847 157.296 137.116 157.05 132.343 157.226C129.434 157.334 126.523 156.952 125.873 156.377C124.361 155.04 124.331 147.353 125.833 146.094C126.461 145.567 128.581 144.874 130.543 144.551C134.879 143.841 139.085 139.818 139.813 135.685C140.563 131.427 138.929 127.531 136.075 126.768C133.745 126.145 132.373 126.651 127.15 130.057C124.626 131.703 124.548 131.685 122.355 129C121.128 127.498 120.124 125.477 120.124 124.509Z" stroke="#39FF14" stroke-width="2.73894"/>
<path d="M102.761 126.071C102.765 122.423 103.194 118.591 103.713 117.556C104.974 115.047 109.16 115.114 112.236 117.691C115.163 120.143 115.255 122.415 113.232 142.233C110.161 172.315 104.189 187.336 93.1765 192.678C83.0882 197.573 70.9765 191.042 75.7503 183.281C77.21 180.908 77.7087 180.733 81.348 181.314C88.4886 182.455 94.6837 176.916 97.3511 167.009C97.9878 164.647 97.7274 163.901 95.6392 162.102C87.9232 155.452 81.9427 147.938 80.028 142.486C77.3972 134.995 75.7768 122.382 77.1049 119.737C78.297 117.365 82.1491 116.356 85.8688 117.441L88.6092 118.241L89.1655 127.91C89.6113 135.668 90.1995 138.582 92.1416 142.665C94.723 148.092 98.5751 151.669 100.096 150.048C101.202 148.87 102.751 134.927 102.761 126.071Z" stroke="#39FF14" stroke-width="2.73894"/>
<path d="M264.575 138.055C268.943 121.089 270.212 117.829 272.901 116.678C275.605 115.519 275.82 115.516 278.496 116.6C282.408 118.186 282.94 120.771 283.702 141.899C284.099 152.898 284.704 166.773 285.045 172.733C285.632 182.935 285.555 183.691 283.738 185.626C281.308 188.215 277.784 188.262 275.414 185.736C273.717 183.929 273.586 182.481 273.573 165.545C273.552 138.687 272.053 138.296 264.937 163.297C262.567 171.625 260.223 179.86 259.729 181.598C258.017 187.623 251.616 189.667 247.66 185.452C245.64 183.301 245.543 182.43 244.935 160.882C244.588 148.595 244.05 134.933 243.739 130.523L243.174 122.506L246.635 120.966C248.538 120.118 251.001 119.667 252.107 119.962C254.025 120.475 254.145 121.141 254.714 134.387C255.042 142.023 255.312 151.667 255.314 155.814C255.315 159.961 255.699 163.355 256.165 163.355C257.383 163.355 260.399 154.282 264.575 138.055Z" stroke="#39FF14" stroke-width="2.73894"/>
<path d="M158.37 121.307C159.015 119.536 160.318 118.387 162.335 117.81C163.989 117.338 166.163 117.265 167.167 117.647C168.881 118.3 168.994 119.224 168.994 132.496C168.994 140.281 169.339 147.014 169.759 147.461C170.872 148.642 181.324 148.027 182.834 146.691C183.878 145.768 184.004 143.211 183.501 133.077C182.796 118.846 183.198 117.62 188.571 117.62C194.948 117.62 194.806 117.006 195.406 147.299C195.702 162.285 196.197 177.977 196.504 182.171C196.834 186.674 196.698 190.185 196.173 190.745C194.884 192.118 187.948 192.014 186.346 190.598C185.258 189.636 184.98 186.729 184.98 176.309C184.98 169.114 184.554 162.38 184.035 161.345C183.298 159.878 182.104 159.463 178.613 159.463C176.151 159.463 173.083 159.89 171.794 160.412C169.783 161.227 169.451 161.949 169.454 165.521C169.456 167.808 170.094 173.561 170.873 178.304C172.191 186.331 172.182 187.055 170.728 188.765C168.54 191.341 162.955 191.224 160.687 188.554C159.09 186.674 158.885 183.955 158.179 155.226C157.652 133.784 157.712 123.115 158.37 121.307Z" stroke="#39FF14" stroke-width="2.73894"/>
<path fill-rule="evenodd" clip-rule="evenodd" d="M218.133 115.311C214.737 117.094 214.62 117.424 210.125 137.761C205.978 156.524 203.436 171.249 202.682 180.88C202.105 188.247 202.151 188.482 204.453 190.088C207.095 191.933 209.529 191.479 211.89 188.7C213.069 187.311 213.59 184.399 213.97 177.05C214.249 171.661 214.931 166.873 215.485 166.411C216.041 165.949 218.39 165.307 220.707 164.986C227.183 164.089 227.791 165.025 228.492 176.979C229.242 189.772 229.82 191.575 233.168 191.575C234.576 191.575 236.693 190.855 237.873 189.975C238.249 189.695 238.57 189.47 238.83 189.189C240.343 187.552 239.78 183.997 235.724 156.4C229.629 114.921 229.308 113.717 224.377 113.75C222.554 113.762 219.744 114.465 218.133 115.311ZM217.325 145.395C218.093 140.705 219.196 136.259 219.776 135.515C221.25 133.623 222.187 133.822 223.701 136.352C225.202 138.858 227.251 151.795 226.484 153.923C225.745 155.975 218.799 156.984 217.194 155.272C216.114 154.123 216.134 152.664 217.325 145.395Z" stroke="#39FF14" stroke-width="2.73894"/>
<path d="M210.996 217.364C207.759 216.474 208.088 212.114 211.495 210.751C216.01 208.944 227.551 213.934 227.551 217.693C227.551 218.765 226.274 218.882 220.029 218.382C215.892 218.051 211.828 217.593 210.996 217.364Z" stroke="#39FF14" stroke-width="2.73894"/>
<path d="M84.7339 223.906C85.1022 222.471 86.1032 221.45 87.3769 221.21C91.0028 220.527 92.4533 220.564 94.697 221.398L96.8961 222.216L97.5161 245.236C97.857 257.898 98.674 272.468 99.3313 277.614C99.9886 282.761 100.23 287.773 99.8674 288.754C98.1725 293.337 90.6965 296.106 87.7616 293.237C86.5144 292.018 86.2382 289.923 86.2491 281.784C86.2573 276.304 85.786 261.56 85.2016 249.019C84.6181 236.478 84.4075 225.177 84.7339 223.906Z" stroke="#39FF14" stroke-width="2.73894"/>
<path d="M171.952 225.9C172.51 224.88 173.864 223.692 174.959 223.261C177.789 222.146 190.876 222.193 195.076 223.333L198.612 224.294L198 230.141C197.028 239.415 196.865 239.555 187.905 238.826C178.649 238.072 178.319 238.425 178.319 249.039V256.227L184.017 256.24C190.896 256.257 191.908 256.799 192.576 260.823C193.298 265.171 191.3 266.921 185.612 266.921C182.802 266.921 180.661 267.432 179.751 268.321C177.147 270.867 178.396 278.421 181.708 280.153C182.789 280.718 185.95 280.684 190.817 280.056C199.859 278.89 201.111 279.525 201.111 285.277C201.111 290.006 199.447 291.303 191.599 292.695C179.359 294.866 170.993 293.359 169.162 288.653C167.225 283.671 169.603 230.191 171.952 225.9Z" stroke="#39FF14" stroke-width="2.73894"/>
<path d="M3.48094 227.136C4.09908 226.764 7.48428 226.197 11.0026 225.878C14.5218 225.559 23.2241 225.239 30.341 225.168C42.7549 225.042 43.3393 225.117 44.7005 227.018C45.4809 228.107 46.12 230.69 46.12 232.76C46.12 237.895 43.9492 239.295 35.9854 239.295C31.9547 239.295 29.7611 239.67 29.4794 240.409C28.7728 242.264 30.6418 273.075 31.9519 281.179C32.9731 287.495 32.9749 289.066 31.9602 290.635C30.0054 293.66 21.8 294.708 19.2892 292.255C18.0556 291.048 17.8569 287.398 17.8569 265.906V240.957L10.9652 241.208C5.69825 241.399 3.8748 241.151 3.22931 240.154C1.95382 238.182 2.15166 227.94 3.48094 227.136Z" stroke="#39FF14" stroke-width="2.73894"/>
<path d="M206.174 230.46C205.24 228.982 206.459 226.099 208.22 225.623C209.074 225.392 211.619 225.266 213.875 225.343L217.978 225.482V233.057C217.978 237.223 217.773 245.807 217.522 252.131C217.199 260.3 217.367 263.732 218.107 263.981C218.748 264.196 221.475 257.366 225.227 246.145C228.572 236.142 231.776 227.502 232.348 226.943C232.918 226.385 234.881 225.928 236.709 225.928C242.623 225.928 242.766 226.46 243.415 250.88C243.734 262.888 244.239 276.558 244.537 281.258C245.077 289.785 245.073 289.808 242.573 291.729C241.196 292.789 238.944 293.655 237.569 293.655C232.924 293.655 232.566 292.229 232.566 273.765C232.566 261.123 232.28 256.741 231.439 256.461C230.05 256 229.717 256.794 223.85 274.576C218.461 290.902 217.198 293.061 213.029 293.061C207.048 293.061 207.082 293.245 206.932 260.75C206.857 244.631 206.516 231.001 206.174 230.46Z" stroke="#39FF14" stroke-width="2.73894"/>
<path fill-rule="evenodd" clip-rule="evenodd" d="M133.693 217.297C130.779 219.291 130.869 225.677 130.513 256.84C130.179 286.172 129.841 294.011 132.486 295.198C133.659 295.724 135.418 294.943 138.023 294.149C145.517 291.862 145.622 291.718 145.087 284.391C144.832 280.909 144.392 273.596 144.107 268.142L143.59 258.223L147.008 257.596C154.178 256.281 159.782 252.064 163.476 245.204C165.47 241.5 165.484 231.77 163.501 228.089C161.636 224.625 155.293 218.984 151.551 217.46C147.567 215.839 141.063 215.21 137.409 216.093C135.807 216.48 134.604 216.675 133.693 217.297ZM143.502 244.831C142.08 243.441 142.264 228.925 143.726 227.203C146.753 223.638 153.702 227.9 153.702 233.322C153.702 239.964 146.657 247.914 143.502 244.831Z" stroke="#39FF14" stroke-width="2.73894"/>
<path fill-rule="evenodd" clip-rule="evenodd" d="M52.2175 223.477C50.8171 224.486 50.6694 227.494 50.6494 255.464C50.6248 288.837 50.9439 293.254 53.4757 294.578C59.5459 297.754 73.1223 290.635 78.7083 281.346C80.9493 277.621 81.221 276.301 81.2173 269.149C81.2146 263.335 80.7943 260.378 79.6875 258.4C77.2277 254.004 72.4594 250.025 68.4953 249.063C65.8104 248.411 64.242 248.084 63.3478 247.127C62.0354 245.722 62.1753 242.961 62.3695 235.82L62.6648 225L59.4356 223.682C55.4979 222.074 54.2151 222.037 52.2175 223.477ZM63.8127 276.314C62.5391 274.611 61.1113 262.37 61.941 260.257C62.4935 258.85 66.7603 258.415 68.5481 259.582C73.3155 262.694 72.247 274.025 66.9244 276.81C65.3106 277.654 64.7482 277.564 63.8127 276.314Z" stroke="#39FF14" stroke-width="2.73894"/>
<path fill-rule="evenodd" clip-rule="evenodd" d="M251.574 228.374C251.901 227.101 252.887 225.875 253.764 225.651C254.641 225.427 258.487 225.197 262.309 225.14C270.338 225.021 275.98 226.647 279.846 230.196C286.872 236.644 286.524 246.532 278.999 254.208L275.239 258.044L277.607 258.545C286.686 260.464 291.371 265.818 291.371 274.272C291.371 285.686 280.369 293.655 264.607 293.655C255.571 293.655 254.366 292.808 253.054 285.525C251.993 279.648 250.75 231.586 251.574 228.374ZM264.248 238.103C263.493 238.401 263.108 240.597 263.108 244.607C263.108 251.136 264.139 252.933 267.211 251.761C269.647 250.831 273.69 246.474 274.478 243.93C275.536 240.51 272.836 237.5 268.785 237.583C266.916 237.622 264.875 237.856 264.248 238.103ZM265.172 275.814C264.725 270.992 264.894 270.038 266.387 268.944C268.405 267.464 275.11 267.866 277.239 269.594C280.872 272.541 277.308 280.534 271.272 282.978C267.299 284.587 265.826 282.857 265.172 275.814Z" stroke="#39FF14" stroke-width="2.73894"/>
</svg>
