<svg width="640" height="209" viewBox="0 0 640 209" fill="none" xmlns="http://www.w3.org/2000/svg">
<path fill-rule="evenodd" clip-rule="evenodd" d="M547.508 0.0486819C512.21 0.313991 405.184 1.84312 309.672 3.44944C117.168 6.68621 16.4727 6.43055 12.8485 2.69211C1.33802 -9.17441 -9.05734 56.0522 12.7028 179.276C15.7984 196.818 19.0262 205.585 23.2053 207.801C28.1093 210.404 67.5621 208.195 164.327 206.574C229.732 205.476 363.514 204.673 461.623 204.787C559.732 204.9 640 204.085 640 202.978C640 201.868 638.63 200.961 636.957 200.961C633.386 200.961 625.881 167.468 622.91 138.252C621.762 126.977 618.191 100.473 614.971 79.3564C610.233 48.2863 608.926 37.6888 612.483 22.1586C614.899 11.6017 615.476 2.28943 613.766 1.46215C612.056 0.634869 582.806 -0.214215 547.508 0.0486819ZM119.444 8.82072C178.39 8.60124 271.637 7.42183 326.66 6.19417C381.683 4.96893 468.12 3.78953 518.737 3.57728L609.746 3.57738L606.593 18.6517C602.916 36.2223 604.88 65.787 609.746 86.3967C611.626 94.3559 614.193 113.892 615.454 129.811C617.587 156.73 622.925 186.777 627.349 196.798C629.143 200.855 621.185 201.046 475.119 200.416C390.351 200.054 257.861 200.742 180.693 201.948L24.2133 206.574L21.8991 195.94C12.1629 151.192 19.7647 90.8879 14.7022 35.747L12.2672 9.21627L119.444 8.82072Z" fill="white"/>
<path d="M326.66 6.19417C271.637 7.42183 178.39 8.60124 119.444 8.82072L12.2672 9.21627L14.7022 35.747C19.7647 90.8879 12.1629 151.192 21.8991 195.94L24.2133 206.574L180.693 201.948C257.861 200.742 390.351 200.054 475.119 200.416C621.185 201.046 629.143 200.855 627.349 196.798C622.925 186.777 617.587 156.73 615.454 129.811C614.193 113.892 611.626 94.3559 609.746 86.3967C604.88 65.787 602.916 36.2223 606.593 18.6517L609.746 3.57738L518.737 3.57728C468.12 3.78953 381.683 4.96893 326.66 6.19417Z" fill="white"/>
</svg>
